<svg width="122" height="122" viewBox="0 0 122 122" fill="none" xmlns="http://www.w3.org/2000/svg">
<circle cx="60.6083" cy="60.6083" r="60.6083" fill="url(#paint0_linear_168:1355)"/>
<path fill-rule="evenodd" clip-rule="evenodd" d="M58.6999 34.5553L51.9417 52.3635H32.4326C30.3656 52.3635 29.5169 54.746 31.197 55.8246L47.2011 66.0538C47.8842 66.4905 48.8324 66.3473 49.3188 65.7342C49.8053 65.121 49.6458 64.27 48.9627 63.8334L35.2824 55.0894H52.3792C53.4172 55.0894 54.3457 54.4947 54.678 53.6072L60.6069 37.9842L64.6746 48.7215C64.9445 49.4342 65.807 49.8155 66.601 49.5732C67.395 49.3308 67.8198 48.5566 67.5498 47.844L62.5176 34.5606C61.8903 32.9267 59.3251 32.9267 58.6999 34.5553ZM42.722 87.325C40.9753 88.7891 38.8262 86.9343 39.4709 85.2159L45.3474 69.7381C45.6179 69.0256 46.4807 68.6448 47.2745 68.8876C48.0683 69.1304 48.4925 69.9049 48.222 70.6174L43.3816 83.3663L59.266 71.9645C60.0332 71.3218 61.1943 71.3218 61.8611 71.8966L77.8347 83.3708L71.3601 66.3169C71.0095 65.4019 71.3761 64.3893 72.2523 63.8337L85.9326 55.0898H68.2011C67.3625 55.0898 66.6827 54.4796 66.6827 53.7268C66.6827 52.9741 67.3625 52.3638 68.2011 52.3638H88.7824C90.8496 52.3638 91.7038 54.7496 90.0155 55.8266L74.38 65.8202L81.7454 85.2206C82.388 86.9333 80.2472 88.785 78.5803 87.3931L60.6113 74.4841L42.722 87.325ZM40.7372 85.2651L40.8979 85.1498C40.8438 85.1822 40.7901 85.2204 40.7372 85.2651ZM80.5609 85.3292C80.503 85.281 80.4447 85.2394 80.3863 85.2038L80.5609 85.3292Z" fill="white"/>
<defs>
<linearGradient id="paint0_linear_168:1355" x1="142.051" y1="142.051" x2="2.15906e-06" y2="-7.57604" gradientUnits="userSpaceOnUse">
<stop stop-color="#04091C"/>
<stop offset="1" stop-color="#164F85"/>
</linearGradient>
</defs>
</svg>
