<svg width="122" height="122" viewBox="0 0 122 122" fill="none" xmlns="http://www.w3.org/2000/svg">
<circle cx="60.6083" cy="60.6083" r="60.6083" fill="url(#paint0_linear_168:1356)"/>
<path fill-rule="evenodd" clip-rule="evenodd" d="M42.4275 71.9722C46.6565 71.9722 50.4507 69.4399 52.2558 65.5429C52.6921 64.6008 53.7791 64.2055 54.6835 64.6601C55.5879 65.1147 55.9673 66.2469 55.531 67.189C53.1248 72.3836 48.0655 75.7602 42.4275 75.7602C35.0098 75.7602 28.889 69.9767 27.9941 62.5024H26.0614C25.0572 62.5024 24.2432 61.6545 24.2432 60.6084C24.2432 59.5624 25.0572 58.7144 26.0614 58.7144H27.994C28.8886 51.2399 35.0096 45.4561 42.4275 45.4561C49.3571 45.4561 55.158 50.5076 56.6187 57.2683C60.1404 55.5783 64.449 56.2457 67.3492 59.2704C67.7211 59.6582 67.8979 60.1722 67.8797 60.6799C67.9168 66.9217 72.7891 71.9722 78.789 71.9722C84.8141 71.9722 89.6984 66.8843 89.6984 60.6081C89.6984 54.3319 84.8141 49.2441 78.789 49.2441C75.2021 49.2441 71.9082 51.062 69.8734 54.0609C69.2938 54.9151 68.1591 55.1181 67.3391 54.5144C66.5191 53.9106 66.3242 52.7287 66.9038 51.8745C69.6129 47.8819 74.0082 45.4561 78.789 45.4561C86.2068 45.4561 92.3278 51.2399 93.2224 58.7144H95.1552C96.1593 58.7144 96.9734 59.5624 96.9734 60.6084C96.9734 61.6545 96.1593 62.5024 95.1552 62.5024H93.2224C92.3275 69.9767 86.2066 75.7602 78.789 75.7602C71.0365 75.7602 64.6969 69.4379 64.2663 61.4731C61.9666 59.571 58.6167 59.7161 56.4772 61.9085C56.2448 62.1648 55.9445 62.3535 55.6063 62.4434C55.0047 62.604 54.3396 62.4392 53.8683 61.9489C53.4926 61.558 53.3153 61.0384 53.3367 60.5261C53.2943 54.289 48.4241 49.2441 42.4275 49.2441C36.4023 49.2441 31.518 54.3319 31.518 60.6081C31.518 66.8843 36.4023 71.9722 42.4275 71.9722ZM42.4255 56.8202C40.4172 56.8202 38.789 58.5155 38.789 60.6082C38.789 61.6543 37.9749 62.5023 36.9707 62.5023C35.9665 62.5023 35.1525 61.6543 35.1525 60.6082C35.1525 56.4231 38.4092 53.0322 42.4255 53.0322C43.4297 53.0322 44.2437 53.8802 44.2437 54.9262C44.2437 55.9722 43.4297 56.8202 42.4255 56.8202Z" fill="white"/>
<defs>
<linearGradient id="paint0_linear_168:1356" x1="142.051" y1="142.051" x2="2.15906e-06" y2="-7.57604" gradientUnits="userSpaceOnUse">
<stop stop-color="#04091C"/>
<stop offset="1" stop-color="#164F85"/>
</linearGradient>
</defs>
</svg>
