<svg width="122" height="122" viewBox="0 0 122 122" fill="none" xmlns="http://www.w3.org/2000/svg">
<circle cx="60.6083" cy="60.6083" r="60.6083" fill="url(#paint0_linear_168:1352)"/>
<path fill-rule="evenodd" clip-rule="evenodd" d="M62.7913 67.0955L62.7903 52.0507L82.6952 46.7118C83.5029 46.4951 83.9822 45.6642 83.7657 44.8559C83.5492 44.0476 82.719 43.568 81.9113 43.7846L62.79 48.9133L62.7895 41.1599C62.7895 40.4733 63.2494 39.8735 63.9108 39.6962L87.4575 33.3898C88.184 33.1949 88.5802 33.4852 88.5802 34.1444V78.7258C88.5802 79.7044 87.6917 80.8318 86.674 81.1049L61.65 87.8081C61.3121 87.903 61.2275 87.9023 60.9295 87.8161L35.9345 81.1049C34.9167 80.8318 34.0281 79.7044 34.0281 78.7258V34.1444C34.0281 33.4852 34.4244 33.1949 35.1501 33.3897L54.7115 38.6444C55.5191 38.8613 56.3496 38.382 56.5663 37.5738C56.7831 36.7655 56.3042 35.9345 55.4966 35.7175L35.9347 30.4627C33.3171 29.7603 31 31.4579 31 34.1444V78.7258C31 81.0927 32.8246 83.408 35.1501 84.032L60.117 90.7353C60.9245 90.9691 61.5836 90.9743 62.4508 90.7307L87.4576 84.0321C89.7838 83.408 91.6083 81.0927 91.6083 78.7258V34.1444C91.6083 31.4579 89.2912 29.7603 86.674 30.4626L63.1278 36.7688C61.1419 37.3009 59.7613 39.1017 59.7613 41.16L59.7619 49.7255L57.7891 50.2547C56.9814 50.4713 56.5021 51.3022 56.7186 52.1105C56.9351 52.9188 57.7653 53.3985 58.573 53.1818L59.7622 52.8629L59.7633 67.9077L57.7891 68.4372C56.9814 68.6538 56.5021 69.4847 56.7186 70.293C56.9351 71.1013 57.7653 71.581 58.573 71.3643L59.7635 71.045L59.7644 83.214C59.7644 84.0509 60.4423 84.7292 61.2785 84.7292C62.1147 84.7291 62.7926 84.0507 62.7925 83.2138L62.7916 70.2328L82.6952 64.8943C83.5029 64.6776 83.9822 63.8467 83.7657 63.0384C83.5492 62.2301 82.719 61.7505 81.9113 61.9671L62.7913 67.0955ZM67.8247 59.7287L82.814 55.8042C83.623 55.5924 84.1072 54.7644 83.8956 53.9548C83.6839 53.1452 82.8566 52.6606 82.0476 52.8724L67.0583 56.7969C66.2493 57.0087 65.7651 57.8367 65.9767 58.6463C66.1883 59.4559 67.0157 59.9405 67.8247 59.7287ZM72.1429 76.8169L67.7582 77.9927C66.9505 78.2093 66.1202 77.7296 65.9038 76.9213C65.6874 76.113 66.1667 75.2821 66.9744 75.0655L71.3592 73.8897C72.1669 73.6731 72.9971 74.1528 73.2135 74.9611C73.43 75.7695 72.9506 76.6003 72.1429 76.8169Z" fill="white"/>
<defs>
<linearGradient id="paint0_linear_168:1352" x1="142.051" y1="142.051" x2="2.15906e-06" y2="-7.57604" gradientUnits="userSpaceOnUse">
<stop stop-color="#04091C"/>
<stop offset="1" stop-color="#164F85"/>
</linearGradient>
</defs>
</svg>
