<svg width="502" height="572" viewBox="0 0 502 572" fill="none" xmlns="http://www.w3.org/2000/svg">
<path fill-rule="evenodd" clip-rule="evenodd" d="M373.742 572H413.736C413.736 548.239 435.675 527.83 467.025 518.969C466.741 518.697 466.565 518.313 466.565 517.889V511.829C466.565 511.001 467.236 510.329 468.065 510.329C468.893 510.329 469.565 511.001 469.565 511.829V517.889C469.565 518.03 469.545 518.167 469.509 518.297C479.564 515.691 490.527 514.259 502 514.259V57.7413C490.493 57.7413 479.5 56.3007 469.42 53.6802C469.513 53.8754 469.565 54.0939 469.565 54.3246V57.3545C469.565 58.1829 468.893 58.8545 468.065 58.8545C467.236 58.8545 466.565 58.1829 466.565 57.3545V54.3246C466.565 53.8098 466.824 53.3555 467.219 53.0854C435.766 44.2545 413.736 23.8103 413.736 0L372.363 4.93376e-07C372.363 9.96552 360.014 18.0442 344.78 18.0442C329.547 18.0442 317.198 9.96552 317.198 1.15121e-06L282.72 1.56236e-06C282.72 9.96552 270.371 18.0442 255.137 18.0442C239.904 18.0442 227.555 9.96552 227.555 2.22019e-06L190.319 2.66423e-06C190.319 9.96552 177.97 18.0442 162.736 18.0442C147.503 18.0442 135.154 9.96552 135.154 4.93376e-06H88.2637C88.2637 24.0875 65.7179 44.73 33.6784 53.3891C33.8834 53.6456 34.0059 53.9708 34.0059 54.3246V57.3545C34.0059 58.1829 33.3343 58.8545 32.5059 58.8545C31.6775 58.8545 31.0059 58.1829 31.0059 57.3545V54.3246C31.0059 54.2389 31.0131 54.1547 31.0269 54.0729C21.3746 56.4443 10.9188 57.7413 0 57.7413L6.13247e-06 514.259C10.9111 514.259 21.3597 515.554 31.0063 517.922C31.006 517.911 31.0059 517.9 31.0059 517.889V511.829C31.0059 511.001 31.6775 510.329 32.5059 510.329C33.3343 510.329 34.0059 511.001 34.0059 511.829V517.889C34.0059 518.164 33.9316 518.422 33.8019 518.644C65.7758 527.323 88.2637 547.944 88.2637 572H136.533C136.533 562.034 148.882 553.956 164.115 553.956C179.349 553.956 191.698 562.034 191.698 572H228.934C228.934 562.034 241.283 553.956 256.516 553.956C271.75 553.956 284.099 562.034 284.099 572H318.577C318.577 562.034 330.926 553.956 346.159 553.956C361.393 553.956 373.742 562.034 373.742 572ZM32.5059 61.9141C33.3343 61.9141 34.0059 62.5857 34.0059 63.4141V69.4738C34.0059 70.3022 33.3343 70.9738 32.5059 70.9738C31.6775 70.9738 31.0059 70.3022 31.0059 69.4738V63.4141C31.0059 62.5857 31.6775 61.9141 32.5059 61.9141ZM32.5059 74.0334C33.3343 74.0334 34.0059 74.705 34.0059 75.5334V81.5931C34.0059 82.4215 33.3343 83.0931 32.5059 83.0931C31.6775 83.0931 31.0059 82.4215 31.0059 81.5931L31.0059 75.5334C31.0059 74.705 31.6775 74.0334 32.5059 74.0334ZM32.5059 86.1528C33.3343 86.1528 34.0059 86.8243 34.0059 87.6528V93.7124C34.0059 94.5408 33.3343 95.2124 32.5059 95.2124C31.6775 95.2124 31.0059 94.5408 31.0059 93.7124V87.6528C31.0059 86.8243 31.6775 86.1528 32.5059 86.1528ZM32.5059 98.2721C33.3343 98.2721 34.0059 98.9436 34.0059 99.7721L34.0059 105.832C34.0059 106.66 33.3343 107.332 32.5059 107.332C31.6775 107.332 31.0059 106.66 31.0059 105.832V99.7721C31.0059 98.9436 31.6775 98.2721 32.5059 98.2721ZM32.5059 110.391C33.3343 110.391 34.0059 111.063 34.0059 111.891V117.951C34.0059 118.779 33.3343 119.451 32.5059 119.451C31.6775 119.451 31.0059 118.779 31.0059 117.951V111.891C31.0059 111.063 31.6775 110.391 32.5059 110.391ZM32.5059 122.511C33.3343 122.511 34.0059 123.182 34.0059 124.011V130.07C34.0059 130.899 33.3343 131.57 32.5059 131.57C31.6775 131.57 31.0059 130.899 31.0059 130.07V124.011C31.0059 123.182 31.6775 122.511 32.5059 122.511ZM32.5059 134.63C33.3343 134.63 34.0059 135.302 34.0059 136.13V142.19C34.0059 143.018 33.3343 143.69 32.5059 143.69C31.6775 143.69 31.0059 143.018 31.0059 142.19V136.13C31.0059 135.302 31.6775 134.63 32.5059 134.63ZM32.5059 146.749C33.3343 146.749 34.0059 147.421 34.0059 148.249V154.309C34.0059 155.137 33.3343 155.809 32.5059 155.809C31.6775 155.809 31.0059 155.137 31.0059 154.309V148.249C31.0059 147.421 31.6775 146.749 32.5059 146.749ZM32.5059 158.869C33.3343 158.869 34.0059 159.54 34.0059 160.369V166.428C34.0059 167.257 33.3343 167.928 32.5059 167.928C31.6775 167.928 31.0059 167.257 31.0059 166.428V160.369C31.0059 159.54 31.6775 158.869 32.5059 158.869ZM32.5059 170.988C33.3343 170.988 34.0059 171.66 34.0059 172.488V178.548C34.0059 179.376 33.3343 180.048 32.5059 180.048C31.6775 180.048 31.0059 179.376 31.0059 178.548V172.488C31.0059 171.66 31.6775 170.988 32.5059 170.988ZM32.5059 183.107C33.3343 183.107 34.0059 183.779 34.0059 184.607V190.667C34.0059 191.495 33.3343 192.167 32.5059 192.167C31.6775 192.167 31.0059 191.495 31.0059 190.667V184.607C31.0059 183.779 31.6775 183.107 32.5059 183.107ZM32.5059 195.227C33.3343 195.227 34.0059 195.898 34.0059 196.727V202.786C34.0059 203.615 33.3343 204.286 32.5059 204.286C31.6775 204.286 31.0059 203.615 31.0059 202.786V196.727C31.0059 195.898 31.6775 195.227 32.5059 195.227ZM32.5059 207.346C33.3343 207.346 34.0059 208.018 34.0059 208.846V214.906C34.0059 215.734 33.3343 216.406 32.5059 216.406C31.6775 216.406 31.0059 215.734 31.0059 214.906V208.846C31.0059 208.018 31.6775 207.346 32.5059 207.346ZM32.5059 219.465C33.3343 219.465 34.0059 220.137 34.0059 220.965V227.025C34.0059 227.853 33.3343 228.525 32.5059 228.525C31.6775 228.525 31.0059 227.853 31.0059 227.025V220.965C31.0059 220.137 31.6775 219.465 32.5059 219.465ZM32.5059 231.585C33.3343 231.585 34.0059 232.256 34.0059 233.085V239.144C34.0059 239.973 33.3343 240.644 32.5059 240.644C31.6775 240.644 31.0059 239.973 31.0059 239.144L31.0059 233.085C31.0059 232.256 31.6775 231.585 32.5059 231.585ZM32.5059 243.704C33.3343 243.704 34.0059 244.376 34.0059 245.204V251.264C34.0059 252.092 33.3343 252.764 32.5059 252.764C31.6775 252.764 31.0059 252.092 31.0059 251.264V245.204C31.0059 244.376 31.6775 243.704 32.5059 243.704ZM32.5059 255.823C33.3343 255.823 34.0059 256.495 34.0059 257.323V263.383C34.0059 264.211 33.3343 264.883 32.5059 264.883C31.6775 264.883 31.0059 264.211 31.0059 263.383V257.323C31.0059 256.495 31.6775 255.823 32.5059 255.823ZM32.5059 267.943C33.3343 267.943 34.0059 268.614 34.0059 269.443V275.502C34.0059 276.331 33.3343 277.002 32.5059 277.002C31.6775 277.002 31.0059 276.331 31.0059 275.502V269.443C31.0059 268.614 31.6775 267.943 32.5059 267.943ZM32.5059 280.062C33.3343 280.062 34.0059 280.733 34.0059 281.562V287.622C34.0059 288.45 33.3343 289.122 32.5059 289.122C31.6775 289.122 31.0059 288.45 31.0059 287.622L31.0059 281.562C31.0059 280.733 31.6775 280.062 32.5059 280.062ZM32.5059 292.181C33.3343 292.181 34.0059 292.853 34.0059 293.681V299.741C34.0059 300.569 33.3343 301.241 32.5059 301.241C31.6775 301.241 31.0059 300.569 31.0059 299.741V293.681C31.0059 292.853 31.6775 292.181 32.5059 292.181ZM32.5059 304.301C33.3343 304.301 34.0059 304.972 34.0059 305.801V311.86C34.0059 312.689 33.3343 313.36 32.5059 313.36C31.6775 313.36 31.0059 312.689 31.0059 311.86V305.801C31.0059 304.972 31.6775 304.301 32.5059 304.301ZM32.5059 316.42C33.3343 316.42 34.0059 317.091 34.0059 317.92V323.98C34.0059 324.808 33.3343 325.48 32.5059 325.48C31.6775 325.48 31.0059 324.808 31.0059 323.98V317.92C31.0059 317.091 31.6775 316.42 32.5059 316.42ZM32.5059 328.539C33.3343 328.539 34.0059 329.211 34.0059 330.039V336.099C34.0059 336.927 33.3343 337.599 32.5059 337.599C31.6775 337.599 31.0059 336.927 31.0059 336.099V330.039C31.0059 329.211 31.6775 328.539 32.5059 328.539ZM32.5059 340.659C33.3343 340.659 34.0059 341.33 34.0059 342.159V348.218C34.0059 349.047 33.3343 349.718 32.5059 349.718C31.6775 349.718 31.0059 349.047 31.0059 348.218V342.159C31.0059 341.33 31.6775 340.659 32.5059 340.659ZM32.5059 352.778C33.3343 352.778 34.0059 353.449 34.0059 354.278V360.337C34.0059 361.166 33.3343 361.837 32.5059 361.837C31.6775 361.837 31.0059 361.166 31.0059 360.337V354.278C31.0059 353.449 31.6775 352.778 32.5059 352.778ZM32.5059 364.897C33.3343 364.897 34.0059 365.569 34.0059 366.397V372.457C34.0059 373.285 33.3343 373.957 32.5059 373.957C31.6775 373.957 31.0059 373.285 31.0059 372.457V366.397C31.0059 365.569 31.6775 364.897 32.5059 364.897ZM32.5059 377.016C33.3343 377.016 34.0059 377.688 34.0059 378.516V384.576C34.0059 385.405 33.3343 386.076 32.5059 386.076C31.6775 386.076 31.0059 385.405 31.0059 384.576V378.516C31.0059 377.688 31.6775 377.016 32.5059 377.016ZM32.5059 389.136C33.3343 389.136 34.0059 389.807 34.0059 390.636V396.695C34.0059 397.524 33.3343 398.195 32.5059 398.195C31.6775 398.195 31.0059 397.524 31.0059 396.695V390.636C31.0059 389.807 31.6775 389.136 32.5059 389.136ZM32.5059 401.255C33.3343 401.255 34.0059 401.927 34.0059 402.755V408.815C34.0059 409.643 33.3343 410.315 32.5059 410.315C31.6775 410.315 31.0059 409.643 31.0059 408.815V402.755C31.0059 401.927 31.6775 401.255 32.5059 401.255ZM32.5059 413.374C33.3343 413.374 34.0059 414.046 34.0059 414.874L34.0059 420.934C34.0059 421.763 33.3343 422.434 32.5059 422.434C31.6775 422.434 31.0059 421.763 31.0059 420.934V414.874C31.0059 414.046 31.6775 413.374 32.5059 413.374ZM32.5059 425.494C33.3343 425.494 34.0059 426.165 34.0059 426.994V433.053C34.0059 433.882 33.3343 434.553 32.5059 434.553C31.6775 434.553 31.0059 433.882 31.0059 433.053V426.994C31.0059 426.165 31.6775 425.494 32.5059 425.494ZM32.5059 437.613C33.3343 437.613 34.0059 438.285 34.0059 439.113V445.173C34.0059 446.001 33.3343 446.673 32.5059 446.673C31.6775 446.673 31.0059 446.001 31.0059 445.173L31.0059 439.113C31.0059 438.285 31.6775 437.613 32.5059 437.613ZM32.5059 449.732C33.3343 449.732 34.0059 450.404 34.0059 451.232V457.292C34.0059 458.12 33.3343 458.792 32.5059 458.792C31.6775 458.792 31.0059 458.12 31.0059 457.292V451.232C31.0059 450.404 31.6775 449.732 32.5059 449.732ZM32.5059 461.852C33.3343 461.852 34.0059 462.523 34.0059 463.352V469.411C34.0059 470.24 33.3343 470.911 32.5059 470.911C31.6775 470.911 31.0059 470.24 31.0059 469.411V463.352C31.0059 462.523 31.6775 461.852 32.5059 461.852ZM32.5059 473.971C33.3343 473.971 34.0059 474.643 34.0059 475.471V481.531C34.0059 482.359 33.3343 483.031 32.5059 483.031C31.6775 483.031 31.0059 482.359 31.0059 481.531V475.471C31.0059 474.643 31.6775 473.971 32.5059 473.971ZM32.5059 486.09C33.3343 486.09 34.0059 486.762 34.0059 487.59V493.65C34.0059 494.478 33.3343 495.15 32.5059 495.15C31.6775 495.15 31.0059 494.478 31.0059 493.65L31.0059 487.59C31.0059 486.762 31.6775 486.09 32.5059 486.09ZM32.5059 498.21C33.3343 498.21 34.0059 498.881 34.0059 499.71V505.769C34.0059 506.598 33.3343 507.269 32.5059 507.269C31.6775 507.269 31.0059 506.598 31.0059 505.769V499.71C31.0059 498.881 31.6775 498.21 32.5059 498.21ZM469.565 63.4141C469.565 62.5857 468.893 61.9141 468.065 61.9141C467.236 61.9141 466.565 62.5857 466.565 63.4141V69.4738C466.565 70.3022 467.236 70.9738 468.065 70.9738C468.893 70.9738 469.565 70.3022 469.565 69.4738V63.4141ZM469.565 75.5334C469.565 74.705 468.893 74.0334 468.065 74.0334C467.236 74.0334 466.565 74.705 466.565 75.5334V81.5931C466.565 82.4215 467.236 83.0931 468.065 83.0931C468.893 83.0931 469.565 82.4215 469.565 81.5931V75.5334ZM469.565 87.6528C469.565 86.8243 468.893 86.1528 468.065 86.1528C467.236 86.1528 466.565 86.8243 466.565 87.6528V93.7124C466.565 94.5408 467.236 95.2124 468.065 95.2124C468.893 95.2124 469.565 94.5408 469.565 93.7124V87.6528ZM469.565 99.7721C469.565 98.9436 468.893 98.2721 468.065 98.2721C467.236 98.2721 466.565 98.9436 466.565 99.7721V105.832C466.565 106.66 467.236 107.332 468.065 107.332C468.893 107.332 469.565 106.66 469.565 105.832V99.7721ZM469.565 111.891C469.565 111.063 468.893 110.391 468.065 110.391C467.236 110.391 466.565 111.063 466.565 111.891V117.951C466.565 118.779 467.236 119.451 468.065 119.451C468.893 119.451 469.565 118.779 469.565 117.951V111.891ZM469.565 124.011C469.565 123.182 468.893 122.511 468.065 122.511C467.236 122.511 466.565 123.182 466.565 124.011V130.07C466.565 130.899 467.236 131.57 468.065 131.57C468.893 131.57 469.565 130.899 469.565 130.07V124.011ZM469.565 136.13C469.565 135.302 468.893 134.63 468.065 134.63C467.236 134.63 466.565 135.302 466.565 136.13V142.19C466.565 143.018 467.236 143.69 468.065 143.69C468.893 143.69 469.565 143.018 469.565 142.19V136.13ZM469.565 148.249C469.565 147.421 468.893 146.749 468.065 146.749C467.236 146.749 466.565 147.421 466.565 148.249V154.309C466.565 155.137 467.236 155.809 468.065 155.809C468.893 155.809 469.565 155.137 469.565 154.309V148.249ZM469.565 160.369C469.565 159.54 468.893 158.869 468.065 158.869C467.236 158.869 466.565 159.54 466.565 160.369V166.428C466.565 167.257 467.236 167.928 468.065 167.928C468.893 167.928 469.565 167.257 469.565 166.428V160.369ZM469.565 172.488C469.565 171.66 468.893 170.988 468.065 170.988C467.236 170.988 466.565 171.66 466.565 172.488V178.548C466.565 179.376 467.236 180.048 468.065 180.048C468.893 180.048 469.565 179.376 469.565 178.548V172.488ZM469.565 184.607C469.565 183.779 468.893 183.107 468.065 183.107C467.236 183.107 466.565 183.779 466.565 184.607V190.667C466.565 191.495 467.236 192.167 468.065 192.167C468.893 192.167 469.565 191.495 469.565 190.667V184.607ZM469.565 196.727C469.565 195.898 468.893 195.227 468.065 195.227C467.236 195.227 466.565 195.898 466.565 196.727V202.786C466.565 203.615 467.236 204.286 468.065 204.286C468.893 204.286 469.565 203.615 469.565 202.786V196.727ZM469.565 208.846C469.565 208.018 468.893 207.346 468.065 207.346C467.236 207.346 466.565 208.018 466.565 208.846V214.906C466.565 215.734 467.236 216.406 468.065 216.406C468.893 216.406 469.565 215.734 469.565 214.906V208.846ZM469.565 220.965C469.565 220.137 468.893 219.465 468.065 219.465C467.236 219.465 466.565 220.137 466.565 220.965V227.025C466.565 227.853 467.236 228.525 468.065 228.525C468.893 228.525 469.565 227.853 469.565 227.025V220.965ZM469.565 233.085C469.565 232.256 468.893 231.585 468.065 231.585C467.236 231.585 466.565 232.256 466.565 233.085V239.144C466.565 239.973 467.236 240.644 468.065 240.644C468.893 240.644 469.565 239.973 469.565 239.144V233.085ZM469.565 245.204C469.565 244.376 468.893 243.704 468.065 243.704C467.236 243.704 466.565 244.376 466.565 245.204V251.264C466.565 252.092 467.236 252.764 468.065 252.764C468.893 252.764 469.565 252.092 469.565 251.264V245.204ZM469.565 257.323C469.565 256.495 468.893 255.823 468.065 255.823C467.236 255.823 466.565 256.495 466.565 257.323V263.383C466.565 264.211 467.236 264.883 468.065 264.883C468.893 264.883 469.565 264.211 469.565 263.383V257.323ZM469.565 269.443C469.565 268.614 468.893 267.943 468.065 267.943C467.236 267.943 466.565 268.614 466.565 269.443V275.502C466.565 276.331 467.236 277.002 468.065 277.002C468.893 277.002 469.565 276.331 469.565 275.502V269.443ZM469.565 281.562C469.565 280.733 468.893 280.062 468.065 280.062C467.236 280.062 466.565 280.733 466.565 281.562V287.622C466.565 288.45 467.236 289.122 468.065 289.122C468.893 289.122 469.565 288.45 469.565 287.622V281.562ZM469.565 293.681C469.565 292.853 468.893 292.181 468.065 292.181C467.236 292.181 466.565 292.853 466.565 293.681V299.741C466.565 300.569 467.236 301.241 468.065 301.241C468.893 301.241 469.565 300.569 469.565 299.741V293.681ZM469.565 305.801C469.565 304.972 468.893 304.301 468.065 304.301C467.236 304.301 466.565 304.972 466.565 305.801V311.86C466.565 312.689 467.236 313.36 468.065 313.36C468.893 313.36 469.565 312.689 469.565 311.86V305.801ZM469.565 317.92C469.565 317.091 468.893 316.42 468.065 316.42C467.236 316.42 466.565 317.091 466.565 317.92V323.98C466.565 324.808 467.236 325.48 468.065 325.48C468.893 325.48 469.565 324.808 469.565 323.98V317.92ZM469.565 330.039C469.565 329.211 468.893 328.539 468.065 328.539C467.236 328.539 466.565 329.211 466.565 330.039V336.099C466.565 336.927 467.236 337.599 468.065 337.599C468.893 337.599 469.565 336.927 469.565 336.099V330.039ZM469.565 342.159C469.565 341.33 468.893 340.659 468.065 340.659C467.236 340.659 466.565 341.33 466.565 342.159V348.218C466.565 349.047 467.236 349.718 468.065 349.718C468.893 349.718 469.565 349.047 469.565 348.218V342.159ZM469.565 354.278C469.565 353.449 468.893 352.778 468.065 352.778C467.236 352.778 466.565 353.449 466.565 354.278V360.337C466.565 361.166 467.236 361.837 468.065 361.837C468.893 361.837 469.565 361.166 469.565 360.337V354.278ZM469.565 366.397C469.565 365.569 468.893 364.897 468.065 364.897C467.236 364.897 466.565 365.569 466.565 366.397V372.457C466.565 373.285 467.236 373.957 468.065 373.957C468.893 373.957 469.565 373.285 469.565 372.457V366.397ZM469.565 378.516C469.565 377.688 468.893 377.016 468.065 377.016C467.236 377.016 466.565 377.688 466.565 378.516V384.576C466.565 385.405 467.236 386.076 468.065 386.076C468.893 386.076 469.565 385.405 469.565 384.576V378.516ZM469.565 390.636C469.565 389.807 468.893 389.136 468.065 389.136C467.236 389.136 466.565 389.807 466.565 390.636V396.695C466.565 397.524 467.236 398.195 468.065 398.195C468.893 398.195 469.565 397.524 469.565 396.695V390.636ZM469.565 402.755C469.565 401.927 468.893 401.255 468.065 401.255C467.236 401.255 466.565 401.927 466.565 402.755V408.815C466.565 409.643 467.236 410.315 468.065 410.315C468.893 410.315 469.565 409.643 469.565 408.815V402.755ZM469.565 414.874C469.565 414.046 468.893 413.374 468.065 413.374C467.236 413.374 466.565 414.046 466.565 414.874V420.934C466.565 421.763 467.236 422.434 468.065 422.434C468.893 422.434 469.565 421.763 469.565 420.934V414.874ZM469.565 426.994C469.565 426.165 468.893 425.494 468.065 425.494C467.236 425.494 466.565 426.165 466.565 426.994V433.053C466.565 433.882 467.236 434.553 468.065 434.553C468.893 434.553 469.565 433.882 469.565 433.053V426.994ZM469.565 439.113C469.565 438.285 468.893 437.613 468.065 437.613C467.236 437.613 466.565 438.285 466.565 439.113V445.173C466.565 446.001 467.236 446.673 468.065 446.673C468.893 446.673 469.565 446.001 469.565 445.173V439.113ZM469.565 451.232C469.565 450.404 468.893 449.732 468.065 449.732C467.236 449.732 466.565 450.404 466.565 451.232V457.292C466.565 458.12 467.236 458.792 468.065 458.792C468.893 458.792 469.565 458.12 469.565 457.292V451.232ZM469.565 463.352C469.565 462.523 468.893 461.852 468.065 461.852C467.236 461.852 466.565 462.523 466.565 463.352V469.411C466.565 470.24 467.236 470.911 468.065 470.911C468.893 470.911 469.565 470.24 469.565 469.411V463.352ZM469.565 475.471C469.565 474.643 468.893 473.971 468.065 473.971C467.236 473.971 466.565 474.643 466.565 475.471V481.531C466.565 482.359 467.236 483.031 468.065 483.031C468.893 483.031 469.565 482.359 469.565 481.531V475.471ZM469.565 487.59C469.565 486.762 468.893 486.09 468.065 486.09C467.236 486.09 466.565 486.762 466.565 487.59V493.65C466.565 494.478 467.236 495.15 468.065 495.15C468.893 495.15 469.565 494.478 469.565 493.65V487.59ZM469.565 499.71C469.565 498.881 468.893 498.21 468.065 498.21C467.236 498.21 466.565 498.881 466.565 499.71V505.769C466.565 506.598 467.236 507.269 468.065 507.269C468.893 507.269 469.565 506.598 469.565 505.769V499.71Z" fill="url(#paint0_linear_1032_6468)"/>
<line x1="25.5" y1="514.5" x2="25.5" y2="58.5" stroke="#760B0B" stroke-width="5" stroke-linecap="round"/>
<line x1="476.5" y1="514.5" x2="476.5" y2="58.5" stroke="#760B0B" stroke-width="5" stroke-linecap="round"/>
<defs>
<linearGradient id="paint0_linear_1032_6468" x1="588.281" y1="652.804" x2="-91.9702" y2="70.8276" gradientUnits="userSpaceOnUse">
<stop stop-color="#04091C"/>
<stop offset="1" stop-color="#164F85"/>
</linearGradient>
</defs>
</svg>
