<svg id="svg" version="1.1" xmlns="http://www.w3.org/2000/svg" xmlns:xlink="http://www.w3.org/1999/xlink" width="" height="" viewBox="0, 0, 400,400"><g id="svgg"><path id="path0" d="M300.144 38.042 C 300.005 38.156,299.710 38.657,299.487 39.154 C 298.188 42.060,295.364 47.272,294.377 48.586 C 294.307 48.679,293.950 49.204,293.583 49.753 C 287.733 58.504,280.637 61.897,266.583 62.663 C 262.144 62.905,262.194 62.895,261.904 63.588 C 261.476 64.612,261.751 65.995,262.384 66.002 C 263.158 66.012,270.951 70.322,273.801 72.317 C 275.209 73.303,275.506 73.529,276.833 74.629 C 278.814 76.269,281.833 79.703,281.833 80.314 C 281.833 80.416,281.897 80.500,281.974 80.500 C 282.090 80.500,282.625 81.572,283.511 83.583 C 283.823 84.290,284.340 85.808,284.731 87.167 C 285.357 89.337,285.589 90.585,286.339 95.833 C 286.437 96.521,286.563 98.468,286.619 100.159 C 286.734 103.644,286.814 103.855,288.106 104.073 C 289.099 104.241,289.596 103.974,290.009 103.049 C 291.699 99.267,295.123 93.166,296.536 91.417 C 296.610 91.325,296.898 90.950,297.176 90.583 C 299.150 87.981,303.088 84.167,303.800 84.167 C 303.888 84.167,304.037 84.073,304.132 83.958 C 304.452 83.573,307.051 82.350,308.917 81.707 C 313.280 80.203,318.096 79.424,325.205 79.072 L 327.327 78.967 327.663 78.422 C 328.535 77.011,328.058 76.234,325.667 75.171 C 324.498 74.652,323.058 73.919,320.804 72.697 C 318.830 71.627,315.930 69.754,314.372 68.543 C 314.165 68.382,313.753 68.063,313.458 67.833 C 313.162 67.604,312.053 66.554,310.992 65.500 C 308.554 63.078,307.631 61.721,306.115 58.333 C 304.519 54.767,303.197 47.499,302.915 40.750 C 302.829 38.697,302.803 38.564,302.403 38.208 C 301.923 37.781,300.580 37.682,300.144 38.042 M299.070 56.723 C 300.999 63.662,304.477 68.787,310.215 73.151 C 311.108 73.829,311.818 74.404,311.794 74.428 C 311.770 74.452,311.112 74.632,310.333 74.829 C 302.806 76.724,297.157 80.417,292.533 86.464 L 291.349 88.012 291.185 87.381 C 291.094 87.034,290.899 86.273,290.751 85.689 C 289.001 78.807,285.088 72.992,279.294 68.667 C 277.610 67.410,277.611 67.411,278.542 67.263 C 285.351 66.180,292.145 61.838,297.166 55.360 C 298.046 54.226,298.263 54.029,298.358 54.278 C 298.423 54.446,298.743 55.546,299.070 56.723 M222.833 59.410 C 222.237 59.716,220.737 60.452,219.500 61.046 C 218.262 61.640,216.137 62.660,214.776 63.313 C 213.415 63.966,212.269 64.500,212.230 64.500 C 212.190 64.500,211.374 64.875,210.417 65.333 C 209.459 65.792,208.644 66.167,208.605 66.167 C 208.566 66.167,207.587 66.617,206.430 67.167 C 205.273 67.717,204.290 68.167,204.245 68.167 C 204.200 68.167,203.808 68.326,203.373 68.522 C 202.939 68.717,202.265 69.017,201.875 69.188 C 201.485 69.360,200.848 69.643,200.458 69.818 C 200.069 69.993,199.188 70.377,198.500 70.670 C 196.555 71.500,196.313 71.605,195.302 72.067 C 194.781 72.305,194.314 72.500,194.265 72.500 C 194.216 72.500,193.767 72.688,193.266 72.917 C 192.765 73.146,192.305 73.333,192.244 73.333 C 192.183 73.333,191.897 73.439,191.609 73.569 C 190.593 74.024,189.071 74.653,187.917 75.094 C 187.275 75.340,186.525 75.639,186.250 75.759 C 185.975 75.879,185.262 76.160,184.667 76.385 C 184.071 76.610,182.796 77.098,181.833 77.470 C 179.243 78.471,173.151 80.667,172.963 80.667 C 172.874 80.667,172.564 80.772,172.275 80.901 C 171.647 81.181,168.519 82.223,165.750 83.074 C 164.650 83.412,163.563 83.754,163.333 83.834 C 163.104 83.914,162.242 84.176,161.417 84.417 C 160.592 84.658,159.317 85.033,158.583 85.250 C 157.850 85.467,156.990 85.697,156.672 85.760 C 156.354 85.824,155.979 85.937,155.839 86.012 C 155.468 86.210,150.713 87.400,145.583 88.578 C 135.805 90.825,124.573 92.648,114.750 93.582 C 113.375 93.713,111.537 93.899,110.667 93.996 C 109.025 94.179,103.499 94.563,98.583 94.837 C 92.338 95.184,78.484 95.343,69.333 95.173 C 64.337 95.080,59.642 95.003,58.899 95.002 L 57.548 95.000 56.100 96.909 C 51.025 103.598,46.408 111.240,44.011 116.917 C 43.701 117.650,43.321 118.550,43.166 118.917 C 40.603 124.988,39.539 133.598,41.014 136.323 C 41.338 136.921,42.597 139.627,44.004 142.750 C 44.170 143.117,44.583 144.017,44.922 144.750 C 45.262 145.483,45.636 146.346,45.754 146.667 C 45.871 146.987,46.355 148.112,46.830 149.167 C 47.304 150.221,47.943 151.721,48.251 152.500 C 48.762 153.796,49.288 155.062,49.671 155.917 C 49.753 156.100,50.090 156.962,50.420 157.833 C 50.749 158.704,51.127 159.653,51.259 159.942 C 51.392 160.231,51.500 160.531,51.500 160.609 C 51.499 160.686,51.681 161.200,51.904 161.750 C 52.126 162.300,52.659 163.762,53.088 165.000 C 53.517 166.237,53.930 167.400,54.006 167.583 C 54.432 168.610,56.866 176.703,57.641 179.667 C 58.000 181.041,58.884 184.800,59.248 186.500 C 59.375 187.096,59.595 188.108,59.737 188.750 C 60.251 191.083,61.183 197.027,61.578 200.500 C 61.719 201.737,61.908 203.275,61.999 203.917 C 62.149 204.982,62.308 207.271,62.835 215.942 C 62.939 217.655,63.008 223.225,62.994 228.776 C 62.969 238.382,63.001 239.132,63.503 240.750 C 63.588 241.025,63.935 242.150,64.273 243.250 C 64.610 244.350,64.950 245.321,65.027 245.408 C 65.104 245.495,65.167 245.670,65.167 245.797 C 65.167 246.008,65.614 247.121,66.552 249.239 C 67.649 251.717,71.014 257.900,71.501 258.333 C 71.553 258.379,71.887 258.867,72.245 259.417 C 72.602 259.967,72.945 260.454,73.006 260.500 C 73.067 260.546,73.213 260.766,73.331 260.990 C 73.569 261.440,73.607 261.493,74.328 262.355 C 74.606 262.688,74.833 263.013,74.833 263.077 C 74.833 263.217,76.356 265.098,78.482 267.583 C 80.077 269.447,86.383 275.809,88.341 277.528 C 89.564 278.602,91.823 280.507,92.753 281.250 C 93.098 281.525,93.463 281.825,93.565 281.917 C 93.667 282.008,94.113 282.346,94.557 282.667 C 95.001 282.987,95.486 283.381,95.636 283.542 C 95.785 283.702,95.974 283.833,96.055 283.833 C 96.137 283.833,96.364 283.982,96.560 284.163 C 97.045 284.611,99.800 286.638,100.234 286.866 C 100.426 286.967,100.621 287.104,100.667 287.169 C 100.712 287.235,101.200 287.571,101.750 287.917 C 102.300 288.262,103.500 289.049,104.417 289.666 C 106.051 290.765,110.941 293.738,112.917 294.833 C 113.467 295.138,114.179 295.536,114.500 295.717 C 114.821 295.898,115.721 296.382,116.500 296.792 C 119.263 298.245,119.170 298.198,122.167 299.683 C 122.761 299.977,125.343 301.173,126.250 301.575 C 126.525 301.696,127.162 301.987,127.667 302.222 C 128.171 302.456,129.146 302.883,129.833 303.170 C 130.521 303.457,131.310 303.794,131.588 303.919 C 131.865 304.044,132.690 304.380,133.421 304.666 C 134.152 304.951,134.900 305.254,135.083 305.339 C 135.267 305.424,136.054 305.722,136.833 306.002 C 137.612 306.281,138.362 306.554,138.500 306.609 C 139.642 307.063,142.475 307.999,142.708 307.999 C 142.869 308.000,143.000 308.075,143.000 308.167 C 143.000 308.258,143.056 308.318,143.125 308.299 C 143.194 308.280,144.000 308.509,144.917 308.808 C 147.624 309.692,148.480 309.953,150.500 310.510 C 152.771 311.136,155.226 311.746,157.123 312.158 C 157.877 312.321,158.627 312.557,158.789 312.682 C 159.370 313.129,160.264 313.874,161.083 314.591 C 161.542 314.993,162.479 315.779,163.167 316.338 C 163.854 316.897,164.566 317.481,164.747 317.636 C 165.175 317.999,170.019 321.673,170.503 322.000 C 170.706 322.137,171.208 322.503,171.619 322.812 C 173.366 324.125,179.858 328.388,181.667 329.409 C 182.262 329.745,182.975 330.165,183.250 330.342 C 183.525 330.518,184.012 330.795,184.333 330.956 C 184.654 331.118,184.954 331.290,185.000 331.340 C 185.172 331.525,190.957 334.444,192.583 335.166 C 193.225 335.451,193.900 335.751,194.083 335.832 C 194.363 335.957,195.292 336.347,197.083 337.092 C 197.267 337.169,197.492 337.243,197.583 337.257 C 197.675 337.272,198.029 337.407,198.370 337.558 C 198.710 337.710,199.135 337.833,199.314 337.833 C 199.493 337.833,199.664 337.890,199.694 337.958 C 199.898 338.417,206.724 340.185,209.850 340.588 C 210.895 340.723,211.963 340.879,212.224 340.934 C 215.359 341.593,226.513 340.602,233.750 339.021 C 236.057 338.517,240.596 337.363,241.583 337.029 C 241.858 336.936,242.758 336.660,243.583 336.415 C 244.408 336.170,245.233 335.905,245.417 335.826 C 245.600 335.747,246.133 335.573,246.602 335.440 C 247.634 335.147,251.544 333.748,252.275 333.410 C 252.564 333.276,252.874 333.167,252.963 333.167 C 253.053 333.167,253.567 332.963,254.105 332.715 C 254.643 332.467,255.168 332.250,255.272 332.233 C 255.440 332.205,257.960 331.166,259.250 330.591 C 259.525 330.469,260.125 330.204,260.583 330.003 C 263.736 328.621,269.271 325.931,271.667 324.616 C 272.079 324.389,273.035 323.882,273.792 323.488 C 274.548 323.094,275.167 322.711,275.167 322.636 C 275.167 322.561,275.249 322.500,275.350 322.500 C 275.540 322.500,278.193 321.003,279.500 320.157 C 279.912 319.890,280.359 319.620,280.492 319.555 C 282.253 318.705,292.048 312.065,294.272 310.213 C 294.468 310.050,294.837 309.767,295.093 309.583 C 296.116 308.849,299.096 306.448,299.292 306.201 C 299.406 306.055,299.500 305.988,299.500 306.051 C 299.500 306.115,299.636 306.035,299.802 305.875 C 299.968 305.715,300.504 305.246,300.993 304.833 C 307.111 299.671,313.738 292.847,317.667 287.664 C 317.896 287.361,318.160 287.032,318.253 286.932 C 318.347 286.832,318.719 286.337,319.081 285.833 C 319.443 285.329,319.789 284.879,319.851 284.833 C 319.913 284.787,320.685 283.662,321.567 282.333 C 322.448 281.004,323.229 279.842,323.300 279.750 C 323.372 279.658,323.840 278.871,324.340 278.000 C 324.841 277.129,325.325 276.289,325.417 276.133 C 325.636 275.759,328.136 270.726,328.421 270.083 C 329.290 268.126,329.534 267.501,330.243 265.417 C 330.399 264.958,330.593 264.433,330.674 264.250 C 331.440 262.516,333.086 254.591,332.959 253.248 C 332.915 252.791,332.760 250.767,332.613 248.750 C 332.466 246.733,332.267 244.108,332.171 242.917 C 331.685 236.892,331.635 217.544,332.099 215.274 C 332.139 215.077,332.283 213.454,332.418 211.667 C 332.554 209.879,332.706 208.192,332.756 207.917 C 332.806 207.642,332.992 206.217,333.169 204.750 C 333.961 198.183,335.240 190.949,336.807 184.167 C 336.987 183.387,337.290 182.075,337.480 181.250 C 337.670 180.425,338.020 179.000,338.258 178.083 C 338.496 177.167,338.837 175.817,339.016 175.083 C 339.196 174.350,339.375 173.637,339.415 173.500 C 339.455 173.362,339.634 172.725,339.811 172.083 C 339.989 171.442,340.292 170.373,340.484 169.708 C 341.192 167.257,341.530 166.054,341.850 164.833 C 342.030 164.146,342.247 163.433,342.332 163.250 C 342.417 163.067,342.569 162.579,342.670 162.167 C 342.771 161.754,342.957 161.117,343.082 160.750 C 343.208 160.383,343.510 159.408,343.752 158.583 C 343.995 157.758,344.294 156.783,344.416 156.417 C 344.539 156.050,344.877 154.962,345.168 154.000 C 345.459 153.037,345.762 152.100,345.841 151.917 C 347.142 148.905,346.445 142.352,344.313 137.543 C 344.141 137.155,344.000 136.794,344.000 136.741 C 344.000 136.531,342.564 133.565,341.422 131.417 C 340.371 129.439,337.830 125.391,336.595 123.727 C 336.314 123.348,335.971 122.870,335.833 122.663 C 335.531 122.210,332.337 117.996,332.091 117.725 C 331.995 117.620,331.692 117.254,331.417 116.913 C 330.377 115.622,327.395 112.233,326.619 111.462 C 326.072 110.917,325.938 110.910,322.833 111.261 C 317.312 111.884,312.402 112.368,305.250 112.993 C 303.135 113.178,297.260 113.583,293.083 113.832 C 281.997 114.492,258.359 114.581,257.743 113.965 C 257.656 113.878,257.358 109.814,257.099 105.167 C 256.564 95.577,256.500 94.312,256.404 91.417 C 256.262 87.169,255.151 84.197,252.290 80.418 C 251.457 79.317,251.053 78.801,250.533 78.169 C 249.752 77.222,246.016 73.497,244.822 72.475 C 242.977 70.896,241.867 70.029,238.080 67.210 C 237.987 67.140,237.462 66.783,236.914 66.417 C 236.365 66.050,235.842 65.692,235.750 65.621 C 235.658 65.549,235.208 65.256,234.750 64.968 C 234.292 64.681,233.542 64.209,233.083 63.921 C 230.641 62.384,228.012 60.864,225.618 59.604 C 223.897 58.699,224.181 58.719,222.833 59.410 M225.619 67.770 C 237.815 74.778,246.631 82.763,248.893 88.851 C 249.249 89.810,249.300 90.291,249.400 93.667 C 249.529 97.995,250.089 108.559,250.333 111.250 C 250.574 113.911,250.643 113.684,249.625 113.583 C 223.599 111.011,200.421 105.490,173.000 95.332 C 172.221 95.044,170.796 94.521,169.833 94.171 C 167.414 93.290,163.114 91.653,162.939 91.545 C 162.859 91.496,163.989 91.094,165.449 90.652 C 179.074 86.523,196.408 79.732,212.833 72.086 C 214.162 71.468,215.700 70.753,216.250 70.498 C 216.800 70.244,218.225 69.568,219.417 68.996 C 221.591 67.953,223.886 66.865,223.952 66.844 C 223.972 66.838,224.722 67.255,225.619 67.770 M148.242 95.479 C 148.155 95.560,147.146 96.374,146.000 97.290 C 136.672 104.740,130.527 112.251,128.443 118.750 C 127.687 121.109,127.669 121.479,128.095 126.144 C 128.771 133.552,128.741 132.879,128.391 132.768 C 125.463 131.840,118.795 131.995,114.471 133.091 C 96.390 137.674,86.737 158.460,95.045 174.921 C 95.662 176.144,100.782 185.164,100.975 185.369 C 101.037 185.434,102.437 183.900,104.085 181.959 C 108.927 176.261,110.282 174.952,113.295 173.059 C 117.506 170.415,122.217 168.878,128.059 168.244 L 129.034 168.138 128.941 168.778 C 128.889 169.129,128.802 169.979,128.747 170.667 C 127.866 181.731,124.848 195.404,120.139 209.667 C 118.375 215.010,118.187 215.500,117.907 215.500 C 116.826 215.500,113.027 213.860,109.417 211.835 C 106.628 210.271,97.861 205.435,97.227 205.111 L 96.703 204.844 97.423 207.130 C 97.818 208.388,99.121 212.529,100.317 216.333 C 104.662 230.150,108.011 236.830,114.202 244.033 C 114.993 244.954,115.036 245.058,115.592 247.450 C 119.602 264.674,130.278 283.082,146.156 300.146 C 147.601 301.699,148.107 302.340,147.824 302.256 C 140.907 300.219,129.897 295.691,122.167 291.706 C 94.710 277.552,76.113 258.738,70.592 239.529 L 70.033 237.583 70.121 230.250 C 70.539 195.255,65.388 172.049,49.626 137.917 L 47.472 133.250 47.553 131.000 C 47.791 124.473,52.156 114.708,59.402 104.495 L 60.971 102.283 77.611 102.257 C 94.516 102.230,96.462 102.178,106.083 101.491 C 120.391 100.471,134.567 98.444,146.170 95.761 C 148.115 95.311,148.478 95.262,148.242 95.479 M161.500 98.498 C 171.071 102.183,183.118 106.393,190.583 108.663 C 191.133 108.830,192.446 109.230,193.500 109.551 C 231.066 121.004,264.077 123.859,310.417 119.659 C 317.220 119.043,322.281 118.535,322.841 118.414 C 323.218 118.332,323.440 118.528,324.777 120.119 C 333.561 130.572,338.660 139.797,339.339 146.464 L 339.521 148.250 337.833 153.667 C 325.707 192.559,322.666 217.068,325.672 251.678 C 326.291 258.801,321.222 271.052,313.211 281.793 C 289.902 313.048,234.940 339.574,207.333 332.893 C 188.099 328.238,162.366 309.610,144.133 287.142 C 129.091 268.606,120.780 249.163,120.848 232.667 C 120.865 228.410,120.937 228.041,122.624 223.583 C 134.377 192.531,138.213 167.766,135.997 137.250 C 135.442 129.600,135.302 127.833,135.080 125.687 C 134.746 122.447,134.766 121.854,135.249 120.471 C 137.300 114.601,144.882 106.455,155.000 99.250 C 156.146 98.434,157.271 97.632,157.500 97.467 C 157.997 97.110,157.690 97.031,161.500 98.498 M124.750 139.252 C 125.822 139.339,128.916 140.027,129.111 140.222 C 129.488 140.599,129.665 161.165,129.292 161.168 C 120.309 161.243,109.938 165.568,103.688 171.848 C 102.848 172.692,102.133 173.353,102.100 173.316 C 102.066 173.280,101.743 172.650,101.381 171.917 C 94.322 157.614,104.189 140.402,120.154 139.169 C 121.714 139.048,122.373 139.060,124.750 139.252 M192.917 144.166 C 175.679 145.664,163.440 160.945,165.753 178.083 L 165.865 178.917 161.724 178.917 C 157.949 178.917,157.465 178.950,156.250 179.289 C 147.151 181.827,145.265 186.604,150.467 193.933 C 157.269 203.518,172.693 209.425,182.578 206.232 C 191.587 203.321,191.409 195.859,182.202 190.516 C 179.438 188.912,177.916 188.892,176.477 190.443 C 175.558 191.433,175.827 192.202,177.283 192.748 C 182.451 194.685,186.392 197.946,185.155 199.262 C 182.387 202.209,172.042 200.466,164.726 195.820 C 155.228 189.789,153.068 185.324,158.358 182.654 C 160.574 181.536,166.210 180.990,166.413 181.875 C 166.460 182.081,166.686 183.300,166.914 184.583 C 167.565 188.244,167.721 189.000,167.822 188.998 C 167.874 188.997,168.217 188.822,168.583 188.610 C 177.169 183.638,178.558 182.913,181.076 182.091 C 189.408 179.371,200.093 180.807,207.431 185.631 C 209.392 186.921,209.914 187.383,214.388 191.792 C 216.493 193.867,218.254 195.476,218.331 195.396 C 218.540 195.177,223.075 185.259,223.571 183.937 C 231.053 163.997,214.333 142.305,192.917 144.166 M198.583 151.322 C 213.697 153.557,222.350 168.948,216.421 183.052 L 216.153 183.688 215.202 182.815 C 204.925 173.389,187.182 170.980,174.432 177.280 C 172.635 178.168,172.727 178.250,172.500 175.571 C 171.280 161.185,184.180 149.192,198.583 151.322 M263.411 153.841 C 249.014 156.267,238.333 168.662,238.333 182.945 C 238.333 185.666,238.498 186.937,239.722 193.690 L 240.587 198.463 244.919 195.971 C 249.869 193.123,251.047 192.501,252.600 191.917 C 260.822 188.822,271.464 189.776,279.167 194.298 C 281.404 195.611,282.686 196.687,286.901 200.792 C 289.184 203.015,291.097 204.833,291.151 204.833 C 291.206 204.833,291.509 204.252,291.826 203.541 C 294.259 198.085,293.753 198.437,296.919 199.998 C 301.988 202.497,303.498 205.602,300.750 207.875 C 298.042 210.116,287.506 212.394,279.833 212.398 C 272.598 212.401,265.361 210.542,262.560 207.961 C 260.504 206.066,263.896 204.624,271.079 204.340 C 276.068 204.143,276.295 204.061,275.723 202.667 C 274.623 199.988,270.691 199.437,264.501 201.094 C 254.000 203.905,254.273 211.037,265.083 216.257 C 279.130 223.040,304.154 220.148,310.542 211.004 C 313.755 206.404,307.200 199.621,296.846 196.831 C 296.152 196.644,295.491 196.458,295.379 196.418 C 295.234 196.368,295.351 195.938,295.771 194.965 C 299.555 186.222,298.891 176.321,293.968 168.056 C 287.723 157.572,275.371 151.826,263.411 153.841 M272.083 160.768 C 281.501 162.292,288.980 169.630,290.846 179.176 C 291.671 183.396,290.986 189.143,289.261 192.480 L 288.982 193.017 288.033 192.146 C 278.768 183.648,262.874 180.751,250.424 185.291 C 249.511 185.623,248.076 186.246,247.236 186.674 L 245.708 187.452 245.520 186.319 C 243.071 171.489,256.790 158.293,272.083 160.768 M157.103 208.211 C 156.075 230.073,156.500 236.303,159.684 246.123 C 175.446 294.731,238.262 309.712,274.513 273.509 C 285.102 262.935,289.801 253.706,293.825 235.583 C 294.293 233.475,295.073 229.969,295.559 227.792 C 296.045 225.615,296.413 223.833,296.378 223.833 C 296.342 223.833,292.844 226.157,288.604 228.997 C 279.973 234.778,278.915 235.359,274.076 236.984 C 264.085 240.338,248.183 242.957,229.500 244.325 C 226.979 244.510,224.475 244.694,223.934 244.734 C 223.035 244.800,222.537 244.665,218.018 243.134 C 195.776 235.599,178.667 227.549,170.864 220.948 C 169.804 220.051,166.927 216.887,159.376 208.315 C 158.345 207.145,157.435 206.146,157.354 206.096 C 157.273 206.046,157.160 206.998,157.103 208.211 M110.185 220.153 C 110.954 220.513,112.479 221.115,113.574 221.492 C 114.669 221.868,115.590 222.201,115.620 222.232 C 115.651 222.262,115.367 223.066,114.989 224.018 C 114.395 225.518,114.281 226.018,114.140 227.750 C 113.864 231.119,113.841 231.253,113.595 230.894 C 112.418 229.173,109.609 222.779,108.755 219.875 C 108.615 219.399,108.541 219.385,110.185 220.153 M166.083 226.070 C 173.620 232.924,192.952 242.068,216.881 250.099 L 222.013 251.822 224.715 251.665 C 245.671 250.450,265.613 247.311,276.750 243.474 C 280.190 242.288,284.432 240.351,285.376 239.533 C 285.840 239.131,285.847 239.331,285.424 241.035 C 282.004 254.849,272.963 267.657,260.833 275.873 C 229.568 297.052,186.394 285.842,169.678 252.205 C 168.056 248.942,167.028 246.318,165.777 242.249 C 164.464 237.981,163.695 232.792,163.556 227.250 L 163.463 223.583 164.523 224.599 C 165.106 225.158,165.808 225.820,166.083 226.070 M89.641 291.945 C 89.279 292.041,89.039 292.690,88.912 293.917 C 88.227 300.545,87.160 304.452,85.114 307.827 C 84.042 309.593,83.238 310.449,80.720 312.498 C 80.394 312.764,78.131 314.218,77.417 314.622 C 76.123 315.353,71.973 317.326,71.703 317.339 C 71.637 317.342,71.283 317.490,70.917 317.667 C 70.550 317.844,70.159 317.991,70.048 317.994 C 69.693 318.004,69.469 318.659,69.585 319.345 C 69.724 320.166,69.767 320.190,71.401 320.353 C 74.481 320.660,79.501 321.573,80.417 321.991 C 80.600 322.075,81.050 322.234,81.417 322.345 C 82.082 322.546,85.267 323.966,85.583 324.203 C 87.758 325.828,88.493 326.519,89.708 328.083 C 90.630 329.271,90.931 329.696,91.300 330.333 C 91.539 330.746,91.779 331.121,91.834 331.167 C 91.889 331.212,92.065 331.512,92.225 331.833 C 92.385 332.154,92.727 332.809,92.986 333.288 C 93.499 334.237,94.940 337.432,95.438 338.725 C 96.259 340.852,97.883 340.044,98.065 337.417 C 98.122 336.592,98.240 335.542,98.328 335.083 C 98.416 334.625,98.607 333.537,98.752 332.667 C 98.897 331.796,99.083 330.858,99.165 330.583 C 99.825 328.374,100.098 327.560,100.619 326.250 C 100.948 325.425,101.318 324.632,101.442 324.487 C 101.565 324.342,101.669 324.155,101.673 324.070 C 101.688 323.701,103.718 321.322,104.872 320.322 C 107.151 318.347,110.478 316.369,114.083 314.845 C 114.817 314.535,115.717 314.154,116.083 313.998 C 116.450 313.843,116.874 313.672,117.026 313.619 C 117.387 313.493,117.559 312.676,117.344 312.110 C 117.119 311.520,116.763 311.401,114.583 311.186 C 102.010 309.951,96.836 306.008,91.928 293.922 C 91.101 291.888,90.809 291.635,89.641 291.945 M93.071 306.008 C 95.841 309.717,99.112 312.121,103.500 313.671 C 104.096 313.882,104.643 314.105,104.716 314.168 C 104.790 314.231,104.190 314.773,103.383 315.372 C 99.633 318.157,97.170 321.523,95.578 326.042 L 95.123 327.333 94.123 325.958 C 91.384 322.192,87.929 319.614,83.446 317.992 L 81.987 317.464 83.202 316.614 C 86.759 314.126,89.570 310.489,91.082 306.417 C 91.693 304.771,91.809 304.500,91.899 304.500 C 91.924 304.500,92.452 305.179,93.071 306.008 " stroke="none" fill="#3c0404" fill-rule="evenodd"></path><path id="path1" d="M118.590 139.419 C 105.791 141.509,97.090 153.723,99.501 166.215 C 99.953 168.556,101.383 172.370,102.102 173.152 C 102.136 173.189,102.934 172.474,103.874 171.562 C 110.088 165.534,120.406 161.167,128.435 161.167 L 129.300 161.167 129.424 159.042 C 129.549 156.903,129.422 146.422,129.224 142.445 C 129.119 140.338,129.111 140.304,128.683 140.136 C 126.655 139.341,121.368 138.965,118.590 139.419 M192.583 151.269 C 179.813 153.129,170.876 164.566,172.685 176.733 L 172.871 177.980 174.345 177.235 C 186.873 170.907,204.336 173.212,215.107 182.616 L 216.131 183.510 216.649 182.266 C 221.970 169.486,214.049 154.752,200.191 151.651 C 198.632 151.302,193.965 151.068,192.583 151.269 M265.347 160.681 C 253.109 162.265,244.183 173.383,245.490 185.414 C 245.727 187.592,245.647 187.474,246.534 186.955 C 257.931 180.285,276.362 182.331,287.381 191.491 L 289.012 192.847 289.422 191.920 C 296.325 176.311,282.562 158.452,265.347 160.681 M109.321 221.315 C 110.266 223.957,111.067 225.826,112.362 228.417 C 113.781 231.256,113.832 231.315,113.839 230.158 C 113.852 228.007,114.280 225.616,114.957 223.901 L 115.621 222.218 113.936 221.683 C 113.009 221.389,111.449 220.788,110.469 220.347 L 108.689 219.547 109.321 221.315 M163.503 225.444 C 163.513 232.882,164.951 240.612,167.567 247.287 C 168.723 250.238,169.890 252.676,171.442 255.382 C 187.711 283.745,223.846 294.656,253.394 280.126 C 268.861 272.520,280.268 258.916,284.935 242.510 C 285.847 239.302,285.847 239.355,284.958 239.905 C 276.040 245.424,253.418 249.954,226.583 251.595 L 221.917 251.880 217.667 250.459 C 191.677 241.769,172.663 232.592,164.875 224.982 L 163.500 223.638 163.503 225.444 " stroke="none" fill="#f5dc94" fill-rule="evenodd"></path><path id="path2" d="M297.250 55.400 C 292.920 61.223,287.096 65.131,279.952 67.005 C 278.948 67.269,278.102 67.509,278.072 67.540 C 278.041 67.570,278.669 68.093,279.466 68.702 C 285.496 73.303,288.755 78.189,290.837 85.750 C 291.038 86.483,291.253 87.255,291.312 87.465 C 291.410 87.807,291.528 87.703,292.447 86.465 C 297.104 80.192,302.955 76.458,311.131 74.542 L 311.679 74.414 309.965 73.052 C 303.899 68.233,300.768 63.460,298.767 55.986 L 298.250 54.054 297.250 55.400 M156.667 98.125 C 152.486 101.118,148.139 104.564,146.083 106.515 C 145.625 106.950,145.041 107.470,144.786 107.669 C 144.135 108.179,140.669 111.963,139.461 113.482 C 137.430 116.037,136.000 118.500,135.249 120.738 L 134.828 121.990 135.078 124.787 C 135.215 126.325,135.401 128.333,135.491 129.250 C 135.724 131.628,135.801 132.736,136.163 139.000 C 137.892 168.855,134.769 190.208,124.511 218.695 C 123.208 222.313,122.176 225.097,121.587 226.583 C 120.263 229.924,120.889 239.713,122.935 247.667 C 132.080 283.204,176.409 326.852,209.976 333.368 C 220.665 335.443,240.187 331.336,258.083 323.247 C 258.542 323.040,259.292 322.703,259.750 322.499 C 288.331 309.737,313.504 287.104,322.134 266.408 C 325.210 259.031,325.925 255.367,325.424 249.545 C 323.178 223.416,325.102 200.001,331.515 175.417 C 331.802 174.317,332.107 173.117,332.193 172.750 C 332.545 171.250,334.907 162.949,336.201 158.667 C 337.559 154.173,337.758 153.528,338.562 151.000 C 339.452 148.201,339.519 147.274,339.012 144.810 C 337.696 138.415,333.292 130.664,325.671 121.325 C 324.575 119.983,323.565 118.790,323.425 118.673 C 323.218 118.502,322.566 118.528,319.960 118.813 C 310.495 119.848,302.166 120.524,290.990 121.167 C 282.496 121.655,263.690 121.700,257.583 121.247 C 256.942 121.200,254.317 121.007,251.750 120.819 C 247.533 120.510,242.040 119.940,236.583 119.244 C 231.060 118.540,219.101 116.356,214.250 115.165 C 213.883 115.075,212.008 114.623,210.083 114.160 C 206.810 113.374,204.165 112.687,199.750 111.477 C 198.742 111.201,197.729 110.912,197.500 110.834 C 197.271 110.756,196.258 110.455,195.250 110.163 C 188.955 108.346,175.199 103.778,169.750 101.696 C 169.017 101.415,166.804 100.586,164.833 99.853 C 162.862 99.120,160.576 98.254,159.751 97.927 C 157.895 97.192,157.977 97.186,156.667 98.125 M198.524 144.175 C 217.193 146.072,229.757 165.044,224.055 182.726 C 223.514 184.405,222.852 185.972,220.984 189.997 C 220.580 190.866,219.834 192.479,219.326 193.580 C 218.818 194.682,218.331 195.558,218.243 195.528 C 218.155 195.497,216.256 193.697,214.024 191.528 C 209.364 187.001,207.892 185.835,204.899 184.302 C 197.305 180.411,187.532 179.727,179.999 182.559 C 178.234 183.222,177.130 183.801,171.583 186.970 C 168.316 188.836,167.733 189.117,167.638 188.872 C 167.576 188.713,167.361 187.646,167.160 186.500 C 166.960 185.354,166.670 183.779,166.516 183.000 L 166.237 181.583 164.160 181.602 C 156.213 181.674,153.217 185.778,157.792 190.324 C 164.157 196.649,172.161 200.381,179.417 200.407 C 187.656 200.436,187.181 197.193,178.378 193.322 C 175.582 192.092,175.271 191.652,176.341 190.434 C 178.006 188.537,180.388 188.912,184.122 191.657 C 196.909 201.058,184.016 211.311,166.750 205.472 C 155.215 201.571,145.511 191.071,147.821 184.991 C 149.526 180.506,157.497 177.736,165.233 178.941 C 165.855 179.038,165.879 179.025,165.775 178.646 C 165.474 177.551,165.299 174.700,165.391 172.417 C 166.081 155.425,181.328 142.428,198.524 144.175 M272.630 153.684 C 291.853 156.357,303.654 177.258,295.900 194.894 C 295.306 196.245,295.321 196.490,295.996 196.497 C 297.395 196.512,303.017 198.958,305.754 200.742 C 311.818 204.696,313.145 208.736,309.538 212.267 C 299.909 221.695,274.447 222.926,261.891 214.571 C 253.695 209.117,255.275 203.210,265.589 200.749 C 271.304 199.385,275.283 200.165,275.939 202.778 C 276.267 204.086,275.764 204.276,271.667 204.393 C 265.245 204.576,261.285 205.790,262.082 207.330 C 263.378 209.837,272.182 212.333,279.726 212.333 C 287.392 212.333,297.980 210.028,300.754 207.756 C 303.767 205.287,300.988 201.314,294.697 199.094 L 294.050 198.866 293.745 199.558 C 293.186 200.829,291.341 204.791,291.221 204.979 C 291.199 205.013,289.312 203.224,287.027 201.003 C 279.352 193.543,274.830 191.213,266.339 190.342 C 258.680 189.556,254.131 190.749,245.286 195.863 C 242.738 197.337,240.608 198.497,240.552 198.441 C 240.496 198.385,240.317 197.570,240.154 196.628 C 239.991 195.687,239.658 193.829,239.415 192.500 C 237.921 184.342,237.858 181.043,239.103 176.083 C 242.060 164.299,252.355 155.041,264.014 153.681 C 264.877 153.581,265.846 153.468,266.167 153.431 C 267.079 153.325,271.212 153.486,272.630 153.684 M159.516 208.339 C 161.198 210.244,164.653 214.146,167.319 217.149 C 172.938 223.481,181.899 228.901,197.250 235.251 C 204.641 238.309,211.845 240.987,220.083 243.741 L 222.917 244.687 225.917 244.503 C 235.499 243.916,249.706 242.327,256.417 241.093 C 257.150 240.958,258.800 240.654,260.083 240.418 C 267.756 239.004,274.753 236.982,279.083 234.927 C 280.384 234.310,283.169 232.546,288.666 228.859 C 292.928 226.000,296.436 223.725,296.462 223.803 C 296.505 223.931,296.006 226.299,295.174 229.917 C 295.005 230.650,294.710 231.963,294.517 232.833 C 292.015 244.143,291.787 245.020,290.250 249.250 C 277.140 285.335,234.894 303.452,198.917 288.419 C 198.550 288.266,197.950 288.015,197.583 287.862 C 181.561 281.166,166.805 265.933,160.989 250.083 C 159.894 247.099,159.584 246.178,159.000 244.167 C 157.319 238.372,156.668 233.969,156.550 227.583 C 156.466 223.076,156.847 208.693,157.106 206.592 L 157.207 205.768 157.812 206.431 C 158.144 206.795,158.911 207.654,159.516 208.339 M91.342 306.002 C 89.780 310.368,87.276 313.714,83.501 316.479 L 82.169 317.455 83.673 317.993 C 87.942 319.520,91.328 322.038,93.994 325.667 C 94.567 326.446,95.051 327.101,95.071 327.123 C 95.090 327.144,95.280 326.657,95.492 326.039 C 97.032 321.547,99.642 318.012,103.517 315.174 L 104.847 314.200 103.715 313.837 C 99.194 312.389,95.045 309.221,92.302 305.122 L 91.881 304.493 91.342 306.002 " stroke="none" fill="#f7af04" fill-rule="evenodd"></path><path id="path3" d="M221.833 67.897 C 203.323 77.002,180.549 86.211,165.292 90.761 C 164.123 91.109,163.167 91.444,163.167 91.505 C 163.167 91.626,169.033 93.850,175.188 96.062 C 183.160 98.927,193.534 102.281,200.500 104.244 C 202.012 104.670,203.737 105.157,204.333 105.327 C 216.169 108.695,231.904 111.670,245.417 113.093 C 250.460 113.624,250.457 113.624,250.388 113.042 C 250.256 111.912,249.660 101.512,249.508 97.667 C 249.178 89.340,249.218 89.766,248.643 88.386 C 246.121 82.328,236.616 73.943,224.833 67.382 L 223.917 66.872 221.833 67.897 M147.583 95.500 C 146.598 95.760,139.700 97.194,137.167 97.665 C 128.347 99.304,119.854 100.424,110.000 101.246 C 105.178 101.649,103.132 101.776,94.750 102.200 C 90.115 102.434,66.157 102.494,63.049 102.279 L 61.182 102.150 60.284 103.367 C 50.768 116.274,45.775 129.311,48.265 134.750 C 53.937 147.141,57.098 154.724,59.865 162.583 C 61.719 167.851,62.197 169.376,64.330 176.833 C 64.622 177.855,65.046 179.571,65.813 182.833 C 66.700 186.611,68.004 193.806,68.486 197.583 C 68.579 198.317,68.729 199.479,68.818 200.167 C 69.035 201.827,69.616 208.398,69.850 211.833 C 69.953 213.346,70.066 219.780,70.100 226.132 C 70.171 239.151,70.087 238.216,71.568 242.372 C 79.322 264.132,104.252 285.435,137.152 298.415 C 141.048 299.952,147.639 302.249,147.772 302.117 C 147.797 302.092,147.027 301.211,146.059 300.161 C 131.482 284.321,121.406 267.798,116.780 252.148 C 115.932 249.278,115.167 246.217,115.167 245.692 C 115.167 245.502,114.546 244.574,113.787 243.631 C 107.487 235.800,104.521 229.927,100.649 217.614 C 97.262 206.843,96.667 204.931,96.667 204.814 C 96.667 204.750,97.848 205.356,99.292 206.161 C 108.248 211.151,113.077 213.747,114.325 214.243 C 116.028 214.920,117.994 215.561,118.086 215.470 C 118.208 215.347,121.313 205.934,122.143 203.167 C 125.348 192.488,127.403 182.576,128.499 172.515 C 128.968 168.213,128.976 168.333,128.208 168.336 C 121.936 168.367,112.226 172.651,108.333 177.106 C 108.103 177.368,106.391 179.365,104.527 181.542 C 102.664 183.719,101.089 185.497,101.028 185.494 C 100.863 185.485,95.278 175.627,94.579 174.111 C 87.958 159.750,94.449 142.078,108.917 135.078 C 114.335 132.456,121.441 131.390,126.811 132.392 C 127.670 132.552,128.415 132.641,128.467 132.589 C 128.574 132.481,128.294 128.569,127.893 124.583 C 127.595 121.622,127.656 120.930,128.428 118.561 C 130.503 112.196,136.887 104.476,146.257 97.001 C 147.407 96.084,148.288 95.341,148.215 95.350 C 148.143 95.360,147.858 95.427,147.583 95.500 M302.042 120.448 C 302.202 120.490,302.465 120.490,302.625 120.448 C 302.785 120.406,302.654 120.372,302.333 120.372 C 302.012 120.372,301.881 120.406,302.042 120.448 M255.208 121.115 C 255.369 121.157,255.631 121.157,255.792 121.115 C 255.952 121.073,255.821 121.039,255.500 121.039 C 255.179 121.039,255.048 121.073,255.208 121.115 M291.625 121.118 C 291.831 121.157,292.169 121.157,292.375 121.118 C 292.581 121.078,292.412 121.045,292.000 121.045 C 291.587 121.045,291.419 121.078,291.625 121.118 M258.042 121.282 C 258.202 121.323,258.465 121.323,258.625 121.282 C 258.785 121.240,258.654 121.205,258.333 121.205 C 258.012 121.205,257.881 121.240,258.042 121.282 M288.460 121.285 C 288.668 121.324,288.968 121.323,289.127 121.281 C 289.286 121.239,289.117 121.207,288.750 121.209 C 288.383 121.211,288.253 121.245,288.460 121.285 M262.042 121.448 C 262.202 121.490,262.465 121.490,262.625 121.448 C 262.785 121.406,262.654 121.372,262.333 121.372 C 262.012 121.372,261.881 121.406,262.042 121.448 M284.042 121.448 C 284.202 121.490,284.465 121.490,284.625 121.448 C 284.785 121.406,284.654 121.372,284.333 121.372 C 284.012 121.372,283.881 121.406,284.042 121.448 M271.199 121.624 C 272.179 121.654,273.829 121.654,274.866 121.625 C 275.902 121.595,275.100 121.571,273.083 121.571 C 271.067 121.571,270.219 121.595,271.199 121.624 M135.539 130.500 C 135.539 130.821,135.573 130.952,135.615 130.792 C 135.657 130.631,135.657 130.369,135.615 130.208 C 135.573 130.048,135.539 130.179,135.539 130.500 M136.383 144.333 C 136.383 144.837,136.415 145.044,136.453 144.792 C 136.491 144.540,136.491 144.127,136.453 143.875 C 136.415 143.623,136.383 143.829,136.383 144.333 M136.573 153.500 C 136.573 156.021,136.596 157.052,136.625 155.792 C 136.653 154.531,136.653 152.469,136.625 151.208 C 136.596 149.948,136.573 150.979,136.573 153.500 M266.960 153.451 C 267.168 153.491,267.468 153.490,267.627 153.448 C 267.786 153.406,267.617 153.374,267.250 153.375 C 266.883 153.377,266.753 153.411,266.960 153.451 M268.794 153.451 C 269.001 153.491,269.301 153.490,269.460 153.448 C 269.620 153.406,269.450 153.374,269.083 153.375 C 268.717 153.377,268.586 153.411,268.794 153.451 M247.075 162.042 L 246.417 162.750 247.125 162.091 C 247.784 161.478,247.910 161.333,247.784 161.333 C 247.757 161.333,247.438 161.652,247.075 162.042 M99.042 162.083 C 99.044 162.450,99.078 162.580,99.118 162.373 C 99.158 162.166,99.156 161.866,99.115 161.706 C 99.073 161.547,99.040 161.717,99.042 162.083 M136.381 162.250 C 136.382 162.708,136.415 162.876,136.453 162.623 C 136.491 162.369,136.490 161.994,136.451 161.789 C 136.411 161.584,136.380 161.792,136.381 162.250 M289.417 162.167 C 289.775 162.533,290.105 162.833,290.151 162.833 C 290.197 162.833,289.941 162.533,289.583 162.167 C 289.225 161.800,288.895 161.500,288.849 161.500 C 288.803 161.500,289.059 161.800,289.417 162.167 M225.372 174.000 C 225.372 174.321,225.406 174.452,225.448 174.292 C 225.490 174.131,225.490 173.869,225.448 173.708 C 225.406 173.548,225.372 173.679,225.372 174.000 M159.042 178.782 C 159.202 178.823,159.465 178.823,159.625 178.782 C 159.785 178.740,159.654 178.705,159.333 178.705 C 159.012 178.705,158.881 178.740,159.042 178.782 M162.708 178.782 C 162.869 178.823,163.131 178.823,163.292 178.782 C 163.452 178.740,163.321 178.705,163.000 178.705 C 162.679 178.705,162.548 178.740,162.708 178.782 M298.209 181.750 C 298.211 182.117,298.245 182.247,298.285 182.040 C 298.324 181.832,298.323 181.532,298.281 181.373 C 298.239 181.214,298.207 181.383,298.209 181.750 M238.229 183.083 C 238.229 184.092,238.257 184.483,238.290 183.952 C 238.323 183.422,238.323 182.597,238.289 182.119 C 238.256 181.641,238.229 182.075,238.229 183.083 M298.212 184.833 C 298.212 185.246,298.245 185.415,298.284 185.208 C 298.324 185.002,298.324 184.665,298.284 184.458 C 298.245 184.252,298.212 184.421,298.212 184.833 M212.167 189.750 C 212.942 190.529,213.613 191.167,213.659 191.167 C 213.705 191.167,213.108 190.529,212.333 189.750 C 211.558 188.971,210.887 188.333,210.841 188.333 C 210.795 188.333,211.392 188.971,212.167 189.750 M284.583 198.667 C 285.220 199.308,285.779 199.833,285.824 199.833 C 285.870 199.833,285.387 199.308,284.750 198.667 C 284.113 198.025,283.555 197.500,283.509 197.500 C 283.463 197.500,283.947 198.025,284.583 198.667 M179.211 200.620 C 179.464 200.658,179.839 200.657,180.044 200.617 C 180.249 200.578,180.042 200.546,179.583 200.548 C 179.125 200.549,178.957 200.581,179.211 200.620 M274.833 201.417 C 275.144 201.737,275.436 202.000,275.482 202.000 C 275.528 202.000,275.311 201.737,275.000 201.417 C 274.689 201.096,274.397 200.833,274.351 200.833 C 274.305 200.833,274.522 201.096,274.833 201.417 M308.833 203.250 C 309.144 203.571,309.436 203.833,309.482 203.833 C 309.528 203.833,309.311 203.571,309.000 203.250 C 308.689 202.929,308.397 202.667,308.351 202.667 C 308.305 202.667,308.522 202.929,308.833 203.250 M302.042 205.417 C 302.044 205.783,302.078 205.914,302.118 205.706 C 302.158 205.499,302.156 205.199,302.115 205.040 C 302.073 204.880,302.040 205.050,302.042 205.417 M156.883 211.167 C 156.883 211.671,156.915 211.877,156.953 211.625 C 156.991 211.373,156.991 210.960,156.953 210.708 C 156.915 210.456,156.883 210.662,156.883 211.167 M258.826 212.042 C 259.517 212.778,259.667 212.910,259.667 212.785 C 259.667 212.758,259.310 212.402,258.875 211.993 L 258.083 211.250 258.826 212.042 M279.047 212.456 C 279.485 212.490,280.160 212.490,280.547 212.455 C 280.934 212.420,280.575 212.392,279.750 212.392 C 278.925 212.393,278.609 212.422,279.047 212.456 M156.712 215.500 C 156.712 215.912,156.745 216.081,156.784 215.875 C 156.824 215.669,156.824 215.331,156.784 215.125 C 156.745 214.919,156.712 215.088,156.712 215.500 M156.539 220.167 C 156.539 220.487,156.573 220.619,156.615 220.458 C 156.657 220.298,156.657 220.035,156.615 219.875 C 156.573 219.715,156.539 219.846,156.539 220.167 M280.875 220.115 C 281.035 220.157,281.298 220.157,281.458 220.115 C 281.619 220.073,281.487 220.039,281.167 220.039 C 280.846 220.039,280.715 220.073,280.875 220.115 M286.375 220.115 C 286.535 220.157,286.798 220.157,286.958 220.115 C 287.119 220.073,286.987 220.039,286.667 220.039 C 286.346 220.039,286.215 220.073,286.375 220.115 M324.575 228.250 C 324.575 231.275,324.597 232.536,324.625 231.052 C 324.652 229.568,324.652 227.093,324.625 225.552 C 324.597 224.011,324.575 225.225,324.575 228.250 M120.872 231.167 C 120.872 231.487,120.906 231.619,120.948 231.458 C 120.990 231.298,120.990 231.035,120.948 230.875 C 120.906 230.715,120.872 230.846,120.872 231.167 M120.872 234.500 C 120.872 234.821,120.906 234.952,120.948 234.792 C 120.990 234.631,120.990 234.369,120.948 234.208 C 120.906 234.048,120.872 234.179,120.872 234.500 M325.205 247.000 C 325.205 247.321,325.240 247.452,325.282 247.292 C 325.323 247.131,325.323 246.869,325.282 246.708 C 325.240 246.548,325.205 246.679,325.205 247.000 M270.324 267.792 L 269.750 268.417 270.375 267.842 C 270.957 267.308,271.077 267.167,270.949 267.167 C 270.922 267.167,270.640 267.448,270.324 267.792 M268.906 269.208 L 268.417 269.750 268.958 269.260 C 269.463 268.804,269.577 268.667,269.448 268.667 C 269.419 268.667,269.175 268.910,268.906 269.208 M306.573 289.542 L 306.083 290.083 306.625 289.594 C 307.130 289.138,307.243 289.000,307.115 289.000 C 307.086 289.000,306.842 289.244,306.573 289.542 M155.750 300.000 C 157.123 301.375,158.283 302.500,158.329 302.500 C 158.375 302.500,157.289 301.375,155.917 300.000 C 154.544 298.625,153.383 297.500,153.338 297.500 C 153.292 297.500,154.377 298.625,155.750 300.000 M215.958 333.955 C 216.348 333.990,216.985 333.990,217.375 333.955 C 217.765 333.920,217.446 333.892,216.667 333.892 C 215.887 333.892,215.569 333.920,215.958 333.955 " stroke="none" fill="#c87313" fill-rule="evenodd"></path><path id="path4" d="M282.667 71.552 C 282.667 71.581,282.910 71.825,283.208 72.094 L 283.750 72.583 283.260 72.042 C 282.804 71.537,282.667 71.423,282.667 71.552 M241.333 79.083 C 241.644 79.404,241.936 79.667,241.982 79.667 C 242.028 79.667,241.811 79.404,241.500 79.083 C 241.189 78.762,240.897 78.500,240.851 78.500 C 240.805 78.500,241.022 78.762,241.333 79.083 M244.167 81.917 C 244.478 82.237,244.770 82.500,244.815 82.500 C 244.861 82.500,244.644 82.237,244.333 81.917 C 244.022 81.596,243.730 81.333,243.685 81.333 C 243.639 81.333,243.856 81.596,244.167 81.917 M295.745 82.708 L 294.750 83.750 295.792 82.755 C 296.365 82.208,296.833 81.739,296.833 81.714 C 296.833 81.590,296.669 81.741,295.745 82.708 M249.209 90.417 C 249.211 90.783,249.245 90.914,249.285 90.706 C 249.324 90.499,249.323 90.199,249.281 90.040 C 249.239 89.880,249.207 90.050,249.209 90.417 M249.379 95.167 C 249.379 95.579,249.411 95.748,249.451 95.542 C 249.491 95.335,249.491 94.998,249.451 94.792 C 249.411 94.585,249.379 94.754,249.379 95.167 M249.542 99.250 C 249.544 99.617,249.578 99.747,249.618 99.540 C 249.658 99.332,249.656 99.032,249.615 98.873 C 249.573 98.714,249.540 98.883,249.542 99.250 M105.127 101.618 C 105.334 101.658,105.634 101.656,105.794 101.615 C 105.953 101.573,105.783 101.540,105.417 101.542 C 105.050 101.544,104.920 101.578,105.127 101.618 M102.708 101.782 C 102.869 101.823,103.131 101.823,103.292 101.782 C 103.452 101.740,103.321 101.705,103.000 101.705 C 102.679 101.705,102.548 101.740,102.708 101.782 M249.714 102.417 C 249.716 102.875,249.748 103.043,249.786 102.789 C 249.825 102.536,249.824 102.161,249.784 101.956 C 249.744 101.751,249.713 101.958,249.714 102.417 M95.875 102.115 C 96.035 102.157,96.298 102.157,96.458 102.115 C 96.619 102.073,96.487 102.039,96.167 102.039 C 95.846 102.039,95.715 102.073,95.875 102.115 M63.375 102.289 C 63.810 102.324,64.523 102.324,64.958 102.289 C 65.394 102.255,65.037 102.227,64.167 102.227 C 63.296 102.227,62.940 102.255,63.375 102.289 M90.958 102.289 C 91.348 102.324,91.985 102.324,92.375 102.289 C 92.765 102.254,92.446 102.225,91.667 102.225 C 90.888 102.225,90.569 102.254,90.958 102.289 M73.958 102.458 C 76.273 102.484,80.060 102.484,82.375 102.458 C 84.690 102.432,82.796 102.411,78.167 102.411 C 73.537 102.411,71.644 102.432,73.958 102.458 M250.372 112.833 C 250.372 113.154,250.406 113.285,250.448 113.125 C 250.490 112.965,250.490 112.702,250.448 112.542 C 250.406 112.381,250.372 112.513,250.372 112.833 M323.000 118.452 C 323.137 118.502,323.400 118.665,323.583 118.813 C 323.914 119.081,323.914 119.080,323.599 118.708 C 323.425 118.502,323.162 118.339,323.016 118.346 C 322.790 118.358,322.788 118.374,323.000 118.452 M259.125 121.284 C 259.331 121.324,259.669 121.324,259.875 121.284 C 260.081 121.245,259.912 121.212,259.500 121.212 C 259.087 121.212,258.919 121.245,259.125 121.284 M287.044 121.286 C 287.297 121.325,287.672 121.324,287.877 121.284 C 288.082 121.244,287.875 121.213,287.417 121.214 C 286.958 121.216,286.791 121.248,287.044 121.286 M263.042 121.448 C 263.202 121.490,263.465 121.490,263.625 121.448 C 263.785 121.406,263.654 121.372,263.333 121.372 C 263.012 121.372,262.881 121.406,263.042 121.448 M282.792 121.451 C 282.998 121.491,283.335 121.491,283.542 121.451 C 283.748 121.411,283.579 121.379,283.167 121.379 C 282.754 121.379,282.585 121.411,282.792 121.451 M128.372 130.000 C 128.372 130.321,128.406 130.452,128.448 130.292 C 128.490 130.131,128.490 129.869,128.448 129.708 C 128.406 129.548,128.372 129.679,128.372 130.000 M128.468 132.250 C 128.431 132.571,128.460 132.833,128.533 132.833 C 128.607 132.833,128.667 132.571,128.667 132.250 C 128.667 131.929,128.637 131.667,128.602 131.667 C 128.566 131.667,128.506 131.929,128.468 132.250 M121.125 132.123 C 121.698 132.156,122.635 132.156,123.208 132.123 C 123.781 132.091,123.313 132.064,122.167 132.064 C 121.021 132.064,120.552 132.091,121.125 132.123 M100.828 140.792 L 99.917 141.750 100.875 140.839 C 101.765 139.993,101.910 139.833,101.786 139.833 C 101.760 139.833,101.329 140.265,100.828 140.792 M129.214 142.083 C 129.216 142.542,129.248 142.709,129.286 142.456 C 129.325 142.203,129.324 141.828,129.284 141.623 C 129.244 141.418,129.213 141.625,129.214 142.083 M105.745 145.875 L 104.750 146.917 105.792 145.922 C 106.365 145.375,106.833 144.906,106.833 144.880 C 106.833 144.757,106.669 144.907,105.745 145.875 M136.381 145.917 C 136.382 146.375,136.415 146.543,136.453 146.289 C 136.491 146.036,136.490 145.661,136.451 145.456 C 136.411 145.251,136.380 145.458,136.381 145.917 M129.385 146.417 C 129.386 146.967,129.417 147.172,129.454 146.872 C 129.491 146.572,129.490 146.122,129.452 145.872 C 129.414 145.622,129.384 145.867,129.385 146.417 M339.379 147.833 C 339.379 148.246,339.411 148.415,339.451 148.208 C 339.491 148.002,339.491 147.665,339.451 147.458 C 339.411 147.252,339.379 147.421,339.379 147.833 M194.542 151.123 C 194.977 151.157,195.690 151.157,196.125 151.123 C 196.560 151.088,196.204 151.060,195.333 151.060 C 194.463 151.060,194.106 151.088,194.542 151.123 M173.911 153.042 L 172.917 154.083 173.958 153.089 C 174.926 152.164,175.076 152.000,174.953 152.000 C 174.927 152.000,174.459 152.469,173.911 153.042 M211.167 157.385 C 211.167 157.414,211.410 157.658,211.708 157.927 L 212.250 158.417 211.760 157.875 C 211.304 157.370,211.167 157.257,211.167 157.385 M92.039 159.833 C 92.039 160.154,92.073 160.285,92.115 160.125 C 92.157 159.965,92.157 159.702,92.115 159.542 C 92.073 159.381,92.039 159.512,92.039 159.833 M129.379 160.500 C 129.379 160.912,129.411 161.081,129.451 160.875 C 129.491 160.669,129.491 160.331,129.451 160.125 C 129.411 159.919,129.379 160.087,129.379 160.500 M136.379 160.833 C 136.379 161.246,136.411 161.415,136.451 161.208 C 136.491 161.002,136.491 160.665,136.451 160.458 C 136.411 160.252,136.379 160.421,136.379 160.833 M267.958 160.451 C 268.165 160.491,268.502 160.491,268.708 160.451 C 268.915 160.411,268.746 160.379,268.333 160.379 C 267.921 160.379,267.752 160.411,267.958 160.451 M127.542 161.282 C 127.702 161.323,127.965 161.323,128.125 161.282 C 128.285 161.240,128.154 161.205,127.833 161.205 C 127.513 161.205,127.381 161.240,127.542 161.282 M92.039 164.167 C 92.039 164.487,92.073 164.619,92.115 164.458 C 92.157 164.298,92.157 164.035,92.115 163.875 C 92.073 163.715,92.039 163.846,92.039 164.167 M251.910 167.208 L 251.083 168.083 251.958 167.256 C 252.440 166.801,252.833 166.408,252.833 166.381 C 252.833 166.257,252.679 166.395,251.910 167.208 M284.417 167.167 C 284.775 167.533,285.105 167.833,285.151 167.833 C 285.197 167.833,284.941 167.533,284.583 167.167 C 284.225 166.800,283.895 166.500,283.849 166.500 C 283.803 166.500,284.059 166.800,284.417 167.167 M128.448 168.283 C 128.649 168.322,128.846 168.480,128.887 168.635 C 128.940 168.835,128.967 168.807,128.981 168.542 C 128.997 168.234,128.918 168.171,128.542 168.189 C 128.164 168.208,128.148 168.225,128.448 168.283 M104.573 170.875 L 104.083 171.417 104.625 170.927 C 104.923 170.658,105.167 170.414,105.167 170.385 C 105.167 170.257,105.029 170.370,104.573 170.875 M165.379 172.333 C 165.379 172.746,165.411 172.915,165.451 172.708 C 165.491 172.502,165.491 172.165,165.451 171.958 C 165.411 171.752,165.379 171.921,165.379 172.333 M102.740 172.708 L 102.250 173.250 102.792 172.760 C 103.090 172.491,103.333 172.248,103.333 172.219 C 103.333 172.090,103.196 172.203,102.740 172.708 M172.387 173.500 C 172.387 174.096,172.417 174.340,172.454 174.042 C 172.491 173.744,172.491 173.256,172.454 172.958 C 172.417 172.660,172.387 172.904,172.387 173.500 M188.127 173.785 C 188.334 173.824,188.634 173.823,188.794 173.781 C 188.953 173.739,188.783 173.707,188.417 173.709 C 188.050 173.711,187.920 173.745,188.127 173.785 M191.542 173.782 C 191.702 173.823,191.965 173.823,192.125 173.782 C 192.285 173.740,192.154 173.705,191.833 173.705 C 191.512 173.705,191.381 173.740,191.542 173.782 M165.379 174.833 C 165.379 175.246,165.411 175.415,165.451 175.208 C 165.491 175.002,165.491 174.665,165.451 174.458 C 165.411 174.252,165.379 174.421,165.379 174.833 M160.458 178.789 C 160.848 178.824,161.485 178.824,161.875 178.789 C 162.265 178.754,161.946 178.725,161.167 178.725 C 160.387 178.725,160.069 178.754,160.458 178.789 M189.208 180.790 C 189.735 180.823,190.598 180.823,191.125 180.790 C 191.652 180.757,191.221 180.730,190.167 180.730 C 189.112 180.730,188.681 180.757,189.208 180.790 M298.214 183.417 C 298.216 183.875,298.248 184.043,298.286 183.789 C 298.325 183.536,298.324 183.161,298.284 182.956 C 298.244 182.751,298.213 182.958,298.214 183.417 M215.731 183.288 C 216.045 183.659,216.345 183.656,216.320 183.282 C 216.311 183.149,216.278 183.155,216.220 183.302 C 216.152 183.471,216.050 183.451,215.774 183.219 L 215.417 182.917 215.731 183.288 M262.380 183.123 C 262.818 183.157,263.493 183.157,263.880 183.122 C 264.267 183.087,263.908 183.059,263.083 183.059 C 262.258 183.060,261.942 183.088,262.380 183.123 M157.750 190.500 C 158.108 190.867,158.438 191.167,158.484 191.167 C 158.530 191.167,158.275 190.867,157.917 190.500 C 157.559 190.133,157.228 189.833,157.182 189.833 C 157.137 189.833,157.392 190.133,157.750 190.500 M262.542 190.119 C 262.794 190.158,263.206 190.158,263.458 190.119 C 263.710 190.081,263.504 190.050,263.000 190.050 C 262.496 190.050,262.290 190.081,262.542 190.119 M270.875 200.115 C 271.035 200.157,271.298 200.157,271.458 200.115 C 271.619 200.073,271.487 200.039,271.167 200.039 C 270.846 200.039,270.715 200.073,270.875 200.115 M290.083 204.000 C 290.628 204.550,291.110 205.000,291.156 205.000 C 291.202 205.000,290.794 204.550,290.250 204.000 C 289.706 203.450,289.223 203.000,289.177 203.000 C 289.131 203.000,289.539 203.450,290.083 204.000 M273.875 204.282 C 274.035 204.323,274.298 204.323,274.458 204.282 C 274.619 204.240,274.487 204.205,274.167 204.205 C 273.846 204.205,273.715 204.240,273.875 204.282 M69.539 208.667 C 69.539 208.987,69.573 209.119,69.615 208.958 C 69.657 208.798,69.657 208.535,69.615 208.375 C 69.573 208.215,69.539 208.346,69.539 208.667 M69.709 211.083 C 69.711 211.450,69.745 211.580,69.785 211.373 C 69.824 211.166,69.823 210.866,69.781 210.706 C 69.739 210.547,69.707 210.717,69.709 211.083 M156.875 212.583 C 156.877 212.950,156.911 213.080,156.951 212.873 C 156.991 212.666,156.990 212.366,156.948 212.206 C 156.906 212.047,156.874 212.217,156.875 212.583 M69.872 214.167 C 69.872 214.487,69.906 214.619,69.948 214.458 C 69.990 214.298,69.990 214.035,69.948 213.875 C 69.906 213.715,69.872 213.846,69.872 214.167 M156.717 217.000 C 156.717 217.504,156.748 217.710,156.786 217.458 C 156.824 217.206,156.824 216.794,156.786 216.542 C 156.748 216.290,156.717 216.496,156.717 217.000 M70.050 219.000 C 70.050 219.504,70.081 219.710,70.119 219.458 C 70.158 219.206,70.158 218.794,70.119 218.542 C 70.081 218.290,70.050 218.496,70.050 219.000 M169.417 219.667 C 169.775 220.033,170.105 220.333,170.151 220.333 C 170.197 220.333,169.941 220.033,169.583 219.667 C 169.225 219.300,168.895 219.000,168.849 219.000 C 168.803 219.000,169.059 219.300,169.417 219.667 M282.701 220.123 C 283.316 220.155,284.366 220.156,285.034 220.124 C 285.703 220.092,285.200 220.066,283.917 220.066 C 282.633 220.065,282.086 220.091,282.701 220.123 M156.542 221.250 C 156.544 221.617,156.578 221.747,156.618 221.540 C 156.658 221.332,156.656 221.032,156.615 220.873 C 156.573 220.714,156.540 220.883,156.542 221.250 M113.881 229.750 C 113.882 230.208,113.915 230.376,113.953 230.123 C 113.991 229.869,113.990 229.494,113.951 229.289 C 113.911 229.084,113.880 229.292,113.881 229.750 M70.053 235.000 C 70.053 235.596,70.084 235.840,70.121 235.542 C 70.158 235.244,70.158 234.756,70.121 234.458 C 70.084 234.160,70.053 234.404,70.053 235.000 M324.709 236.583 C 324.711 236.950,324.745 237.080,324.785 236.873 C 324.824 236.666,324.823 236.366,324.781 236.206 C 324.739 236.047,324.707 236.217,324.709 236.583 M325.039 243.667 C 325.039 243.987,325.073 244.119,325.115 243.958 C 325.157 243.798,325.157 243.535,325.115 243.375 C 325.073 243.215,325.039 243.346,325.039 243.667 M225.542 244.615 C 225.702 244.657,225.965 244.657,226.125 244.615 C 226.285 244.573,226.154 244.539,225.833 244.539 C 225.512 244.539,225.381 244.573,225.542 244.615 M230.708 251.282 C 230.869 251.323,231.131 251.323,231.292 251.282 C 231.452 251.240,231.321 251.205,231.000 251.205 C 230.679 251.205,230.548 251.240,230.708 251.282 M84.833 264.052 C 84.833 264.081,85.077 264.325,85.375 264.594 L 85.917 265.083 85.427 264.542 C 84.971 264.037,84.833 263.923,84.833 264.052 M88.417 267.833 C 89.330 268.750,90.115 269.500,90.160 269.500 C 90.206 269.500,89.497 268.750,88.583 267.833 C 87.670 266.917,86.885 266.167,86.840 266.167 C 86.794 266.167,87.503 266.917,88.417 267.833 M179.167 266.219 C 179.167 266.248,179.410 266.491,179.708 266.760 L 180.250 267.250 179.760 266.708 C 179.304 266.203,179.167 266.090,179.167 266.219 M271.406 266.708 L 270.917 267.250 271.458 266.760 C 271.963 266.304,272.077 266.167,271.948 266.167 C 271.919 266.167,271.675 266.410,271.406 266.708 M267.906 270.208 L 267.417 270.750 267.958 270.260 C 268.463 269.804,268.577 269.667,268.448 269.667 C 268.419 269.667,268.175 269.910,267.906 270.208 M175.000 272.046 C 175.000 272.071,175.581 272.652,176.292 273.338 L 177.583 274.583 176.338 273.292 C 175.180 272.092,175.000 271.924,175.000 272.046 M274.579 273.542 L 273.250 274.917 274.625 273.587 C 275.902 272.353,276.076 272.167,275.954 272.167 C 275.929 272.167,275.311 272.785,274.579 273.542 M224.458 286.624 C 225.215 286.655,226.452 286.655,227.208 286.624 C 227.965 286.593,227.346 286.568,225.833 286.568 C 224.321 286.568,223.702 286.593,224.458 286.624 M303.664 292.625 L 301.583 294.750 303.708 292.669 C 304.877 291.525,305.833 290.568,305.833 290.544 C 305.833 290.424,305.597 290.651,303.664 292.625 M223.042 293.615 C 223.202 293.657,223.465 293.657,223.625 293.615 C 223.785 293.573,223.654 293.539,223.333 293.539 C 223.012 293.539,222.881 293.573,223.042 293.615 M151.833 296.052 C 151.833 296.081,152.077 296.325,152.375 296.594 L 152.917 297.083 152.427 296.542 C 151.971 296.037,151.833 295.923,151.833 296.052 M145.000 299.052 C 145.000 299.081,145.244 299.325,145.542 299.594 L 146.083 300.083 145.594 299.542 C 145.138 299.037,145.000 298.923,145.000 299.052 M147.417 301.666 C 147.692 301.986,147.935 302.280,147.958 302.319 C 147.981 302.357,148.036 302.353,148.081 302.308 C 148.125 302.264,147.882 301.970,147.540 301.655 L 146.917 301.083 147.417 301.666 M158.333 302.552 C 158.333 302.581,158.577 302.825,158.875 303.094 L 159.417 303.583 158.927 303.042 C 158.471 302.537,158.333 302.423,158.333 302.552 M86.410 313.875 L 85.583 314.750 86.458 313.923 C 87.271 313.154,87.410 313.000,87.285 313.000 C 87.259 313.000,86.865 313.394,86.410 313.875 M214.292 333.951 C 214.498 333.991,214.835 333.991,215.042 333.951 C 215.248 333.911,215.079 333.879,214.667 333.879 C 214.254 333.879,214.085 333.911,214.292 333.951 M218.377 333.953 C 218.631 333.991,219.006 333.990,219.211 333.951 C 219.416 333.911,219.208 333.880,218.750 333.881 C 218.292 333.882,218.124 333.915,218.377 333.953 " stroke="none" fill="#87572b" fill-rule="evenodd"></path></g></svg>