<svg id="svg" version="1.1" xmlns="http://www.w3.org/2000/svg" xmlns:xlink="http://www.w3.org/1999/xlink" width="400" height="471.1824123588829" viewBox="0, 0, 400,471.1824123588829"><g id="svgg"><path id="path0" d="M199.509 32.985 C 198.546 33.168,197.677 33.660,197.095 34.352 C 196.487 35.074,197.817 31.599,181.968 73.883 L 168.739 109.180 200.324 109.180 C 217.696 109.180,231.910 109.131,231.910 109.072 C 231.910 109.012,229.778 103.290,227.173 96.357 C 224.567 89.423,220.982 79.863,219.204 75.110 C 216.633 68.238,210.603 52.160,204.741 36.550 C 203.692 33.755,201.894 32.531,199.509 32.985 M234.244 118.753 C 233.391 120.258,222.338 139.432,221.028 141.679 C 220.462 142.651,219.262 144.728,218.362 146.294 C 217.462 147.860,216.312 149.848,215.805 150.712 C 214.336 153.219,213.612 154.541,213.707 154.541 C 213.755 154.541,214.469 154.234,215.292 153.859 C 223.974 149.902,236.805 147.837,245.517 148.994 C 246.713 149.153,246.846 149.137,246.794 148.844 C 246.676 148.184,235.151 117.624,235.020 117.624 C 234.945 117.624,234.596 118.132,234.244 118.753 M82.172 206.495 C 74.246 210.235,74.340 210.191,69.416 212.517 C 67.364 213.486,64.978 214.613,64.114 215.020 C 58.911 217.472,55.314 219.171,54.197 219.703 C 53.495 220.038,47.398 222.918,40.648 226.103 C 33.898 229.289,28.101 232.113,27.765 232.379 C 25.458 234.209,25.993 238.231,28.717 239.529 C 29.177 239.748,30.790 240.520,32.302 241.245 C 33.814 241.970,35.670 242.848,36.426 243.196 C 37.182 243.545,46.614 247.996,57.387 253.088 C 78.141 262.899,77.275 262.505,77.099 262.047 C 76.420 260.277,75.628 254.240,75.476 249.681 C 75.023 236.044,79.382 220.646,87.984 205.494 C 88.639 204.340,89.144 203.364,89.106 203.326 C 89.068 203.288,85.947 204.714,82.172 206.495 M213.280 205.023 C 204.483 206.751,195.579 215.898,190.082 228.851 L 189.046 231.291 188.043 231.422 C 179.256 232.567,177.983 234.066,176.626 244.870 C 175.799 251.450,175.790 251.802,176.427 252.439 C 177.380 253.392,177.963 253.176,181.735 250.478 C 183.341 249.329,184.772 248.434,184.914 248.489 C 185.299 248.637,193.469 253.449,193.838 253.745 C 194.128 253.979,194.131 254.275,193.878 257.143 C 193.196 264.861,193.768 265.101,200.489 259.915 C 209.495 252.967,210.114 251.317,206.895 242.835 L 206.383 241.488 206.941 240.774 C 215.512 229.781,219.346 216.231,216.466 207.114 C 215.744 204.828,215.404 204.605,213.280 205.023 M323.417 209.273 C 323.417 209.466,323.506 209.933,323.615 210.311 C 327.773 224.682,323.390 246.515,312.461 265.881 C 311.821 267.015,311.318 267.969,311.343 268.000 C 311.368 268.032,315.796 265.965,321.183 263.409 C 330.498 258.987,332.192 258.185,336.426 256.188 C 339.150 254.904,369.246 240.608,370.892 239.817 C 373.164 238.726,374.046 237.303,373.820 235.097 C 373.611 233.050,372.909 232.390,368.974 230.539 C 367.516 229.853,365.218 228.766,363.868 228.124 C 362.518 227.481,360.663 226.602,359.745 226.169 C 357.433 225.079,354.703 223.786,352.381 222.681 C 347.821 220.512,345.819 219.561,336.672 215.220 C 331.379 212.708,326.387 210.346,325.577 209.970 C 324.767 209.593,323.949 209.204,323.760 209.103 C 323.493 208.961,323.417 208.999,323.417 209.273 M208.261 215.507 C 211.857 216.576,212.630 221.663,209.515 223.756 C 208.459 224.465,206.519 224.675,205.392 224.203 C 200.079 221.977,202.754 213.868,208.261 215.507 M185.252 317.437 C 176.828 321.301,165.808 323.227,156.521 322.458 C 155.071 322.338,153.868 322.261,153.846 322.288 C 153.824 322.315,156.259 328.859,159.257 336.831 C 162.255 344.803,164.904 351.861,165.142 352.515 L 165.576 353.705 166.014 352.945 C 167.118 351.025,170.649 344.913,172.807 341.188 C 183.173 323.286,186.806 316.927,186.712 316.850 C 186.676 316.821,186.019 317.085,185.252 317.437 M179.903 391.900 C 186.048 408.289,192.234 424.791,193.650 428.571 C 197.221 438.102,197.359 438.304,200.308 438.318 C 203.530 438.333,203.073 439.208,211.257 417.378 C 215.145 407.010,221.382 390.376,225.118 380.414 C 228.853 370.451,231.910 362.256,231.910 362.201 C 231.910 362.146,217.694 362.101,200.320 362.101 L 168.731 362.101 179.903 391.900 " stroke="none" fill="#f0910a" fill-rule="evenodd"></path><path id="path1" d="M150.261 123.368 C 150.049 123.719,148.217 126.922,146.190 130.486 C 144.164 134.050,139.659 141.959,136.179 148.061 C 127.852 162.666,122.607 171.873,122.107 172.767 C 121.554 173.754,113.931 187.132,112.463 189.691 C 111.813 190.825,111.077 192.116,110.828 192.560 C 110.579 193.005,107.884 197.732,104.840 203.066 C 96.712 217.304,94.684 221.409,92.386 228.277 C 84.529 251.759,89.897 270.937,108.871 287.171 C 117.815 294.823,130.995 302.273,141.921 305.852 C 167.946 314.378,189.065 306.279,206.212 281.198 C 208.070 278.480,209.538 276.027,215.609 265.488 C 216.760 263.490,218.545 260.398,219.576 258.616 C 221.681 254.974,234.703 232.408,236.969 228.473 C 240.850 221.733,242.603 220.531,246.641 221.835 C 252.304 223.664,253.728 227.909,250.530 233.430 C 249.983 234.376,249.024 236.033,248.401 237.113 C 247.199 239.195,244.956 243.079,241.878 248.405 C 240.205 251.300,233.137 263.558,228.914 270.889 C 228.042 272.401,226.916 274.345,226.410 275.209 C 225.904 276.073,224.292 278.856,222.828 281.394 C 221.365 283.932,218.024 289.720,215.405 294.256 C 212.786 298.792,210.494 302.769,210.311 303.093 C 210.127 303.417,209.159 305.096,208.159 306.824 C 207.159 308.552,205.145 312.042,203.682 314.580 C 202.220 317.118,199.387 322.023,197.388 325.479 C 195.388 328.935,192.810 333.397,191.658 335.395 C 190.507 337.393,188.356 341.126,186.879 343.689 C 185.401 346.253,184.192 348.396,184.192 348.451 C 184.192 348.507,198.839 348.551,216.740 348.550 L 249.288 348.549 250.257 346.832 C 251.172 345.210,259.686 330.434,265.390 320.569 C 266.827 318.085,270.627 311.502,273.836 305.940 C 281.378 292.867,287.158 282.857,290.362 277.321 C 290.940 276.322,291.910 274.643,292.518 273.590 C 293.126 272.536,294.289 270.525,295.102 269.121 C 305.672 250.866,308.704 243.923,310.633 233.557 C 315.496 207.417,301.435 185.625,269.710 170.132 C 235.705 153.526,209.994 162.558,189.158 198.429 C 185.927 203.992,180.505 213.375,177.413 218.753 C 173.711 225.194,169.385 232.685,164.656 240.844 C 163.591 242.680,162.405 244.735,162.018 245.411 C 159.529 249.762,156.717 250.902,152.910 249.102 C 148.537 247.033,147.068 243.789,148.816 240.065 C 149.122 239.414,151.341 235.479,153.746 231.321 C 156.151 227.162,159.291 221.728,160.723 219.244 C 162.155 216.760,165.473 211.016,168.094 206.480 C 170.716 201.944,173.084 197.835,173.356 197.349 C 173.629 196.863,174.751 194.919,175.851 193.029 C 177.808 189.664,180.455 185.075,184.288 178.400 C 185.343 176.564,186.621 174.354,187.129 173.490 C 188.279 171.535,189.468 169.478,194.109 161.414 C 200.221 150.793,200.911 149.595,201.864 147.963 C 202.368 147.099,203.315 145.464,203.968 144.330 C 204.621 143.196,205.820 141.119,206.633 139.715 C 207.445 138.311,209.766 134.291,211.789 130.781 C 213.812 127.270,215.685 124.023,215.951 123.564 L 216.434 122.730 183.540 122.730 L 150.646 122.730 150.261 123.368 M216.705 200.028 C 219.854 201.079,221.616 204.349,222.386 210.572 C 223.487 219.466,219.785 231.406,212.899 241.168 L 212.117 242.277 212.557 243.622 C 214.187 248.602,214.025 252.669,212.066 255.980 C 210.842 258.050,204.394 263.725,199.421 267.110 C 195.282 269.928,190.321 268.296,188.876 263.641 C 188.469 262.329,188.430 257.999,188.817 256.993 C 188.941 256.668,185.309 254.398,184.910 254.551 C 184.778 254.602,183.842 255.230,182.830 255.946 C 179.016 258.645,175.428 258.687,172.804 256.064 C 170.531 253.791,170.444 252.088,172.024 240.746 C 172.865 234.709,174.399 231.658,177.699 229.464 C 179.500 228.267,183.432 226.819,184.914 226.807 C 185.267 226.805,185.579 226.320,186.715 224.006 C 193.346 210.507,202.178 202.180,212.077 200.095 C 214.218 199.644,215.497 199.625,216.705 200.028 M206.666 219.752 C 206.593 219.869,206.629 220.060,206.744 220.176 C 206.989 220.421,207.627 220.001,207.448 219.713 C 207.299 219.471,206.825 219.495,206.666 219.752 M309.075 319.833 L 308.002 320.962 309.131 319.889 C 309.752 319.299,310.260 318.790,310.260 318.760 C 310.260 318.614,310.072 318.784,309.075 319.833 " stroke="none" fill="#045cb1" fill-rule="evenodd"></path><path id="path2" d="M197.840 24.269 C 192.359 25.582,189.424 28.406,187.343 34.364 C 187.097 35.066,186.785 35.906,186.649 36.230 C 186.512 36.554,186.117 37.614,185.770 38.586 C 185.424 39.558,185.060 40.507,184.961 40.694 C 184.862 40.882,184.782 41.130,184.782 41.245 C 184.782 41.361,184.617 41.826,184.416 42.279 C 184.215 42.732,183.808 43.765,183.512 44.575 C 183.216 45.385,182.895 46.202,182.798 46.389 C 182.701 46.577,182.619 46.842,182.615 46.978 C 182.611 47.115,182.437 47.580,182.229 48.012 C 182.020 48.444,181.846 48.947,181.843 49.129 C 181.839 49.312,181.754 49.512,181.655 49.573 C 181.555 49.635,181.411 49.969,181.335 50.315 C 181.259 50.661,181.128 51.080,181.043 51.245 C 180.958 51.411,180.605 52.342,180.258 53.314 C 179.911 54.286,179.515 55.346,179.376 55.670 C 179.237 55.994,177.825 59.750,176.237 64.016 C 174.649 68.282,173.237 72.037,173.098 72.361 C 172.960 72.685,172.651 73.493,172.413 74.157 C 171.912 75.554,171.813 75.599,169.195 75.606 C 164.513 75.619,153.698 76.959,146.392 78.430 C 144.967 78.718,143.463 79.041,141.286 79.528 C 140.504 79.703,137.890 80.384,136.770 80.705 C 136.446 80.798,135.253 81.135,134.119 81.455 C 132.135 82.015,127.371 83.520,126.559 83.844 C 126.343 83.930,124.796 84.508,123.122 85.128 C 121.448 85.748,119.813 86.369,119.489 86.509 C 119.165 86.649,117.840 87.204,116.544 87.743 C 113.480 89.015,112.277 89.573,107.315 92.017 C 103.279 94.004,102.258 94.543,99.067 96.366 C 98.203 96.860,97.099 97.484,96.613 97.753 C 96.127 98.022,95.360 98.494,94.908 98.802 C 94.457 99.110,93.993 99.362,93.877 99.362 C 93.762 99.362,93.667 99.444,93.667 99.545 C 93.667 99.646,93.475 99.789,93.240 99.864 C 93.006 99.938,92.719 100.077,92.602 100.172 C 92.486 100.267,90.846 101.371,88.958 102.624 C 87.070 103.878,85.335 105.048,85.102 105.225 C 84.870 105.402,84.482 105.680,84.240 105.842 C 83.998 106.004,83.701 106.225,83.579 106.333 C 83.458 106.441,82.253 107.363,80.903 108.382 C 79.553 109.401,78.405 110.287,78.351 110.351 C 78.297 110.415,77.856 110.774,77.372 111.149 C 76.888 111.524,76.351 111.964,76.178 112.126 C 76.006 112.288,75.607 112.635,75.291 112.897 C 70.301 117.048,62.043 125.207,58.588 129.401 C 58.279 129.776,57.894 130.225,57.732 130.398 C 57.378 130.777,56.912 131.338,55.866 132.646 C 55.434 133.186,55.037 133.672,54.983 133.726 C 54.929 133.780,54.445 134.399,53.908 135.101 C 53.370 135.803,52.840 136.484,52.729 136.616 C 52.329 137.090,52.117 137.371,51.645 138.046 C 51.380 138.424,51.095 138.822,51.009 138.930 C 50.924 139.038,50.591 139.480,50.270 139.912 C 49.949 140.344,49.617 140.785,49.533 140.893 C 49.089 141.465,45.330 147.162,44.673 148.257 C 44.253 148.959,43.838 149.563,43.751 149.599 C 43.664 149.635,43.594 149.769,43.594 149.896 C 43.594 150.024,43.284 150.587,42.906 151.149 C 42.528 151.710,42.219 152.221,42.219 152.284 C 42.219 152.348,41.926 152.859,41.569 153.421 C 41.211 153.983,40.571 155.106,40.145 155.916 C 39.720 156.726,39.323 157.432,39.265 157.486 C 39.144 157.597,34.570 166.825,34.106 167.894 C 33.941 168.272,33.444 169.421,33.000 170.447 C 32.556 171.473,32.112 172.489,32.013 172.705 C 30.820 175.311,27.124 185.542,26.516 187.923 C 26.420 188.301,26.196 189.097,26.020 189.691 C 25.423 191.703,24.534 195.139,23.962 197.644 C 23.740 198.616,23.472 199.764,23.367 200.196 C 23.262 200.628,23.039 201.733,22.871 202.651 C 22.703 203.569,22.482 204.674,22.381 205.106 C 22.279 205.538,22.102 206.554,21.988 207.364 C 21.874 208.174,21.649 209.720,21.488 210.800 C 21.224 212.573,20.984 214.693,20.408 220.324 C 20.303 221.350,20.187 223.428,20.151 224.941 L 20.084 227.693 19.396 228.770 C 16.811 232.816,16.848 238.484,19.486 242.661 L 20.267 243.897 20.149 245.709 C 20.080 246.764,20.101 247.357,20.198 247.128 C 20.308 246.869,20.405 247.571,20.485 249.190 C 20.807 255.780,21.984 265.812,23.145 271.870 C 23.249 272.410,23.432 273.427,23.551 274.129 C 23.671 274.831,23.890 275.935,24.037 276.583 C 24.185 277.231,24.460 278.468,24.648 279.332 C 24.837 280.196,25.296 282.096,25.670 283.554 C 26.044 285.012,26.434 286.554,26.537 286.981 C 26.739 287.810,27.614 290.659,27.867 291.311 C 27.951 291.527,28.349 292.720,28.752 293.962 C 29.572 296.490,30.322 298.580,30.831 299.755 C 31.019 300.187,31.365 301.070,31.602 301.718 C 31.838 302.366,32.282 303.427,32.589 304.075 C 32.895 304.723,33.300 305.606,33.488 306.038 C 34.156 307.575,36.548 312.347,37.424 313.893 C 37.914 314.757,38.364 315.619,38.424 315.808 C 38.485 315.997,38.612 316.151,38.707 316.151 C 38.803 316.151,38.881 316.266,38.881 316.406 C 38.881 316.629,43.462 323.751,43.770 324.006 C 43.835 324.060,44.189 324.546,44.556 325.086 C 44.923 325.626,45.321 326.156,45.440 326.264 C 45.558 326.372,46.094 327.035,46.630 327.737 C 47.165 328.439,47.651 329.057,47.710 329.111 C 47.768 329.165,48.390 329.872,49.092 330.681 C 50.914 332.781,52.850 334.816,54.873 336.755 C 55.839 337.681,56.905 338.704,57.242 339.028 C 57.784 339.549,59.086 340.678,60.609 341.947 C 60.885 342.178,61.270 342.512,61.464 342.690 C 61.658 342.869,62.731 343.708,63.848 344.556 C 64.966 345.404,65.969 346.165,66.077 346.247 C 66.982 346.938,68.277 347.847,69.514 348.660 C 70.324 349.193,71.031 349.685,71.085 349.754 C 71.139 349.823,72.023 350.387,73.049 351.008 C 74.075 351.628,75.283 352.390,75.735 352.700 C 76.186 353.011,76.621 353.265,76.700 353.265 C 76.780 353.265,77.515 353.669,78.334 354.162 C 81.106 355.833,87.484 359.133,90.231 360.317 C 90.771 360.550,91.346 360.813,91.508 360.902 C 91.671 360.990,92.908 361.524,94.257 362.088 C 95.607 362.652,97.085 363.283,97.543 363.491 C 98.001 363.699,98.426 363.868,98.487 363.868 C 98.548 363.868,98.969 364.033,99.422 364.235 C 100.235 364.598,102.896 365.586,106.333 366.803 C 107.305 367.147,108.476 367.563,108.935 367.727 C 110.267 368.202,110.249 367.982,108.835 366.519 C 106.947 364.566,103.746 360.834,102.015 358.567 C 101.479 357.865,100.968 357.202,100.879 357.094 C 100.791 356.986,100.285 356.279,99.755 355.523 C 99.225 354.767,98.718 354.060,98.628 353.952 C 98.539 353.844,98.252 353.402,97.991 352.970 C 97.730 352.538,97.468 352.140,97.409 352.086 C 97.234 351.928,96.024 350.120,96.024 350.017 C 96.024 349.965,95.758 349.557,95.434 349.110 C 95.110 348.662,94.845 348.185,94.845 348.048 C 94.845 347.911,94.774 347.770,94.688 347.734 C 94.476 347.646,92.278 343.974,91.651 342.661 C 91.522 342.391,91.371 342.126,91.315 342.072 C 91.187 341.949,90.353 340.349,88.191 336.081 C 86.630 332.998,85.960 331.592,84.684 328.719 C 84.421 328.125,84.036 327.268,83.830 326.815 C 83.625 326.362,83.456 325.949,83.456 325.896 C 83.456 325.844,83.159 325.155,82.795 324.364 C 82.431 323.573,82.067 322.705,81.985 322.435 C 81.904 322.165,81.774 321.856,81.697 321.748 C 81.620 321.640,81.352 320.977,81.101 320.275 C 80.851 319.573,80.571 318.915,80.480 318.812 C 80.389 318.709,80.314 318.488,80.313 318.321 C 80.312 318.154,80.198 317.796,80.058 317.526 C 79.919 317.256,79.601 316.460,79.353 315.758 C 79.105 315.056,78.831 314.305,78.746 314.089 C 78.660 313.873,78.306 312.901,77.958 311.929 C 77.610 310.957,77.256 309.985,77.170 309.769 C 76.944 309.198,75.325 304.126,74.819 302.405 C 74.581 301.595,74.307 300.668,74.209 300.344 C 73.416 297.699,73.129 296.662,72.530 294.256 C 71.656 290.750,71.180 288.741,70.787 286.892 C 70.614 286.082,70.396 285.110,70.303 284.732 C 70.209 284.354,69.944 283.029,69.714 281.787 C 69.484 280.545,69.127 278.689,68.922 277.663 C 68.717 276.637,68.453 275.135,68.336 274.325 C 67.869 271.092,67.565 269.086,67.437 268.385 C 67.269 267.465,67.122 267.443,69.859 268.749 C 71.127 269.354,72.739 270.115,73.441 270.439 C 79.826 273.387,81.315 274.154,81.501 274.594 C 81.598 274.824,82.039 275.631,82.481 276.387 C 82.922 277.143,83.386 278.004,83.511 278.301 C 83.636 278.598,83.798 278.841,83.871 278.841 C 83.943 278.841,84.058 279.062,84.126 279.332 C 84.194 279.602,84.336 279.823,84.442 279.823 C 84.548 279.823,84.634 279.907,84.634 280.010 C 84.634 280.325,88.493 285.772,89.400 286.736 C 90.917 288.350,91.585 289.372,91.917 290.587 C 92.270 291.882,92.600 293.022,93.176 294.944 C 93.338 295.484,93.595 296.345,93.746 296.858 C 94.507 299.438,96.799 305.478,98.571 309.573 C 99.144 310.896,100.364 313.462,101.512 315.758 C 103.473 319.683,104.396 321.343,107.021 325.675 C 108.896 328.769,110.125 330.686,110.359 330.879 C 110.424 330.933,110.690 331.330,110.949 331.762 C 111.208 332.194,111.778 333.048,112.215 333.659 C 112.652 334.270,113.142 334.966,113.304 335.205 C 113.466 335.444,113.687 335.739,113.795 335.861 C 113.903 335.983,114.692 337.010,115.548 338.144 C 116.404 339.278,117.155 340.250,117.217 340.304 C 117.279 340.358,117.901 341.109,118.600 341.973 C 119.298 342.838,119.923 343.589,119.988 343.643 C 120.053 343.697,120.716 344.448,121.462 345.312 C 123.540 347.717,126.780 351.076,129.325 353.461 C 132.391 356.334,132.938 356.819,136.181 359.547 C 137.830 360.935,137.926 361.011,138.635 361.505 C 139.013 361.769,139.367 362.041,139.421 362.110 C 139.608 362.351,144.829 366.145,146.294 367.105 C 147.104 367.637,147.811 368.121,147.865 368.183 C 148.099 368.449,153.134 371.527,153.336 371.527 C 153.459 371.527,153.559 371.615,153.559 371.723 C 153.559 371.831,153.638 371.919,153.735 371.919 C 153.832 371.919,154.473 372.258,155.159 372.672 C 156.967 373.763,158.752 374.726,162.252 376.497 C 164.839 377.806,165.368 378.148,165.470 378.575 C 165.537 378.857,165.653 379.175,165.729 379.283 C 165.804 379.391,166.197 380.407,166.601 381.541 C 167.006 382.676,167.418 383.757,167.517 383.944 C 167.617 384.132,167.698 384.397,167.699 384.533 C 167.699 384.670,167.814 385.002,167.954 385.272 C 168.093 385.542,168.410 386.338,168.659 387.040 C 168.907 387.742,169.183 388.493,169.272 388.709 C 169.361 388.925,169.674 389.764,169.967 390.574 C 170.260 391.384,170.665 392.418,170.866 392.871 C 171.068 393.324,171.232 393.789,171.232 393.905 C 171.232 394.020,171.313 394.268,171.412 394.455 C 171.510 394.643,171.875 395.592,172.221 396.564 C 172.568 397.536,172.963 398.596,173.101 398.920 C 173.238 399.244,174.649 403.000,176.237 407.266 C 177.825 411.532,179.237 415.287,179.376 415.611 C 179.515 415.935,179.911 416.996,180.258 417.968 C 180.605 418.940,180.969 419.888,181.068 420.076 C 181.166 420.263,181.250 420.529,181.254 420.665 C 181.257 420.801,181.431 421.267,181.640 421.699 C 181.848 422.131,182.022 422.633,182.026 422.816 C 182.029 422.999,182.114 423.199,182.214 423.260 C 182.313 423.322,182.457 423.655,182.533 424.002 C 182.609 424.348,182.743 424.767,182.831 424.932 C 182.918 425.098,183.228 425.896,183.520 426.706 C 183.811 427.516,184.215 428.549,184.416 429.002 C 184.617 429.456,184.782 429.921,184.782 430.036 C 184.782 430.151,184.862 430.399,184.961 430.587 C 185.060 430.774,185.817 432.760,186.642 434.999 C 188.507 440.053,189.129 441.315,190.564 442.953 C 191.263 443.750,193.296 445.361,193.603 445.361 C 193.719 445.361,193.814 445.430,193.814 445.514 C 193.814 445.674,194.308 445.893,196.269 446.600 C 197.874 447.178,202.784 447.226,204.320 446.677 C 209.096 444.972,211.338 442.504,213.453 436.622 C 213.802 435.650,214.201 434.590,214.338 434.266 C 214.475 433.942,215.800 430.407,217.284 426.411 C 218.767 422.415,220.102 418.867,220.251 418.527 C 220.399 418.187,220.520 417.785,220.520 417.634 C 220.520 417.482,220.598 417.275,220.692 417.172 C 220.786 417.070,221.147 416.190,221.494 415.218 C 221.841 414.246,222.206 413.298,222.305 413.110 C 222.403 412.923,222.485 412.658,222.485 412.521 C 222.486 412.385,222.601 412.052,222.740 411.782 C 222.879 411.512,223.197 410.717,223.445 410.015 C 223.694 409.313,223.967 408.562,224.053 408.346 C 224.139 408.130,224.363 407.511,224.551 406.971 C 224.739 406.431,225.090 405.547,225.330 405.007 C 225.571 404.467,225.830 403.805,225.906 403.535 C 225.981 403.265,226.117 402.867,226.207 402.651 C 226.297 402.435,226.656 401.463,227.004 400.491 C 227.353 399.519,227.748 398.459,227.883 398.135 C 228.018 397.811,228.677 396.043,229.347 394.207 C 230.920 389.898,230.647 390.289,232.126 390.229 C 238.255 389.981,247.975 388.696,255.277 387.167 C 257.179 386.769,263.760 385.075,266.078 384.387 C 266.672 384.211,267.423 383.996,267.747 383.910 C 269.179 383.529,274.123 381.876,275.405 381.349 C 275.621 381.260,276.372 380.987,277.074 380.743 C 277.776 380.499,278.439 380.240,278.547 380.167 C 278.655 380.094,279.318 379.828,280.020 379.576 C 281.372 379.090,284.959 377.572,287.089 376.584 C 287.791 376.258,289.116 375.643,290.034 375.216 C 292.865 373.901,294.742 372.940,299.656 370.292 C 300.466 369.855,302.037 368.938,303.147 368.254 C 304.257 367.570,305.204 367.010,305.252 367.010 C 305.429 367.010,312.050 362.683,314.089 361.235 C 314.629 360.851,315.236 360.426,315.437 360.288 C 315.992 359.911,321.819 355.444,322.385 354.962 C 322.657 354.731,322.979 354.451,323.099 354.340 C 323.220 354.230,323.584 353.935,323.908 353.685 C 325.946 352.113,330.579 347.865,334.018 344.416 C 337.069 341.354,337.647 340.743,340.206 337.866 C 340.962 337.015,341.713 336.175,341.875 335.997 C 342.037 335.819,342.520 335.235,342.949 334.700 C 343.377 334.164,343.775 333.682,343.832 333.628 C 344.341 333.152,347.493 329.031,350.517 324.890 C 352.676 321.934,358.370 312.907,358.370 312.441 C 358.370 312.322,358.448 312.224,358.544 312.224 C 358.639 312.224,358.768 312.069,358.831 311.880 C 358.894 311.691,359.345 310.830,359.834 309.966 C 360.322 309.102,361.099 307.644,361.559 306.726 C 362.019 305.808,362.443 305.012,362.501 304.958 C 362.711 304.762,364.889 300.213,366.357 296.907 C 366.621 296.313,366.915 295.650,367.011 295.434 C 367.465 294.411,367.998 293.162,368.475 291.998 C 368.763 291.296,369.126 290.443,369.281 290.103 C 369.436 289.763,369.563 289.397,369.563 289.291 C 369.563 289.184,369.695 288.844,369.856 288.535 C 370.018 288.226,370.150 287.823,370.151 287.640 C 370.152 287.458,370.241 287.254,370.349 287.187 C 370.457 287.120,370.545 286.930,370.545 286.763 C 370.545 286.597,370.672 286.182,370.827 285.842 C 372.087 283.074,375.189 272.381,376.446 266.470 C 376.573 265.876,376.755 265.037,376.851 264.605 C 377.923 259.784,379.080 251.679,379.506 246.005 C 379.577 245.064,379.711 244.340,379.803 244.397 C 379.895 244.454,379.971 244.330,379.971 244.123 C 379.971 243.915,380.135 243.534,380.336 243.276 C 383.391 239.361,383.377 231.387,380.310 228.035 C 379.933 227.624,379.908 227.344,379.899 223.470 C 379.894 221.199,379.832 219.342,379.760 219.342 C 379.689 219.342,379.578 218.260,379.513 216.937 C 379.181 210.116,378.035 200.316,376.821 193.913 C 375.814 188.595,375.308 186.185,374.863 184.585 C 374.758 184.207,374.457 183.014,374.193 181.934 C 373.387 178.636,371.905 173.550,371.530 172.797 C 371.448 172.631,371.314 172.192,371.232 171.821 C 371.151 171.450,371.014 171.011,370.929 170.846 C 370.844 170.680,370.224 169.043,369.550 167.207 C 368.877 165.371,368.020 163.206,367.645 162.396 C 367.271 161.586,366.788 160.525,366.572 160.039 C 364.121 154.537,358.238 144.132,356.803 142.759 C 356.746 142.705,356.435 142.268,356.111 141.788 C 354.105 138.814,348.649 132.460,345.830 129.815 C 345.437 129.447,344.407 128.475,343.541 127.655 C 341.988 126.187,340.465 124.846,338.733 123.423 C 338.247 123.023,337.650 122.527,337.407 122.320 C 335.266 120.504,326.617 114.482,326.149 114.482 C 326.050 114.482,325.970 114.395,325.970 114.289 C 325.970 114.184,325.749 114.041,325.479 113.974 C 325.209 113.906,324.988 113.772,324.988 113.675 C 324.988 113.579,324.893 113.500,324.778 113.500 C 324.662 113.500,324.198 113.251,323.747 112.946 C 322.968 112.420,321.369 111.497,319.195 110.317 C 317.995 109.666,309.839 105.611,308.885 105.191 C 308.507 105.024,307.800 104.716,307.314 104.505 C 306.828 104.295,305.945 103.901,305.351 103.629 C 304.219 103.112,300.720 101.717,298.380 100.849 C 297.624 100.569,296.829 100.259,296.613 100.159 C 296.397 100.060,295.646 99.793,294.944 99.566 C 294.242 99.340,293.490 99.072,293.274 98.973 C 292.444 98.590,289.952 97.808,289.859 97.901 C 289.805 97.955,290.379 98.637,291.134 99.417 C 292.535 100.864,294.141 102.628,294.846 103.494 C 295.062 103.759,295.592 104.418,296.024 104.958 C 296.456 105.498,296.858 105.984,296.918 106.038 C 296.979 106.092,297.592 106.888,298.282 107.806 C 298.971 108.724,299.587 109.519,299.650 109.573 C 299.788 109.692,301.970 112.898,303.122 114.672 C 303.579 115.378,304.029 116.043,304.122 116.151 C 304.215 116.259,304.356 116.480,304.436 116.642 C 304.634 117.044,304.914 117.507,305.891 119.048 C 306.350 119.771,306.726 120.408,306.726 120.463 C 306.726 120.518,307.064 121.116,307.477 121.793 C 308.666 123.742,312.568 131.278,313.859 134.119 C 314.129 134.713,314.711 135.981,315.152 136.937 C 315.594 137.892,315.955 138.710,315.955 138.753 C 315.955 138.820,317.186 141.663,317.732 142.857 C 317.831 143.073,318.224 144.089,318.606 145.115 C 318.987 146.141,319.386 147.158,319.491 147.374 C 319.723 147.846,321.127 151.606,321.691 153.258 C 321.913 153.910,322.161 154.531,322.242 154.639 C 322.323 154.747,322.455 155.142,322.535 155.516 C 322.616 155.891,322.751 156.333,322.837 156.498 C 323.010 156.834,324.511 161.489,325.181 163.770 C 325.419 164.580,325.694 165.508,325.792 165.832 C 326.289 167.480,326.957 169.848,327.122 170.545 C 327.224 170.977,327.480 171.993,327.691 172.803 C 327.903 173.613,328.272 175.160,328.513 176.240 C 328.754 177.320,329.026 178.468,329.119 178.792 C 329.211 179.116,329.389 179.912,329.514 180.560 C 329.639 181.208,329.856 182.312,329.997 183.014 C 331.336 189.699,331.988 193.642,332.742 199.607 C 332.892 200.795,333.078 202.245,333.156 202.829 C 333.239 203.453,333.224 203.846,333.119 203.783 C 332.924 203.666,329.315 201.940,326.362 200.553 C 318.637 196.923,319.215 197.261,318.588 196.007 C 317.597 194.027,313.813 187.926,313.208 187.334 C 313.153 187.280,312.669 186.662,312.133 185.960 C 311.598 185.258,311.107 184.639,311.043 184.585 C 310.499 184.126,309.842 182.903,309.666 182.022 C 309.377 180.578,308.948 178.723,308.465 176.829 C 307.900 174.609,307.821 174.325,307.122 172.018 C 306.779 170.884,306.404 169.602,306.289 169.170 C 306.173 168.738,306.014 168.297,305.934 168.189 C 305.854 168.081,305.723 167.686,305.643 167.311 C 305.563 166.937,305.425 166.495,305.337 166.329 C 305.248 166.164,304.992 165.454,304.767 164.752 C 304.542 164.050,304.275 163.299,304.173 163.083 C 304.071 162.867,303.716 161.983,303.384 161.119 C 303.051 160.255,302.651 159.270,302.494 158.930 C 302.337 158.589,302.209 158.264,302.209 158.207 C 302.209 158.150,301.957 157.545,301.648 156.862 C 301.339 156.179,300.831 155.047,300.519 154.346 C 299.721 152.554,296.604 146.428,296.020 145.502 C 295.752 145.077,295.533 144.670,295.533 144.596 C 295.533 144.522,295.135 143.823,294.649 143.043 C 294.163 142.264,293.765 141.527,293.765 141.407 C 293.765 141.286,293.677 141.188,293.569 141.188 C 293.461 141.188,293.373 141.110,293.373 141.015 C 293.373 140.858,291.059 137.034,290.685 136.573 C 290.597 136.465,289.821 135.316,288.961 134.020 C 288.100 132.725,287.305 131.565,287.193 131.443 C 287.082 131.321,286.858 131.022,286.696 130.777 C 286.534 130.533,286.088 129.926,285.706 129.428 C 285.323 128.930,284.402 127.727,283.659 126.755 C 282.916 125.783,282.254 124.944,282.188 124.890 C 282.122 124.836,281.873 124.538,281.636 124.229 C 281.398 123.919,280.683 123.080,280.047 122.363 C 279.411 121.647,278.638 120.751,278.328 120.373 C 276.412 118.031,270.002 111.661,267.061 109.177 C 266.360 108.585,265.698 108.002,265.589 107.882 C 265.388 107.661,262.350 105.176,261.174 104.271 C 260.823 104.001,260.170 103.480,259.723 103.114 C 259.276 102.748,258.557 102.218,258.125 101.936 C 257.693 101.655,257.240 101.336,257.118 101.228 C 256.996 101.119,256.731 100.919,256.529 100.782 C 255.768 100.266,252.815 98.186,252.626 98.033 C 252.518 97.946,251.856 97.529,251.154 97.108 C 250.452 96.687,249.833 96.286,249.779 96.218 C 249.725 96.149,249.548 96.034,249.386 95.962 C 249.224 95.890,248.314 95.344,247.363 94.749 C 246.412 94.154,245.550 93.667,245.448 93.667 C 245.346 93.667,245.263 93.589,245.263 93.494 C 245.263 93.398,245.108 93.271,244.919 93.211 C 244.730 93.151,244.001 92.778,243.299 92.382 C 240.459 90.782,237.458 89.227,234.850 88.003 L 233.176 87.218 230.957 81.262 C 229.737 77.987,228.657 75.153,228.557 74.966 C 228.457 74.778,228.375 74.513,228.374 74.377 C 228.373 74.240,228.259 73.908,228.119 73.638 C 227.980 73.368,227.662 72.572,227.414 71.870 C 227.165 71.168,226.892 70.417,226.806 70.201 C 226.720 69.985,226.496 69.367,226.309 68.827 C 225.975 67.862,225.720 67.228,225.135 65.901 C 224.973 65.533,224.840 65.134,224.840 65.014 C 224.840 64.894,224.760 64.642,224.661 64.455 C 224.562 64.267,224.198 63.319,223.852 62.347 C 223.505 61.375,223.110 60.314,222.974 59.990 C 222.837 59.666,222.392 58.473,221.983 57.339 C 221.574 56.205,221.089 54.924,220.903 54.492 C 220.718 54.060,219.752 51.497,218.756 48.797 C 217.760 46.097,216.557 42.892,216.082 41.675 C 215.607 40.458,215.218 39.337,215.218 39.183 C 215.218 39.030,215.130 38.849,215.022 38.783 C 214.914 38.716,214.825 38.512,214.825 38.329 C 214.824 38.146,214.709 37.776,214.570 37.506 C 214.430 37.236,214.113 36.441,213.865 35.739 C 213.616 35.037,213.345 34.286,213.262 34.070 C 213.179 33.854,212.909 33.147,212.662 32.499 C 211.255 28.801,208.400 26.079,204.418 24.636 C 203.548 24.321,198.742 24.053,197.840 24.269 M202.001 33.216 C 203.079 33.542,204.059 34.735,204.741 36.550 C 210.603 52.160,216.633 68.238,219.204 75.110 C 220.982 79.863,224.567 89.423,227.173 96.357 C 229.778 103.290,231.910 109.012,231.910 109.072 C 231.910 109.131,217.696 109.180,200.324 109.180 L 168.739 109.180 181.968 73.883 C 197.817 31.599,196.487 35.074,197.095 34.352 C 198.230 33.003,199.968 32.601,202.001 33.216 M168.090 86.084 C 168.090 86.293,160.685 106.183,159.619 108.837 L 159.403 109.377 151.093 109.377 L 142.784 109.377 141.213 112.175 C 138.573 116.879,138.868 116.511,137.337 117.012 C 98.148 129.836,66.264 166.019,57.519 207.591 L 57.285 208.702 55.692 209.442 C 54.816 209.850,52.563 210.918,50.685 211.817 C 48.808 212.716,47.249 213.451,47.221 213.451 C 47.194 213.451,45.946 214.034,44.449 214.747 C 41.855 215.983,40.672 216.541,37.457 218.044 C 36.674 218.410,34.818 219.288,33.333 219.994 C 31.848 220.701,30.635 221.174,30.637 221.047 C 30.808 211.247,35.274 192.082,40.347 179.381 C 54.509 143.926,78.591 117.645,112.126 101.049 C 115.986 99.139,116.749 98.783,120.275 97.254 C 122.231 96.405,127.077 94.487,128.130 94.144 C 128.562 94.004,129.710 93.610,130.682 93.269 C 141.709 89.402,154.257 86.887,167.747 85.839 C 167.936 85.824,168.090 85.935,168.090 86.084 M241.728 103.294 C 266.353 117.985,287.053 143.319,295.440 169.031 C 295.895 170.425,295.902 170.425,293.664 168.810 C 283.528 161.493,269.096 154.282,259.597 151.789 C 258.489 151.498,258.461 151.474,256.952 149.519 C 255.793 148.018,255.584 147.578,254.000 143.318 C 251.744 137.250,247.147 124.998,243.256 114.678 C 240.200 106.573,238.662 102.412,238.436 101.633 C 238.329 101.266,238.347 101.267,238.996 101.659 C 239.364 101.882,240.594 102.618,241.728 103.294 M240.945 133.070 C 247.785 151.316,247.182 149.215,245.517 148.994 C 236.805 147.837,223.974 149.902,215.292 153.859 C 214.469 154.234,213.755 154.541,213.707 154.541 C 213.612 154.541,214.336 153.219,215.805 150.712 C 216.312 149.848,217.462 147.860,218.362 146.294 C 219.262 144.728,220.462 142.651,221.028 141.679 C 222.338 139.432,233.391 120.258,234.244 118.753 C 234.596 118.132,234.945 117.624,235.020 117.624 C 235.094 117.624,237.761 124.575,240.945 133.070 M322.828 124.453 C 338.773 134.845,350.628 148.700,357.732 165.243 C 364.063 179.987,367.867 196.536,369.174 215.022 C 369.284 216.588,369.431 218.609,369.500 219.512 L 369.625 221.155 369.177 221.013 C 368.930 220.935,367.613 220.340,366.250 219.691 C 364.886 219.042,362.887 218.094,361.807 217.585 C 360.727 217.076,358.694 216.112,357.290 215.443 C 355.886 214.773,352.351 213.096,349.435 211.715 L 344.134 209.203 343.997 208.234 C 343.921 207.702,343.717 205.852,343.543 204.124 C 340.764 176.583,333.212 150.196,321.014 125.417 C 320.173 123.708,319.596 122.375,319.733 122.454 C 319.869 122.533,321.262 123.433,322.828 124.453 M216.397 122.853 C 216.397 122.969,214.391 126.495,212.280 130.093 C 211.067 132.159,209.727 134.481,205.305 142.170 C 203.286 145.680,201.167 149.347,200.594 150.319 C 200.022 151.291,199.365 152.424,199.134 152.837 C 198.903 153.249,198.042 154.752,197.219 156.175 C 196.397 157.598,194.884 160.221,193.858 162.003 C 192.832 163.785,189.518 169.529,186.493 174.767 C 180.938 184.387,179.044 187.666,177.084 191.065 C 176.059 192.843,174.866 194.907,171.495 200.736 C 169.407 204.346,166.992 208.530,163.476 214.629 C 158.704 222.907,157.011 225.839,154.991 229.328 C 150.338 237.364,148.843 240.066,148.529 241.011 C 146.443 247.278,155.876 252.820,160.223 247.882 C 161.018 246.978,161.534 246.121,167.354 236.033 C 169.130 232.955,171.629 228.625,172.907 226.411 C 174.185 224.197,176.014 221.029,176.970 219.371 C 177.926 217.712,179.559 214.885,180.599 213.087 C 181.639 211.289,183.431 208.184,184.583 206.186 C 191.452 194.264,192.245 192.953,194.917 189.087 C 215.706 159.001,244.022 154.081,278.213 174.615 C 305.919 191.254,316.324 212.058,309.765 237.703 C 307.755 245.564,304.427 253.263,299.155 262.248 C 298.585 263.220,295.495 268.567,292.288 274.129 C 284.849 287.032,280.241 295.013,273.921 305.940 C 272.703 308.046,270.895 311.183,269.904 312.911 C 268.913 314.639,266.466 318.881,264.466 322.337 C 262.465 325.793,259.658 330.653,258.227 333.137 C 256.796 335.621,254.454 339.686,253.023 342.170 C 251.592 344.654,250.160 347.128,249.841 347.668 L 249.261 348.650 216.628 348.700 C 198.681 348.727,183.996 348.698,183.996 348.634 C 183.996 348.571,184.541 347.577,185.207 346.425 C 185.873 345.273,187.564 342.342,188.965 339.912 C 190.365 337.482,193.810 331.517,196.620 326.657 C 199.430 321.797,202.391 316.672,203.199 315.268 C 204.612 312.816,207.213 308.305,209.485 304.369 C 210.077 303.343,211.401 301.046,212.426 299.264 C 213.452 297.482,214.908 294.963,215.661 293.667 C 218.559 288.679,219.443 287.149,223.768 279.627 C 226.221 275.361,228.293 271.782,228.373 271.674 C 228.453 271.566,228.738 271.080,229.005 270.594 C 229.272 270.108,230.180 268.517,231.023 267.059 C 234.377 261.257,235.485 259.339,237.711 255.474 C 238.986 253.260,241.128 249.548,242.471 247.226 C 243.813 244.904,245.910 241.269,247.130 239.148 C 248.350 237.027,249.834 234.464,250.429 233.453 C 253.699 227.893,252.445 224.044,246.680 221.952 C 242.472 220.424,240.997 221.597,235.851 230.562 C 233.969 233.841,231.508 238.115,230.382 240.059 C 228.168 243.882,227.663 244.756,220.523 257.143 C 217.908 261.679,215.104 266.539,214.291 267.943 C 213.478 269.347,212.280 271.424,211.629 272.558 C 189.992 310.216,162.316 318.779,126.216 298.985 C 94.976 281.856,83.258 259.343,91.208 231.728 C 93.595 223.437,95.939 218.471,104.749 203.044 C 107.864 197.590,112.224 189.946,114.438 186.058 C 116.652 182.170,120.982 174.570,124.060 169.170 C 132.835 153.772,137.190 146.129,142.853 136.181 C 145.742 131.105,148.649 126.003,149.311 124.844 L 150.515 122.736 183.456 122.733 C 201.573 122.731,216.397 122.785,216.397 122.853 M130.110 131.222 C 130.047 131.357,129.941 131.622,129.874 131.811 C 129.807 132.000,129.675 132.155,129.579 132.155 C 129.484 132.155,129.405 132.266,129.404 132.401 C 129.403 132.536,129.050 133.202,128.619 133.881 C 128.188 134.561,127.835 135.167,127.835 135.229 C 127.835 135.290,127.387 136.104,126.840 137.037 C 126.292 137.970,125.776 138.866,125.692 139.028 C 125.608 139.190,124.863 140.491,124.036 141.920 C 123.209 143.348,122.533 144.607,122.533 144.718 C 122.533 144.829,122.445 144.919,122.337 144.919 C 122.229 144.919,122.140 145.000,122.140 145.100 C 122.140 145.199,121.699 146.046,121.159 146.981 C 120.619 147.916,120.177 148.755,120.177 148.845 C 120.177 148.936,120.110 149.039,120.029 149.075 C 119.948 149.111,119.728 149.428,119.539 149.779 C 119.350 150.130,119.040 150.704,118.851 151.055 C 118.662 151.406,118.441 151.723,118.360 151.759 C 118.279 151.795,118.213 151.911,118.213 152.017 C 118.213 152.124,117.771 152.958,117.231 153.873 C 116.691 154.787,116.249 155.621,116.249 155.725 C 116.249 155.830,116.161 155.916,116.053 155.916 C 115.945 155.916,115.857 156.006,115.857 156.117 C 115.857 156.227,115.194 157.462,114.384 158.861 C 113.574 160.260,112.911 161.447,112.911 161.498 C 112.911 161.550,112.381 162.470,111.733 163.542 C 111.085 164.615,110.555 165.543,110.555 165.605 C 110.555 165.667,110.202 166.274,109.771 166.953 C 109.340 167.633,108.987 168.299,108.986 168.434 C 108.985 168.569,108.895 168.679,108.787 168.679 C 108.679 168.679,108.591 168.761,108.591 168.860 C 108.591 168.960,108.149 169.806,107.609 170.741 C 107.069 171.676,106.627 172.477,106.627 172.521 C 106.627 172.564,106.274 173.177,105.842 173.883 C 105.410 174.589,105.056 175.246,105.056 175.343 C 105.056 175.440,104.990 175.549,104.909 175.585 C 104.828 175.621,104.597 175.960,104.394 176.338 C 103.709 177.619,102.384 179.961,100.870 182.568 C 100.041 183.996,99.362 185.203,99.362 185.249 C 99.362 185.296,98.848 186.204,98.219 187.267 C 97.591 188.330,97.019 189.356,96.948 189.546 C 96.877 189.737,96.574 189.985,96.274 190.098 C 95.684 190.320,94.838 190.711,91.213 192.442 C 87.363 194.279,85.603 195.112,84.045 195.834 C 83.235 196.209,81.556 197.002,80.314 197.596 C 77.925 198.738,75.718 199.774,73.675 200.713 C 72.993 201.027,71.812 201.591,71.051 201.967 C 69.343 202.811,69.252 202.814,69.420 202.013 C 69.617 201.069,71.046 196.521,71.472 195.484 C 71.561 195.268,71.919 194.296,72.268 193.324 C 72.617 192.351,73.120 191.070,73.385 190.476 C 73.913 189.297,74.035 189.020,75.125 186.549 C 77.357 181.489,83.907 170.108,85.706 168.163 C 85.818 168.042,86.043 167.744,86.205 167.503 C 86.661 166.824,88.825 163.881,88.950 163.770 C 89.012 163.716,89.546 163.054,90.137 162.297 C 91.120 161.039,91.915 160.091,92.685 159.258 C 92.847 159.083,93.598 158.241,94.354 157.388 C 96.174 155.335,99.826 151.683,102.014 149.730 C 104.107 147.862,104.067 147.897,104.785 147.277 C 105.527 146.635,110.209 142.929,110.680 142.610 C 110.881 142.474,111.664 141.922,112.420 141.384 C 113.176 140.847,113.960 140.295,114.162 140.159 C 114.363 140.023,114.879 139.663,115.307 139.358 C 116.473 138.530,123.481 134.315,123.692 134.315 C 123.793 134.315,123.904 134.249,123.940 134.168 C 124.008 134.016,129.768 131.032,130.061 130.997 C 130.151 130.986,130.173 131.087,130.110 131.222 M211.151 200.389 C 201.712 202.828,193.306 210.900,187.084 223.496 L 185.469 226.767 184.291 226.997 C 175.471 228.717,173.069 232.151,171.516 245.263 C 171.241 247.585,170.968 249.882,170.909 250.368 C 170.676 252.297,171.695 255.002,173.130 256.262 C 175.910 258.702,179.395 258.414,183.457 255.406 L 184.980 254.279 186.893 255.406 C 187.946 256.025,188.834 256.550,188.867 256.570 C 188.900 256.591,188.827 257.719,188.704 259.076 C 188.170 264.979,190.869 268.673,195.505 268.386 C 197.887 268.239,199.147 267.445,207.020 261.129 C 213.592 255.856,214.983 251.348,212.444 243.545 L 212.045 242.319 212.923 240.993 C 221.010 228.771,224.148 216.728,221.707 207.278 C 219.989 200.627,217.220 198.820,211.151 200.389 M87.984 205.494 C 79.382 220.646,75.023 236.044,75.476 249.681 C 75.628 254.240,76.420 260.277,77.099 262.047 C 77.275 262.505,78.141 262.899,57.387 253.088 C 46.614 247.996,37.182 243.545,36.426 243.196 C 35.670 242.848,33.814 241.970,32.302 241.245 C 30.790 240.520,29.177 239.748,28.717 239.529 C 25.993 238.231,25.458 234.209,27.765 232.379 C 28.101 232.113,33.898 229.289,40.648 226.103 C 47.398 222.918,53.495 220.038,54.197 219.703 C 55.314 219.171,58.911 217.472,64.114 215.020 C 64.978 214.613,67.364 213.486,69.416 212.517 C 85.938 204.711,89.042 203.262,89.106 203.326 C 89.144 203.364,88.639 204.340,87.984 205.494 M215.599 205.191 C 216.619 206.211,217.455 210.312,217.443 214.237 C 217.419 222.123,213.231 232.706,206.941 240.774 L 206.383 241.488 206.895 242.835 C 210.114 251.317,209.495 252.967,200.489 259.915 C 193.768 265.101,193.196 264.861,193.878 257.143 C 194.131 254.275,194.128 253.979,193.838 253.745 C 193.469 253.449,185.299 248.637,184.914 248.489 C 184.772 248.434,183.341 249.329,181.735 250.478 C 177.963 253.176,177.380 253.392,176.427 252.439 C 175.455 251.467,176.960 239.097,178.415 236.092 C 179.616 233.613,182.697 232.119,188.043 231.422 L 189.046 231.291 190.082 228.851 C 193.638 220.470,199.239 212.861,204.793 208.862 C 208.727 206.029,214.482 204.074,215.599 205.191 M325.577 209.970 C 326.387 210.346,331.379 212.708,336.672 215.220 C 345.819 219.561,347.821 220.512,352.381 222.681 C 354.703 223.786,357.433 225.079,359.745 226.169 C 360.663 226.602,362.518 227.481,363.868 228.124 C 365.218 228.766,367.516 229.853,368.974 230.539 C 372.909 232.390,373.611 233.050,373.820 235.097 C 374.046 237.303,373.164 238.726,370.892 239.817 C 369.246 240.608,339.150 254.904,336.426 256.188 C 332.192 258.185,330.498 258.987,321.183 263.409 C 315.796 265.965,311.368 268.032,311.343 268.000 C 311.318 267.969,311.821 267.015,312.461 265.881 C 323.390 246.515,327.773 224.682,323.615 210.311 C 323.307 209.246,323.351 208.886,323.760 209.103 C 323.949 209.204,324.767 209.593,325.577 209.970 M205.839 215.411 C 202.416 216.223,201.336 221.071,204.066 223.373 C 206.314 225.268,209.606 224.667,210.938 222.117 C 212.784 218.582,209.681 214.500,205.839 215.411 M207.512 219.882 C 207.609 220.177,207.087 220.410,206.680 220.254 C 206.249 220.089,206.550 219.506,207.030 219.577 C 207.251 219.610,207.468 219.747,207.512 219.882 M33.712 251.469 C 35.205 252.183,37.045 253.057,37.801 253.412 C 38.557 253.766,40.810 254.827,42.808 255.769 C 44.806 256.711,46.971 257.727,47.619 258.026 C 48.267 258.326,50.211 259.251,51.939 260.082 C 53.667 260.913,55.412 261.728,55.817 261.893 C 56.460 262.155,56.554 262.276,56.554 262.845 C 56.554 263.855,57.470 270.829,58.243 275.700 C 59.494 283.587,61.865 294.444,63.818 301.227 C 64.052 302.037,64.330 303.009,64.437 303.387 C 67.483 314.126,72.762 327.774,78.176 338.910 C 79.352 341.329,80.314 343.346,80.314 343.393 C 80.314 343.666,74.690 339.889,71.380 337.393 C 56.366 326.073,46.723 312.990,39.805 294.551 C 35.501 283.080,33.090 272.216,31.241 255.965 C 30.954 253.443,30.754 250.172,30.886 250.172 C 30.948 250.172,32.219 250.756,33.712 251.469 M368.676 251.497 C 368.497 253.064,367.829 257.528,367.597 258.714 C 366.795 262.812,366.560 263.941,366.039 266.186 C 364.234 273.973,361.224 283.111,358.119 290.231 C 357.531 291.581,356.798 293.260,356.492 293.962 C 340.000 331.730,306.468 361.118,265.194 373.976 C 260.867 375.324,258.392 375.987,254.590 376.816 C 253.510 377.051,252.273 377.325,251.841 377.425 C 247.718 378.376,235.100 380.084,234.753 379.738 C 234.692 379.677,235.698 376.810,236.989 373.368 C 238.279 369.925,239.752 365.983,240.262 364.607 L 241.189 362.106 249.053 362.054 L 256.918 362.003 259.200 358.076 C 260.455 355.916,262.181 352.920,263.035 351.419 C 265.039 347.900,264.727 348.180,268.165 346.809 C 303.152 332.853,330.850 301.902,340.695 265.762 L 341.343 263.384 342.471 262.866 C 343.504 262.392,344.626 261.861,350.712 258.962 C 351.846 258.422,353.392 257.692,354.148 257.340 C 354.904 256.987,356.804 256.086,358.370 255.337 C 359.936 254.588,362.233 253.495,363.474 252.908 C 364.716 252.321,366.395 251.516,367.205 251.119 C 368.016 250.722,368.708 250.390,368.743 250.383 C 368.777 250.375,368.748 250.876,368.676 251.497 M328.424 270.729 C 328.239 271.249,328.011 271.851,327.916 272.067 C 327.821 272.283,327.443 273.255,327.075 274.227 C 326.420 275.961,325.816 277.378,324.898 279.332 C 323.510 282.288,322.473 284.382,321.835 285.518 C 321.441 286.220,320.897 287.192,320.626 287.678 C 319.298 290.061,318.998 290.583,318.542 291.311 C 317.743 292.587,313.931 298.358,313.707 298.632 C 313.593 298.771,313.412 298.992,313.304 299.123 C 313.196 299.254,312.407 300.290,311.551 301.424 C 310.694 302.558,309.943 303.530,309.882 303.584 C 309.820 303.638,309.416 304.124,308.984 304.664 C 307.994 305.901,307.618 306.341,306.573 307.480 C 306.111 307.983,305.272 308.925,304.708 309.573 C 303.799 310.617,298.169 316.092,296.613 317.444 C 294.855 318.973,294.103 319.595,292.587 320.775 C 291.669 321.490,290.741 322.224,290.525 322.406 C 290.309 322.587,289.691 323.044,289.151 323.420 C 288.611 323.796,288.125 324.153,288.071 324.212 C 288.017 324.271,286.912 325.022,285.616 325.881 C 284.320 326.740,283.216 327.493,283.162 327.554 C 283.039 327.694,278.088 330.662,276.829 331.351 C 276.316 331.631,275.498 332.079,275.012 332.346 C 273.893 332.961,273.902 332.884,275.209 330.717 C 275.803 329.732,276.289 328.835,276.289 328.724 C 276.289 328.613,276.377 328.522,276.485 328.522 C 276.593 328.522,276.681 328.425,276.681 328.305 C 276.681 328.186,277.256 327.135,277.958 325.970 C 278.660 324.804,279.234 323.797,279.234 323.730 C 279.234 323.663,279.676 322.904,280.216 322.042 C 280.756 321.181,281.198 320.432,281.198 320.378 C 281.198 320.324,281.772 319.312,282.474 318.130 C 283.176 316.947,283.751 315.885,283.751 315.771 C 283.751 315.656,283.839 315.562,283.947 315.562 C 284.055 315.562,284.143 315.472,284.143 315.362 C 284.143 315.253,284.528 314.524,284.997 313.742 C 285.719 312.542,287.159 310.054,288.690 307.364 C 289.627 305.716,289.840 305.353,290.693 303.952 C 291.195 303.128,291.605 302.407,291.605 302.350 C 291.605 302.293,292.135 301.353,292.784 300.261 C 293.432 299.170,293.962 298.190,293.962 298.083 C 293.962 297.976,294.050 297.889,294.158 297.889 C 294.266 297.889,294.354 297.804,294.354 297.700 C 294.354 297.595,294.752 296.855,295.238 296.055 C 295.724 295.254,296.122 294.500,296.122 294.379 C 296.122 294.257,296.210 294.158,296.318 294.158 C 296.426 294.158,296.514 294.071,296.514 293.964 C 296.514 293.857,297.045 292.877,297.693 291.786 C 298.341 290.694,298.871 289.769,298.871 289.729 C 298.871 289.688,299.269 289.001,299.755 288.200 C 300.241 287.400,300.638 286.645,300.638 286.524 C 300.638 286.403,300.704 286.303,300.785 286.302 C 300.866 286.301,301.028 286.102,301.145 285.860 C 302.414 283.233,303.668 281.483,304.595 281.046 C 305.065 280.825,306.421 280.185,307.609 279.623 C 308.797 279.061,310.609 278.205,311.635 277.720 C 314.938 276.157,317.573 274.904,319.784 273.841 C 320.972 273.270,322.607 272.494,323.417 272.118 C 324.227 271.741,325.729 271.033,326.755 270.544 C 328.922 269.513,328.860 269.506,328.424 270.729 M109.507 304.391 C 120.340 311.672,132.280 317.304,142.857 320.122 L 143.839 320.384 150.444 337.953 C 159.416 361.820,160.052 363.529,159.986 363.595 C 159.907 363.674,154.469 360.309,152.208 358.783 C 133.127 345.904,116.861 326.263,107.847 305.219 C 106.699 302.538,106.674 302.447,107.199 302.823 C 107.406 302.972,108.444 303.677,109.507 304.391 M186.534 317.362 C 186.329 317.750,176.391 334.997,172.807 341.188 C 170.649 344.913,167.118 351.025,166.014 352.945 L 165.576 353.705 165.142 352.515 C 164.904 351.861,162.255 344.803,159.257 336.831 C 156.259 328.859,153.824 322.315,153.846 322.288 C 153.868 322.261,155.071 322.338,156.521 322.458 C 165.808 323.227,176.828 321.301,185.252 317.437 C 186.814 316.720,186.876 316.717,186.534 317.362 M231.910 362.201 C 231.910 362.256,228.853 370.451,225.118 380.414 C 221.382 390.376,215.145 407.010,211.257 417.378 C 203.073 439.208,203.530 438.333,200.308 438.318 C 197.359 438.304,197.221 438.102,193.650 428.571 C 192.234 424.791,186.048 408.289,179.903 391.900 L 168.731 362.101 200.320 362.101 C 217.694 362.101,231.910 362.146,231.910 362.201 " stroke="none" fill="#141414" fill-rule="evenodd"></path><path id="path3" d="M164.163 86.232 C 130.729 89.659,100.916 103.073,76.485 125.681 C 51.660 148.653,34.471 183.512,31.027 217.869 C 30.908 219.057,30.786 220.272,30.756 220.569 C 30.726 220.866,30.719 221.109,30.741 221.109 C 30.763 221.109,32.051 220.505,33.604 219.767 C 35.156 219.029,37.310 218.010,38.390 217.503 C 39.470 216.996,44.145 214.790,48.780 212.601 L 57.207 208.621 57.550 206.961 C 65.899 166.604,96.369 131.781,135.886 117.436 L 138.733 116.403 140.765 112.791 L 142.797 109.180 151.097 109.180 L 159.396 109.180 163.694 97.763 C 166.058 91.484,168.022 86.271,168.058 86.178 C 168.136 85.975,166.446 85.998,164.163 86.232 M238.608 102.062 C 239.600 104.635,250.425 133.475,253.626 142.072 C 255.707 147.663,255.771 147.799,257.125 149.545 L 258.505 151.324 261.751 152.363 C 272.391 155.770,284.876 162.198,294.123 169.028 C 295.930 170.363,295.901 170.470,294.637 167.104 C 284.558 140.274,266.020 117.982,241.591 103.314 C 238.216 101.288,238.327 101.335,238.608 102.062 M320.746 124.654 C 330.780 144.661,338.279 167.970,341.765 189.985 C 341.936 191.065,342.162 192.479,342.266 193.127 C 342.738 196.052,343.538 202.640,343.852 206.186 C 343.982 207.644,344.186 208.940,344.307 209.068 C 344.428 209.195,347.796 210.843,351.792 212.730 C 355.788 214.617,361.391 217.274,364.242 218.633 L 369.427 221.105 369.294 218.309 C 368.609 203.943,365.696 187.801,361.577 175.552 C 353.673 152.050,341.134 136.017,320.516 123.050 L 319.677 122.523 320.746 124.654 M379.788 221.944 C 379.827 222.631,380.097 222.969,380.223 222.489 C 380.290 222.233,380.299 221.950,380.244 221.861 C 380.090 221.611,379.772 221.669,379.788 221.944 M380.101 223.204 C 380.029 223.276,379.971 223.688,379.971 224.120 C 379.971 225.100,380.165 224.951,380.289 223.877 C 380.381 223.074,380.348 222.957,380.101 223.204 M19.770 223.873 C 19.539 224.734,19.592 224.969,19.938 224.623 C 20.155 224.406,20.191 224.193,20.068 223.859 L 19.897 223.397 19.770 223.873 M19.751 225.380 C 19.604 225.848,19.648 228.232,19.802 228.079 C 19.918 227.963,20.024 225.037,19.913 225.037 C 19.883 225.037,19.811 225.191,19.751 225.380 M379.971 225.528 C 379.971 225.798,380.037 226.019,380.118 226.019 C 380.199 226.019,380.265 225.798,380.265 225.528 C 380.265 225.258,380.199 225.037,380.118 225.037 C 380.037 225.037,379.971 225.258,379.971 225.528 M19.672 244.369 C 19.653 245.076,19.710 245.655,19.801 245.655 C 20.004 245.655,20.046 243.689,19.850 243.338 C 19.772 243.197,19.692 243.661,19.672 244.369 M19.887 247.619 C 19.887 248.105,19.925 248.304,19.972 248.061 C 20.018 247.818,20.018 247.420,19.972 247.177 C 19.925 246.934,19.887 247.133,19.887 247.619 M30.913 251.301 C 30.979 251.814,31.122 253.294,31.230 254.590 C 34.024 287.869,45.549 314.644,64.332 331.490 C 69.037 335.709,80.118 343.917,80.118 343.182 C 80.118 343.143,79.155 341.132,77.978 338.713 C 67.509 317.196,60.436 293.614,57.251 269.612 C 56.847 266.561,56.357 262.614,56.357 262.400 C 56.357 262.304,55.982 262.061,55.523 261.860 C 55.064 261.658,53.154 260.758,51.278 259.858 C 49.403 258.959,47.846 258.223,47.819 258.223 C 47.791 258.223,46.675 257.703,45.338 257.068 C 44.000 256.432,41.404 255.205,39.568 254.339 C 37.732 253.474,35.095 252.226,33.709 251.567 C 30.667 250.121,30.762 250.130,30.913 251.301 M367.008 251.315 C 366.197 251.712,364.474 252.540,363.179 253.154 C 361.884 253.768,359.335 254.983,357.513 255.854 C 355.692 256.725,354.180 257.437,354.153 257.437 C 354.127 257.437,352.613 258.154,350.788 259.031 C 347.604 260.561,346.403 261.128,342.955 262.732 L 341.384 263.463 340.824 265.605 C 331.323 301.945,302.660 333.532,266.372 347.652 L 264.998 348.187 263.570 350.677 C 262.785 352.046,260.999 355.155,259.601 357.585 L 257.060 362.003 249.155 362.101 L 241.251 362.199 239.825 366.028 C 236.823 374.090,235.381 377.942,235.027 378.847 L 234.660 379.785 235.985 379.665 C 261.540 377.343,286.992 367.789,308.744 352.355 C 340.742 329.649,362.927 292.629,368.391 252.823 C 368.510 251.959,368.637 251.097,368.674 250.908 C 368.761 250.462,368.741 250.467,367.008 251.315 M107.020 302.988 C 107.020 303.130,107.435 304.109,108.437 306.333 C 118.077 327.721,133.606 346.199,152.676 358.968 C 155.559 360.899,159.714 363.474,159.802 363.385 C 159.851 363.337,146.780 328.240,143.841 320.530 C 143.832 320.508,142.438 320.089,140.743 319.598 C 130.732 316.698,119.569 311.302,109.426 304.457 C 108.103 303.564,107.020 302.903,107.020 302.988 M236.034 390.623 C 236.033 390.704,235.967 390.760,235.886 390.747 C 235.339 390.661,234.065 390.801,234.150 390.939 C 234.251 391.102,234.644 391.091,237.506 390.845 C 238.262 390.780,239.256 390.715,239.715 390.700 C 240.174 390.685,240.550 390.607,240.550 390.526 C 240.550 390.445,239.534 390.401,238.292 390.428 C 237.050 390.454,236.034 390.542,236.034 390.623 M232.522 390.949 C 232.372 391.043,231.998 391.081,231.690 391.033 C 231.382 390.984,230.978 391.029,230.792 391.133 C 230.558 391.265,230.946 391.313,232.068 391.292 C 233.411 391.267,233.626 391.220,233.347 391.016 C 232.954 390.727,232.881 390.721,232.522 390.949 " stroke="none" fill="#489fef" fill-rule="evenodd"></path><path id="path4" d="M146.945 109.327 C 149.301 109.359,153.101 109.359,155.389 109.327 C 157.677 109.296,155.749 109.270,151.105 109.270 C 146.460 109.270,144.589 109.296,146.945 109.327 M265.783 122.140 C 266.967 123.328,267.981 124.300,268.035 124.300 C 268.089 124.300,267.164 123.328,265.979 122.140 C 264.795 120.952,263.782 119.980,263.728 119.980 C 263.674 119.980,264.599 120.952,265.783 122.140 M76.180 125.822 L 75.503 126.559 76.240 125.882 C 76.925 125.252,77.066 125.086,76.916 125.086 C 76.883 125.086,76.552 125.417,76.180 125.822 M70.103 131.861 C 69.626 132.347,69.280 132.744,69.334 132.744 C 69.388 132.744,69.822 132.347,70.299 131.861 C 70.776 131.375,71.123 130.977,71.069 130.977 C 71.015 130.977,70.580 131.375,70.103 131.861 M338.730 137.310 C 339.862 138.471,340.812 139.421,340.841 139.421 C 340.983 139.421,340.743 139.169,338.783 137.257 L 336.672 135.199 338.730 137.310 M94.735 142.415 L 94.158 143.054 94.796 142.477 C 95.391 141.939,95.525 141.777,95.373 141.777 C 95.339 141.777,95.052 142.064,94.735 142.415 M90.718 146.244 L 88.856 148.159 90.771 146.297 C 91.824 145.274,92.685 144.412,92.685 144.383 C 92.685 144.241,92.447 144.466,90.718 146.244 M206.371 175.700 L 205.695 176.436 206.431 175.759 C 207.116 175.129,207.258 174.963,207.108 174.963 C 207.075 174.963,206.744 175.295,206.371 175.700 M202.151 179.921 L 201.375 180.756 202.209 179.980 C 202.985 179.258,203.134 179.087,202.985 179.087 C 202.953 179.087,202.578 179.462,202.151 179.921 M294.453 186.745 C 294.985 187.285,295.464 187.727,295.518 187.727 C 295.572 187.727,295.181 187.285,294.649 186.745 C 294.117 186.205,293.638 185.763,293.584 185.763 C 293.530 185.763,293.921 186.205,294.453 186.745 M297.595 189.887 C 298.016 190.319,298.406 190.673,298.460 190.673 C 298.514 190.673,298.213 190.319,297.791 189.887 C 297.369 189.455,296.980 189.102,296.926 189.102 C 296.872 189.102,297.173 189.455,297.595 189.887 M214.188 199.848 C 214.539 199.891,215.113 199.891,215.464 199.848 C 215.815 199.804,215.528 199.768,214.826 199.768 C 214.124 199.768,213.837 199.804,214.188 199.848 M368.823 211.684 C 368.823 212.062,368.864 212.216,368.913 212.027 C 368.962 211.838,368.962 211.529,368.913 211.340 C 368.864 211.151,368.823 211.306,368.823 211.684 M222.556 214.138 C 222.556 215.218,222.589 215.635,222.629 215.065 C 222.669 214.494,222.668 213.610,222.628 213.101 C 222.588 212.592,222.555 213.058,222.556 214.138 M369.426 219.931 C 369.426 220.525,369.462 220.768,369.507 220.471 C 369.552 220.174,369.552 219.688,369.507 219.391 C 369.462 219.094,369.426 219.337,369.426 219.931 M379.804 223.171 C 379.807 224.020,379.831 224.077,379.975 223.596 C 380.068 223.286,380.066 222.852,379.970 222.615 C 379.840 222.290,379.800 222.421,379.804 223.171 M20.038 224.448 C 19.880 224.759,19.914 226.022,20.073 225.738 C 20.171 225.563,20.214 225.179,20.170 224.885 C 20.125 224.590,20.066 224.394,20.038 224.448 M379.790 224.693 C 379.781 224.882,379.907 225.037,380.069 225.037 C 380.231 225.037,380.362 224.882,380.360 224.693 C 380.358 224.424,380.320 224.408,380.188 224.617 C 380.044 224.843,380.002 224.843,379.912 224.617 C 379.837 224.431,379.800 224.454,379.790 224.693 M380.048 226.308 C 380.119 226.792,380.363 226.898,380.363 226.444 C 380.363 226.210,380.283 226.019,380.184 226.019 C 380.086 226.019,380.024 226.149,380.048 226.308 M379.971 227.360 C 379.971 227.595,380.051 227.786,380.150 227.786 C 380.349 227.786,380.319 227.284,380.107 227.072 C 380.032 226.997,379.971 227.126,379.971 227.360 M311.288 229.161 C 311.288 229.539,311.328 229.693,311.377 229.504 C 311.427 229.315,311.427 229.006,311.377 228.817 C 311.328 228.628,311.288 228.783,311.288 229.161 M175.838 230.977 L 175.061 231.811 175.896 231.035 C 176.672 230.313,176.821 230.142,176.672 230.142 C 176.640 230.142,176.265 230.518,175.838 230.977 M20.044 243.986 C 19.916 244.876,19.942 245.822,20.090 245.673 C 20.178 245.585,20.216 245.082,20.175 244.554 C 20.134 244.026,20.075 243.770,20.044 243.986 M88.835 247.914 C 88.836 249.426,88.867 250.018,88.904 249.230 C 88.941 248.443,88.941 247.206,88.903 246.481 C 88.866 245.757,88.835 246.402,88.835 247.914 M155.670 249.918 C 155.913 249.964,156.311 249.964,156.554 249.918 C 156.797 249.871,156.598 249.833,156.112 249.833 C 155.626 249.833,155.427 249.871,155.670 249.918 M31.072 254.296 C 31.072 254.674,31.112 254.828,31.161 254.639 C 31.211 254.450,31.211 254.141,31.161 253.952 C 31.112 253.763,31.072 253.918,31.072 254.296 M176.878 257.972 C 177.229 258.016,177.803 258.016,178.154 257.972 C 178.505 257.929,178.218 257.893,177.516 257.893 C 176.814 257.893,176.527 257.929,176.878 257.972 M209.615 258.861 L 208.640 259.892 209.671 258.918 C 210.238 258.382,210.702 257.918,210.702 257.887 C 210.702 257.740,210.520 257.903,209.615 258.861 M188.558 259.597 C 188.558 259.975,188.598 260.130,188.648 259.941 C 188.697 259.752,188.697 259.443,188.648 259.254 C 188.598 259.065,188.558 259.219,188.558 259.597 M103.093 281.885 C 103.679 282.479,104.204 282.965,104.258 282.965 C 104.312 282.965,103.876 282.479,103.289 281.885 C 102.703 281.291,102.178 280.805,102.124 280.805 C 102.070 280.805,102.506 281.291,103.093 281.885 M105.637 284.389 C 106.451 285.256,106.627 285.412,106.627 285.264 C 106.627 285.233,106.208 284.813,105.695 284.332 L 104.762 283.456 105.637 284.389 M195.873 293.814 L 193.716 296.024 195.925 293.867 C 197.140 292.681,198.135 291.687,198.135 291.658 C 198.135 291.516,197.876 291.763,195.873 293.814 M159.704 309.228 C 160.437 309.266,161.586 309.265,162.257 309.227 C 162.927 309.189,162.327 309.158,160.923 309.158 C 159.519 309.159,158.970 309.190,159.704 309.228 M312.313 316.397 L 311.537 317.231 312.371 316.455 C 313.147 315.733,313.296 315.562,313.147 315.562 C 313.115 315.562,312.740 315.938,312.313 316.397 M305.833 322.877 L 305.056 323.711 305.891 322.935 C 306.667 322.213,306.816 322.042,306.667 322.042 C 306.635 322.042,306.260 322.418,305.833 322.877 M331.357 332.302 L 330.781 332.941 331.419 332.364 C 332.014 331.826,332.147 331.664,331.996 331.664 C 331.962 331.664,331.675 331.951,331.357 332.302 M328.417 335.444 L 327.442 336.475 328.473 335.501 C 329.431 334.595,329.594 334.413,329.448 334.413 C 329.417 334.413,328.953 334.877,328.417 335.444 M324.882 338.979 L 323.908 340.010 324.939 339.035 C 325.506 338.499,325.970 338.035,325.970 338.004 C 325.970 337.858,325.788 338.021,324.882 338.979 M130.584 340.206 C 130.951 340.584,131.295 340.893,131.349 340.893 C 131.403 340.893,131.147 340.584,130.781 340.206 C 130.414 339.828,130.070 339.519,130.016 339.519 C 129.962 339.519,130.218 339.828,130.584 340.206 M137.653 347.275 C 138.020 347.653,138.364 347.963,138.418 347.963 C 138.472 347.963,138.216 347.653,137.850 347.275 C 137.483 346.897,137.139 346.588,137.085 346.588 C 137.031 346.588,137.287 346.897,137.653 347.275 M183.996 348.601 C 183.996 348.682,198.687 348.727,216.642 348.701 C 234.597 348.674,243.986 348.630,237.506 348.603 C 206.217 348.468,183.996 348.468,183.996 348.601 M230.666 390.509 C 230.302 390.873,230.561 391.149,231.155 391.030 C 231.636 390.933,231.739 390.963,231.615 391.163 C 231.500 391.350,231.532 391.374,231.732 391.248 C 232.280 390.906,232.849 390.859,233.755 391.081 C 234.160 391.180,234.284 391.156,234.185 390.996 C 234.067 390.803,235.196 390.639,235.886 390.747 C 235.967 390.760,236.033 390.682,236.033 390.574 C 236.033 390.355,230.883 390.292,230.666 390.509 " stroke="none" fill="#174167" fill-rule="evenodd"></path></g></svg>