<svg id="svg" version="1.1" xmlns="http://www.w3.org/2000/svg" xmlns:xlink="http://www.w3.org/1999/xlink" width="" height="" viewBox="0, 0, 400,400"><g id="svgg"><path id="path0" d="M193.877 91.861 C 186.494 92.503,183.247 95.615,181.651 103.578 L 181.284 105.406 182.147 106.179 C 183.805 107.664,186.222 108.540,190.652 109.261 C 196.193 110.163,197.292 110.575,197.592 111.861 C 197.936 113.335,195.238 113.753,186.132 113.634 L 180.347 113.559 180.266 113.988 C 180.221 114.224,180.138 114.904,180.081 115.500 C 179.227 124.462,177.636 132.504,175.407 139.126 C 175.183 139.792,175.000 140.711,175.000 141.168 L 175.000 142.000 200.684 142.000 L 226.369 142.000 226.299 139.458 C 226.231 136.982,226.213 136.876,225.598 135.333 C 223.488 130.038,221.855 124.696,219.436 115.167 C 216.340 102.975,214.898 99.357,211.916 96.309 C 208.394 92.707,202.072 91.149,193.877 91.861 M194.761 98.417 C 194.921 99.271,194.725 100.043,194.119 100.938 C 192.115 103.902,187.500 102.457,187.500 98.866 C 187.500 97.774,187.289 97.833,191.187 97.833 L 194.652 97.833 194.761 98.417 M136.375 150.958 C 136.015 151.394,134.493 153.325,132.995 155.250 C 131.496 157.175,128.280 161.300,125.849 164.417 C 118.292 174.105,116.412 176.516,110.256 184.417 C 106.971 188.633,104.106 192.295,103.891 192.554 C 103.352 193.204,103.304 193.107,105.208 195.212 C 106.148 196.251,111.902 202.609,117.996 209.342 C 124.090 216.075,132.670 225.558,137.062 230.417 C 141.455 235.275,145.357 239.588,145.733 240.000 C 148.452 242.980,152.343 247.273,159.253 254.917 C 163.646 259.775,167.986 264.575,168.899 265.583 C 169.812 266.592,171.876 268.879,173.486 270.667 C 175.096 272.454,176.457 273.954,176.510 274.000 C 176.563 274.046,180.948 278.883,186.255 284.750 C 191.561 290.617,196.804 296.411,197.905 297.627 C 199.006 298.842,199.954 299.817,200.011 299.793 C 200.069 299.770,202.390 297.237,205.169 294.167 C 207.948 291.096,217.247 280.821,225.833 271.333 C 234.420 261.846,243.278 252.058,245.519 249.583 C 254.870 239.255,291.248 199.049,293.398 196.667 C 294.680 195.246,295.911 193.883,296.133 193.638 L 296.537 193.193 295.132 191.388 C 294.360 190.396,292.087 187.483,290.082 184.917 C 288.076 182.350,284.710 178.037,282.600 175.333 C 280.491 172.629,277.155 168.354,275.187 165.833 C 273.220 163.313,269.667 158.756,267.293 155.708 L 262.976 150.167 200.004 150.167 L 137.031 150.167 136.375 150.958 M233.379 162.935 L 242.167 171.703 242.167 182.435 L 242.167 193.167 227.083 193.167 L 212.000 193.167 212.000 187.711 L 212.000 182.256 210.295 180.545 L 208.589 178.833 200.515 178.833 L 192.441 178.833 190.811 180.542 L 189.182 182.250 189.174 187.753 L 189.167 193.256 190.878 194.961 L 192.589 196.667 208.664 196.667 L 224.739 196.667 233.452 205.375 L 242.165 214.083 242.166 229.916 L 242.167 245.749 233.459 254.458 L 224.751 263.167 200.715 263.167 L 176.678 263.167 167.964 254.447 L 159.250 245.728 159.274 237.072 C 159.288 232.312,159.306 227.610,159.316 226.625 L 159.333 224.833 174.250 224.833 L 189.167 224.833 189.167 229.986 L 189.167 235.139 191.042 236.901 L 192.917 238.663 200.732 238.665 L 208.548 238.667 210.274 236.968 L 212.000 235.270 212.000 229.899 L 212.000 224.527 210.296 222.930 L 208.592 221.333 192.671 221.333 L 176.749 221.333 168.006 212.590 L 159.264 203.846 159.219 187.798 L 159.174 171.750 167.961 162.958 L 176.749 154.167 200.670 154.167 L 224.591 154.167 233.379 162.935 M169.708 164.542 L 162.000 172.251 162.000 187.751 L 162.000 203.251 169.709 210.959 L 177.418 218.667 193.363 218.667 L 209.309 218.667 211.988 221.269 L 214.667 223.871 214.667 229.905 L 214.667 235.940 214.208 236.330 C 213.956 236.545,212.692 237.758,211.399 239.027 L 209.047 241.333 200.647 241.333 L 192.246 241.333 189.456 238.540 L 186.667 235.746 186.667 231.623 L 186.667 227.500 174.333 227.500 L 162.000 227.500 162.000 236.299 L 162.000 245.097 169.724 252.799 L 177.448 260.500 200.683 260.494 L 223.917 260.488 231.708 252.746 L 239.500 245.005 239.500 229.862 L 239.500 214.720 231.759 207.027 L 224.018 199.333 207.967 199.340 L 191.917 199.347 189.296 196.632 L 186.675 193.917 186.678 187.750 L 186.681 181.583 189.299 178.870 L 191.917 176.157 200.585 176.162 L 209.254 176.167 211.958 178.875 L 214.662 181.583 214.706 186.000 L 214.750 190.417 227.083 190.417 L 239.417 190.417 239.460 181.419 L 239.503 172.421 231.710 164.627 L 223.918 156.833 200.667 156.833 L 177.415 156.833 169.708 164.542 M228.915 167.510 L 236.167 174.794 236.167 181.064 L 236.167 187.333 227.167 187.333 L 218.167 187.333 218.149 186.625 C 218.140 186.235,218.121 184.511,218.108 182.794 L 218.083 179.670 214.668 176.252 L 211.253 172.833 200.586 172.833 L 189.920 172.833 186.627 176.123 L 183.333 179.414 183.333 187.664 L 183.333 195.914 186.623 199.207 L 189.914 202.500 205.770 202.500 L 221.626 202.500 228.897 209.842 L 236.167 217.183 236.167 230.045 L 236.167 242.908 229.044 250.037 L 221.922 257.167 200.731 257.167 L 179.540 257.167 172.437 249.989 L 165.333 242.811 165.333 236.822 L 165.333 230.833 174.333 230.833 L 183.333 230.833 183.333 234.414 L 183.333 237.994 186.664 241.330 L 189.994 244.667 200.722 244.667 L 211.450 244.667 212.496 243.542 C 213.072 242.923,214.551 241.398,215.783 240.153 L 218.024 237.888 218.085 231.236 C 218.118 227.577,218.094 224.004,218.031 223.295 L 217.917 222.008 214.509 218.587 L 211.102 215.167 195.426 215.167 L 179.751 215.167 172.542 207.959 L 165.333 200.751 165.333 187.668 L 165.333 174.585 172.532 167.385 L 179.730 160.185 200.697 160.205 L 221.664 160.226 228.915 167.510 " stroke="none" fill="#ea1a18" fill-rule="evenodd"></path><path id="path1" d="M192.333 88.006 C 187.756 88.659,185.127 89.809,182.507 92.304 C 181.806 92.971,180.695 93.763,178.833 94.924 C 178.007 95.439,173.943 97.500,173.753 97.500 C 173.687 97.500,173.397 97.607,173.109 97.737 C 172.519 98.003,171.071 98.459,169.083 99.003 C 161.696 101.029,159.417 103.546,159.428 109.667 C 159.434 112.955,160.078 115.460,161.871 119.167 C 163.051 121.606,162.931 121.702,163.518 117.833 C 164.008 114.602,165.702 113.884,173.591 113.560 L 176.265 113.450 176.056 115.434 C 175.073 124.769,173.763 131.415,171.708 137.500 C 171.290 138.738,171.094 139.652,171.038 140.625 L 170.958 142.000 162.126 142.000 L 153.294 142.000 153.403 141.625 C 153.462 141.419,153.542 140.982,153.580 140.654 C 154.365 133.884,159.445 127.810,165.750 126.105 C 166.575 125.882,167.512 125.624,167.833 125.533 C 168.222 125.423,141.930 125.362,88.875 125.350 C 45.127 125.341,9.333 125.374,9.333 125.424 C 9.333 125.474,9.959 126.393,10.724 127.466 C 14.113 132.221,20.306 140.929,24.497 146.833 C 27.002 150.362,29.359 153.679,29.734 154.203 L 30.417 155.157 76.542 155.162 C 121.411 155.167,122.659 155.175,122.375 155.475 C 122.215 155.645,121.971 155.926,121.833 156.100 C 121.014 157.136,120.238 158.095,120.159 158.167 C 120.108 158.212,119.884 158.512,119.661 158.833 C 119.224 159.461,119.004 159.738,118.293 160.557 C 118.042 160.847,117.793 161.215,117.740 161.375 C 117.687 161.535,117.587 161.667,117.518 161.667 C 117.448 161.667,117.065 162.117,116.667 162.667 L 115.942 163.667 73.142 163.667 L 30.342 163.667 31.963 165.909 C 32.854 167.142,34.047 168.811,34.613 169.617 C 35.179 170.424,37.204 173.276,39.113 175.955 C 41.022 178.635,44.641 183.716,47.156 187.247 L 51.728 193.667 72.270 193.667 L 92.812 193.667 95.031 196.109 C 96.251 197.453,97.644 198.983,98.125 199.511 C 98.606 200.038,99.000 200.495,99.000 200.526 C 99.000 200.558,88.297 200.564,75.217 200.541 C 56.100 200.506,51.484 200.539,51.692 200.707 C 51.834 200.822,52.773 202.079,53.779 203.500 C 57.058 208.135,64.698 218.890,65.499 220.000 C 65.929 220.596,67.385 222.640,68.733 224.542 L 71.184 228.000 97.580 228.000 L 123.976 228.000 124.292 228.402 C 124.598 228.791,125.627 229.934,129.042 233.682 C 129.935 234.662,130.667 235.491,130.667 235.524 C 130.667 235.557,117.279 235.564,100.916 235.541 L 71.166 235.498 72.028 236.707 C 72.502 237.373,73.425 238.667,74.080 239.583 C 74.735 240.500,76.097 242.412,77.105 243.833 C 81.659 250.246,88.184 259.424,89.458 261.208 L 90.858 263.167 123.304 263.172 L 155.750 263.178 160.750 268.714 C 163.500 271.759,165.740 274.343,165.727 274.457 C 165.715 274.570,165.764 274.626,165.838 274.580 C 165.912 274.535,169.109 277.963,172.944 282.199 C 176.779 286.435,182.161 292.379,184.904 295.409 C 187.647 298.438,192.144 303.411,194.898 306.460 C 197.653 309.509,199.950 311.984,200.004 311.960 C 200.091 311.922,205.145 306.360,212.312 298.417 C 213.635 296.950,215.027 295.412,215.404 295.000 C 215.782 294.587,216.834 293.425,217.743 292.417 C 218.653 291.408,220.043 289.871,220.834 289.000 C 221.625 288.129,223.122 286.479,224.160 285.333 C 225.198 284.188,226.319 282.950,226.652 282.583 C 226.984 282.217,228.337 280.717,229.658 279.250 C 230.980 277.783,232.709 275.871,233.502 275.000 C 234.294 274.129,236.129 272.104,237.580 270.500 C 239.031 268.896,240.563 267.203,240.984 266.739 C 241.405 266.274,242.303 265.280,242.978 264.530 L 244.206 263.167 276.645 263.161 L 309.083 263.156 310.016 261.870 C 310.529 261.162,312.248 258.746,313.837 256.500 C 315.425 254.254,317.448 251.404,318.331 250.167 C 319.215 248.929,321.612 245.554,323.658 242.667 C 325.704 239.779,327.706 236.985,328.106 236.457 L 328.835 235.497 299.019 235.540 L 269.203 235.583 269.795 234.917 C 270.440 234.191,272.073 232.382,274.496 229.708 L 276.044 228.000 302.401 228.000 L 328.758 228.000 330.912 224.958 C 332.097 223.285,334.162 220.379,335.501 218.500 C 336.841 216.621,339.614 212.721,341.664 209.833 C 343.714 206.946,346.052 203.664,346.859 202.540 L 348.327 200.497 324.588 200.540 L 300.849 200.583 301.313 200.083 C 301.927 199.421,303.023 198.213,303.611 197.550 C 303.871 197.256,304.758 196.264,305.583 195.344 L 307.083 193.673 327.667 193.666 L 348.250 193.659 348.833 192.824 C 349.154 192.365,349.723 191.560,350.097 191.036 C 350.755 190.115,353.282 186.559,360.251 176.750 C 367.787 166.142,369.391 163.911,369.566 163.794 C 369.667 163.727,350.465 163.671,326.895 163.669 L 284.040 163.667 283.570 163.042 C 283.312 162.698,283.057 162.379,283.003 162.333 C 282.948 162.287,282.010 161.087,280.917 159.667 C 279.824 158.246,278.889 157.046,278.839 157.000 C 278.789 156.954,278.527 156.617,278.256 156.250 C 277.985 155.883,277.648 155.492,277.507 155.380 C 277.305 155.221,287.087 155.176,323.376 155.172 L 369.502 155.167 370.245 154.125 C 371.088 152.944,378.255 142.872,383.143 136.000 C 384.936 133.479,387.310 130.142,388.418 128.583 C 389.527 127.025,390.491 125.656,390.560 125.542 C 390.661 125.375,374.718 125.336,311.052 125.346 L 231.417 125.358 233.167 125.826 C 239.526 127.525,243.793 131.479,245.494 137.250 C 245.986 138.918,246.355 140.482,246.429 141.208 L 246.509 142.000 238.444 142.000 L 230.379 142.000 230.288 139.125 C 230.235 137.467,230.108 136.003,229.986 135.667 C 229.438 134.147,228.970 132.886,228.842 132.583 C 228.557 131.907,227.667 129.396,227.667 129.267 C 227.667 129.194,227.561 128.897,227.433 128.609 C 227.195 128.075,226.248 125.067,225.746 123.250 C 225.594 122.700,225.368 121.912,225.245 121.500 C 224.952 120.521,224.190 117.665,223.912 116.500 C 223.334 114.085,221.720 107.918,221.273 106.417 C 221.136 105.958,220.940 105.283,220.838 104.917 C 220.735 104.550,220.587 104.100,220.509 103.917 C 220.431 103.733,220.202 103.096,219.999 102.500 C 219.317 100.498,217.932 97.604,216.947 96.122 C 214.382 92.267,210.221 89.464,205.750 88.580 C 205.475 88.526,204.950 88.410,204.583 88.324 C 201.785 87.663,195.822 87.509,192.333 88.006 M201.950 91.924 C 209.753 92.946,213.438 96.007,216.287 103.833 C 217.252 106.483,217.714 108.130,219.979 117.000 C 221.920 124.597,223.675 130.300,225.416 134.667 C 226.251 136.761,226.684 139.545,226.433 141.208 L 226.313 142.000 200.572 142.000 L 174.830 142.000 174.934 141.042 C 174.991 140.515,175.325 139.183,175.676 138.083 C 177.654 131.886,178.978 125.097,179.944 116.208 L 180.239 113.500 187.078 113.495 C 196.023 113.488,197.343 113.306,197.467 112.060 C 197.586 110.855,196.402 110.275,192.573 109.666 C 185.500 108.541,181.333 106.863,181.333 105.140 C 181.333 102.581,183.369 97.233,185.039 95.406 C 187.886 92.290,194.439 90.941,201.950 91.924 M187.567 98.257 C 187.260 99.479,188.052 101.224,189.226 101.912 C 191.748 103.389,194.780 101.686,194.633 98.874 L 194.583 97.917 191.129 97.872 L 187.675 97.827 187.567 98.257 M266.917 155.111 C 269.025 157.824,272.016 161.665,273.562 163.647 C 275.109 165.628,277.515 168.712,278.908 170.500 C 280.302 172.287,282.789 175.475,284.436 177.583 C 290.718 185.626,292.811 188.311,294.691 190.733 L 296.633 193.235 294.348 195.742 C 292.029 198.288,289.460 201.124,279.997 211.583 C 272.794 219.545,267.374 225.534,249.000 245.831 C 240.338 255.400,232.463 264.101,231.500 265.165 C 223.394 274.130,206.400 292.906,202.861 296.808 C 200.533 299.376,199.900 299.985,199.760 299.797 C 199.663 299.667,198.196 298.032,196.500 296.164 C 193.758 293.142,192.012 291.214,186.845 285.504 C 186.060 284.636,184.666 283.099,183.747 282.088 C 182.829 281.077,181.030 279.087,179.750 277.667 C 178.469 276.246,177.112 274.746,176.735 274.333 C 176.096 273.635,170.454 267.399,165.429 261.838 C 164.231 260.511,162.499 258.599,161.582 257.588 C 158.672 254.382,155.645 251.038,137.665 231.167 C 128.002 220.487,118.974 210.512,117.604 209.000 C 111.368 202.120,109.055 199.561,106.755 197.000 C 105.396 195.487,104.066 194.016,103.798 193.731 L 103.312 193.212 106.418 189.231 C 108.127 187.041,110.135 184.463,110.881 183.500 C 111.627 182.537,113.294 180.400,114.585 178.750 C 115.877 177.100,120.938 170.612,125.832 164.333 C 130.727 158.054,135.219 152.298,135.816 151.542 L 136.900 150.167 199.992 150.173 L 263.083 150.179 266.917 155.111 M168.041 162.876 L 159.333 171.585 159.333 187.751 L 159.333 203.918 167.959 212.542 L 176.585 221.167 192.561 221.167 L 208.538 221.167 209.811 222.391 C 210.511 223.065,211.327 223.827,211.625 224.085 L 212.167 224.555 212.167 229.929 L 212.167 235.302 210.292 237.064 L 208.417 238.825 200.694 238.829 L 192.972 238.833 191.073 237.042 L 189.174 235.250 189.170 230.125 L 189.167 225.000 174.250 225.000 L 159.333 225.000 159.333 235.374 L 159.333 245.749 168.041 254.458 L 176.749 263.167 200.667 263.167 L 224.585 263.167 233.292 254.458 L 242.000 245.749 242.000 229.915 L 242.000 214.082 233.291 205.374 L 224.582 196.667 208.586 196.667 L 192.589 196.667 190.878 194.961 L 189.167 193.256 189.167 187.701 L 189.167 182.146 190.776 180.490 L 192.386 178.833 200.571 178.833 L 208.756 178.833 210.461 180.545 L 212.167 182.256 212.167 187.628 L 212.167 193.000 227.083 193.000 L 242.000 193.000 242.000 182.291 L 242.000 171.582 233.291 162.874 L 224.582 154.167 200.665 154.167 L 176.749 154.167 168.041 162.876 M231.791 164.541 L 239.500 172.249 239.500 181.374 L 239.500 190.500 227.083 190.500 L 214.667 190.500 214.667 186.044 L 214.667 181.587 211.960 178.877 L 209.254 176.167 200.669 176.169 C 195.947 176.171,192.008 176.229,191.917 176.299 C 191.825 176.369,190.606 177.592,189.208 179.017 L 186.667 181.608 186.667 187.751 L 186.667 193.894 189.368 196.614 L 192.070 199.333 208.049 199.333 L 224.027 199.333 231.764 206.956 L 239.500 214.579 239.500 229.857 L 239.500 245.135 231.725 252.818 L 223.949 260.500 200.707 260.500 L 177.465 260.500 169.649 252.809 L 161.833 245.118 161.833 236.309 L 161.833 227.500 174.250 227.500 L 186.667 227.500 186.667 231.627 L 186.667 235.754 189.377 238.460 L 192.087 241.167 200.585 241.166 L 209.083 241.165 211.875 238.482 L 214.667 235.799 214.667 229.882 L 214.667 223.965 211.958 221.324 L 209.250 218.682 193.251 218.674 L 177.251 218.667 169.542 210.959 L 161.833 203.251 161.833 187.771 L 161.833 172.291 169.542 164.567 L 177.250 156.842 200.666 156.838 L 224.082 156.833 231.791 164.541 M172.458 167.485 L 165.333 174.628 165.333 187.691 L 165.333 200.754 172.553 207.960 L 179.773 215.167 195.537 215.167 L 211.300 215.167 214.733 218.708 L 218.166 222.250 218.166 230.046 L 218.167 237.842 214.809 241.254 L 211.451 244.667 200.682 244.667 L 189.914 244.667 186.540 241.290 L 183.167 237.914 183.167 234.374 L 183.167 230.833 174.250 230.833 L 165.333 230.833 165.342 236.792 L 165.351 242.750 172.392 249.875 L 179.433 257.000 200.758 257.005 L 222.083 257.010 229.119 249.880 L 236.156 242.750 236.153 230.000 L 236.151 217.250 228.925 209.958 L 221.698 202.667 205.806 202.667 L 189.914 202.667 186.540 199.290 L 183.167 195.914 183.167 187.674 L 183.167 179.435 186.536 176.051 L 189.906 172.667 200.606 172.667 L 211.306 172.667 214.736 176.208 L 218.166 179.750 218.166 183.458 L 218.167 187.167 227.167 187.167 L 236.167 187.167 236.158 181.042 L 236.149 174.917 228.948 167.625 L 221.747 160.333 200.665 160.337 L 179.583 160.342 172.458 167.485 " stroke="none" fill="#0b0435" fill-rule="evenodd"></path><path id="path2" d="M170.583 113.775 C 170.308 113.807,169.596 113.881,169.000 113.939 C 166.803 114.154,168.342 114.149,171.167 113.933 C 173.421 113.760,173.743 113.710,172.583 113.713 C 171.758 113.715,170.858 113.743,170.583 113.775 M166.220 114.490 C 165.157 114.872,164.613 115.266,164.248 115.917 L 163.967 116.417 164.415 115.872 C 164.929 115.246,165.536 114.898,166.833 114.487 C 167.337 114.328,167.600 114.193,167.417 114.188 C 167.233 114.183,166.695 114.319,166.220 114.490 M162.167 120.270 C 162.167 120.361,162.277 120.582,162.411 120.760 C 162.546 120.938,162.656 121.008,162.656 120.917 C 162.656 120.825,162.546 120.604,162.411 120.426 C 162.277 120.249,162.167 120.178,162.167 120.270 M231.579 125.660 C 231.638 125.755,231.882 125.833,232.121 125.833 C 232.643 125.833,232.583 125.754,231.944 125.600 C 231.635 125.526,231.509 125.546,231.579 125.660 M9.681 126.333 C 10.348 127.252,10.598 127.526,10.365 127.083 C 10.269 126.900,9.953 126.487,9.663 126.167 L 9.137 125.583 9.681 126.333 M166.000 126.037 C 165.679 126.132,165.493 126.238,165.586 126.272 C 165.679 126.307,166.091 126.229,166.502 126.101 C 166.914 125.972,167.100 125.866,166.917 125.865 C 166.733 125.864,166.321 125.941,166.000 126.037 M233.083 125.990 C 233.846 126.298,235.720 126.835,235.790 126.766 C 235.876 126.680,233.250 125.828,232.950 125.845 C 232.840 125.851,232.900 125.916,233.083 125.990 M389.966 126.542 C 389.453 127.225,389.291 127.500,389.399 127.500 C 389.446 127.500,389.716 127.162,390.000 126.750 C 390.594 125.886,390.570 125.737,389.966 126.542 M163.495 126.971 C 161.226 127.982,156.793 131.515,157.237 131.959 C 157.287 132.010,157.492 131.833,157.691 131.567 C 158.985 129.840,161.738 127.838,164.083 126.919 C 165.346 126.424,165.515 126.332,165.153 126.336 C 165.023 126.337,164.277 126.623,163.495 126.971 M236.000 126.903 C 236.000 126.993,237.110 127.500,237.307 127.500 C 237.362 127.500,237.260 127.398,237.079 127.272 C 236.695 127.007,236.000 126.769,236.000 126.903 M237.592 127.640 C 237.853 127.871,239.000 128.533,239.000 128.452 C 239.000 128.352,237.706 127.500,237.554 127.500 C 237.487 127.500,237.505 127.563,237.592 127.640 M388.133 129.125 C 387.065 130.588,386.634 131.239,386.946 130.917 C 387.357 130.492,389.386 127.667,389.280 127.667 C 389.235 127.667,388.719 128.323,388.133 129.125 M11.332 128.678 C 12.833 130.835,14.043 132.500,14.112 132.500 C 14.156 132.500,13.837 131.994,13.402 131.375 C 12.967 130.756,12.311 129.815,11.944 129.284 C 11.577 128.753,11.199 128.270,11.105 128.212 C 11.011 128.154,11.113 128.364,11.332 128.678 M239.834 129.031 C 239.834 129.060,240.519 129.786,241.356 130.646 C 242.921 132.252,243.106 132.349,241.939 130.954 C 241.373 130.276,239.832 128.869,239.834 129.031 M156.539 132.958 C 156.107 133.581,155.967 133.833,156.051 133.833 C 156.090 133.833,156.321 133.533,156.564 133.167 C 157.057 132.421,157.035 132.241,156.539 132.958 M15.182 134.042 C 15.479 134.477,15.751 134.833,15.784 134.833 C 15.897 134.833,15.519 134.253,15.078 133.750 C 14.747 133.372,14.772 133.442,15.182 134.042 M384.635 134.042 C 383.841 135.107,383.437 135.725,383.603 135.622 C 383.800 135.501,385.224 133.500,385.114 133.500 C 385.073 133.500,384.858 133.744,384.635 134.042 M16.330 135.708 C 16.615 136.144,16.886 136.500,16.931 136.500 C 17.061 136.500,16.718 135.957,16.246 135.417 C 15.876 134.993,15.889 135.037,16.330 135.708 M17.652 137.583 C 18.025 138.133,18.523 138.808,18.759 139.083 C 18.995 139.358,18.878 139.127,18.498 138.570 C 18.118 138.012,17.620 137.337,17.390 137.070 C 17.161 136.802,17.279 137.033,17.652 137.583 M382.133 137.542 C 381.649 138.187,381.457 138.500,381.545 138.500 C 381.581 138.500,381.853 138.162,382.149 137.750 C 382.763 136.894,382.750 136.720,382.133 137.542 M380.333 140.083 C 380.050 140.496,379.855 140.833,379.901 140.833 C 379.946 140.833,380.216 140.496,380.500 140.083 C 380.784 139.671,380.979 139.333,380.933 139.333 C 380.887 139.333,380.617 139.671,380.333 140.083 M20.496 141.542 C 20.782 141.977,21.053 142.333,21.097 142.333 C 21.228 142.333,20.885 141.790,20.413 141.250 C 20.043 140.826,20.055 140.870,20.496 141.542 M379.072 141.875 C 378.728 142.356,378.263 143.012,378.038 143.333 L 377.630 143.917 378.067 143.417 C 378.617 142.786,379.881 141.000,379.776 141.000 C 379.733 141.000,379.416 141.394,379.072 141.875 M21.833 143.480 C 22.233 144.051,22.636 144.564,22.728 144.621 C 22.820 144.678,22.568 144.258,22.167 143.687 C 21.767 143.116,21.364 142.602,21.272 142.545 C 21.180 142.489,21.432 142.909,21.833 143.480 M22.952 145.042 C 23.039 145.156,23.582 145.906,24.158 146.708 C 24.734 147.510,25.243 148.167,25.290 148.167 C 25.336 148.167,25.302 148.073,25.215 147.958 C 25.127 147.844,24.584 147.094,24.008 146.292 C 23.432 145.490,22.923 144.833,22.877 144.833 C 22.830 144.833,22.864 144.927,22.952 145.042 M374.996 147.625 C 374.555 148.296,374.543 148.341,374.913 147.917 C 375.385 147.376,375.728 146.833,375.597 146.833 C 375.553 146.833,375.282 147.190,374.996 147.625 M26.674 150.305 C 27.051 150.840,27.548 151.496,27.778 151.763 C 28.008 152.031,27.882 151.800,27.498 151.250 C 27.114 150.700,26.676 150.044,26.525 149.793 C 26.374 149.541,26.191 149.335,26.119 149.334 C 26.047 149.334,26.297 149.771,26.674 150.305 M373.062 150.292 C 372.570 150.969,372.418 151.313,372.824 150.833 C 373.199 150.389,373.550 149.833,373.454 149.833 C 373.422 149.833,373.246 150.040,373.062 150.292 M371.466 152.542 C 370.953 153.225,370.791 153.500,370.899 153.500 C 370.946 153.500,371.216 153.162,371.500 152.750 C 372.094 151.886,372.070 151.737,371.466 152.542 M29.515 154.208 C 29.813 154.644,30.084 155.000,30.117 155.000 C 30.231 155.000,29.853 154.420,29.412 153.917 C 29.080 153.538,29.105 153.609,29.515 154.208 M369.901 154.750 L 369.628 155.167 323.439 155.208 L 277.250 155.249 323.399 155.292 C 358.434 155.324,369.605 155.287,369.783 155.139 C 370.045 154.922,370.393 154.333,370.260 154.333 C 370.213 154.333,370.051 154.521,369.901 154.750 M53.208 155.292 C 65.927 155.315,86.740 155.315,99.458 155.292 C 112.177 155.268,101.771 155.249,76.333 155.249 C 50.896 155.249,40.490 155.268,53.208 155.292 M30.333 163.900 C 30.333 163.963,30.621 164.405,30.972 164.882 C 31.323 165.359,31.964 166.256,32.397 166.875 C 32.830 167.494,33.222 168.000,33.270 168.000 C 33.317 168.000,32.924 167.381,32.395 166.625 C 31.116 164.794,30.333 163.760,30.333 163.900 M369.167 164.333 C 368.971 164.608,368.848 164.833,368.894 164.833 C 368.940 164.833,369.138 164.608,369.333 164.333 C 369.529 164.058,369.652 163.833,369.606 163.833 C 369.560 163.833,369.362 164.058,369.167 164.333 M366.515 168.125 C 366.105 168.724,366.080 168.795,366.412 168.417 C 366.853 167.913,367.231 167.333,367.117 167.333 C 367.084 167.333,366.813 167.690,366.515 168.125 M365.500 169.500 C 365.304 169.775,365.181 170.000,365.227 170.000 C 365.273 170.000,365.471 169.775,365.667 169.500 C 365.862 169.225,365.985 169.000,365.939 169.000 C 365.894 169.000,365.696 169.225,365.500 169.500 M364.646 170.708 C 364.438 171.006,364.087 171.494,363.865 171.792 C 363.642 172.090,363.526 172.331,363.605 172.327 C 363.685 172.324,363.958 172.005,364.212 171.619 C 364.466 171.233,364.794 170.748,364.941 170.542 C 365.087 170.335,365.166 170.167,365.115 170.167 C 365.064 170.167,364.853 170.410,364.646 170.708 M35.592 171.333 C 35.839 171.777,37.358 173.833,37.438 173.833 C 37.536 173.833,36.034 171.674,35.699 171.333 C 35.480 171.111,35.468 171.111,35.592 171.333 M37.653 174.292 C 37.743 174.452,38.013 174.808,38.254 175.083 C 38.624 175.507,38.611 175.463,38.170 174.792 C 37.673 174.034,37.310 173.683,37.653 174.292 M361.392 175.292 C 360.356 176.702,359.812 177.500,359.888 177.500 C 359.964 177.500,361.414 175.564,361.728 175.042 C 361.957 174.661,361.734 174.827,361.392 175.292 M359.163 178.458 C 358.722 179.130,358.709 179.174,359.080 178.750 C 359.552 178.210,359.895 177.667,359.764 177.667 C 359.719 177.667,359.449 178.023,359.163 178.458 M41.080 179.083 C 41.521 179.725,41.996 180.362,42.135 180.500 C 42.275 180.637,42.028 180.225,41.587 179.583 C 41.146 178.942,40.671 178.304,40.531 178.167 C 40.392 178.029,40.639 178.442,41.080 179.083 M356.214 182.542 C 355.643 183.283,354.485 185.000,354.555 185.000 C 354.602 185.000,355.006 184.494,355.454 183.875 C 356.382 182.594,356.550 182.333,356.447 182.333 C 356.407 182.333,356.302 182.427,356.214 182.542 M44.592 184.000 C 44.839 184.444,46.358 186.500,46.438 186.500 C 46.536 186.500,45.034 184.341,44.699 184.000 C 44.480 183.778,44.468 183.778,44.592 184.000 M46.653 186.958 C 46.743 187.119,47.013 187.475,47.254 187.750 C 47.624 188.174,47.611 188.130,47.170 187.458 C 46.673 186.700,46.310 186.350,46.653 186.958 M351.547 189.125 C 349.728 191.694,349.591 191.900,349.773 191.787 C 349.867 191.729,350.162 191.359,350.427 190.966 C 350.693 190.572,351.290 189.725,351.755 189.083 C 352.725 187.745,352.883 187.500,352.776 187.500 C 352.733 187.500,352.180 188.231,351.547 189.125 M48.818 189.971 C 48.919 190.160,49.084 190.365,49.184 190.427 C 49.315 190.508,49.314 190.443,49.182 190.196 C 49.081 190.007,48.916 189.801,48.816 189.739 C 48.685 189.658,48.686 189.724,48.818 189.971 M49.933 191.542 C 50.279 192.023,50.816 192.773,51.128 193.208 L 51.695 194.000 72.231 194.000 C 88.431 194.000,92.813 194.044,92.988 194.208 C 93.166 194.376,93.194 194.368,93.132 194.167 C 93.017 193.786,90.808 193.747,70.305 193.772 C 60.168 193.785,51.801 193.747,51.712 193.689 C 51.622 193.631,51.085 192.927,50.516 192.125 C 49.948 191.323,49.443 190.667,49.394 190.667 C 49.345 190.667,49.588 191.060,49.933 191.542 M348.358 193.542 C 348.194 193.706,343.817 193.753,327.659 193.762 L 307.168 193.774 306.751 194.166 C 306.521 194.382,306.336 194.639,306.339 194.737 C 306.342 194.836,306.498 194.710,306.686 194.458 L 307.028 194.000 327.675 194.000 C 348.151 194.000,348.323 193.997,348.500 193.667 C 348.705 193.284,348.657 193.243,348.358 193.542 M93.763 195.042 C 94.036 195.340,94.707 196.071,95.254 196.667 C 95.802 197.262,96.587 198.142,97.000 198.621 C 97.412 199.101,97.810 199.494,97.883 199.496 C 97.955 199.498,96.991 198.375,95.739 197.000 C 94.487 195.625,93.419 194.500,93.365 194.500 C 93.312 194.500,93.491 194.744,93.763 195.042 M304.477 196.708 C 303.619 197.648,302.603 198.752,302.218 199.163 C 301.834 199.573,301.551 199.939,301.588 199.977 C 301.626 200.015,302.016 199.645,302.454 199.154 C 302.892 198.663,303.362 198.143,303.500 197.999 C 304.351 197.103,306.188 195.000,306.119 195.000 C 306.074 195.000,305.335 195.769,304.477 196.708 M98.000 199.719 C 98.000 199.748,98.244 199.991,98.542 200.260 L 99.083 200.750 98.594 200.208 C 98.138 199.703,98.000 199.590,98.000 199.719 M347.496 201.792 C 347.055 202.463,347.043 202.507,347.413 202.083 C 347.885 201.543,348.228 201.000,348.097 201.000 C 348.053 201.000,347.782 201.356,347.496 201.792 M52.905 202.674 C 53.846 203.989,54.181 204.273,53.328 203.033 C 52.931 202.455,52.527 201.933,52.430 201.874 C 52.334 201.814,52.548 202.174,52.905 202.674 M345.047 205.208 C 344.522 205.891,343.320 207.708,343.531 207.500 C 343.860 207.176,345.386 205.000,345.285 205.000 C 345.242 205.000,345.135 205.094,345.047 205.208 M56.319 207.458 C 56.410 207.619,56.681 207.975,56.922 208.250 C 57.253 208.628,57.228 208.558,56.818 207.958 C 56.283 207.176,56.001 206.893,56.319 207.458 M58.166 210.047 C 58.652 210.760,59.130 211.394,59.230 211.456 C 59.437 211.583,57.915 209.380,57.534 209.000 C 57.396 208.862,57.681 209.334,58.166 210.047 M340.515 211.625 C 340.105 212.224,340.080 212.295,340.412 211.917 C 340.853 211.413,341.231 210.833,341.117 210.833 C 341.084 210.833,340.813 211.190,340.515 211.625 M338.500 214.417 C 338.216 214.829,338.021 215.167,338.067 215.167 C 338.113 215.167,338.383 214.829,338.667 214.417 C 338.950 214.004,339.145 213.667,339.099 213.667 C 339.054 213.667,338.784 214.004,338.500 214.417 M61.603 214.833 C 61.805 215.228,63.351 217.333,63.439 217.333 C 63.483 217.333,63.233 216.936,62.884 216.451 C 62.035 215.270,61.446 214.526,61.603 214.833 M335.400 218.792 C 335.219 219.044,334.786 219.644,334.438 220.125 C 334.090 220.606,333.843 221.000,333.889 221.000 C 333.965 221.000,335.417 219.058,335.728 218.542 C 335.960 218.156,335.732 218.329,335.400 218.792 M67.166 222.714 C 67.652 223.427,68.130 224.061,68.230 224.122 C 68.437 224.250,66.915 222.047,66.534 221.667 C 66.396 221.529,66.681 222.000,67.166 222.714 M329.634 226.913 L 328.750 228.159 302.386 228.163 L 276.023 228.167 273.615 230.792 C 272.291 232.235,271.239 233.451,271.277 233.493 C 271.315 233.535,271.533 233.352,271.761 233.087 C 272.125 232.663,273.007 231.683,275.396 229.046 L 276.042 228.333 302.407 228.333 L 328.771 228.333 329.100 227.875 C 329.281 227.623,329.714 227.023,330.062 226.542 C 330.410 226.060,330.655 225.667,330.606 225.667 C 330.558 225.667,330.120 226.227,329.634 226.913 M70.596 227.500 C 71.033 228.402,68.821 228.333,97.597 228.333 L 123.976 228.333 124.336 228.792 C 124.534 229.044,125.083 229.667,125.557 230.176 C 126.030 230.686,126.979 231.735,127.667 232.507 C 128.354 233.280,129.283 234.288,129.731 234.748 C 131.032 236.082,129.805 234.650,126.698 231.208 L 123.952 228.167 97.573 228.167 L 71.194 228.167 70.835 227.708 C 70.637 227.456,70.530 227.362,70.596 227.500 M270.326 234.437 C 269.918 234.861,269.663 235.180,269.760 235.145 C 269.942 235.082,271.260 233.667,271.137 233.667 C 271.100 233.667,270.735 234.013,270.326 234.437 M71.500 236.333 C 71.696 236.608,71.894 236.833,71.939 236.833 C 71.985 236.833,71.862 236.608,71.667 236.333 C 71.471 236.058,71.273 235.833,71.227 235.833 C 71.181 235.833,71.304 236.058,71.500 236.333 M72.651 237.971 C 72.752 238.160,72.917 238.365,73.018 238.427 C 73.148 238.508,73.148 238.443,73.016 238.196 C 72.914 238.007,72.749 237.801,72.649 237.739 C 72.518 237.658,72.519 237.724,72.651 237.971 M326.396 238.958 C 325.903 239.635,325.751 239.980,326.157 239.500 C 326.533 239.056,326.883 238.500,326.787 238.500 C 326.755 238.500,326.579 238.706,326.396 238.958 M324.163 242.125 C 323.722 242.796,323.709 242.841,324.080 242.417 C 324.552 241.876,324.895 241.333,324.764 241.333 C 324.719 241.333,324.449 241.690,324.163 242.125 M75.434 241.833 C 75.646 242.240,77.186 244.333,77.274 244.333 C 77.318 244.333,77.049 243.902,76.675 243.375 C 75.899 242.279,75.242 241.464,75.434 241.833 M321.135 246.375 C 320.460 247.281,319.933 248.098,320.196 247.833 C 320.536 247.491,321.714 245.833,321.617 245.833 C 321.575 245.833,321.358 246.077,321.135 246.375 M79.594 247.667 C 79.901 248.204,82.522 251.833,82.603 251.833 C 82.694 251.833,82.557 251.630,80.860 249.250 C 79.831 247.807,79.280 247.118,79.594 247.667 M317.182 251.958 C 316.772 252.558,316.747 252.628,317.078 252.250 C 317.519 251.747,317.897 251.167,317.784 251.167 C 317.751 251.167,317.479 251.523,317.182 251.958 M315.802 253.875 C 315.007 254.940,314.604 255.559,314.770 255.456 C 314.967 255.334,316.391 253.333,316.280 253.333 C 316.240 253.333,316.024 253.577,315.802 253.875 M84.485 254.639 C 84.575 254.807,84.781 255.050,84.943 255.180 C 85.151 255.348,85.127 255.259,84.857 254.875 C 84.446 254.288,84.221 254.146,84.485 254.639 M85.667 256.250 C 85.950 256.662,86.220 257.000,86.266 257.000 C 86.312 257.000,86.117 256.662,85.833 256.250 C 85.550 255.838,85.280 255.500,85.234 255.500 C 85.188 255.500,85.383 255.838,85.667 256.250 M86.986 258.125 C 87.076 258.285,87.347 258.642,87.587 258.917 C 87.957 259.341,87.945 259.296,87.504 258.625 C 87.006 257.867,86.643 257.517,86.986 258.125 M312.067 259.125 C 311.886 259.377,311.453 259.977,311.104 260.458 C 310.756 260.940,310.509 261.333,310.556 261.333 C 310.631 261.333,312.083 259.392,312.394 258.875 C 312.627 258.489,312.399 258.663,312.067 259.125 M88.653 260.458 C 88.743 260.619,89.014 260.975,89.255 261.250 C 89.587 261.628,89.562 261.558,89.152 260.958 C 88.616 260.176,88.334 259.893,88.653 260.458 M309.830 262.292 C 309.389 262.963,309.376 263.007,309.746 262.583 C 310.218 262.043,310.561 261.500,310.431 261.500 C 310.386 261.500,310.115 261.856,309.830 262.292 M90.167 262.583 L 90.683 263.333 123.154 263.333 L 155.626 263.333 156.597 264.458 C 157.131 265.077,157.684 265.702,157.825 265.848 C 158.117 266.146,160.588 268.864,161.054 269.398 C 161.222 269.590,161.934 270.377,162.638 271.147 C 163.341 271.917,164.093 272.743,164.309 272.982 C 164.525 273.221,164.638 273.294,164.559 273.145 C 164.481 272.995,162.439 270.689,160.022 268.020 L 155.626 263.167 123.169 263.167 L 90.711 263.167 90.270 262.500 C 90.027 262.133,89.789 261.833,89.740 261.833 C 89.691 261.833,89.883 262.171,90.167 262.583 M244.016 263.542 C 243.792 263.906,243.795 263.909,244.114 263.625 C 244.423 263.351,246.278 263.332,276.929 263.292 L 309.417 263.249 276.832 263.208 L 244.247 263.167 244.016 263.542 M242.264 265.417 C 241.555 266.196,241.039 266.833,241.118 266.833 C 241.197 266.833,241.497 266.552,241.786 266.208 C 242.074 265.865,242.521 265.353,242.780 265.072 C 243.434 264.362,243.721 264.000,243.631 264.000 C 243.589 264.000,242.974 264.637,242.264 265.417 M238.533 269.542 C 237.252 270.940,236.235 272.117,236.273 272.157 C 236.311 272.198,236.572 271.973,236.854 271.657 C 237.135 271.342,237.906 270.483,238.567 269.750 C 240.842 267.227,241.039 267.000,240.951 267.000 C 240.902 267.000,239.815 268.144,238.533 269.542 M232.927 275.750 C 231.218 277.629,229.895 279.167,229.985 279.167 C 230.076 279.167,230.210 279.064,230.283 278.938 C 230.405 278.730,231.559 277.438,234.246 274.504 C 234.793 273.906,235.464 273.173,235.737 272.875 C 236.009 272.577,236.187 272.333,236.132 272.333 C 236.078 272.333,234.635 273.871,232.927 275.750 M165.427 274.208 C 165.775 274.598,166.599 275.517,167.258 276.250 C 167.918 276.983,168.690 277.846,168.974 278.167 C 169.258 278.487,169.492 278.693,169.495 278.623 C 169.501 278.477,165.021 273.500,164.884 273.500 C 164.835 273.500,165.079 273.819,165.427 274.208 M170.256 279.500 C 170.602 279.912,171.268 280.670,171.734 281.184 C 172.827 282.386,174.852 284.647,175.917 285.854 C 176.375 286.373,176.846 286.842,176.962 286.896 C 177.079 286.949,175.879 285.553,174.296 283.794 C 171.229 280.388,169.109 278.134,170.256 279.500 M229.158 279.958 L 228.583 280.583 229.208 280.009 C 229.552 279.693,229.833 279.412,229.833 279.384 C 229.833 279.257,229.692 279.377,229.158 279.958 M226.792 282.499 C 225.898 283.495,225.167 284.372,225.167 284.447 C 225.167 284.522,225.357 284.363,225.588 284.094 C 226.017 283.595,228.362 281.019,228.595 280.792 C 228.665 280.723,228.653 280.671,228.569 280.677 C 228.485 280.682,227.685 281.502,226.792 282.499 M222.589 287.167 C 221.334 288.542,220.373 289.667,220.452 289.667 C 220.530 289.667,220.832 289.385,221.121 289.042 C 221.411 288.698,221.956 288.079,222.333 287.667 C 224.013 285.830,225.028 284.667,224.952 284.667 C 224.907 284.667,223.843 285.792,222.589 287.167 M177.765 287.875 C 178.787 289.010,179.046 289.262,178.979 289.058 C 178.904 288.829,177.362 287.167,177.224 287.167 C 177.171 287.167,177.415 287.485,177.765 287.875 M180.105 290.451 C 180.643 291.066,181.271 291.765,181.500 292.006 C 181.852 292.375,183.454 294.131,184.976 295.815 C 185.192 296.054,185.305 296.127,185.226 295.977 C 185.056 295.652,179.336 289.333,179.212 289.333 C 179.165 289.333,179.566 289.836,180.105 290.451 M217.761 292.500 C 216.509 293.875,215.547 295.000,215.623 295.000 C 215.699 295.000,216.096 294.606,216.505 294.125 C 216.915 293.644,217.698 292.762,218.246 292.167 C 218.793 291.571,219.464 290.840,219.737 290.542 C 220.009 290.244,220.188 290.000,220.135 290.000 C 220.081 290.000,219.013 291.125,217.761 292.500 M212.260 298.583 C 210.552 300.462,209.228 302.000,209.319 302.000 C 209.409 302.000,209.543 301.895,209.617 301.766 C 209.690 301.637,210.200 301.050,210.750 300.461 C 211.651 299.496,213.153 297.839,214.906 295.875 C 215.254 295.485,215.500 295.167,215.452 295.167 C 215.405 295.167,213.968 296.704,212.260 298.583 M185.917 296.833 C 186.192 297.153,186.435 297.447,186.458 297.485 C 186.481 297.524,186.536 297.519,186.581 297.475 C 186.625 297.430,186.382 297.137,186.040 296.822 L 185.417 296.250 185.917 296.833 M186.726 297.769 C 186.902 297.952,188.936 300.208,189.639 301.000 C 189.924 301.321,190.159 301.527,190.162 301.459 C 190.168 301.293,186.994 297.768,186.764 297.686 C 186.662 297.649,186.646 297.686,186.726 297.769 M190.922 302.375 C 191.764 303.325,193.852 305.643,195.083 306.993 C 195.941 307.934,196.893 308.990,199.208 311.565 C 199.460 311.845,199.667 312.018,199.667 311.948 C 199.667 311.804,190.510 301.667,190.380 301.667 C 190.333 301.667,190.577 301.985,190.922 302.375 M207.500 303.833 C 206.655 304.750,206.013 305.500,206.073 305.500 C 206.181 305.500,206.370 305.308,207.709 303.833 C 208.084 303.421,208.579 302.877,208.810 302.625 C 209.040 302.373,209.186 302.167,209.133 302.167 C 209.080 302.167,208.345 302.917,207.500 303.833 M205.170 306.413 C 204.767 306.824,204.477 307.199,204.525 307.247 C 204.573 307.296,204.929 306.960,205.316 306.501 C 206.188 305.467,206.132 305.433,205.170 306.413 M202.034 309.875 C 200.843 311.181,199.895 312.279,199.929 312.314 C 199.962 312.350,200.311 312.016,200.703 311.573 C 201.096 311.129,201.529 310.647,201.667 310.501 C 202.597 309.513,204.354 307.500,204.285 307.500 C 204.238 307.500,203.226 308.569,202.034 309.875 " stroke="none" fill="#c8c3cd" fill-rule="evenodd"></path><path id="path3" d="M194.377 91.786 C 194.631 91.825,195.006 91.824,195.211 91.784 C 195.416 91.744,195.208 91.713,194.750 91.714 C 194.292 91.716,194.124 91.748,194.377 91.786 M199.377 91.786 C 199.631 91.825,200.006 91.824,200.211 91.784 C 200.416 91.744,200.208 91.713,199.750 91.714 C 199.292 91.716,199.124 91.748,199.377 91.786 M194.712 99.000 C 194.712 99.412,194.745 99.581,194.784 99.375 C 194.824 99.169,194.824 98.831,194.784 98.625 C 194.745 98.419,194.712 98.587,194.712 99.000 M172.960 113.618 C 173.168 113.658,173.468 113.656,173.627 113.615 C 173.786 113.573,173.617 113.540,173.250 113.542 C 172.883 113.544,172.753 113.578,172.960 113.618 M185.125 113.625 C 186.615 113.652,189.052 113.652,190.542 113.625 C 192.031 113.597,190.813 113.574,187.833 113.574 C 184.854 113.574,183.635 113.597,185.125 113.625 M158.573 130.208 L 158.083 130.750 158.625 130.260 C 158.923 129.991,159.167 129.748,159.167 129.719 C 159.167 129.590,159.029 129.703,158.573 130.208 M226.390 140.083 C 226.391 140.817,226.420 141.096,226.456 140.704 C 226.491 140.312,226.490 139.712,226.454 139.371 C 226.419 139.029,226.390 139.350,226.390 140.083 M231.667 164.583 C 235.928 168.846,239.453 172.333,239.499 172.333 C 239.544 172.333,236.095 168.846,231.833 164.583 C 227.572 160.321,224.047 156.833,224.001 156.833 C 223.956 156.833,227.405 160.321,231.667 164.583 M175.745 158.375 L 174.750 159.417 175.792 158.422 C 176.759 157.498,176.910 157.333,176.786 157.333 C 176.761 157.333,176.292 157.802,175.745 158.375 M181.458 160.291 C 182.490 160.320,184.177 160.320,185.208 160.291 C 186.240 160.262,185.396 160.238,183.333 160.238 C 181.271 160.238,180.427 160.262,181.458 160.291 M191.034 160.290 C 191.649 160.322,192.699 160.322,193.368 160.291 C 194.036 160.259,193.533 160.233,192.250 160.232 C 190.967 160.232,190.420 160.258,191.034 160.290 M198.708 160.291 C 200.519 160.318,203.481 160.318,205.292 160.291 C 207.102 160.265,205.621 160.243,202.000 160.243 C 198.379 160.243,196.898 160.265,198.708 160.291 M210.121 160.287 C 210.417 160.324,210.942 160.324,211.288 160.288 C 211.634 160.252,211.392 160.222,210.750 160.221 C 210.108 160.221,209.825 160.250,210.121 160.287 M213.792 160.290 C 214.273 160.323,215.060 160.323,215.542 160.290 C 216.023 160.256,215.629 160.228,214.667 160.228 C 213.704 160.228,213.310 160.256,213.792 160.290 M217.627 160.285 C 217.834 160.324,218.134 160.323,218.294 160.281 C 218.453 160.239,218.283 160.207,217.917 160.209 C 217.550 160.211,217.420 160.245,217.627 160.285 M220.794 160.285 C 221.001 160.324,221.301 160.323,221.460 160.281 C 221.620 160.239,221.450 160.207,221.083 160.209 C 220.717 160.211,220.586 160.245,220.794 160.285 M169.911 164.208 L 168.917 165.250 169.958 164.255 C 170.926 163.331,171.076 163.167,170.953 163.167 C 170.927 163.167,170.459 163.635,169.911 164.208 M230.917 169.667 C 233.207 171.958,235.118 173.833,235.164 173.833 C 235.210 173.833,233.374 171.958,231.083 169.667 C 228.793 167.375,226.882 165.500,226.836 165.500 C 226.790 165.500,228.626 167.375,230.917 169.667 M167.000 167.083 C 166.595 167.496,166.301 167.833,166.347 167.833 C 166.393 167.833,166.762 167.496,167.167 167.083 C 167.572 166.671,167.865 166.333,167.819 166.333 C 167.774 166.333,167.405 166.671,167.000 167.083 M164.078 170.042 L 163.083 171.083 164.125 170.089 C 164.698 169.541,165.167 169.073,165.167 169.047 C 165.167 168.924,165.002 169.074,164.078 170.042 M159.240 176.083 C 159.240 178.558,159.263 179.594,159.291 178.385 C 159.320 177.176,159.320 175.151,159.291 173.885 C 159.263 172.619,159.240 173.608,159.240 176.083 M242.000 182.333 L 242.000 193.000 227.083 193.000 L 212.167 193.000 212.167 187.622 L 212.167 182.244 210.375 180.497 L 208.583 178.750 210.292 180.503 L 212.000 182.256 212.000 187.711 L 212.000 193.167 227.083 193.167 L 242.167 193.167 242.167 182.417 C 242.167 176.504,242.129 171.667,242.083 171.667 C 242.037 171.667,242.000 176.467,242.000 182.333 M161.874 187.751 L 161.833 203.251 169.625 211.001 L 177.417 218.750 169.709 211.000 L 162.002 203.250 161.958 187.750 L 161.915 172.250 161.874 187.751 M186.582 176.042 L 183.250 179.417 186.585 176.125 L 189.920 172.833 200.583 172.833 L 211.246 172.833 213.581 175.125 L 215.917 177.417 213.586 175.042 L 211.254 172.667 200.584 172.667 L 189.914 172.667 186.582 176.042 M190.578 177.542 L 189.583 178.583 190.625 177.589 C 191.593 176.664,191.743 176.500,191.620 176.500 C 191.594 176.500,191.125 176.969,190.578 177.542 M183.207 187.668 L 183.167 195.920 186.544 199.294 L 189.921 202.668 205.836 202.625 L 221.750 202.582 205.832 202.541 L 189.914 202.500 186.625 199.208 L 183.336 195.917 183.292 187.667 L 183.247 179.417 183.207 187.668 M190.333 180.917 C 189.928 181.329,189.635 181.667,189.681 181.667 C 189.726 181.667,190.095 181.329,190.500 180.917 C 190.905 180.504,191.199 180.167,191.153 180.167 C 191.107 180.167,190.738 180.504,190.333 180.917 M159.232 185.833 C 159.232 187.071,159.258 187.577,159.290 186.958 C 159.322 186.340,159.322 185.327,159.290 184.708 C 159.258 184.090,159.232 184.596,159.232 185.833 M218.042 185.417 C 218.044 185.783,218.078 185.914,218.118 185.706 C 218.158 185.499,218.156 185.199,218.115 185.040 C 218.073 184.880,218.040 185.050,218.042 185.417 M222.625 187.292 C 225.123 187.317,229.210 187.317,231.708 187.292 C 234.206 187.266,232.162 187.244,227.167 187.244 C 222.171 187.244,220.127 187.266,222.625 187.292 M159.232 191.500 C 159.232 192.737,159.258 193.244,159.290 192.625 C 159.322 192.006,159.322 190.994,159.290 190.375 C 159.258 189.756,159.232 190.262,159.232 191.500 M296.073 193.708 L 295.583 194.250 296.125 193.760 C 296.630 193.304,296.743 193.167,296.615 193.167 C 296.586 193.167,296.342 193.410,296.073 193.708 M294.573 195.375 L 294.083 195.917 294.625 195.427 C 295.130 194.971,295.243 194.833,295.115 194.833 C 295.086 194.833,294.842 195.077,294.573 195.375 M190.417 197.833 C 191.238 198.658,191.947 199.333,191.993 199.333 C 192.039 199.333,191.405 198.658,190.583 197.833 C 189.762 197.008,189.053 196.333,189.007 196.333 C 188.961 196.333,189.595 197.008,190.417 197.833 M159.232 198.917 C 159.233 200.200,159.259 200.703,159.291 200.034 C 159.322 199.366,159.322 198.316,159.290 197.701 C 159.258 197.086,159.232 197.633,159.232 198.917 M231.417 203.500 C 234.624 206.708,237.286 209.333,237.332 209.333 C 237.377 209.333,234.791 206.708,231.583 203.500 C 228.376 200.292,225.714 197.667,225.668 197.667 C 225.623 197.667,228.209 200.292,231.417 203.500 M107.500 197.885 C 107.500 197.914,107.744 198.158,108.042 198.427 L 108.583 198.917 108.094 198.375 C 107.638 197.870,107.500 197.757,107.500 197.885 M291.406 198.875 L 290.917 199.417 291.458 198.927 C 291.963 198.471,292.077 198.333,291.948 198.333 C 291.919 198.333,291.675 198.577,291.406 198.875 M109.333 199.917 C 109.644 200.237,109.936 200.500,109.982 200.500 C 110.028 200.500,109.811 200.237,109.500 199.917 C 109.189 199.596,108.897 199.333,108.851 199.333 C 108.805 199.333,109.022 199.596,109.333 199.917 M224.660 200.042 C 225.350 200.778,225.500 200.910,225.500 200.785 C 225.500 200.758,225.144 200.402,224.708 199.993 L 223.917 199.250 224.660 200.042 M289.740 200.708 L 289.250 201.250 289.792 200.760 C 290.297 200.304,290.410 200.167,290.281 200.167 C 290.252 200.167,290.009 200.410,289.740 200.708 M112.167 203.052 C 112.167 203.081,112.410 203.325,112.708 203.594 L 113.250 204.083 112.760 203.542 C 112.304 203.037,112.167 202.923,112.167 203.052 M286.573 204.208 L 286.083 204.750 286.625 204.260 C 287.130 203.804,287.243 203.667,287.115 203.667 C 287.086 203.667,286.842 203.910,286.573 204.208 M114.167 205.250 C 114.478 205.571,114.770 205.833,114.815 205.833 C 114.861 205.833,114.644 205.571,114.333 205.250 C 114.022 204.929,113.730 204.667,113.685 204.667 C 113.639 204.667,113.856 204.929,114.167 205.250 M285.073 205.875 L 284.583 206.417 285.125 205.927 C 285.630 205.471,285.743 205.333,285.615 205.333 C 285.586 205.333,285.342 205.577,285.073 205.875 M229.333 210.417 C 231.669 212.754,233.618 214.667,233.664 214.667 C 233.710 214.667,231.836 212.754,229.500 210.417 C 227.164 208.079,225.215 206.167,225.169 206.167 C 225.123 206.167,226.997 208.079,229.333 210.417 M236.750 212.000 C 238.215 213.467,239.450 214.667,239.496 214.667 C 239.542 214.667,238.381 213.467,236.917 212.000 C 235.452 210.533,234.216 209.333,234.171 209.333 C 234.125 209.333,235.285 210.533,236.750 212.000 M118.500 210.052 C 118.500 210.081,118.744 210.325,119.042 210.594 L 119.583 211.083 119.094 210.542 C 118.638 210.037,118.500 209.923,118.500 210.052 M239.958 212.002 L 242.000 214.088 242.000 229.918 L 242.000 245.749 233.292 254.499 L 224.583 263.250 233.375 254.501 L 242.167 245.751 242.167 229.915 L 242.167 214.078 240.042 211.997 L 237.917 209.917 239.958 212.002 M280.240 211.208 L 279.750 211.750 280.292 211.260 C 280.797 210.804,280.910 210.667,280.781 210.667 C 280.752 210.667,280.509 210.910,280.240 211.208 M120.167 211.885 C 120.167 211.914,120.410 212.158,120.708 212.427 L 121.250 212.917 120.760 212.375 C 120.304 211.870,120.167 211.757,120.167 211.885 M277.073 214.708 L 276.583 215.250 277.125 214.760 C 277.630 214.304,277.743 214.167,277.615 214.167 C 277.586 214.167,277.342 214.410,277.073 214.708 M123.333 215.385 C 123.333 215.414,123.577 215.658,123.875 215.927 L 124.417 216.417 123.927 215.875 C 123.471 215.370,123.333 215.257,123.333 215.385 M213.250 217.333 C 214.255 218.342,215.115 219.167,215.161 219.167 C 215.207 219.167,214.422 218.342,213.417 217.333 C 212.411 216.325,211.552 215.500,211.506 215.500 C 211.460 215.500,212.245 216.325,213.250 217.333 M275.573 216.375 L 275.083 216.917 275.625 216.427 C 276.130 215.971,276.243 215.833,276.115 215.833 C 276.086 215.833,275.842 216.077,275.573 216.375 M211.917 221.333 C 212.738 222.158,213.447 222.833,213.493 222.833 C 213.539 222.833,212.905 222.158,212.083 221.333 C 211.262 220.508,210.553 219.833,210.507 219.833 C 210.461 219.833,211.095 220.508,211.917 221.333 M184.529 221.292 C 188.899 221.316,196.099 221.316,200.529 221.292 C 204.959 221.267,201.383 221.247,192.583 221.247 C 183.783 221.247,180.159 221.267,184.529 221.292 M208.667 221.385 C 208.667 221.414,208.910 221.658,209.208 221.927 L 209.750 222.417 209.260 221.875 C 208.804 221.370,208.667 221.257,208.667 221.385 M218.052 223.083 C 218.053 223.633,218.084 223.838,218.121 223.539 C 218.158 223.239,218.157 222.789,218.119 222.539 C 218.081 222.288,218.051 222.533,218.052 223.083 M129.667 222.385 C 129.667 222.414,129.910 222.658,130.208 222.927 L 130.750 223.417 130.260 222.875 C 129.804 222.370,129.667 222.257,129.667 222.385 M269.073 223.542 L 268.583 224.083 269.125 223.594 C 269.630 223.138,269.743 223.000,269.615 223.000 C 269.586 223.000,269.342 223.244,269.073 223.542 M211.708 224.263 C 211.973 224.577,212.000 225.106,212.000 229.925 L 212.000 235.241 210.958 236.329 L 209.917 237.417 211.042 236.338 L 212.167 235.260 212.167 229.906 C 212.167 224.559,212.166 224.551,211.792 224.234 C 211.417 223.917,211.417 223.917,211.708 224.263 M166.804 224.958 C 170.959 224.983,177.709 224.983,181.804 224.958 C 185.899 224.933,182.500 224.913,174.250 224.913 C 166.000 224.913,162.649 224.933,166.804 224.958 M132.833 225.885 C 132.833 225.914,133.077 226.158,133.375 226.427 L 133.917 226.917 133.427 226.375 C 132.971 225.870,132.833 225.757,132.833 225.885 M265.906 227.042 L 265.417 227.583 265.958 227.094 C 266.463 226.638,266.577 226.500,266.448 226.500 C 266.419 226.500,266.175 226.744,265.906 227.042 M161.873 236.251 L 161.833 245.086 165.458 248.668 L 169.083 252.250 165.543 248.667 L 162.003 245.083 161.958 236.250 L 161.914 227.417 161.873 236.251 M264.406 228.708 L 263.917 229.250 264.458 228.760 C 264.963 228.304,265.077 228.167,264.948 228.167 C 264.919 228.167,264.675 228.410,264.406 228.708 M159.228 229.917 C 159.228 230.833,159.256 231.187,159.290 230.703 C 159.324 230.218,159.323 229.468,159.289 229.036 C 159.255 228.604,159.227 229.000,159.228 229.917 M218.060 230.000 C 218.060 230.871,218.088 231.227,218.123 230.792 C 218.157 230.356,218.157 229.644,218.123 229.208 C 218.088 228.773,218.060 229.129,218.060 230.000 M183.238 234.417 C 183.238 236.433,183.262 237.235,183.291 236.199 C 183.320 235.163,183.320 233.513,183.291 232.532 C 183.262 231.552,183.238 232.400,183.238 234.417 M139.167 232.885 C 139.167 232.914,139.410 233.158,139.708 233.427 L 140.250 233.917 139.760 233.375 C 139.304 232.870,139.167 232.757,139.167 232.885 M259.573 234.042 L 259.083 234.583 259.625 234.094 C 260.130 233.638,260.243 233.500,260.115 233.500 C 260.086 233.500,259.842 233.744,259.573 234.042 M140.833 234.719 C 140.833 234.748,141.077 234.991,141.375 235.260 L 141.917 235.750 141.427 235.208 C 140.971 234.703,140.833 234.590,140.833 234.719 M218.060 236.333 C 218.060 237.204,218.088 237.560,218.123 237.125 C 218.157 236.690,218.157 235.977,218.123 235.542 C 218.088 235.106,218.060 235.463,218.060 236.333 M189.167 235.219 C 189.167 235.248,189.410 235.491,189.708 235.760 L 190.250 236.250 189.760 235.708 C 189.304 235.203,189.167 235.090,189.167 235.219 M256.406 237.542 L 255.917 238.083 256.458 237.594 C 256.963 237.138,257.077 237.000,256.948 237.000 C 256.919 237.000,256.675 237.244,256.406 237.542 M192.160 238.042 L 192.903 238.833 200.692 238.833 C 204.975 238.833,208.515 238.777,208.558 238.708 C 208.600 238.640,205.103 238.604,200.785 238.628 L 192.936 238.673 192.176 237.962 L 191.417 237.250 192.160 238.042 M215.247 240.708 L 213.417 242.583 215.292 240.753 C 216.323 239.746,217.167 238.902,217.167 238.878 C 217.167 238.758,216.947 238.967,215.247 240.708 M209.833 240.417 C 209.428 240.829,209.135 241.167,209.181 241.167 C 209.226 241.167,209.595 240.829,210.000 240.417 C 210.405 240.004,210.699 239.667,210.653 239.667 C 210.607 239.667,210.238 240.004,209.833 240.417 M196.387 241.292 C 198.753 241.318,202.578 241.318,204.887 241.292 C 207.195 241.265,205.258 241.244,200.583 241.244 C 195.908 241.244,194.020 241.265,196.387 241.292 M159.209 243.083 C 159.211 243.450,159.245 243.580,159.285 243.373 C 159.324 243.166,159.323 242.866,159.281 242.706 C 159.239 242.547,159.207 242.717,159.209 243.083 M233.331 245.625 L 231.083 247.917 233.375 245.669 C 235.504 243.581,235.742 243.333,235.623 243.333 C 235.598 243.333,234.567 244.365,233.331 245.625 M148.833 243.552 C 148.833 243.581,149.077 243.825,149.375 244.094 L 149.917 244.583 149.427 244.042 C 148.971 243.537,148.833 243.423,148.833 243.552 M250.073 244.542 L 249.583 245.083 250.125 244.594 C 250.630 244.138,250.743 244.000,250.615 244.000 C 250.586 244.000,250.342 244.244,250.073 244.542 M159.209 245.083 C 159.211 245.450,159.245 245.580,159.285 245.373 C 159.324 245.166,159.323 244.866,159.281 244.706 C 159.239 244.547,159.207 244.717,159.209 245.083 M150.333 245.219 C 150.333 245.248,150.577 245.491,150.875 245.760 L 151.417 246.250 150.927 245.708 C 150.471 245.203,150.333 245.090,150.333 245.219 M248.406 246.375 L 247.917 246.917 248.458 246.427 C 248.963 245.971,249.077 245.833,248.948 245.833 C 248.919 245.833,248.675 246.077,248.406 246.375 M171.750 249.333 C 173.306 250.892,174.617 252.167,174.663 252.167 C 174.709 252.167,173.473 250.892,171.917 249.333 C 170.360 247.775,169.050 246.500,169.004 246.500 C 168.958 246.500,170.194 247.775,171.750 249.333 M232.499 251.958 L 228.083 256.417 232.542 252.001 C 234.994 249.573,237.000 247.566,237.000 247.543 C 237.000 247.425,236.602 247.815,232.499 251.958 M246.906 248.042 L 246.417 248.583 246.958 248.094 C 247.463 247.638,247.577 247.500,247.448 247.500 C 247.419 247.500,247.175 247.744,246.906 248.042 M153.500 248.719 C 153.500 248.748,153.744 248.991,154.042 249.260 L 154.583 249.750 154.094 249.208 C 153.638 248.703,153.500 248.590,153.500 248.719 M245.240 249.875 L 244.750 250.417 245.292 249.927 C 245.797 249.471,245.910 249.333,245.781 249.333 C 245.752 249.333,245.509 249.577,245.240 249.875 M240.406 255.208 L 239.917 255.750 240.458 255.260 C 240.963 254.804,241.077 254.667,240.948 254.667 C 240.919 254.667,240.675 254.910,240.406 255.208 M159.833 255.719 C 159.833 255.748,160.077 255.991,160.375 256.260 L 160.917 256.750 160.427 256.208 C 159.971 255.703,159.833 255.590,159.833 255.719 M238.906 256.875 L 238.417 257.417 238.958 256.927 C 239.463 256.471,239.577 256.333,239.448 256.333 C 239.419 256.333,239.175 256.577,238.906 256.875 M190.138 257.125 C 196.035 257.149,205.635 257.149,211.471 257.125 C 217.308 257.101,212.483 257.081,200.750 257.081 C 189.017 257.081,184.241 257.101,190.138 257.125 M235.740 260.375 L 235.250 260.917 235.792 260.427 C 236.297 259.971,236.410 259.833,236.281 259.833 C 236.252 259.833,236.009 260.077,235.740 260.375 M164.500 260.885 C 164.500 260.914,164.744 261.158,165.042 261.427 L 165.583 261.917 165.094 261.375 C 164.638 260.870,164.500 260.757,164.500 260.885 M234.240 262.042 L 233.750 262.583 234.292 262.094 C 234.797 261.638,234.910 261.500,234.781 261.500 C 234.752 261.500,234.509 261.744,234.240 262.042 M167.833 264.552 C 167.833 264.581,168.077 264.825,168.375 265.094 L 168.917 265.583 168.427 265.042 C 167.971 264.537,167.833 264.423,167.833 264.552 M229.406 267.375 L 228.917 267.917 229.458 267.427 C 229.963 266.971,230.077 266.833,229.948 266.833 C 229.919 266.833,229.675 267.077,229.406 267.375 M171.000 268.052 C 171.000 268.081,171.244 268.325,171.542 268.594 L 172.083 269.083 171.594 268.542 C 171.138 268.037,171.000 267.923,171.000 268.052 M224.740 272.542 L 224.250 273.083 224.792 272.594 C 225.297 272.138,225.410 272.000,225.281 272.000 C 225.252 272.000,225.009 272.244,224.740 272.542 M221.406 276.208 L 220.917 276.750 221.458 276.260 C 221.963 275.804,222.077 275.667,221.948 275.667 C 221.919 275.667,221.675 275.910,221.406 276.208 M179.000 276.885 C 179.000 276.914,179.244 277.158,179.542 277.427 L 180.083 277.917 179.594 277.375 C 179.138 276.870,179.000 276.757,179.000 276.885 M180.500 278.552 C 180.500 278.581,180.744 278.825,181.042 279.094 L 181.583 279.583 181.094 279.042 C 180.638 278.537,180.500 278.423,180.500 278.552 M218.240 279.708 L 217.750 280.250 218.292 279.760 C 218.797 279.304,218.910 279.167,218.781 279.167 C 218.752 279.167,218.509 279.410,218.240 279.708 M182.000 280.219 C 182.000 280.248,182.244 280.491,182.542 280.760 L 183.083 281.250 182.594 280.708 C 182.138 280.203,182.000 280.090,182.000 280.219 M188.500 287.385 C 188.500 287.414,188.744 287.658,189.042 287.927 L 189.583 288.417 189.094 287.875 C 188.638 287.370,188.500 287.257,188.500 287.385 M210.240 288.542 L 209.750 289.083 210.292 288.594 C 210.797 288.138,210.910 288.000,210.781 288.000 C 210.752 288.000,210.509 288.244,210.240 288.542 M190.000 289.052 C 190.000 289.081,190.244 289.325,190.542 289.594 L 191.083 290.083 190.594 289.542 C 190.138 289.037,190.000 288.923,190.000 289.052 M208.740 290.208 L 208.250 290.750 208.792 290.260 C 209.297 289.804,209.410 289.667,209.281 289.667 C 209.252 289.667,209.009 289.910,208.740 290.208 M194.667 294.219 C 194.667 294.248,194.910 294.491,195.208 294.760 L 195.750 295.250 195.260 294.708 C 194.804 294.203,194.667 294.090,194.667 294.219 M203.991 295.458 L 203.417 296.083 204.042 295.509 C 204.385 295.193,204.667 294.912,204.667 294.884 C 204.667 294.757,204.526 294.877,203.991 295.458 M196.833 296.583 C 197.144 296.904,197.436 297.167,197.482 297.167 C 197.528 297.167,197.311 296.904,197.000 296.583 C 196.689 296.262,196.397 296.000,196.351 296.000 C 196.305 296.000,196.522 296.262,196.833 296.583 M198.000 297.885 C 198.000 297.914,198.244 298.158,198.542 298.427 L 199.083 298.917 198.594 298.375 C 198.138 297.870,198.000 297.757,198.000 297.885 M200.740 299.042 L 200.250 299.583 200.792 299.094 C 201.297 298.638,201.410 298.500,201.281 298.500 C 201.252 298.500,201.009 298.744,200.740 299.042 " stroke="none" fill="#711e3c" fill-rule="evenodd"></path><path id="path4" d="M174.463 113.622 C 174.855 113.657,175.455 113.657,175.796 113.621 C 176.137 113.585,175.817 113.557,175.083 113.557 C 174.350 113.558,174.071 113.587,174.463 113.622 M52.958 193.790 C 53.623 193.822,54.710 193.822,55.375 193.790 C 56.040 193.759,55.496 193.733,54.167 193.733 C 52.837 193.733,52.294 193.759,52.958 193.790 M58.792 193.784 C 58.998 193.824,59.335 193.824,59.542 193.784 C 59.748 193.745,59.579 193.712,59.167 193.712 C 58.754 193.712,58.585 193.745,58.792 193.784 M62.875 193.790 C 63.494 193.822,64.506 193.822,65.125 193.790 C 65.744 193.758,65.237 193.732,64.000 193.732 C 62.762 193.732,62.256 193.758,62.875 193.790 M68.125 193.790 C 68.606 193.823,69.394 193.823,69.875 193.790 C 70.356 193.756,69.962 193.728,69.000 193.728 C 68.037 193.728,67.644 193.756,68.125 193.790 M72.708 193.790 C 73.327 193.822,74.340 193.822,74.958 193.790 C 75.577 193.758,75.071 193.732,73.833 193.732 C 72.596 193.732,72.090 193.758,72.708 193.790 M81.042 193.791 C 81.935 193.821,83.398 193.821,84.292 193.791 C 85.185 193.761,84.454 193.736,82.667 193.736 C 80.879 193.736,80.148 193.761,81.042 193.791 M90.042 193.790 C 90.569 193.823,91.431 193.823,91.958 193.790 C 92.485 193.757,92.054 193.730,91.000 193.730 C 89.946 193.730,89.515 193.757,90.042 193.790 M306.941 193.795 C 306.897 193.865,307.174 193.899,307.556 193.869 C 308.677 193.783,308.814 193.707,307.885 193.686 C 307.409 193.675,306.984 193.724,306.941 193.795 M311.301 193.791 C 312.245 193.821,313.745 193.821,314.634 193.791 C 315.523 193.761,314.750 193.737,312.917 193.737 C 311.083 193.737,310.356 193.761,311.301 193.791 M322.875 193.782 C 323.035 193.823,323.298 193.823,323.458 193.782 C 323.619 193.740,323.487 193.705,323.167 193.705 C 322.846 193.705,322.715 193.740,322.875 193.782 M326.217 193.791 C 327.023 193.821,328.298 193.821,329.050 193.791 C 329.802 193.760,329.142 193.735,327.583 193.735 C 326.025 193.735,325.410 193.760,326.217 193.791 M332.794 193.785 C 333.001 193.824,333.301 193.823,333.460 193.781 C 333.620 193.739,333.450 193.707,333.083 193.709 C 332.717 193.711,332.586 193.745,332.794 193.785 M336.042 193.791 C 336.844 193.821,338.156 193.821,338.958 193.791 C 339.760 193.760,339.104 193.735,337.500 193.735 C 335.896 193.735,335.240 193.760,336.042 193.791 M346.125 193.789 C 346.515 193.824,347.152 193.824,347.542 193.789 C 347.931 193.754,347.613 193.725,346.833 193.725 C 346.054 193.725,345.735 193.754,346.125 193.789 M305.740 195.208 L 305.250 195.750 305.792 195.260 C 306.297 194.804,306.410 194.667,306.281 194.667 C 306.252 194.667,306.009 194.910,305.740 195.208 M70.979 227.875 C 71.195 228.151,72.637 228.164,97.645 228.126 L 124.083 228.084 97.683 228.042 C 76.904 228.008,71.226 227.955,71.016 227.791 C 70.780 227.607,70.776 227.617,70.979 227.875 M275.573 228.542 L 275.083 229.083 275.592 228.626 L 276.100 228.168 302.509 228.125 L 328.917 228.082 302.490 228.041 L 276.062 228.000 275.573 228.542 M130.095 235.016 C 130.364 235.345,130.617 235.587,130.658 235.552 C 130.699 235.518,130.480 235.248,130.170 234.953 L 129.608 234.417 130.095 235.016 M240.406 267.375 L 239.917 267.917 240.458 267.427 C 240.963 266.971,241.077 266.833,240.948 266.833 C 240.919 266.833,240.675 267.077,240.406 267.375 M190.000 301.219 C 190.000 301.248,190.244 301.491,190.542 301.760 L 191.083 302.250 190.594 301.708 C 190.138 301.203,190.000 301.090,190.000 301.219 " stroke="none" fill="#848499" fill-rule="evenodd"></path></g></svg>