<svg id="svg" version="1.1" xmlns="http://www.w3.org/2000/svg" xmlns:xlink="http://www.w3.org/1999/xlink" width="400" height="378.5814936589949" viewBox="0, 0, 400,378.5814936589949"><g id="svgg"><path id="path0" d="M197.281 40.513 C 194.475 41.110,190.908 42.743,189.667 43.999 C 189.621 44.045,189.254 44.374,188.852 44.728 C 188.450 45.083,187.888 45.646,187.602 45.978 C 187.298 46.333,187.601 46.126,188.333 45.479 C 191.867 42.357,196.842 40.529,200.694 40.938 C 204.911 41.385,207.541 42.392,210.373 44.643 C 212.397 46.251,213.694 47.902,215.136 50.705 C 220.531 61.192,231.943 73.882,243.559 82.309 C 248.076 85.586,248.809 86.000,250.096 86.000 L 251.230 86.000 250.324 85.450 C 249.204 84.772,247.981 83.973,247.722 83.750 C 247.615 83.658,247.028 83.246,246.417 82.833 C 244.556 81.577,240.547 78.518,238.854 77.064 C 231.129 70.425,225.290 63.866,219.881 55.750 C 218.281 53.348,217.547 52.137,216.470 50.121 C 215.838 48.940,215.252 47.886,215.167 47.778 C 212.435 44.329,209.189 41.863,206.548 41.232 C 206.292 41.171,205.998 41.054,205.895 40.973 C 204.984 40.260,199.776 39.982,197.281 40.513 M177.477 61.292 C 176.997 61.871,176.794 62.167,176.876 62.167 C 176.923 62.167,177.161 61.904,177.405 61.583 C 177.859 60.988,177.914 60.763,177.477 61.292 M176.064 63.117 C 175.711 63.548,175.509 63.847,175.616 63.782 C 175.842 63.641,176.898 62.333,176.784 62.333 C 176.742 62.333,176.418 62.686,176.064 63.117 M174.583 64.961 C 174.492 65.028,173.969 65.608,173.421 66.250 C 170.814 69.305,166.825 73.296,163.591 76.084 C 162.954 76.634,162.311 77.196,162.163 77.333 C 161.841 77.632,161.440 77.944,158.372 80.288 C 157.080 81.276,155.528 82.421,154.923 82.833 C 154.319 83.246,153.695 83.677,153.537 83.791 C 152.952 84.215,150.939 85.522,150.518 85.750 C 150.125 85.964,150.117 85.987,150.432 85.993 C 151.150 86.007,157.847 81.233,162.250 77.570 C 165.467 74.893,175.410 64.807,174.803 64.836 C 174.774 64.837,174.675 64.894,174.583 64.961 M304.506 86.257 C 312.886 87.776,317.941 96.948,314.739 104.827 C 314.506 105.401,314.338 105.892,314.366 105.917 C 314.560 106.095,323.070 106.388,328.667 106.410 C 336.765 106.441,337.974 106.662,341.250 108.708 C 349.505 113.865,351.363 124.026,345.687 132.965 C 343.831 135.888,339.868 143.611,340.111 143.832 C 340.188 143.901,341.520 144.802,343.071 145.835 C 359.463 156.738,373.220 169.584,386.333 186.233 C 387.479 187.688,390.299 191.249,392.599 194.147 L 396.781 199.417 371.016 199.516 C 352.980 199.585,344.800 199.673,343.750 199.809 C 338.573 200.476,333.835 201.717,329.542 203.529 L 327.835 204.250 327.835 205.417 C 327.835 209.472,328.938 218.667,330.165 224.833 C 333.373 240.967,338.673 254.342,348.128 270.167 C 348.914 271.483,348.957 271.610,348.734 271.958 C 348.539 272.261,348.525 272.534,348.662 273.375 C 349.847 280.676,345.701 288.027,338.734 290.981 C 335.635 292.294,334.198 292.484,328.167 292.373 C 324.112 292.299,318.237 292.482,315.227 292.776 L 314.204 292.875 314.594 293.729 C 318.231 301.693,313.086 310.920,304.000 312.731 C 303.771 312.777,304.054 312.777,304.630 312.732 C 309.470 312.350,314.054 308.561,315.888 303.425 C 316.809 300.845,316.663 296.135,315.594 293.975 L 315.376 293.534 317.396 293.429 C 318.508 293.371,320.654 293.240,322.167 293.138 C 323.848 293.024,326.667 292.992,329.420 293.056 C 334.404 293.173,336.171 293.017,338.303 292.272 C 339.548 291.837,342.224 290.576,342.555 290.269 C 342.665 290.167,343.128 289.823,343.586 289.504 C 346.712 287.324,349.220 283.327,350.083 279.146 C 350.394 277.639,350.464 273.978,350.198 273.083 C 350.082 272.692,350.119 272.484,350.370 272.124 L 350.690 271.665 350.148 270.708 C 349.849 270.181,349.563 269.712,349.511 269.667 C 349.459 269.621,349.267 269.309,349.083 268.974 C 348.659 268.198,347.451 266.118,346.921 265.250 C 346.697 264.883,346.382 264.321,346.220 264.000 C 346.059 263.679,345.866 263.342,345.791 263.250 C 345.366 262.734,340.333 252.578,340.333 252.238 C 340.333 252.197,340.188 251.845,340.011 251.457 C 339.673 250.717,339.403 250.082,338.717 248.417 C 337.001 244.247,334.377 236.285,333.415 232.333 C 333.271 231.737,333.003 230.650,332.821 229.917 C 331.146 223.159,329.894 214.653,329.386 206.579 L 329.292 205.074 330.688 204.474 C 333.447 203.288,336.029 202.446,338.833 201.817 C 344.828 200.474,344.145 200.500,373.593 200.500 C 389.132 200.500,399.500 200.439,399.500 200.348 C 399.500 200.264,398.956 199.525,398.292 198.705 C 397.627 197.885,396.896 196.969,396.667 196.668 C 396.438 196.368,396.137 195.988,396.000 195.824 C 395.863 195.661,394.850 194.383,393.750 192.984 C 392.650 191.586,390.962 189.455,390.000 188.248 C 389.037 187.042,388.063 185.805,387.833 185.501 C 387.604 185.196,387.341 184.865,387.248 184.765 C 387.155 184.665,386.519 183.871,385.833 183.000 C 384.610 181.447,382.179 178.498,381.985 178.333 C 381.931 178.287,381.409 177.688,380.825 177.000 C 380.241 176.313,379.385 175.340,378.923 174.839 C 378.461 174.338,377.633 173.439,377.083 172.841 C 374.103 169.602,368.847 164.428,365.076 161.020 C 363.156 159.285,362.899 159.063,360.917 157.414 C 359.817 156.499,358.836 155.675,358.738 155.583 C 358.639 155.492,358.273 155.192,357.923 154.917 C 357.573 154.642,357.204 154.341,357.102 154.248 C 357.000 154.155,356.429 153.699,355.833 153.234 C 351.519 149.867,347.699 147.138,342.609 143.786 C 342.440 143.675,342.192 143.507,342.059 143.413 C 341.843 143.261,344.570 137.348,345.017 137.000 C 345.076 136.954,345.285 136.579,345.482 136.167 C 345.872 135.347,345.926 135.255,346.943 133.667 C 347.814 132.305,348.709 130.593,349.094 129.552 C 349.257 129.111,349.445 128.675,349.511 128.583 C 350.451 127.285,350.771 121.023,350.034 118.377 C 349.141 115.174,347.821 112.875,345.556 110.583 C 344.423 109.436,344.264 109.298,343.195 108.534 C 341.716 107.477,338.824 106.270,336.667 105.810 C 336.254 105.722,332.092 105.627,327.417 105.598 C 321.866 105.565,318.332 105.474,317.233 105.336 L 315.549 105.125 315.973 103.854 C 316.596 101.988,316.618 97.518,316.014 95.750 C 315.604 94.551,314.333 91.981,313.960 91.595 C 313.844 91.476,313.487 91.058,313.167 90.665 C 311.192 88.248,306.594 85.949,303.869 86.015 C 303.423 86.026,303.601 86.094,304.506 86.257 M97.206 96.497 C 93.651 97.340,93.904 102.313,97.545 103.175 C 108.817 105.842,112.288 111.287,113.000 127.417 C 113.214 132.249,113.216 266.238,113.003 271.333 C 112.334 287.308,109.408 292.155,98.455 295.430 C 96.197 296.105,95.509 296.532,95.008 297.566 C 94.240 299.153,94.766 300.998,96.250 301.917 L 97.057 302.417 136.904 302.417 C 176.420 302.417,176.755 302.414,177.406 302.083 C 180.378 300.573,179.519 296.511,176.083 295.830 C 165.396 293.711,161.132 288.899,159.766 277.417 C 159.183 272.508,159.149 269.275,159.200 222.083 L 159.250 175.583 159.699 174.732 C 160.291 173.610,161.617 172.434,162.713 172.059 C 164.075 171.593,235.276 171.589,236.620 172.055 C 237.717 172.436,239.044 173.614,239.634 174.732 L 240.083 175.583 240.133 221.750 C 240.191 275.606,240.168 276.598,238.720 282.490 C 236.791 290.344,231.702 294.636,222.797 295.923 C 219.953 296.333,218.823 299.806,220.931 301.656 C 221.828 302.445,220.295 302.417,262.667 302.417 L 302.917 302.417 303.623 302.012 C 305.586 300.888,305.895 298.382,304.270 296.764 C 303.650 296.147,303.382 296.026,301.500 295.518 C 290.329 292.503,287.141 287.438,286.332 271.425 C 286.116 267.153,286.116 131.847,286.332 127.575 C 287.148 111.420,291.029 105.450,302.196 103.174 C 305.896 102.420,306.431 97.479,302.917 96.518 C 301.973 96.259,223.195 96.259,222.250 96.517 C 218.326 97.589,219.210 102.234,223.500 103.080 C 232.701 104.894,236.895 108.627,238.815 116.711 C 239.868 121.148,240.208 127.164,240.136 140.083 L 240.083 149.417 239.639 150.250 C 238.815 151.797,237.402 152.838,235.682 153.164 C 234.447 153.398,164.886 153.398,163.652 153.164 C 161.932 152.838,160.518 151.797,159.694 150.250 L 159.250 149.417 159.197 140.000 C 159.088 120.496,160.092 114.177,164.104 109.120 C 166.321 106.325,170.840 104.037,176.196 102.998 C 179.903 102.279,180.264 97.496,176.686 96.503 C 175.966 96.303,98.049 96.296,97.206 96.497 M83.583 105.357 C 83.033 105.435,78.758 105.533,74.083 105.574 C 65.822 105.648,65.081 105.692,63.186 106.228 C 60.080 107.106,56.920 109.151,55.039 111.500 C 54.598 112.050,54.791 111.912,55.761 110.981 C 59.081 107.796,62.897 106.270,67.296 106.369 C 71.968 106.474,84.735 106.151,85.466 105.910 C 85.628 105.856,85.637 105.756,85.501 105.502 C 85.309 105.142,85.174 105.132,83.583 105.357 M181.919 111.944 C 180.917 112.478,179.890 112.798,176.685 113.572 C 172.492 114.585,171.359 115.756,170.515 119.946 C 169.925 122.876,169.484 128.460,169.860 128.242 C 172.626 126.634,182.995 119.101,182.998 118.696 C 183.000 118.514,182.962 118.514,182.776 118.696 C 182.653 118.818,182.304 119.104,182.001 119.333 C 181.697 119.563,181.206 119.938,180.910 120.167 C 180.613 120.396,180.207 120.696,180.006 120.833 C 179.806 120.971,178.991 121.571,178.196 122.167 C 176.651 123.325,176.235 123.614,172.875 125.875 C 170.277 127.622,170.502 127.597,170.598 126.125 C 170.996 119.998,171.936 116.568,173.591 115.204 C 174.396 114.540,177.165 113.553,179.291 113.172 C 180.482 112.959,182.474 112.251,182.811 111.922 C 183.314 111.431,182.860 111.442,181.919 111.944 M216.705 115.287 L 216.750 118.917 219.583 121.049 C 223.085 123.684,229.290 128.000,229.576 128.000 C 229.711 128.000,229.681 126.946,229.539 126.726 C 229.472 126.622,228.554 125.954,227.500 125.242 C 225.695 124.023,223.201 122.246,222.083 121.381 C 221.408 120.860,221.381 120.839,220.333 120.084 C 219.829 119.721,219.331 119.347,219.227 119.253 C 219.123 119.160,218.879 118.953,218.685 118.793 C 218.351 118.518,218.333 118.353,218.333 115.504 L 218.333 112.506 217.497 112.082 L 216.660 111.658 216.705 115.287 M58.333 144.254 C 56.954 145.177,52.590 148.220,51.452 149.051 C 50.974 149.400,50.393 149.812,50.160 149.968 C 48.693 150.944,39.678 158.200,38.347 159.474 C 38.188 159.626,37.511 160.237,36.841 160.833 C 32.420 164.764,25.889 171.287,22.333 175.322 C 21.738 175.999,21.174 176.634,21.081 176.734 C 20.743 177.100,18.735 179.461,18.167 180.162 C 17.846 180.558,17.467 181.003,17.324 181.149 C 17.182 181.296,16.657 181.941,16.158 182.582 C 15.658 183.224,15.160 183.861,15.049 183.999 C 14.939 184.137,14.467 184.737,14.000 185.333 C 13.533 185.929,13.023 186.566,12.867 186.749 C 12.531 187.144,11.265 188.721,10.644 189.519 C 10.255 190.020,7.795 193.147,7.025 194.120 C 6.864 194.324,6.532 194.737,6.288 195.037 C 4.188 197.619,2.167 200.223,2.167 200.348 C 2.167 200.439,12.660 200.500,28.327 200.500 C 44.304 200.500,54.959 200.563,55.702 200.662 C 56.370 200.751,57.826 200.939,58.938 201.080 C 62.719 201.560,67.748 202.976,71.123 204.512 C 72.003 204.912,72.167 204.914,72.167 204.523 C 72.167 203.752,65.290 201.366,60.333 200.417 C 56.037 199.594,56.737 199.614,29.191 199.512 L 3.298 199.417 6.337 195.583 C 8.008 193.475,9.872 191.119,10.479 190.348 C 27.032 169.331,41.267 155.829,58.294 145.000 C 59.231 144.404,59.973 143.842,59.943 143.750 C 59.832 143.409,59.387 143.548,58.333 144.254 M54.879 286.533 C 55.871 287.768,56.433 288.291,58.773 290.160 C 59.196 290.498,61.810 291.834,62.667 292.151 C 64.882 292.970,65.672 293.041,72.833 293.075 C 76.546 293.093,80.892 293.195,82.491 293.302 C 85.372 293.494,85.652 293.465,85.664 292.978 C 85.672 292.661,77.805 292.313,71.500 292.352 C 65.568 292.389,64.890 292.330,62.539 291.565 C 60.040 290.753,57.828 289.330,55.601 287.102 C 54.737 286.238,54.476 286.033,54.879 286.533 M150.917 313.001 C 150.974 313.094,151.253 313.289,151.537 313.436 C 151.820 313.582,152.134 313.769,152.234 313.851 C 152.335 313.933,153.022 314.403,153.762 314.895 C 155.785 316.239,159.163 318.656,159.500 319.000 C 159.546 319.046,160.146 319.532,160.833 320.078 C 161.521 320.625,162.166 321.149,162.267 321.244 C 162.368 321.339,162.852 321.754,163.343 322.167 C 167.065 325.294,171.302 329.569,174.625 333.550 C 175.381 334.456,176.000 335.145,176.000 335.081 C 176.000 334.965,174.258 332.820,173.167 331.593 C 169.909 327.928,165.594 323.695,162.333 320.968 C 157.516 316.938,150.191 311.826,150.917 313.001 M246.333 314.274 C 237.609 320.252,230.623 326.617,224.317 334.333 C 220.762 338.683,216.161 345.385,215.672 346.926 C 215.347 347.949,214.098 350.231,213.282 351.292 C 206.864 359.633,194.939 360.202,187.515 352.522 C 186.642 351.619,186.382 351.469,187.083 352.273 C 192.771 358.797,202.204 360.612,209.167 356.523 C 212.837 354.368,217.167 349.317,217.167 347.191 C 217.167 346.866,220.558 341.435,221.118 340.863 C 221.236 340.742,221.333 340.587,221.333 340.520 C 221.333 340.452,221.467 340.251,221.630 340.073 C 221.793 339.895,222.187 339.378,222.505 338.924 C 222.823 338.470,223.174 337.982,223.284 337.841 C 224.362 336.457,225.232 335.359,225.466 335.084 C 225.622 334.901,226.113 334.301,226.557 333.751 C 229.658 329.904,235.854 323.820,240.167 320.387 C 240.304 320.278,240.867 319.821,241.417 319.371 C 242.621 318.388,245.701 316.141,247.083 315.237 C 247.633 314.877,248.158 314.524,248.250 314.451 C 248.342 314.378,248.942 313.985,249.583 313.577 L 250.750 312.836 249.583 312.841 L 248.417 312.847 246.333 314.274 " stroke="none" fill="#ebe8e4" fill-rule="evenodd"></path><path id="path1" d="M197.378 51.070 C 195.565 51.743,194.277 52.951,193.379 54.816 C 189.273 63.355,178.112 76.916,168.723 84.778 L 167.363 85.917 172.723 86.016 C 179.185 86.135,180.764 86.456,183.234 88.155 C 183.642 88.437,184.049 88.667,184.137 88.667 C 184.452 88.667,189.228 83.627,191.957 80.416 L 192.665 79.583 192.660 101.583 L 192.656 123.583 190.536 125.267 C 184.290 130.230,177.811 134.793,171.377 138.762 C 169.031 140.208,168.931 140.532,170.380 141.964 L 171.260 142.833 180.005 142.826 L 188.750 142.819 190.667 141.427 L 192.583 140.036 192.631 141.435 L 192.680 142.833 199.833 142.833 L 206.987 142.833 207.035 141.412 L 207.083 139.990 209.000 141.411 L 210.917 142.831 219.842 142.832 L 228.768 142.833 229.309 142.275 C 229.819 141.748,229.848 141.656,229.800 140.664 L 229.750 139.611 227.750 138.376 C 222.240 134.973,214.938 129.832,209.846 125.770 L 207.000 123.500 207.000 101.583 C 207.000 89.529,207.031 79.667,207.069 79.667 C 207.108 79.667,207.828 80.473,208.670 81.458 C 209.511 82.444,211.326 84.434,212.701 85.880 L 215.202 88.510 215.726 88.159 C 218.297 86.436,219.851 86.131,226.635 86.015 L 232.354 85.917 230.393 84.250 C 221.392 76.598,209.869 62.536,206.483 55.072 C 204.846 51.463,200.940 49.746,197.378 51.070 M96.417 114.512 C 95.549 114.657,88.176 115.409,86.000 115.574 C 81.659 115.902,77.624 116.045,71.885 116.074 L 65.354 116.106 64.259 116.662 C 60.269 118.687,59.360 124.481,62.475 128.029 C 63.138 128.785,64.775 131.701,66.790 135.716 L 68.362 138.849 69.222 138.364 C 78.720 133.010,90.634 127.746,100.643 124.480 L 102.369 123.917 102.264 122.509 C 101.801 116.269,100.069 113.900,96.417 114.512 M300.750 114.514 C 298.653 115.723,298.012 116.915,297.344 120.849 C 296.836 123.841,296.694 123.525,298.875 124.251 C 309.504 127.789,318.860 131.828,328.456 137.022 C 330.127 137.926,331.532 138.667,331.577 138.667 C 331.621 138.667,332.407 137.185,333.321 135.375 C 334.886 132.280,336.496 129.362,337.891 127.093 C 340.406 123.004,339.411 118.539,335.562 116.644 L 334.488 116.115 327.619 116.081 C 319.359 116.041,313.420 115.696,305.833 114.818 C 301.591 114.326,301.124 114.298,300.750 114.514 M194.962 199.755 C 185.022 201.111,177.917 207.129,175.683 216.083 C 174.436 221.087,174.870 228.348,176.671 232.614 C 178.802 237.660,179.045 240.087,177.575 241.658 C 176.449 242.862,176.113 243.766,176.030 245.814 C 175.866 249.875,176.907 250.839,183.760 252.977 C 187.726 254.215,189.229 256.300,189.351 260.733 C 189.396 262.348,189.844 262.881,192.029 263.916 C 194.300 264.992,197.442 265.552,199.152 265.185 C 199.874 265.031,200.167 265.043,200.798 265.258 C 204.581 266.542,210.484 263.983,210.506 261.050 C 210.541 256.196,212.199 254.142,217.333 252.589 C 222.734 250.955,224.188 249.474,223.953 245.846 C 223.835 244.025,223.412 242.907,222.388 241.706 L 221.583 240.763 221.594 238.840 C 221.605 236.740,221.775 236.111,223.306 232.499 C 225.376 227.612,225.495 219.508,223.574 214.167 C 219.865 203.850,208.162 197.956,194.962 199.755 M81.423 211.288 C 79.812 231.436,71.492 257.466,62.227 271.345 C 59.443 275.516,60.945 280.615,65.468 282.346 C 66.378 282.694,66.637 282.708,71.750 282.681 C 79.631 282.640,87.823 283.122,95.500 284.079 L 98.583 284.464 99.250 284.081 C 100.613 283.299,101.281 282.084,101.814 279.417 C 102.108 277.947,102.225 276.910,102.587 272.562 L 102.672 271.541 100.878 271.268 C 99.891 271.118,97.526 270.820,95.622 270.606 C 93.718 270.391,92.123 270.179,92.078 270.133 C 92.032 270.088,94.415 268.657,97.373 266.953 L 102.750 263.856 102.795 259.678 C 102.831 256.229,102.799 255.500,102.611 255.500 C 102.432 255.500,102.336 254.777,102.171 252.172 C 102.055 250.341,101.913 248.625,101.855 248.358 L 101.750 247.872 97.417 250.374 C 86.503 256.675,83.921 258.144,83.863 258.086 C 83.829 258.051,84.261 256.850,84.823 255.417 C 88.364 246.387,91.374 235.455,93.097 225.376 L 93.560 222.668 92.738 221.460 C 90.170 217.681,85.643 212.946,81.812 210.032 C 81.567 209.846,81.528 209.972,81.423 211.288 M316.328 211.642 C 311.725 215.585,306.205 222.134,306.413 223.404 C 308.320 235.054,313.217 252.633,316.008 257.848 C 316.306 258.404,316.069 258.412,315.215 257.873 C 314.776 257.596,313.179 256.662,311.667 255.796 C 306.925 253.082,298.932 248.462,298.570 248.225 C 298.225 248.000,298.221 248.021,298.023 250.624 C 297.914 252.068,297.779 253.756,297.724 254.375 L 297.624 255.500 297.062 255.500 L 296.500 255.500 296.500 259.542 L 296.500 263.584 298.542 264.772 C 299.665 265.425,302.179 266.882,304.129 268.009 C 306.080 269.136,307.617 270.107,307.546 270.168 C 307.475 270.228,306.179 270.411,304.667 270.573 C 303.154 270.736,300.760 271.032,299.346 271.231 L 296.775 271.592 296.810 272.755 C 297.002 279.133,298.134 282.842,300.274 284.104 L 300.965 284.511 304.274 284.097 C 312.063 283.121,320.418 282.628,328.167 282.686 L 333.417 282.726 334.722 282.175 C 337.591 280.964,339.074 278.835,339.080 275.917 C 339.084 274.123,338.982 273.807,337.659 271.500 C 326.777 252.526,319.836 230.897,318.561 211.987 C 318.412 209.768,318.499 209.781,316.328 211.642 M191.230 233.252 C 195.022 234.240,196.449 237.519,194.741 241.324 C 193.076 245.033,185.117 247.155,182.269 244.648 C 180.801 243.357,180.347 239.484,181.396 237.213 C 182.806 234.159,187.482 232.276,191.230 233.252 M212.577 233.248 C 217.027 234.041,219.368 237.153,218.817 241.541 C 218.355 245.223,216.095 246.338,211.139 245.328 C 206.699 244.423,204.845 242.673,204.319 238.887 C 203.748 234.788,207.363 232.319,212.577 233.248 M200.997 244.143 C 202.544 245.770,204.626 251.816,204.276 253.667 C 203.795 256.209,201.118 256.460,200.318 254.038 L 200.129 253.465 199.841 254.109 C 198.622 256.831,195.776 256.009,195.806 252.944 C 195.830 250.622,197.803 245.389,199.172 244.020 C 199.855 243.337,200.256 243.364,200.997 244.143 M183.667 310.434 C 181.064 312.297,179.265 312.700,173.046 312.818 L 167.842 312.917 169.952 314.750 C 179.051 322.656,191.046 337.404,193.003 343.093 C 194.796 348.302,200.772 349.940,204.744 346.310 C 205.619 345.510,206.833 343.506,206.833 342.862 C 206.833 342.254,211.243 335.466,214.144 331.611 C 218.694 325.563,224.625 319.209,230.116 314.500 L 231.963 312.917 226.356 312.819 C 219.760 312.705,218.313 312.414,215.758 310.690 L 215.039 310.204 213.614 311.644 L 212.190 313.083 209.780 318.917 C 208.455 322.125,206.768 326.212,206.031 328.000 C 205.294 329.787,203.930 333.087,203.000 335.333 C 202.070 337.579,201.033 340.110,200.696 340.958 C 200.359 341.805,200.046 342.498,200.000 342.496 C 199.954 342.494,198.612 339.288,197.017 335.371 C 194.238 328.549,192.973 325.449,189.708 317.466 L 188.229 313.849 186.384 311.925 C 184.330 309.783,184.469 309.860,183.667 310.434 " stroke="none" fill="#930404" fill-rule="evenodd"></path><path id="path2" d="M196.665 41.319 C 191.542 42.414,186.920 45.864,184.736 50.224 C 183.996 51.701,183.590 52.431,182.778 53.747 C 182.002 55.005,181.913 55.152,181.232 56.292 C 180.890 56.865,180.548 57.333,180.472 57.333 C 180.396 57.333,180.333 57.416,180.333 57.516 C 180.333 57.770,178.753 59.989,176.655 62.681 C 170.205 70.956,162.150 78.443,153.247 84.435 L 150.912 86.008 123.570 86.002 C 93.379 85.996,95.029 85.942,92.710 87.008 C 92.322 87.187,91.947 87.334,91.877 87.334 C 91.697 87.336,89.677 88.668,89.097 89.167 C 86.542 91.364,84.876 94.306,84.330 97.583 C 83.919 100.052,84.434 103.904,85.348 105.187 C 85.523 105.433,85.667 105.706,85.667 105.792 C 85.667 106.151,76.484 106.559,70.833 106.452 C 62.187 106.287,58.790 107.505,54.686 112.238 C 51.470 115.947,49.957 121.913,51.154 126.167 C 51.245 126.487,51.425 127.172,51.556 127.687 C 52.008 129.469,53.285 132.220,53.904 132.744 C 54.302 133.080,55.124 134.256,55.248 134.667 C 55.317 134.896,55.443 135.170,55.527 135.275 C 55.719 135.516,56.671 137.337,58.366 140.704 C 59.092 142.146,59.756 143.369,59.843 143.422 C 60.235 143.665,59.868 144.036,58.042 145.249 C 39.216 157.746,28.059 168.380,10.144 190.902 L 3.371 199.417 29.727 199.506 L 56.083 199.596 58.333 199.976 C 64.813 201.069,72.104 203.522,72.066 204.595 C 71.839 211.003,70.694 220.189,69.345 226.417 C 68.488 230.374,67.127 235.802,66.838 236.417 C 66.751 236.600,66.598 237.088,66.497 237.500 C 66.293 238.332,64.257 244.462,63.924 245.250 C 63.807 245.525,63.502 246.313,63.245 247.000 C 62.778 248.248,62.010 250.136,61.581 251.086 C 61.457 251.362,61.271 251.812,61.167 252.086 C 60.586 253.628,57.067 260.763,55.660 263.250 C 55.142 264.167,54.582 265.205,54.416 265.557 C 54.250 265.909,54.013 266.236,53.890 266.283 C 53.767 266.330,53.667 266.467,53.667 266.587 C 53.667 266.707,53.610 266.831,53.542 266.861 C 53.351 266.946,52.868 267.871,52.317 269.206 C 48.396 278.714,53.657 289.095,63.804 291.870 C 64.986 292.193,65.567 292.223,71.417 292.256 C 77.778 292.293,85.475 292.594,85.709 292.815 C 85.778 292.881,85.658 293.173,85.443 293.464 C 83.847 295.627,83.833 301.519,85.416 304.800 C 85.646 305.276,85.833 305.706,85.833 305.756 C 85.833 305.863,86.492 306.809,86.792 307.132 C 86.906 307.256,87.000 307.413,87.000 307.481 C 87.000 308.332,91.142 311.308,93.500 312.152 C 95.407 312.834,95.515 312.836,123.912 312.832 L 151.415 312.827 153.582 314.286 C 164.041 321.325,173.690 330.901,180.578 341.079 C 181.197 341.994,181.771 342.894,181.854 343.079 C 181.937 343.265,182.153 343.642,182.334 343.917 C 182.515 344.192,182.714 344.529,182.776 344.667 C 182.838 344.804,183.102 345.230,183.361 345.613 C 183.621 345.997,183.833 346.394,183.833 346.498 C 183.833 346.908,185.082 349.479,185.562 350.055 C 185.757 350.290,186.100 350.729,186.324 351.032 C 194.162 361.621,210.429 359.463,215.502 347.162 C 216.761 344.108,222.622 335.923,227.253 330.750 C 232.769 324.589,240.028 318.337,246.912 313.819 L 248.453 312.808 275.486 312.827 C 306.892 312.849,305.060 312.948,308.613 311.024 C 314.694 307.730,317.402 299.629,314.451 293.555 C 314.260 293.162,314.137 292.810,314.177 292.773 C 314.372 292.593,322.776 292.289,328.417 292.257 C 335.529 292.217,335.729 292.190,338.766 290.880 C 343.553 288.815,346.897 284.954,348.281 279.893 C 348.764 278.128,348.917 274.054,348.544 272.917 C 348.420 272.539,348.441 272.310,348.630 271.980 C 348.871 271.558,348.841 271.477,347.798 269.730 C 338.045 253.393,332.691 239.413,329.588 222.178 C 328.768 217.622,327.671 207.662,327.667 204.740 C 327.666 203.622,335.592 200.984,342.000 199.969 L 344.417 199.586 370.543 199.502 L 396.669 199.417 393.905 195.917 C 392.385 193.992,390.604 191.742,389.948 190.917 C 389.292 190.092,387.596 187.954,386.180 186.167 C 379.153 177.295,371.274 168.743,364.667 162.816 C 359.881 158.522,353.237 153.009,351.229 151.667 C 351.023 151.529,349.701 150.577,348.290 149.552 C 346.880 148.526,344.418 146.814,342.821 145.747 C 341.224 144.680,339.938 143.730,339.964 143.636 C 340.209 142.755,344.382 134.859,345.713 132.760 C 352.543 121.989,347.706 109.137,335.889 106.659 C 335.216 106.518,332.506 106.445,327.083 106.423 C 320.500 106.397,314.466 106.158,314.197 105.914 C 314.167 105.887,314.290 105.577,314.469 105.224 C 315.560 103.078,315.936 98.957,315.265 96.500 C 313.888 91.455,310.348 87.910,305.247 86.465 L 303.917 86.089 276.371 86.053 L 248.825 86.016 246.787 84.650 C 233.486 75.730,220.790 62.088,214.849 50.333 C 211.425 43.560,203.821 39.790,196.665 41.319 M200.898 50.663 C 203.240 51.046,205.404 52.673,206.351 54.763 C 209.821 62.416,220.969 76.109,230.222 84.083 L 232.349 85.917 226.716 86.014 C 223.452 86.070,220.768 86.190,220.333 86.298 C 218.970 86.639,217.627 87.159,216.396 87.823 L 215.183 88.478 212.924 86.144 C 211.681 84.860,209.866 82.878,208.890 81.738 C 207.914 80.599,207.089 79.667,207.058 79.667 C 207.026 79.667,207.000 89.521,207.000 101.565 L 207.000 123.464 208.958 125.034 C 214.869 129.770,224.066 136.244,228.705 138.933 L 229.827 139.583 229.830 140.660 C 229.833 141.678,229.800 141.770,229.216 142.368 L 228.599 143.000 219.896 143.000 L 211.193 143.000 209.138 141.526 L 207.083 140.051 207.035 141.526 L 206.987 143.000 199.833 143.000 L 192.679 143.000 192.631 141.520 L 192.583 140.039 190.546 141.520 L 188.508 143.000 179.957 143.000 L 171.406 143.000 170.453 142.037 C 169.354 140.926,169.138 140.034,169.875 139.650 C 173.357 137.834,185.869 129.074,191.083 124.800 L 192.583 123.571 192.622 101.577 L 192.661 79.583 192.039 80.330 C 190.860 81.744,187.850 85.088,186.042 86.991 L 184.230 88.898 183.657 88.468 C 181.143 86.578,179.183 86.140,172.706 86.018 L 167.330 85.917 169.040 84.479 C 178.120 76.846,189.030 63.560,193.279 54.960 C 194.448 52.593,196.071 51.253,198.375 50.753 C 199.680 50.469,199.710 50.468,200.898 50.663 M177.833 96.916 C 179.803 98.282,179.740 101.147,177.711 102.491 C 177.288 102.771,176.835 103.000,176.703 103.000 C 174.643 103.000,168.861 105.220,166.624 106.869 C 160.531 111.363,158.988 118.832,159.196 142.833 L 159.250 149.083 159.691 150.025 C 160.229 151.172,161.155 152.127,162.257 152.674 L 163.083 153.083 199.333 153.128 C 232.213 153.169,235.660 153.149,236.407 152.906 C 238.025 152.381,239.181 151.269,239.808 149.634 C 240.353 148.214,240.244 129.614,239.650 122.750 C 238.603 110.651,234.600 105.588,224.298 103.331 C 221.613 102.743,221.226 102.578,220.511 101.712 C 219.244 100.178,219.561 98.030,221.223 96.877 L 221.888 96.417 262.152 96.368 C 304.690 96.316,303.193 96.289,304.166 97.109 C 306.730 99.265,305.477 102.383,301.637 103.403 C 290.835 106.271,287.328 111.483,286.504 125.893 C 286.270 129.972,286.270 268.751,286.503 273.000 C 287.292 287.377,290.879 292.740,301.503 295.426 C 305.236 296.369,306.640 299.138,304.528 301.390 C 303.382 302.611,307.599 302.500,262.559 302.500 L 222.272 302.500 221.548 302.150 C 219.698 301.254,219.143 298.932,220.388 297.299 C 221.138 296.315,221.669 296.059,223.930 295.591 C 233.453 293.621,237.550 289.423,239.148 280.000 C 240.137 274.167,240.192 270.854,240.135 220.500 L 240.083 175.917 239.641 174.974 C 239.120 173.861,238.136 172.854,237.039 172.309 L 236.250 171.917 199.917 171.872 L 163.583 171.828 162.639 172.179 C 161.438 172.626,160.277 173.726,159.694 174.969 L 159.250 175.917 159.201 219.083 C 159.143 269.389,159.218 274.051,160.182 279.750 C 161.822 289.448,165.978 293.638,176.058 295.755 C 179.426 296.463,180.483 300.183,177.816 301.948 L 177.108 302.417 137.133 302.459 C 92.419 302.507,96.630 302.615,95.467 301.390 C 93.389 299.201,94.644 296.392,98.131 295.425 C 108.300 292.605,111.537 288.198,112.701 275.583 C 113.016 272.169,113.018 126.893,112.703 123.339 C 111.564 110.492,108.595 106.530,97.666 103.271 C 94.599 102.356,93.524 99.508,95.465 97.440 C 96.597 96.233,92.609 96.335,137.181 96.378 L 177.112 96.417 177.833 96.916 M183.046 115.093 C 183.025 117.160,182.968 118.917,182.919 118.997 C 182.789 119.206,177.411 123.216,175.167 124.777 C 173.028 126.265,169.703 128.500,169.631 128.500 C 169.513 128.500,169.841 123.875,170.091 122.000 C 170.913 115.856,172.096 114.475,177.583 113.251 C 179.473 112.830,181.575 112.118,182.500 111.585 C 182.729 111.453,182.954 111.342,183.000 111.339 C 183.046 111.336,183.066 113.025,183.046 115.093 M217.901 112.231 C 218.459 112.542,219.367 112.884,219.917 112.992 C 227.042 114.387,227.979 115.179,228.910 120.583 C 229.285 122.763,229.779 127.944,229.626 128.096 C 229.471 128.251,222.278 123.224,218.291 120.174 L 216.667 118.932 216.667 115.299 C 216.667 113.301,216.716 111.667,216.776 111.667 C 216.836 111.667,217.342 111.921,217.901 112.231 M99.346 114.805 C 100.386 115.465,100.914 116.154,101.311 117.369 C 101.987 119.442,102.618 123.801,102.261 123.933 C 102.163 123.969,101.108 124.329,99.917 124.732 C 89.638 128.211,76.777 133.954,68.463 138.778 C 68.397 138.816,67.732 137.626,66.986 136.132 C 65.119 132.395,63.056 128.714,62.384 127.923 C 57.994 122.748,61.873 115.122,68.437 116.025 C 71.664 116.469,89.923 115.475,96.167 114.516 C 97.944 114.243,98.545 114.297,99.346 114.805 M303.986 114.586 C 309.997 115.440,319.570 116.033,328.025 116.073 L 334.466 116.104 335.561 116.643 C 338.025 117.856,339.250 119.856,339.250 122.666 L 339.250 124.422 338.451 126.003 C 338.012 126.872,337.058 128.596,336.332 129.833 C 335.606 131.071,334.246 133.585,333.309 135.420 L 331.605 138.757 328.761 137.206 C 319.681 132.255,308.933 127.590,299.104 124.336 L 296.958 123.625 297.070 122.521 C 297.375 119.498,298.347 116.345,299.228 115.523 C 300.483 114.352,301.262 114.199,303.986 114.586 M203.750 199.686 C 214.013 200.831,221.895 207.180,224.227 216.181 C 225.581 221.410,225.067 228.709,223.023 233.270 C 221.192 237.355,220.981 240.021,222.362 241.616 C 224.405 243.974,224.614 247.966,222.797 249.937 C 221.686 251.142,220.851 251.520,215.844 253.086 C 212.264 254.205,210.885 256.183,210.560 260.667 C 210.445 262.257,210.167 262.873,209.246 263.575 C 207.085 265.224,202.975 266.052,200.749 265.287 C 200.102 265.065,199.784 265.038,199.333 265.167 C 196.777 265.900,190.524 263.985,189.593 262.185 C 189.447 261.903,189.332 261.260,189.330 260.717 C 189.317 256.137,187.681 254.142,182.724 252.659 C 176.932 250.926,175.569 249.430,175.998 245.273 C 176.159 243.704,176.560 242.739,177.426 241.833 C 178.963 240.225,178.823 237.801,176.934 233.344 C 174.145 226.762,174.272 217.843,177.242 211.741 C 181.606 202.778,191.426 198.312,203.750 199.686 M84.250 212.018 C 87.986 215.229,93.500 221.691,93.500 222.859 C 93.500 227.644,88.349 246.703,84.351 256.713 C 84.066 257.425,83.833 258.047,83.833 258.095 C 83.833 258.142,84.152 257.996,84.542 257.771 C 99.681 249.013,101.752 247.860,101.851 248.133 C 101.907 248.289,102.051 249.980,102.172 251.891 C 102.334 254.469,102.447 255.388,102.612 255.451 C 102.788 255.518,102.833 256.384,102.833 259.672 L 102.833 263.809 101.875 264.381 C 101.348 264.695,98.906 266.107,96.448 267.518 C 91.238 270.509,91.176 270.084,96.917 270.750 C 98.933 270.984,101.059 271.257,101.641 271.357 L 102.699 271.540 102.589 273.062 C 101.831 283.521,101.007 284.757,95.248 284.067 C 87.345 283.120,78.668 282.620,71.333 282.689 C 67.160 282.728,66.478 282.698,65.719 282.440 C 60.902 280.805,59.311 275.414,62.365 271.078 C 63.419 269.581,66.321 264.111,68.331 259.833 C 75.573 244.415,79.754 228.830,81.421 211.035 L 81.535 209.821 82.143 210.275 C 82.477 210.525,83.425 211.309,84.250 212.018 M318.500 210.885 C 318.500 212.562,319.479 220.107,320.256 224.417 C 323.061 239.984,328.863 256.065,336.476 269.374 C 337.039 270.359,337.500 271.208,337.500 271.261 C 337.500 271.313,337.733 271.695,338.017 272.109 C 340.100 275.135,339.321 279.291,336.289 281.331 C 334.262 282.696,334.349 282.684,326.087 282.745 C 322.052 282.775,317.662 282.883,316.333 282.985 C 311.128 283.385,307.774 283.697,304.451 284.090 C 300.572 284.548,300.415 284.527,299.264 283.392 C 297.932 282.078,297.020 278.168,296.801 272.834 L 296.750 271.585 298.000 271.391 C 298.688 271.284,301.012 270.995,303.167 270.747 C 305.321 270.500,307.217 270.249,307.381 270.190 C 307.595 270.112,306.114 269.179,302.089 266.856 L 296.500 263.631 296.500 259.566 L 296.500 255.500 297.083 255.500 C 297.528 255.500,297.667 255.431,297.667 255.208 C 297.667 254.741,298.177 248.100,298.215 248.065 C 298.234 248.047,300.387 249.268,303.000 250.778 C 306.580 252.848,314.314 257.298,316.050 258.287 C 316.124 258.329,316.061 258.076,315.912 257.723 C 312.253 249.107,308.423 235.597,306.667 225.107 L 306.309 222.964 307.048 221.857 C 309.428 218.293,313.368 214.001,316.913 211.111 C 318.394 209.903,318.500 209.888,318.500 210.885 M187.589 233.175 C 182.937 233.903,180.620 236.580,180.880 240.928 C 181.131 245.136,183.311 246.365,188.607 245.285 C 192.946 244.400,194.848 242.628,195.334 239.019 C 195.878 234.979,192.474 232.410,187.589 233.175 M208.820 233.159 C 204.738 233.899,203.036 238.124,205.279 241.952 C 207.346 245.478,215.417 246.976,217.790 244.274 C 218.930 242.975,219.188 239.198,218.271 237.213 C 216.937 234.325,212.615 232.472,208.820 233.159 M199.107 244.163 C 197.375 246.080,195.412 252.132,195.896 254.062 C 196.457 256.297,199.093 256.208,199.882 253.928 L 200.104 253.288 200.388 254.032 C 201.150 256.026,203.024 256.343,203.947 254.632 C 204.679 253.276,203.983 249.837,202.247 246.232 C 200.913 243.462,200.178 242.977,199.107 244.163 M189.282 316.374 C 190.189 318.607,194.663 329.532,197.525 336.500 C 198.070 337.829,198.826 339.685,199.203 340.625 C 199.581 341.565,199.940 342.333,200.002 342.333 C 200.064 342.333,200.535 341.302,201.048 340.042 C 201.561 338.781,202.725 335.950,203.636 333.750 C 206.027 327.968,210.748 316.502,211.458 314.750 C 212.002 313.407,212.221 313.090,213.550 311.722 L 215.035 310.193 215.938 310.771 C 218.599 312.473,219.787 312.704,226.469 312.820 L 232.021 312.917 230.052 314.579 C 225.781 318.185,219.331 324.970,215.472 329.917 C 211.508 334.999,207.375 341.286,206.764 343.165 C 204.544 349.996,194.573 349.817,192.929 342.917 C 192.583 341.463,186.547 332.578,182.853 328.083 C 179.114 323.535,174.042 318.297,170.020 314.833 L 167.795 312.917 172.939 312.817 C 179.312 312.694,180.840 312.350,183.583 310.425 L 184.417 309.841 186.333 311.836 L 188.250 313.831 189.282 316.374 " stroke="none" fill="#040404" fill-rule="evenodd"></path><path id="path3" d="M199.542 50.615 C 199.702 50.657,199.965 50.657,200.125 50.615 C 200.285 50.573,200.154 50.539,199.833 50.539 C 199.512 50.539,199.381 50.573,199.542 50.615 M230.000 70.719 C 230.000 70.748,230.244 70.991,230.542 71.260 L 231.083 71.750 230.594 71.208 C 230.138 70.703,230.000 70.590,230.000 70.719 M231.826 72.542 C 232.517 73.278,232.667 73.410,232.667 73.285 C 232.667 73.258,232.310 72.902,231.875 72.493 L 231.083 71.750 231.826 72.542 M174.491 79.458 L 173.917 80.083 174.542 79.509 C 174.885 79.193,175.167 78.912,175.167 78.884 C 175.167 78.757,175.026 78.877,174.491 79.458 M249.458 86.121 C 249.756 86.158,250.244 86.158,250.542 86.121 C 250.840 86.084,250.596 86.053,250.000 86.053 C 249.404 86.053,249.160 86.084,249.458 86.121 M185.575 87.375 L 184.917 88.083 185.625 87.425 C 186.284 86.812,186.410 86.667,186.284 86.667 C 186.257 86.667,185.938 86.985,185.575 87.375 M76.625 106.451 C 76.831 106.491,77.169 106.491,77.375 106.451 C 77.581 106.411,77.412 106.379,77.000 106.379 C 76.587 106.379,76.419 106.411,76.625 106.451 M321.792 106.451 C 321.998 106.491,322.335 106.491,322.542 106.451 C 322.748 106.411,322.579 106.379,322.167 106.379 C 321.754 106.379,321.585 106.411,321.792 106.451 M74.044 116.120 C 74.297 116.158,74.672 116.157,74.877 116.117 C 75.082 116.078,74.875 116.046,74.417 116.048 C 73.958 116.049,73.791 116.081,74.044 116.120 M323.711 116.120 C 323.964 116.158,324.339 116.157,324.544 116.117 C 324.749 116.078,324.542 116.046,324.083 116.048 C 323.625 116.049,323.457 116.081,323.711 116.120 M239.875 126.250 C 239.877 126.617,239.911 126.747,239.951 126.540 C 239.991 126.332,239.990 126.032,239.948 125.873 C 239.906 125.714,239.874 125.883,239.875 126.250 M112.872 127.000 C 112.872 127.321,112.906 127.452,112.948 127.292 C 112.990 127.131,112.990 126.869,112.948 126.708 C 112.906 126.548,112.872 126.679,112.872 127.000 M240.042 130.417 C 240.044 130.783,240.078 130.914,240.118 130.706 C 240.158 130.499,240.156 130.199,240.115 130.040 C 240.073 129.880,240.040 130.050,240.042 130.417 M159.225 131.833 C 159.225 132.612,159.254 132.931,159.289 132.542 C 159.324 132.152,159.324 131.515,159.289 131.125 C 159.254 130.735,159.225 131.054,159.225 131.833 M286.249 199.417 C 286.249 236.542,286.268 251.754,286.292 233.222 C 286.315 214.690,286.315 184.315,286.292 165.722 C 286.268 147.129,286.249 162.292,286.249 199.417 M113.083 199.417 C 113.083 236.450,113.102 251.575,113.125 233.028 C 113.148 214.481,113.148 184.181,113.125 165.695 C 113.102 147.208,113.083 162.383,113.083 199.417 M175.625 142.958 C 178.031 142.984,181.969 142.984,184.375 142.958 C 186.781 142.932,184.813 142.911,180.000 142.911 C 175.188 142.911,173.219 142.932,175.625 142.958 M196.208 142.958 C 198.202 142.985,201.465 142.985,203.458 142.958 C 205.452 142.932,203.821 142.910,199.833 142.910 C 195.846 142.910,194.215 142.932,196.208 142.958 M215.553 142.958 C 218.012 142.984,221.987 142.984,224.387 142.958 C 226.787 142.932,224.775 142.911,219.917 142.911 C 215.058 142.911,213.095 142.932,215.553 142.958 M31.409 166.542 L 30.750 167.250 31.458 166.591 C 32.117 165.978,32.243 165.833,32.117 165.833 C 32.090 165.833,31.771 166.152,31.409 166.542 M199.294 199.451 C 199.501 199.491,199.801 199.490,199.960 199.448 C 200.120 199.406,199.950 199.374,199.583 199.375 C 199.217 199.377,199.086 199.411,199.294 199.451 M327.709 205.583 C 327.711 205.950,327.745 206.080,327.785 205.873 C 327.824 205.666,327.823 205.366,327.781 205.206 C 327.739 205.047,327.707 205.217,327.709 205.583 M204.209 237.750 C 204.211 238.117,204.245 238.247,204.285 238.040 C 204.324 237.832,204.323 237.532,204.281 237.373 C 204.239 237.214,204.207 237.383,204.209 237.750 M159.226 267.083 C 159.225 267.908,159.254 268.267,159.288 267.880 C 159.323 267.493,159.324 266.818,159.289 266.380 C 159.255 265.942,159.226 266.258,159.226 267.083 M240.042 268.417 C 240.044 268.783,240.078 268.914,240.118 268.706 C 240.158 268.499,240.156 268.199,240.115 268.040 C 240.073 267.880,240.040 268.050,240.042 268.417 M112.872 271.833 C 112.872 272.154,112.906 272.285,112.948 272.125 C 112.990 271.965,112.990 271.702,112.948 271.542 C 112.906 271.381,112.872 271.512,112.872 271.833 M239.872 272.667 C 239.872 272.987,239.906 273.119,239.948 272.958 C 239.990 272.798,239.990 272.535,239.948 272.375 C 239.906 272.215,239.872 272.346,239.872 272.667 M72.795 292.287 C 73.094 292.325,73.544 292.324,73.795 292.286 C 74.045 292.248,73.800 292.217,73.250 292.218 C 72.700 292.219,72.495 292.250,72.795 292.287 M326.128 292.287 C 326.428 292.325,326.878 292.324,327.128 292.286 C 327.378 292.248,327.133 292.217,326.583 292.218 C 326.033 292.219,325.828 292.250,326.128 292.287 M248.958 312.787 C 249.256 312.824,249.744 312.824,250.042 312.787 C 250.340 312.750,250.096 312.720,249.500 312.720 C 248.904 312.720,248.660 312.750,248.958 312.787 " stroke="none" fill="#623131" fill-rule="evenodd"></path><path id="path4" d="M187.742 46.042 L 187.083 46.750 187.792 46.091 C 188.181 45.729,188.500 45.410,188.500 45.383 C 188.500 45.257,188.355 45.383,187.742 46.042 M168.414 71.875 L 166.583 73.750 168.458 71.920 C 170.200 70.219,170.409 70.000,170.289 70.000 C 170.264 70.000,169.421 70.844,168.414 71.875 M179.205 99.667 C 179.205 99.987,179.240 100.119,179.282 99.958 C 179.323 99.798,179.323 99.535,179.282 99.375 C 179.240 99.215,179.205 99.346,179.205 99.667 M79.542 106.282 C 79.702 106.323,79.965 106.323,80.125 106.282 C 80.285 106.240,80.154 106.205,79.833 106.205 C 79.512 106.205,79.381 106.240,79.542 106.282 M319.208 106.282 C 319.369 106.323,319.631 106.323,319.792 106.282 C 319.952 106.240,319.821 106.205,319.500 106.205 C 319.179 106.205,319.048 106.240,319.208 106.282 M74.042 106.456 C 74.477 106.490,75.190 106.490,75.625 106.456 C 76.060 106.422,75.704 106.393,74.833 106.393 C 73.962 106.393,73.606 106.422,74.042 106.456 M323.375 106.455 C 323.719 106.491,324.281 106.491,324.625 106.455 C 324.969 106.419,324.688 106.389,324.000 106.389 C 323.313 106.389,323.031 106.419,323.375 106.455 M234.326 108.042 C 235.017 108.778,235.167 108.910,235.167 108.785 C 235.167 108.758,234.810 108.402,234.375 107.993 L 233.583 107.250 234.326 108.042 M164.824 108.292 L 164.250 108.917 164.875 108.342 C 165.457 107.808,165.577 107.667,165.449 107.667 C 165.422 107.667,165.140 107.948,164.824 108.292 M291.824 108.292 L 291.250 108.917 291.875 108.342 C 292.457 107.808,292.577 107.667,292.449 107.667 C 292.422 107.667,292.140 107.948,291.824 108.292 M159.375 125.750 C 159.377 126.117,159.411 126.247,159.451 126.040 C 159.491 125.832,159.490 125.532,159.448 125.373 C 159.406 125.214,159.374 125.383,159.375 125.750 M112.875 125.917 C 112.877 126.283,112.911 126.414,112.951 126.206 C 112.991 125.999,112.990 125.699,112.948 125.540 C 112.906 125.380,112.874 125.550,112.875 125.917 M169.709 126.250 C 169.711 126.617,169.745 126.747,169.785 126.540 C 169.824 126.332,169.823 126.032,169.781 125.873 C 169.739 125.714,169.707 125.883,169.709 126.250 M286.379 126.333 C 286.379 126.746,286.411 126.915,286.451 126.708 C 286.491 126.502,286.491 126.165,286.451 125.958 C 286.411 125.752,286.379 125.921,286.379 126.333 M159.220 129.500 C 159.220 130.096,159.250 130.340,159.287 130.042 C 159.324 129.744,159.324 129.256,159.287 128.958 C 159.250 128.660,159.220 128.904,159.220 129.500 M240.045 129.167 C 240.045 129.579,240.078 129.748,240.118 129.542 C 240.157 129.335,240.157 128.998,240.118 128.792 C 240.078 128.585,240.045 128.754,240.045 129.167 M286.224 130.750 C 286.224 131.483,286.254 131.763,286.289 131.371 C 286.324 130.979,286.324 130.379,286.288 130.037 C 286.252 129.696,286.223 130.017,286.224 130.750 M113.057 130.917 C 113.058 131.650,113.087 131.929,113.122 131.537 C 113.157 131.145,113.157 130.545,113.121 130.204 C 113.085 129.863,113.057 130.183,113.057 130.917 M181.875 153.292 C 191.660 153.315,207.673 153.315,217.458 153.292 C 227.244 153.268,219.237 153.248,199.667 153.248 C 180.096 153.248,172.090 153.268,181.875 153.292 M365.167 163.219 C 365.167 163.248,365.410 163.491,365.708 163.760 L 366.250 164.250 365.760 163.708 C 365.304 163.203,365.167 163.090,365.167 163.219 M32.658 165.292 L 32.083 165.917 32.708 165.342 C 33.290 164.808,33.410 164.667,33.283 164.667 C 33.255 164.667,32.974 164.948,32.658 165.292 M370.750 168.667 C 372.306 170.225,373.617 171.500,373.663 171.500 C 373.709 171.500,372.473 170.225,370.917 168.667 C 369.360 167.108,368.050 165.833,368.004 165.833 C 367.958 165.833,369.194 167.108,370.750 168.667 M25.991 171.958 L 25.417 172.583 26.042 172.009 C 26.623 171.474,26.743 171.333,26.616 171.333 C 26.588 171.333,26.307 171.615,25.991 171.958 M166.044 171.786 C 166.297 171.825,166.672 171.824,166.877 171.784 C 167.082 171.744,166.875 171.713,166.417 171.714 C 165.958 171.716,165.791 171.748,166.044 171.786 M174.552 171.791 C 176.093 171.819,178.568 171.819,180.052 171.791 C 181.536 171.764,180.275 171.741,177.250 171.741 C 174.225 171.741,173.011 171.764,174.552 171.791 M189.542 171.791 C 190.252 171.822,191.415 171.822,192.125 171.791 C 192.835 171.759,192.254 171.734,190.833 171.734 C 189.412 171.734,188.831 171.759,189.542 171.791 M199.042 171.790 C 199.660 171.822,200.673 171.822,201.292 171.790 C 201.910 171.758,201.404 171.732,200.167 171.732 C 198.929 171.732,198.423 171.758,199.042 171.790 M204.208 171.786 C 204.460 171.824,204.873 171.824,205.125 171.786 C 205.377 171.748,205.171 171.717,204.667 171.717 C 204.162 171.717,203.956 171.748,204.208 171.786 M207.625 171.790 C 208.106 171.823,208.894 171.823,209.375 171.790 C 209.856 171.756,209.463 171.728,208.500 171.728 C 207.537 171.728,207.144 171.756,207.625 171.790 M215.292 171.791 C 216.598 171.819,218.735 171.819,220.042 171.791 C 221.348 171.763,220.279 171.740,217.667 171.740 C 215.054 171.740,213.985 171.763,215.292 171.791 M224.042 171.786 C 224.294 171.824,224.706 171.824,224.958 171.786 C 225.210 171.748,225.004 171.717,224.500 171.717 C 223.996 171.717,223.790 171.748,224.042 171.786 M228.628 171.787 C 228.928 171.825,229.378 171.824,229.628 171.786 C 229.878 171.748,229.633 171.717,229.083 171.718 C 228.533 171.719,228.328 171.750,228.628 171.787 M233.288 171.787 C 233.584 171.824,234.109 171.824,234.455 171.788 C 234.800 171.752,234.558 171.722,233.917 171.721 C 233.275 171.721,232.992 171.750,233.288 171.787 M53.294 199.618 C 53.501 199.658,53.801 199.656,53.960 199.615 C 54.120 199.573,53.950 199.540,53.583 199.542 C 53.217 199.544,53.086 199.578,53.294 199.618 M346.458 199.618 C 346.665 199.657,347.002 199.657,347.208 199.618 C 347.415 199.578,347.246 199.545,346.833 199.545 C 346.421 199.545,346.252 199.578,346.458 199.618 M113.056 267.833 C 113.056 268.521,113.085 268.802,113.121 268.458 C 113.157 268.115,113.157 267.552,113.121 267.208 C 113.085 266.865,113.056 267.146,113.056 267.833 M286.225 268.167 C 286.225 268.946,286.254 269.265,286.289 268.875 C 286.324 268.485,286.324 267.848,286.289 267.458 C 286.254 267.069,286.225 267.387,286.225 268.167 M159.220 269.500 C 159.220 270.096,159.250 270.340,159.287 270.042 C 159.324 269.744,159.324 269.256,159.287 268.958 C 159.250 268.660,159.220 268.904,159.220 269.500 M240.042 269.583 C 240.044 269.950,240.078 270.080,240.118 269.873 C 240.158 269.666,240.156 269.366,240.115 269.206 C 240.073 269.047,240.040 269.217,240.042 269.583 M286.379 272.667 C 286.379 273.079,286.411 273.248,286.451 273.042 C 286.491 272.835,286.491 272.498,286.451 272.292 C 286.411 272.085,286.379 272.254,286.379 272.667 M112.879 273.000 C 112.879 273.412,112.911 273.581,112.951 273.375 C 112.991 273.169,112.991 272.831,112.951 272.625 C 112.911 272.419,112.879 272.587,112.879 273.000 M159.372 273.167 C 159.372 273.487,159.406 273.619,159.448 273.458 C 159.490 273.298,159.490 273.035,159.448 272.875 C 159.406 272.715,159.372 272.846,159.372 273.167 M55.667 287.250 C 55.978 287.571,56.270 287.833,56.315 287.833 C 56.361 287.833,56.144 287.571,55.833 287.250 C 55.522 286.929,55.230 286.667,55.185 286.667 C 55.139 286.667,55.356 286.929,55.667 287.250 M70.792 292.287 C 71.090 292.324,71.577 292.324,71.875 292.287 C 72.173 292.250,71.929 292.220,71.333 292.220 C 70.737 292.220,70.494 292.250,70.792 292.287 M327.958 292.287 C 328.256 292.324,328.744 292.324,329.042 292.287 C 329.340 292.250,329.096 292.220,328.500 292.220 C 327.904 292.220,327.660 292.250,327.958 292.287 M67.461 292.454 C 67.761 292.491,68.211 292.490,68.461 292.452 C 68.712 292.414,68.467 292.384,67.917 292.385 C 67.367 292.386,67.162 292.417,67.461 292.454 M82.042 292.615 C 82.202 292.657,82.465 292.657,82.625 292.615 C 82.785 292.573,82.654 292.539,82.333 292.539 C 82.012 292.539,81.881 292.573,82.042 292.615 M317.208 292.615 C 317.369 292.657,317.631 292.657,317.792 292.615 C 317.952 292.573,317.821 292.539,317.500 292.539 C 317.179 292.539,317.048 292.573,317.208 292.615 M84.542 292.782 C 84.702 292.823,84.965 292.823,85.125 292.782 C 85.285 292.740,85.154 292.705,84.833 292.705 C 84.512 292.705,84.381 292.740,84.542 292.782 M179.205 299.167 C 179.205 299.487,179.240 299.619,179.282 299.458 C 179.323 299.298,179.323 299.035,179.282 298.875 C 179.240 298.715,179.205 298.846,179.205 299.167 M166.333 324.583 C 166.644 324.904,166.936 325.167,166.982 325.167 C 167.028 325.167,166.811 324.904,166.500 324.583 C 166.189 324.262,165.897 324.000,165.851 324.000 C 165.805 324.000,166.022 324.262,166.333 324.583 M170.750 329.000 C 171.108 329.367,171.438 329.667,171.484 329.667 C 171.530 329.667,171.275 329.367,170.917 329.000 C 170.559 328.633,170.228 328.333,170.182 328.333 C 170.137 328.333,170.392 328.633,170.750 329.000 M187.917 353.000 C 188.275 353.367,188.605 353.667,188.651 353.667 C 188.697 353.667,188.441 353.367,188.083 353.000 C 187.725 352.633,187.395 352.333,187.349 352.333 C 187.303 352.333,187.559 352.633,187.917 353.000 M199.375 357.955 C 199.719 357.991,200.281 357.991,200.625 357.955 C 200.969 357.919,200.688 357.889,200.000 357.889 C 199.313 357.889,199.031 357.919,199.375 357.955 " stroke="none" fill="#7c7c79" fill-rule="evenodd"></path></g></svg>