<svg width="" height="" viewBox="0 0 87 87" fill="none" xmlns="http://www.w3.org/2000/svg">
<path fill-rule="evenodd" clip-rule="evenodd" d="M64.7291 22.1926C65.9862 23.4492 66.9671 24.9546 67.609 26.6122C68.3492 28.5787 68.7441 30.6583 68.7764 32.7593C68.9316 35.4129 68.9316 36.2724 68.9316 43.0462C68.9316 49.8201 68.8956 50.6657 68.7764 53.3331C68.7348 55.4071 68.3438 57.4534 67.6146 59.3944C66.9718 61.0518 65.9906 62.557 64.7336 63.814C63.4766 65.0711 61.9714 66.0522 60.3139 66.695C58.3736 67.4218 56.3242 67.8146 54.2527 67.8568C51.6047 68.0093 50.7369 68.0093 43.9658 68.0093C37.1948 68.0093 36.3491 67.9732 33.6789 67.8568C31.6032 67.7885 29.5543 67.3665 27.6205 66.609C25.9625 65.9674 24.4567 64.9869 23.1991 63.7303C21.9416 62.4737 20.96 60.9686 20.3171 59.3112C19.5878 57.3675 19.1969 55.3212 19.1553 53.2472C19 50.5937 19 49.7313 19 42.9603C19 36.1865 19.036 35.3408 19.1553 32.6734C19.1958 30.6017 19.5887 28.552 20.3171 26.6122C20.9582 24.9541 21.9388 23.4484 23.1961 22.1916C24.4533 20.9349 25.9594 19.9548 27.6177 19.3143C29.5552 18.5839 31.6032 18.1901 33.6734 18.1497C36.3214 18 37.1892 18 43.9603 18C50.7313 18 51.577 18.0333 54.2472 18.1497C56.3189 18.1923 58.3684 18.586 60.3084 19.3143C61.9662 19.9555 63.4719 20.9359 64.7291 22.1926ZM63.3695 57.7224C63.9223 56.223 64.2139 54.6399 64.2318 53.042V53.0448H64.2623C64.3815 50.3941 64.3815 49.6676 64.3815 42.9138V42.9131C64.3815 36.156 64.3511 35.4156 64.2318 32.7787C64.206 31.1987 63.9145 29.6343 63.3695 28.151C62.9528 27.0726 62.3153 26.0933 61.4978 25.2758C60.6803 24.4583 59.701 23.8208 58.6226 23.4041C57.1401 22.8525 55.5737 22.5608 53.9921 22.5418C51.3108 22.3893 50.6176 22.3893 43.8605 22.3893C37.1033 22.3893 36.3629 22.4225 33.7261 22.5418C32.1457 22.5638 30.5806 22.8555 29.0983 23.4041C26.9106 24.2415 25.1777 25.9633 24.332 28.151C23.7793 29.6495 23.4876 31.2316 23.4697 32.8287C23.3227 35.5154 23.3227 36.2059 23.3227 42.963C23.3227 49.7175 23.3504 50.4606 23.4697 53.0947C23.4955 54.6747 23.787 56.2391 24.332 57.7224C24.7502 58.8027 25.3906 59.7832 26.2116 60.6004C27.0327 61.4176 28.0161 62.0534 29.0983 62.4666C30.5799 63.0178 32.1454 63.3095 33.7261 63.3289C36.4101 63.4814 37.1005 63.4814 43.8605 63.4814C50.6149 63.4814 51.358 63.4509 53.9921 63.3289C55.5735 63.3085 57.1398 63.0168 58.6226 62.4666C59.701 62.0508 60.6805 61.4139 61.4981 60.5968C62.3156 59.7798 62.9531 58.8006 63.3695 57.7224ZM57.2751 32.6401C58.9259 32.6401 60.2641 31.3018 60.2641 29.651C60.2641 28.0002 58.9259 26.662 57.2751 26.662C55.6243 26.662 54.2861 28.0002 54.2861 29.651C54.2861 31.3018 55.6243 32.6401 57.2751 32.6401ZM43.9465 30.1227C40.5461 30.1227 37.285 31.4735 34.8806 33.8779C32.4761 36.2823 31.1253 39.5434 31.1253 42.9438C31.1253 46.3442 32.4761 49.6053 34.8806 52.0098C37.285 54.4142 40.5461 55.765 43.9465 55.765C47.3469 55.765 50.608 54.4142 53.0124 52.0098C55.4169 49.6053 56.7677 46.3442 56.7677 42.9438C56.7677 39.5434 55.4169 36.2823 53.0124 33.8779C50.608 31.4735 47.3469 30.1227 43.9465 30.1227ZM43.9465 51.2704C41.7374 51.2704 39.6188 50.3928 38.0568 48.8308C36.4947 47.2687 35.6172 45.1501 35.6172 42.9411C35.6172 40.732 36.4947 38.6134 38.0568 37.0513C39.6188 35.4893 41.7374 34.6117 43.9465 34.6117C46.1556 34.6117 48.2742 35.4893 49.8362 37.0513C51.3983 38.6134 52.2758 40.732 52.2758 42.9411C52.2758 45.1501 51.3983 47.2687 49.8362 48.8308C48.2742 50.3928 46.1556 51.2704 43.9465 51.2704Z" fill="url(#paint0_linear_14:576)"/>
<g filter="url(#filter0_bii_14:576)">
<circle cx="43.5" cy="43.5" r="43.5" fill="#2D303D" fill-opacity="0.2"/>
</g>
<path fill-rule="evenodd" clip-rule="evenodd" d="M62.1486 24.7726C63.2798 25.9034 64.1625 27.2579 64.7401 28.7495C65.4061 30.5191 65.7614 32.3904 65.7905 34.281C65.9302 36.6687 65.9302 37.4421 65.9302 43.5375C65.9302 49.6328 65.8978 50.3937 65.7905 52.794C65.753 54.6602 65.4012 56.5015 64.7451 58.2481C64.1667 59.7395 63.2838 61.0939 62.1527 62.225C61.0216 63.3561 59.6671 64.239 58.1757 64.8174C56.4298 65.4714 54.5856 65.8249 52.7216 65.8628C50.3389 66.0001 49.5579 66.0001 43.4651 66.0001C37.3723 66.0001 36.6113 65.9676 34.2086 65.8628C32.3408 65.8014 30.4971 65.4217 28.757 64.7401C27.2651 64.1627 25.9101 63.2804 24.7785 62.1497C23.6469 61.019 22.7637 59.6646 22.1851 58.1732C21.5289 56.4242 21.1771 54.5829 21.1397 52.7166C21 50.3289 21 49.5529 21 43.4601C21 37.3648 21.0324 36.6038 21.1397 34.2036C21.1762 32.3394 21.5297 30.4951 22.1851 28.7495C22.762 27.2576 23.6445 25.9027 24.7758 24.7718C25.9071 23.6409 27.2623 22.759 28.7545 22.1826C30.4979 21.5255 32.3408 21.171 34.2036 21.1347C36.5863 21 37.3673 21 43.4601 21C49.5529 21 50.3139 21.0299 52.7166 21.1347C54.5808 21.173 56.425 21.5273 58.1707 22.1826C59.6625 22.7597 61.0174 23.6418 62.1486 24.7726ZM60.9252 56.7436C61.4226 55.3943 61.6851 53.9699 61.7011 52.532V52.5345H61.7286C61.8359 50.1493 61.8359 49.4956 61.8359 43.4183V43.4177C61.8359 37.3373 61.8084 36.6712 61.7011 34.2984C61.6779 32.8767 61.4156 31.4689 60.9252 30.1342C60.5503 29.1639 59.9766 28.2826 59.241 27.547C58.5054 26.8114 57.6241 26.2377 56.6537 25.8628C55.3198 25.3665 53.9102 25.104 52.4871 25.0868C50.0744 24.9496 49.4506 24.9496 43.3703 24.9496C37.2899 24.9496 36.6238 24.9795 34.251 25.0868C32.8289 25.1067 31.4206 25.3691 30.0868 25.8628C28.1183 26.6163 26.5589 28.1657 25.7979 30.1342C25.3005 31.4826 25.0381 32.9063 25.022 34.3433C24.8897 36.761 24.8897 37.3823 24.8897 43.4626C24.8897 49.5405 24.9147 50.2091 25.022 52.5794C25.0452 54.0011 25.3075 55.4088 25.7979 56.7436C26.1742 57.7156 26.7505 58.5979 27.4893 59.3333C28.2281 60.0686 29.113 60.6407 30.0868 61.0125C31.42 61.5086 32.8287 61.7711 34.251 61.7885C36.6662 61.9257 37.2874 61.9257 43.3703 61.9257C49.4481 61.9257 50.1168 61.8983 52.4871 61.7885C53.9101 61.7701 55.3195 61.5076 56.6537 61.0125C57.6242 60.6384 58.5056 60.0653 59.2412 59.3301C59.9769 58.5949 60.5505 57.7138 60.9252 56.7436ZM55.4411 34.1737C56.9266 34.1737 58.1307 32.9695 58.1307 31.4841C58.1307 29.9987 56.9266 28.7945 55.4411 28.7945C53.9557 28.7945 52.7515 29.9987 52.7515 31.4841C52.7515 32.9695 53.9557 34.1737 55.4411 34.1737ZM43.4477 31.9083C40.3879 31.9083 37.4534 33.1238 35.2899 35.2874C33.1263 37.451 31.9108 40.3855 31.9108 43.4452C31.9108 46.505 33.1263 49.4395 35.2899 51.6031C37.4534 53.7667 40.3879 54.9822 43.4477 54.9822C46.5075 54.9822 49.4419 53.7667 51.6055 51.6031C53.7691 49.4395 54.9846 46.505 54.9846 43.4452C54.9846 40.3855 53.7691 37.451 51.6055 35.2874C49.4419 33.1238 46.5075 31.9083 43.4477 31.9083ZM43.4477 50.9378C41.4599 50.9378 39.5535 50.1481 38.1479 48.7425C36.7423 47.3369 35.9527 45.4305 35.9527 43.4427C35.9527 41.4549 36.7423 39.5486 38.1479 38.143C39.5535 36.7374 41.4599 35.9477 43.4477 35.9477C45.4355 35.9477 47.3419 36.7374 48.7475 38.143C50.1531 39.5486 50.9427 41.4549 50.9427 43.4427C50.9427 45.4305 50.1531 47.3369 48.7475 48.7425C47.3419 50.1481 45.4355 50.9378 43.4477 50.9378Z" fill="url(#paint1_linear_14:576)"/>
<defs>
<filter id="filter0_bii_14:576" x="-30" y="-30" width="147" height="147" filterUnits="userSpaceOnUse" color-interpolation-filters="sRGB">
<feFlood flood-opacity="0" result="BackgroundImageFix"/>
<feGaussianBlur in="BackgroundImage" stdDeviation="15"/>
<feComposite in2="SourceAlpha" operator="in" result="effect1_backgroundBlur_14:576"/>
<feBlend mode="normal" in="SourceGraphic" in2="effect1_backgroundBlur_14:576" result="shape"/>
<feColorMatrix in="SourceAlpha" type="matrix" values="0 0 0 0 0 0 0 0 0 0 0 0 0 0 0 0 0 0 127 0" result="hardAlpha"/>
<feOffset dy="2"/>
<feGaussianBlur stdDeviation="2"/>
<feComposite in2="hardAlpha" operator="arithmetic" k2="-1" k3="1"/>
<feColorMatrix type="matrix" values="0 0 0 0 1 0 0 0 0 1 0 0 0 0 1 0 0 0 0.1 0"/>
<feBlend mode="normal" in2="shape" result="effect2_innerShadow_14:576"/>
<feColorMatrix in="SourceAlpha" type="matrix" values="0 0 0 0 0 0 0 0 0 0 0 0 0 0 0 0 0 0 127 0" result="hardAlpha"/>
<feOffset dy="-5"/>
<feGaussianBlur stdDeviation="6"/>
<feComposite in2="hardAlpha" operator="arithmetic" k2="-1" k3="1"/>
<feColorMatrix type="matrix" values="0 0 0 0 0.564706 0 0 0 0 0.054902 0 0 0 0 0.690196 0 0 0 0.35 0"/>
<feBlend mode="normal" in2="effect2_innerShadow_14:576" result="effect3_innerShadow_14:576"/>
</filter>
<linearGradient id="paint0_linear_14:576" x1="60.7808" y1="20.3212" x2="23.0634" y2="63.8436" gradientUnits="userSpaceOnUse">
<stop offset="0.17301" stop-color="#4967D5"/>
<stop offset="0.688933" stop-color="#DB2E7D"/>
<stop offset="1" stop-color="#FFAF00"/>
</linearGradient>
<linearGradient id="paint1_linear_14:576" x1="58.5957" y1="23.0887" x2="24.6564" y2="62.2516" gradientUnits="userSpaceOnUse">
<stop offset="0.17301" stop-color="#4967D5"/>
<stop offset="0.688933" stop-color="#DB2E7D"/>
<stop offset="1" stop-color="#FFAF00"/>
</linearGradient>
</defs>
</svg>
