<svg width="" height="" viewBox="0 0 72 72" fill="none" xmlns="http://www.w3.org/2000/svg">
<g filter="url(#filter0_f_203:1846)">
<path d="M45.8876 20.4367H25.9033C22.7654 20.4326 20.1885 22.9735 20.1839 26.1122V46.0959C20.18 49.2348 22.7212 51.8119 25.8595 51.816H45.844C48.9825 51.82 51.5584 49.2792 51.5632 46.14V26.156C51.5676 23.0171 49.0268 20.4411 45.8876 20.4367Z" fill="url(#paint0_linear_203:1846)" fill-opacity="0.8"/>
</g>
<g filter="url(#filter1_ii_203:1846)">
<circle cx="35.5" cy="36.5" r="32.5" fill="#2D303D" fill-opacity="0.2"/>
</g>
<path fill-rule="evenodd" clip-rule="evenodd" d="M25.4283 20.4367H46.3637C49.6523 20.4413 52.314 23.14 52.3094 26.4283V47.3639C52.3044 50.6527 49.6059 53.3144 46.3181 53.3103H25.3825C22.0948 53.3059 19.4326 50.6061 19.4368 47.3178V26.3824C19.4416 23.0943 22.1412 20.4324 25.4283 20.4367ZM35.8197 25.7155C42.4195 25.7155 47.7884 30.0725 47.7884 35.4281C47.7884 37.5715 46.9576 39.5018 45.223 41.4038H45.2235C42.7125 44.2941 37.0972 47.8143 35.8197 48.3526C34.5783 48.8759 34.7217 48.0581 34.7785 47.7341C34.7801 47.7248 34.7817 47.7159 34.7831 47.7074C34.8134 47.5275 34.9538 46.683 34.9538 46.683C34.9942 46.3774 35.036 45.9034 34.9153 45.6007C34.781 45.2676 34.2506 45.0946 33.8608 45.0106C28.1092 44.2502 23.8513 40.2293 23.8513 35.4281C23.8513 30.0725 29.2208 25.7155 35.8197 25.7155Z" fill="url(#paint1_linear_203:1846)"/>
<path d="M33.3882 32.8401H32.5487C32.42 32.8401 32.3154 32.9445 32.3154 33.0727V38.2879C32.3154 38.4163 32.42 38.5205 32.5487 38.5205H33.3882C33.5169 38.5205 33.6213 38.4163 33.6213 38.2879V33.0727C33.6213 32.9445 33.5169 32.8401 33.3882 32.8401Z" fill="url(#paint2_linear_203:1846)"/>
<path d="M39.1665 32.8401H38.3269C38.1982 32.8401 38.0938 32.9445 38.0938 33.0727V36.1711L35.704 32.9435C35.6985 32.9353 35.6923 32.9275 35.6859 32.9199L35.6843 32.9185C35.6797 32.9132 35.6751 32.9087 35.6703 32.9041C35.6689 32.9027 35.6675 32.9015 35.6659 32.9002C35.662 32.8965 35.6579 32.8931 35.6535 32.8898C35.6517 32.888 35.6496 32.8866 35.6475 32.885C35.6434 32.8823 35.6395 32.8793 35.6354 32.8768C35.6331 32.8752 35.6308 32.8738 35.6283 32.8726C35.6241 32.8701 35.62 32.8676 35.6159 32.8655C35.6134 32.8644 35.6111 32.863 35.6085 32.8621C35.6042 32.86 35.5998 32.858 35.5952 32.8563C35.5925 32.8554 35.5902 32.8545 35.5877 32.8536C35.5831 32.852 35.5785 32.8504 35.5737 32.8492C35.5711 32.8483 35.5684 32.8479 35.5656 32.8469C35.561 32.846 35.5567 32.8449 35.5523 32.844C35.5491 32.8435 35.5457 32.843 35.5425 32.8428C35.5383 32.8419 35.5342 32.8417 35.5301 32.8412C35.5262 32.8407 35.5223 32.8407 35.5181 32.8405C35.5152 32.8405 35.5129 32.8401 35.5099 32.8401H34.6706C34.5419 32.8401 34.4373 32.9445 34.4373 33.0727V38.2879C34.4373 38.4163 34.5419 38.5205 34.6706 38.5205H35.5099C35.6388 38.5205 35.7432 38.4163 35.7432 38.2879V35.1904L38.136 38.4221C38.1526 38.4455 38.173 38.4645 38.1952 38.4797C38.1959 38.4801 38.1968 38.4808 38.1975 38.4815C38.2023 38.4845 38.2072 38.4875 38.212 38.4902C38.2143 38.4916 38.2163 38.4925 38.2186 38.4937C38.2221 38.4957 38.226 38.4976 38.2297 38.4992C38.2336 38.5008 38.237 38.5024 38.2411 38.504C38.2434 38.5049 38.2457 38.5058 38.248 38.5065C38.2535 38.5086 38.2586 38.5102 38.2638 38.5118C38.265 38.5118 38.2661 38.5122 38.2673 38.5125C38.2863 38.5175 38.3063 38.5205 38.3269 38.5205H39.1665C39.2954 38.5205 39.3996 38.4163 39.3996 38.2879V33.0727C39.3996 32.9445 39.2954 32.8401 39.1665 32.8401Z" fill="url(#paint3_linear_203:1846)"/>
<path d="M31.3643 37.2147H29.0833V33.0731C29.0833 32.9443 28.9789 32.84 28.8504 32.84H28.0106C27.8819 32.84 27.7775 32.9443 27.7775 33.0731V38.2873V38.2877C27.7775 38.3504 27.8025 38.4071 27.8427 38.4488C27.8436 38.45 27.8445 38.4511 27.8459 38.4523C27.847 38.4534 27.8482 38.4543 27.8493 38.4555C27.8913 38.4959 27.9478 38.5206 28.0104 38.5206H28.0106H31.3643C31.4931 38.5206 31.597 38.416 31.597 38.2873V37.4478C31.597 37.3191 31.4931 37.2147 31.3643 37.2147Z" fill="url(#paint4_linear_203:1846)"/>
<path d="M43.8024 34.1459C43.9311 34.1459 44.035 34.0418 44.035 33.9128V33.0733C44.035 32.9446 43.9311 32.84 43.8024 32.84H40.4487H40.4482C40.3854 32.84 40.3287 32.8652 40.2867 32.9058C40.2858 32.9067 40.2846 32.9074 40.2839 32.9083C40.2826 32.9097 40.2814 32.9111 40.2803 32.9125C40.2404 32.9542 40.2156 33.0107 40.2156 33.0731V33.0733V38.2875V38.2877C40.2156 38.3504 40.2406 38.4071 40.2807 38.4488C40.2817 38.45 40.2828 38.4513 40.2839 38.4523C40.2849 38.4534 40.2862 38.4546 40.2874 38.4555C40.3291 38.4956 40.3858 38.5206 40.4482 38.5206H40.4487H43.8024C43.9311 38.5206 44.035 38.416 44.035 38.2875V37.4478C44.035 37.3193 43.9311 37.2147 43.8024 37.2147H41.5215V36.3332H43.8024C43.9311 36.3332 44.035 36.2288 44.035 36.1V35.2605C44.035 35.1318 43.9311 35.0272 43.8024 35.0272H41.5215V34.1459H43.8024Z" fill="url(#paint5_linear_203:1846)"/>
<defs>
<filter id="filter0_f_203:1846" x="0.183899" y="0.436768" width="71.3793" height="71.3793" filterUnits="userSpaceOnUse" color-interpolation-filters="sRGB">
<feFlood flood-opacity="0" result="BackgroundImageFix"/>
<feBlend mode="normal" in="SourceGraphic" in2="BackgroundImageFix" result="shape"/>
<feGaussianBlur stdDeviation="10" result="effect1_foregroundBlur_203:1846"/>
</filter>
<filter id="filter1_ii_203:1846" x="3" y="-1" width="65" height="72" filterUnits="userSpaceOnUse" color-interpolation-filters="sRGB">
<feFlood flood-opacity="0" result="BackgroundImageFix"/>
<feBlend mode="normal" in="SourceGraphic" in2="BackgroundImageFix" result="shape"/>
<feColorMatrix in="SourceAlpha" type="matrix" values="0 0 0 0 0 0 0 0 0 0 0 0 0 0 0 0 0 0 127 0" result="hardAlpha"/>
<feOffset dy="2"/>
<feGaussianBlur stdDeviation="2"/>
<feComposite in2="hardAlpha" operator="arithmetic" k2="-1" k3="1"/>
<feColorMatrix type="matrix" values="0 0 0 0 1 0 0 0 0 1 0 0 0 0 1 0 0 0 0.1 0"/>
<feBlend mode="normal" in2="shape" result="effect1_innerShadow_203:1846"/>
<feColorMatrix in="SourceAlpha" type="matrix" values="0 0 0 0 0 0 0 0 0 0 0 0 0 0 0 0 0 0 127 0" result="hardAlpha"/>
<feOffset dy="-5"/>
<feGaussianBlur stdDeviation="6"/>
<feComposite in2="hardAlpha" operator="arithmetic" k2="-1" k3="1"/>
<feColorMatrix type="matrix" values="0 0 0 0 0 0 0 0 0 1 0 0 0 0 0.356863 0 0 0 0.35 0"/>
<feBlend mode="normal" in2="effect1_innerShadow_203:1846" result="effect2_innerShadow_203:1846"/>
</filter>
<linearGradient id="paint0_linear_203:1846" x1="54.7944" y1="10.2846" x2="34.5318" y2="64.5563" gradientUnits="userSpaceOnUse">
<stop stop-color="#1A8EB2"/>
<stop offset="1" stop-color="#00FF5B"/>
</linearGradient>
<linearGradient id="paint1_linear_203:1846" x1="60.5287" y1="13.6687" x2="32.6322" y2="63.5853" gradientUnits="userSpaceOnUse">
<stop stop-color="#1A8EB2"/>
<stop offset="1" stop-color="#00FF5B"/>
</linearGradient>
<linearGradient id="paint2_linear_203:1846" x1="33.5258" y1="38.8804" x2="31.5162" y2="38.53" gradientUnits="userSpaceOnUse">
<stop stop-color="#1A8EB2"/>
<stop offset="1" stop-color="#00FF5B"/>
</linearGradient>
<linearGradient id="paint3_linear_203:1846" x1="39.0365" y1="38.8804" x2="33.5682" y2="35.2579" gradientUnits="userSpaceOnUse">
<stop stop-color="#1A8EB2"/>
<stop offset="1" stop-color="#00FF5B"/>
</linearGradient>
<linearGradient id="paint4_linear_203:1846" x1="31.3175" y1="38.8805" x2="26.5111" y2="36.4298" gradientUnits="userSpaceOnUse">
<stop stop-color="#1A8EB2"/>
<stop offset="1" stop-color="#00FF5B"/>
</linearGradient>
<linearGradient id="paint5_linear_203:1846" x1="43.7556" y1="38.8805" x2="38.9491" y2="36.4298" gradientUnits="userSpaceOnUse">
<stop stop-color="#1A8EB2"/>
<stop offset="1" stop-color="#00FF5B"/>
</linearGradient>
</defs>
</svg>
