<svg width="45" height="45" viewBox="0 0 45 45" fill="none" xmlns="http://www.w3.org/2000/svg">
<path d="M22.4998 41.9996C11.7478 41.9996 3 33.2518 3 22.4998H4.49957C4.49957 32.4255 12.5741 40.4995 22.4998 40.4995C32.4255 40.4995 40.5 32.4255 40.5 22.4998C40.5 12.5736 32.4255 4.49962 22.4998 4.49962V2.99951C33.2517 2.99951 41.9996 11.7479 41.9996 22.4998C41.9996 33.2518 33.2517 41.9996 22.4998 41.9996Z" fill="#BBB5DC"/>
<path d="M1.50011 22.5H0C0 10.0928 10.0928 0 22.5 0V1.49957C10.9191 1.49957 1.50011 10.9185 1.50011 22.5Z" fill="#BBB5DC"/>
<path d="M22.5 45V43.4999C34.0809 43.4999 43.4999 34.0809 43.4999 22.5H45C45 34.9072 34.9072 45 22.5 45Z" fill="#BBB5DC"/>
<path d="M3 22.4998C3 33.2518 11.7478 41.9996 22.4998 41.9996C33.2517 41.9996 41.9996 33.2518 41.9996 22.4998C41.9996 11.7479 33.2517 2.99951 22.4998 2.99951V4.49962C32.4255 4.49962 40.5 12.5736 40.5 22.4998C40.5 32.4255 32.4255 40.4995 22.4998 40.4995C12.5741 40.4995 4.49957 32.4255 4.49957 22.4998H3Z" fill="#BBB5DC"/>
<path d="M22.5 43.4999C10.9191 43.4999 1.50011 34.0809 1.50011 22.5C1.50011 10.9185 10.9191 1.49957 22.5 1.49957V0C10.0928 0 0 10.0928 0 22.5C0 34.9072 10.0928 45 22.5 45C34.9072 45 45 34.9072 45 22.5H43.4999C43.4999 34.0809 34.0809 43.4999 22.5 43.4999Z" fill="#BBB5DC"/>
<path fill-rule="evenodd" clip-rule="evenodd" d="M38.2496 24.7497V20.2494H35.2499C34.9217 18.4037 34.0308 16.4761 33 14.9998L35.2499 12.7494L32.2497 9.74973L29.9998 11.9996C28.523 10.9683 26.5954 10.078 24.7497 9.74973V6.74951H20.2499V9.74973C18.4042 10.078 16.4766 10.9683 14.9998 11.9996L12.7499 9.74973L9.74967 12.7494L11.9996 14.9998C10.9688 16.4761 10.0779 18.4037 9.74967 20.2494H6.75V24.7497H9.74967C10.0779 26.5954 10.9688 28.5231 11.9996 29.9998L9.74967 32.2497L12.7499 35.2494L14.9998 32.9995C16.4766 34.0309 18.4042 34.9217 20.2499 35.2494V38.2496H24.7497V35.2494C26.5954 34.9217 28.523 34.0309 29.9998 32.9995L32.2497 35.2494L35.2499 32.2497L33 29.9998C34.0308 28.5231 34.9217 26.5954 35.2499 24.7497H38.2496ZM22.4998 14.2495C27.0495 14.2495 30.7496 17.9496 30.7496 22.4999C30.7496 27.0495 27.0495 30.7496 22.4998 30.7496C17.9501 30.7496 14.25 27.0495 14.25 22.4999C14.25 17.9496 17.9501 14.2495 22.4998 14.2495ZM22.4998 32.2497C27.8758 32.2497 32.2497 27.8758 32.2497 22.4999C32.2497 17.1239 27.8758 12.7494 22.4998 12.7494C17.1238 12.7494 12.7499 17.1239 12.7499 22.4999C12.7499 27.8758 17.1238 32.2497 22.4998 32.2497ZM22.4998 28.4997C25.8131 28.4997 28.4997 25.8131 28.4997 22.4999C28.4997 19.186 25.8131 16.4994 22.4998 16.4994C19.1866 16.4994 16.4999 19.186 16.4999 22.4999C16.4999 25.8131 19.1866 28.4997 22.4998 28.4997Z" fill="#BBB5DC"/>
</svg>
