<svg width="100" height="84" viewBox="0 0 100 84" fill="none" xmlns="http://www.w3.org/2000/svg">
<path fill-rule="evenodd" clip-rule="evenodd" d="M100 13.1193C85.0222 20.4078 77.5335 28.9718 77.5335 38.8113C83.9174 39.5401 89.1964 42.1215 93.3705 46.5553C97.5447 50.9892 99.6317 56.1214 99.6317 61.9523C99.6317 68.1475 97.606 73.3709 93.5547 77.6226C89.5033 81.8742 84.4085 84 78.2701 84C71.3951 84 65.4409 81.2365 60.4074 75.7093C55.3739 70.1822 52.8571 63.4708 52.8571 55.5748C52.8571 31.8871 66.2387 13.3623 93.0022 0L100 13.1193ZM47.1429 13.1193C32.0423 20.4078 24.4922 28.9718 24.4922 38.8113C30.9989 39.5401 36.3393 42.1215 40.5134 46.5553C44.6875 50.9892 46.7746 56.1214 46.7746 61.9523C46.7746 68.1475 44.7182 73.3709 40.6055 77.6226C36.4927 81.8742 31.3672 84 25.2288 84C18.3538 84 12.4303 81.2365 7.45815 75.7093C2.48602 70.1822 0 63.4708 0 55.5748C0 31.8871 13.3202 13.3623 39.9609 0L47.1429 13.1193Z" fill="url(#paint0_linear_679_7461)"/>
<defs>
<linearGradient id="paint0_linear_679_7461" x1="27.5194" y1="-6.22223" x2="111.973" y2="35.8641" gradientUnits="userSpaceOnUse">
<stop stop-color="#AB1818"/>
<stop offset="1" stop-color="#520000"/>
</linearGradient>
</defs>
</svg>
