<svg width="149" height="81" viewBox="0 0 149 81" fill="none" xmlns="http://www.w3.org/2000/svg">
<path fill-rule="evenodd" clip-rule="evenodd" d="M149 60.3049V66.7582C140.693 66.7582 133.959 73.1345 133.959 81H15.041C15.041 73.1345 8.30692 66.7582 0 66.7582V60.0824C2.59591 60.0824 4.70032 58.0898 4.70032 55.6319C4.70032 53.1739 2.59591 51.1813 0 51.1813V45.6181C2.59591 45.6181 4.70032 43.6256 4.70032 41.1676C4.70032 38.7096 2.59591 36.717 0 36.717V30.7088C2.59591 30.7088 4.70032 28.7162 4.70032 26.2582C4.70032 23.8003 2.59591 21.8077 0 21.8077V14.2418C8.30692 14.2418 15.041 7.86551 15.041 0H133.959C133.959 7.86551 140.693 14.2418 149 14.2418V22.0302C146.404 22.0302 144.3 24.0228 144.3 26.4808C144.3 28.9387 146.404 30.9313 149 30.9313V36.9396C146.404 36.9396 144.3 38.9321 144.3 41.3901C144.3 43.8481 146.404 45.8407 149 45.8407V51.4038C146.404 51.4038 144.3 53.3964 144.3 55.8544C144.3 58.3124 146.404 60.3049 149 60.3049ZM12 9.5C12 9.22386 12.2239 9 12.5 9H13.5C13.7761 9 14 9.22386 14 9.5C14 9.77614 13.7761 10 13.5 10H12.5C12.2239 10 12 9.77614 12 9.5ZM15 9.5C15 9.22386 15.2239 9 15.5 9L17.5 9C17.7761 9 18 9.22386 18 9.5C18 9.77614 17.7761 10 17.5 10L15.5 10C15.2239 10 15 9.77614 15 9.5ZM19 9.5C19 9.22386 19.2239 9 19.5 9H21.5C21.7761 9 22 9.22386 22 9.5C22 9.77614 21.7761 10 21.5 10H19.5C19.2239 10 19 9.77614 19 9.5ZM23 9.5C23 9.22386 23.2239 9 23.5 9H25.5C25.7761 9 26 9.22386 26 9.5C26 9.77614 25.7761 10 25.5 10H23.5C23.2239 10 23 9.77614 23 9.5ZM27 9.5C27 9.22386 27.2239 9 27.5 9L29.5 9C29.7761 9 30 9.22386 30 9.5C30 9.77614 29.7761 10 29.5 10L27.5 10C27.2239 10 27 9.77614 27 9.5ZM31 9.5C31 9.22386 31.2239 9 31.5 9H33.5C33.7761 9 34 9.22386 34 9.5C34 9.77614 33.7761 10 33.5 10H31.5C31.2239 10 31 9.77614 31 9.5ZM35 9.5C35 9.22386 35.2239 9 35.5 9H37.5C37.7761 9 38 9.22386 38 9.5C38 9.77614 37.7761 10 37.5 10H35.5C35.2239 10 35 9.77614 35 9.5ZM39 9.5C39 9.22386 39.2239 9 39.5 9H41.5C41.7761 9 42 9.22386 42 9.5C42 9.77614 41.7761 10 41.5 10H39.5C39.2239 10 39 9.77614 39 9.5ZM43 9.5C43 9.22386 43.2239 9 43.5 9H45.5C45.7761 9 46 9.22386 46 9.5C46 9.77614 45.7761 10 45.5 10H43.5C43.2239 10 43 9.77614 43 9.5ZM47 9.5C47 9.22386 47.2239 9 47.5 9H49.5C49.7761 9 50 9.22386 50 9.5C50 9.77615 49.7761 10 49.5 10H47.5C47.2239 10 47 9.77614 47 9.5ZM51 9.5C51 9.22386 51.2239 9 51.5 9H53.5C53.7761 9 54 9.22386 54 9.5C54 9.77615 53.7761 10 53.5 10H51.5C51.2239 10 51 9.77615 51 9.5ZM55 9.5C55 9.22386 55.2239 9 55.5 9H57.5C57.7761 9 58 9.22386 58 9.5C58 9.77615 57.7761 10 57.5 10H55.5C55.2239 10 55 9.77615 55 9.5ZM59 9.5C59 9.22386 59.2239 9 59.5 9L61.5 9C61.7761 9 62 9.22386 62 9.5C62 9.77615 61.7761 10 61.5 10L59.5 10C59.2239 10 59 9.77615 59 9.5ZM63 9.5C63 9.22386 63.2239 9 63.5 9H65.5C65.7761 9 66 9.22386 66 9.5C66 9.77615 65.7761 10 65.5 10H63.5C63.2239 10 63 9.77615 63 9.5ZM67 9.5C67 9.22386 67.2239 9 67.5 9H69.5C69.7761 9 70 9.22386 70 9.5C70 9.77615 69.7761 10 69.5 10H67.5C67.2239 10 67 9.77615 67 9.5ZM71 9.5C71 9.22386 71.2239 9 71.5 9L73.5 9.00001C73.7761 9.00001 74 9.22386 74 9.50001C74 9.77615 73.7761 10 73.5 10L71.5 10C71.2239 10 71 9.77615 71 9.5ZM75 9.50001C75 9.22386 75.2239 9.00001 75.5 9.00001H77.5C77.7761 9.00001 78 9.22386 78 9.50001C78 9.77615 77.7761 10 77.5 10H75.5C75.2239 10 75 9.77615 75 9.50001ZM79 9.50001C79 9.22386 79.2239 9.00001 79.5 9.00001H81.5C81.7761 9.00001 82 9.22386 82 9.50001C82 9.77615 81.7761 10 81.5 10H79.5C79.2239 10 79 9.77615 79 9.50001ZM83 9.50001C83 9.22386 83.2239 9.00001 83.5 9.00001H85.5C85.7761 9.00001 86 9.22386 86 9.50001C86 9.77615 85.7761 10 85.5 10H83.5C83.2239 10 83 9.77615 83 9.50001ZM87 9.50001C87 9.22386 87.2239 9.00001 87.5 9.00001H89.5C89.7761 9.00001 90 9.22386 90 9.50001C90 9.77615 89.7761 10 89.5 10H87.5C87.2239 10 87 9.77615 87 9.50001ZM91 9.50001C91 9.22386 91.2239 9.00001 91.5 9.00001H93.5C93.7761 9.00001 94 9.22386 94 9.50001C94 9.77615 93.7761 10 93.5 10H91.5C91.2239 10 91 9.77615 91 9.50001ZM95 9.50001C95 9.22386 95.2239 9.00001 95.5 9.00001H97.5C97.7761 9.00001 98 9.22387 98 9.50001C98 9.77615 97.7761 10 97.5 10H95.5C95.2239 10 95 9.77615 95 9.50001ZM99 9.50001C99 9.22387 99.2239 9.00001 99.5 9.00001H101.5C101.776 9.00001 102 9.22387 102 9.50001C102 9.77615 101.776 10 101.5 10H99.5C99.2239 10 99 9.77615 99 9.50001ZM103 9.50001C103 9.22387 103.224 9.00001 103.5 9.00001L105.5 9.00001C105.776 9.00001 106 9.22387 106 9.50001C106 9.77615 105.776 10 105.5 10L103.5 10C103.224 10 103 9.77615 103 9.50001ZM107 9.50001C107 9.22387 107.224 9.00001 107.5 9.00001H109.5C109.776 9.00001 110 9.22387 110 9.50001C110 9.77615 109.776 10 109.5 10H107.5C107.224 10 107 9.77615 107 9.50001ZM111 9.50001C111 9.22387 111.224 9.00001 111.5 9.00001H113.5C113.776 9.00001 114 9.22387 114 9.50001C114 9.77615 113.776 10 113.5 10H111.5C111.224 10 111 9.77615 111 9.50001ZM115 9.50001C115 9.22387 115.224 9.00001 115.5 9.00001L117.5 9.00001C117.776 9.00001 118 9.22387 118 9.50001C118 9.77615 117.776 10 117.5 10L115.5 10C115.224 10 115 9.77615 115 9.50001ZM119 9.50001C119 9.22387 119.224 9.00001 119.5 9.00001H121.5C121.776 9.00001 122 9.22387 122 9.50001C122 9.77615 121.776 10 121.5 10H119.5C119.224 10 119 9.77615 119 9.50001ZM123 9.50001C123 9.22387 123.224 9.00001 123.5 9.00001H125.5C125.776 9.00001 126 9.22387 126 9.50001C126 9.77615 125.776 10 125.5 10H123.5C123.224 10 123 9.77615 123 9.50001ZM127 9.50001C127 9.22387 127.224 9.00001 127.5 9.00001H129.5C129.776 9.00001 130 9.22387 130 9.50001C130 9.77615 129.776 10 129.5 10H127.5C127.224 10 127 9.77615 127 9.50001ZM131 9.50001C131 9.22387 131.224 9.00001 131.5 9.00001H133.5C133.776 9.00001 134 9.22387 134 9.50001C134 9.77615 133.776 10 133.5 10H131.5C131.224 10 131 9.77615 131 9.50001ZM135 9.50001C135 9.22387 135.224 9.00001 135.5 9.00001H136.5C136.776 9.00001 137 9.22387 137 9.50001C137 9.77615 136.776 10 136.5 10H135.5C135.224 10 135 9.77615 135 9.50001ZM12.5 71C12.2239 71 12 71.2239 12 71.5C12 71.7761 12.2239 72 12.5 72H13.5C13.7761 72 14 71.7761 14 71.5C14 71.2239 13.7761 71 13.5 71H12.5ZM15.5 71C15.2239 71 15 71.2239 15 71.5C15 71.7761 15.2239 72 15.5 72H17.5C17.7761 72 18 71.7761 18 71.5C18 71.2239 17.7761 71 17.5 71H15.5ZM19.5 71C19.2239 71 19 71.2239 19 71.5C19 71.7761 19.2239 72 19.5 72H21.5C21.7761 72 22 71.7761 22 71.5C22 71.2239 21.7761 71 21.5 71H19.5ZM23.5 71C23.2239 71 23 71.2239 23 71.5C23 71.7761 23.2239 72 23.5 72H25.5C25.7761 72 26 71.7761 26 71.5C26 71.2239 25.7761 71 25.5 71H23.5ZM27.5 71C27.2239 71 27 71.2239 27 71.5C27 71.7761 27.2239 72 27.5 72H29.5C29.7761 72 30 71.7761 30 71.5C30 71.2239 29.7761 71 29.5 71H27.5ZM31.5 71C31.2239 71 31 71.2239 31 71.5C31 71.7761 31.2239 72 31.5 72H33.5C33.7761 72 34 71.7761 34 71.5C34 71.2239 33.7761 71 33.5 71H31.5ZM35.5 71C35.2239 71 35 71.2239 35 71.5C35 71.7761 35.2239 72 35.5 72H37.5C37.7761 72 38 71.7761 38 71.5C38 71.2239 37.7761 71 37.5 71H35.5ZM39.5 71C39.2239 71 39 71.2239 39 71.5C39 71.7761 39.2239 72 39.5 72H41.5C41.7761 72 42 71.7761 42 71.5C42 71.2239 41.7761 71 41.5 71H39.5ZM43.5 71C43.2239 71 43 71.2239 43 71.5C43 71.7761 43.2239 72 43.5 72H45.5C45.7761 72 46 71.7761 46 71.5C46 71.2239 45.7761 71 45.5 71H43.5ZM47.5 71C47.2239 71 47 71.2239 47 71.5C47 71.7761 47.2239 72 47.5 72H49.5C49.7761 72 50 71.7761 50 71.5C50 71.2239 49.7761 71 49.5 71H47.5ZM51.5 71C51.2239 71 51 71.2239 51 71.5C51 71.7761 51.2239 72 51.5 72H53.5C53.7761 72 54 71.7761 54 71.5C54 71.2239 53.7761 71 53.5 71H51.5ZM55.5 71C55.2239 71 55 71.2239 55 71.5C55 71.7761 55.2239 72 55.5 72L57.5 72C57.7761 72 58 71.7761 58 71.5C58 71.2239 57.7761 71 57.5 71L55.5 71ZM59.5 71C59.2239 71 59 71.2239 59 71.5C59 71.7761 59.2239 72 59.5 72H61.5C61.7761 72 62 71.7761 62 71.5C62 71.2239 61.7761 71 61.5 71H59.5ZM63.5 71C63.2239 71 63 71.2239 63 71.5C63 71.7761 63.2239 72 63.5 72H65.5C65.7761 72 66 71.7761 66 71.5C66 71.2239 65.7761 71 65.5 71H63.5ZM67.5 71C67.2239 71 67 71.2239 67 71.5C67 71.7761 67.2239 72 67.5 72H69.5C69.7761 72 70 71.7761 70 71.5C70 71.2239 69.7761 71 69.5 71H67.5ZM71.5 71C71.2239 71 71 71.2239 71 71.5C71 71.7761 71.2239 72 71.5 72H73.5C73.7761 72 74 71.7761 74 71.5C74 71.2239 73.7761 71 73.5 71H71.5ZM75.5 71C75.2239 71 75 71.2239 75 71.5C75 71.7761 75.2239 72 75.5 72H77.5C77.7761 72 78 71.7761 78 71.5C78 71.2239 77.7761 71 77.5 71H75.5ZM79.5 71C79.2239 71 79 71.2239 79 71.5C79 71.7761 79.2239 72 79.5 72H81.5C81.7761 72 82 71.7761 82 71.5C82 71.2239 81.7761 71 81.5 71H79.5ZM83.5 71C83.2239 71 83 71.2239 83 71.5C83 71.7761 83.2239 72 83.5 72H85.5C85.7761 72 86 71.7761 86 71.5C86 71.2239 85.7761 71 85.5 71H83.5ZM87.5 71C87.2239 71 87 71.2239 87 71.5C87 71.7761 87.2239 72 87.5 72H89.5C89.7761 72 90 71.7761 90 71.5C90 71.2239 89.7761 71 89.5 71H87.5ZM91.5 71C91.2239 71 91 71.2239 91 71.5C91 71.7761 91.2239 72 91.5 72H93.5C93.7761 72 94 71.7761 94 71.5C94 71.2239 93.7761 71 93.5 71H91.5ZM95.5 71C95.2239 71 95 71.2239 95 71.5C95 71.7761 95.2239 72 95.5 72H97.5C97.7761 72 98 71.7762 98 71.5C98 71.2239 97.7761 71 97.5 71H95.5ZM99.5 71C99.2239 71 99 71.2239 99 71.5C99 71.7762 99.2239 72 99.5 72H101.5C101.776 72 102 71.7762 102 71.5C102 71.2239 101.776 71 101.5 71H99.5ZM103.5 71C103.224 71 103 71.2239 103 71.5C103 71.7762 103.224 72 103.5 72H105.5C105.776 72 106 71.7762 106 71.5C106 71.2239 105.776 71 105.5 71H103.5ZM107.5 71C107.224 71 107 71.2239 107 71.5C107 71.7762 107.224 72 107.5 72H109.5C109.776 72 110 71.7762 110 71.5C110 71.2239 109.776 71 109.5 71H107.5ZM111.5 71C111.224 71 111 71.2239 111 71.5C111 71.7762 111.224 72 111.5 72H113.5C113.776 72 114 71.7762 114 71.5C114 71.2239 113.776 71 113.5 71H111.5ZM115.5 71C115.224 71 115 71.2239 115 71.5C115 71.7762 115.224 72 115.5 72H117.5C117.776 72 118 71.7762 118 71.5C118 71.2239 117.776 71 117.5 71H115.5ZM119.5 71C119.224 71 119 71.2239 119 71.5C119 71.7762 119.224 72 119.5 72H121.5C121.776 72 122 71.7762 122 71.5C122 71.2239 121.776 71 121.5 71H119.5ZM123.5 71C123.224 71 123 71.2239 123 71.5C123 71.7762 123.224 72 123.5 72H125.5C125.776 72 126 71.7762 126 71.5C126 71.2239 125.776 71 125.5 71H123.5ZM127.5 71C127.224 71 127 71.2239 127 71.5C127 71.7762 127.224 72 127.5 72H129.5C129.776 72 130 71.7762 130 71.5C130 71.2239 129.776 71 129.5 71H127.5ZM131.5 71C131.224 71 131 71.2239 131 71.5C131 71.7762 131.224 72 131.5 72H133.5C133.776 72 134 71.7762 134 71.5C134 71.2239 133.776 71 133.5 71H131.5ZM135.5 71C135.224 71 135 71.2239 135 71.5C135 71.7762 135.224 72 135.5 72H136.5C136.776 72 137 71.7762 137 71.5C137 71.2239 136.776 71 136.5 71H135.5Z" fill="url(#paint0_linear_2_144)"/>
<path d="M22.9294 35.8C23.9 35.8 24.7427 35.96 25.4574 36.28C26.1827 36.6 26.7374 37.0587 27.1214 37.656C27.5054 38.2533 27.6974 38.9627 27.6974 39.784C27.6974 40.5947 27.5054 41.304 27.1214 41.912C26.7374 42.5093 26.1827 42.968 25.4574 43.288C24.7427 43.608 23.9 43.768 22.9294 43.768H20.4014V47H18.3214V35.8H22.9294ZM22.8334 42.008C23.74 42.008 24.428 41.816 24.8974 41.432C25.3667 41.048 25.6014 40.4987 25.6014 39.784C25.6014 39.0693 25.3667 38.52 24.8974 38.136C24.428 37.752 23.74 37.56 22.8334 37.56H20.4014V42.008H22.8334ZM31.2324 39.704C31.8084 38.808 32.8217 38.36 34.2724 38.36V40.264C34.1017 40.232 33.947 40.216 33.8084 40.216C33.0297 40.216 32.4217 40.4453 31.9844 40.904C31.547 41.352 31.3284 42.0027 31.3284 42.856V47H29.3284V38.456H31.2324V39.704ZM39.5549 47.112C38.6909 47.112 37.9122 46.9253 37.2189 46.552C36.5255 46.1787 35.9815 45.6613 35.5869 45C35.2029 44.328 35.0109 43.5707 35.0109 42.728C35.0109 41.8853 35.2029 41.1333 35.5869 40.472C35.9815 39.8107 36.5255 39.2933 37.2189 38.92C37.9122 38.5467 38.6909 38.36 39.5549 38.36C40.4295 38.36 41.2135 38.5467 41.9069 38.92C42.6002 39.2933 43.1389 39.8107 43.5229 40.472C43.9175 41.1333 44.1149 41.8853 44.1149 42.728C44.1149 43.5707 43.9175 44.328 43.5229 45C43.1389 45.6613 42.6002 46.1787 41.9069 46.552C41.2135 46.9253 40.4295 47.112 39.5549 47.112ZM39.5549 45.4C40.2909 45.4 40.8989 45.1547 41.3789 44.664C41.8589 44.1733 42.0989 43.528 42.0989 42.728C42.0989 41.928 41.8589 41.2827 41.3789 40.792C40.8989 40.3013 40.2909 40.056 39.5549 40.056C38.8189 40.056 38.2109 40.3013 37.7309 40.792C37.2615 41.2827 37.0269 41.928 37.0269 42.728C37.0269 43.528 37.2615 44.1733 37.7309 44.664C38.2109 45.1547 38.8189 45.4 39.5549 45.4ZM54.3314 38.456V45.704C54.3314 48.712 52.7954 50.216 49.7234 50.216C48.902 50.216 48.1234 50.1093 47.3874 49.896C46.6514 49.6933 46.0434 49.3947 45.5634 49L46.4594 47.496C46.8327 47.8053 47.302 48.0507 47.8674 48.232C48.4434 48.424 49.0247 48.52 49.6114 48.52C50.55 48.52 51.238 48.3067 51.6754 47.88C52.1127 47.4533 52.3314 46.8027 52.3314 45.928V45.48C51.99 45.8533 51.574 46.136 51.0834 46.328C50.5927 46.52 50.054 46.616 49.4674 46.616C48.6567 46.616 47.9207 46.4453 47.2594 46.104C46.6087 45.752 46.0914 45.2613 45.7074 44.632C45.334 44.0027 45.1474 43.2827 45.1474 42.472C45.1474 41.6613 45.334 40.9467 45.7074 40.328C46.0914 39.6987 46.6087 39.2133 47.2594 38.872C47.9207 38.5307 48.6567 38.36 49.4674 38.36C50.086 38.36 50.646 38.4613 51.1474 38.664C51.6594 38.8667 52.086 39.176 52.4274 39.592V38.456H54.3314ZM49.7714 44.92C50.5287 44.92 51.1474 44.696 51.6274 44.248C52.118 43.7893 52.3634 43.1973 52.3634 42.472C52.3634 41.7573 52.118 41.176 51.6274 40.728C51.1474 40.28 50.5287 40.056 49.7714 40.056C49.0034 40.056 48.374 40.28 47.8834 40.728C47.4034 41.176 47.1634 41.7573 47.1634 42.472C47.1634 43.1973 47.4034 43.7893 47.8834 44.248C48.374 44.696 49.0034 44.92 49.7714 44.92ZM58.6888 39.704C59.2648 38.808 60.2781 38.36 61.7288 38.36V40.264C61.5581 40.232 61.4034 40.216 61.2648 40.216C60.4861 40.216 59.8781 40.4453 59.4408 40.904C59.0034 41.352 58.7848 42.0027 58.7848 42.856V47H56.7848V38.456H58.6888V39.704ZM66.4665 38.36C67.7252 38.36 68.6852 38.664 69.3465 39.272C70.0185 39.8693 70.3545 40.776 70.3545 41.992V47H68.4665V45.96C68.2212 46.3333 67.8692 46.6213 67.4105 46.824C66.9625 47.016 66.4185 47.112 65.7785 47.112C65.1385 47.112 64.5785 47.0053 64.0985 46.792C63.6185 46.568 63.2452 46.264 62.9785 45.88C62.7225 45.4853 62.5945 45.0427 62.5945 44.552C62.5945 43.784 62.8772 43.1707 63.4425 42.712C64.0185 42.2427 64.9198 42.008 66.1465 42.008H68.3545V41.88C68.3545 41.2827 68.1732 40.824 67.8105 40.504C67.4585 40.184 66.9305 40.024 66.2265 40.024C65.7465 40.024 65.2718 40.0987 64.8025 40.248C64.3438 40.3973 63.9545 40.6053 63.6345 40.872L62.8505 39.416C63.2985 39.0747 63.8372 38.8133 64.4665 38.632C65.0958 38.4507 65.7625 38.36 66.4665 38.36ZM66.1945 45.656C66.6958 45.656 67.1385 45.544 67.5225 45.32C67.9172 45.0853 68.1945 44.7547 68.3545 44.328V43.336H66.2905C65.1385 43.336 64.5625 43.7147 64.5625 44.472C64.5625 44.8347 64.7065 45.1227 64.9945 45.336C65.2825 45.5493 65.6825 45.656 66.1945 45.656ZM83.5293 38.36C84.6066 38.36 85.4599 38.6747 86.0893 39.304C86.7186 39.9227 87.0333 40.856 87.0333 42.104V47H85.0333V42.36C85.0333 41.6133 84.8679 41.0533 84.5373 40.68C84.2066 40.296 83.7319 40.104 83.1133 40.104C82.4413 40.104 81.9026 40.328 81.4973 40.776C81.0919 41.2133 80.8893 41.8427 80.8893 42.664V47H78.8893V42.36C78.8893 41.6133 78.7239 41.0533 78.3933 40.68C78.0626 40.296 77.5879 40.104 76.9693 40.104C76.2866 40.104 75.7426 40.3227 75.3373 40.76C74.9426 41.1973 74.7453 41.832 74.7453 42.664V47H72.7453V38.456H74.6493V39.544C74.9693 39.16 75.3693 38.8667 75.8493 38.664C76.3293 38.4613 76.8626 38.36 77.4493 38.36C78.0893 38.36 78.6546 38.4827 79.1453 38.728C79.6466 38.9627 80.0413 39.3147 80.3293 39.784C80.6813 39.336 81.1346 38.9893 81.6893 38.744C82.2439 38.488 82.8573 38.36 83.5293 38.36ZM100.197 38.36C101.274 38.36 102.128 38.6747 102.757 39.304C103.386 39.9227 103.701 40.856 103.701 42.104V47H101.701V42.36C101.701 41.6133 101.536 41.0533 101.205 40.68C100.874 40.296 100.4 40.104 99.781 40.104C99.109 40.104 98.5703 40.328 98.165 40.776C97.7597 41.2133 97.557 41.8427 97.557 42.664V47H95.557V42.36C95.557 41.6133 95.3917 41.0533 95.061 40.68C94.7303 40.296 94.2557 40.104 93.637 40.104C92.9543 40.104 92.4103 40.3227 92.005 40.76C91.6103 41.1973 91.413 41.832 91.413 42.664V47H89.413V38.456H91.317V39.544C91.637 39.16 92.037 38.8667 92.517 38.664C92.997 38.4613 93.5303 38.36 94.117 38.36C94.757 38.36 95.3223 38.4827 95.813 38.728C96.3143 38.9627 96.709 39.3147 96.997 39.784C97.349 39.336 97.8023 38.9893 98.357 38.744C98.9117 38.488 99.525 38.36 100.197 38.36ZM106.081 38.456H108.081V47H106.081V38.456ZM107.089 37.048C106.726 37.048 106.422 36.936 106.177 36.712C105.931 36.4773 105.809 36.1893 105.809 35.848C105.809 35.5067 105.931 35.224 106.177 35C106.422 34.7653 106.726 34.648 107.089 34.648C107.451 34.648 107.755 34.76 108.001 34.984C108.246 35.1973 108.369 35.4693 108.369 35.8C108.369 36.152 108.246 36.4507 108.001 36.696C107.766 36.9307 107.462 37.048 107.089 37.048ZM115.378 38.36C116.455 38.36 117.319 38.6747 117.97 39.304C118.62 39.9333 118.946 40.8667 118.946 42.104V47H116.946V42.36C116.946 41.6133 116.77 41.0533 116.418 40.68C116.066 40.296 115.564 40.104 114.914 40.104C114.178 40.104 113.596 40.328 113.17 40.776C112.743 41.2133 112.53 41.848 112.53 42.68V47H110.53V38.456H112.434V39.56C112.764 39.1653 113.18 38.8667 113.682 38.664C114.183 38.4613 114.748 38.36 115.378 38.36ZM129.865 38.456V45.704C129.865 48.712 128.329 50.216 125.257 50.216C124.436 50.216 123.657 50.1093 122.921 49.896C122.185 49.6933 121.577 49.3947 121.097 49L121.993 47.496C122.366 47.8053 122.836 48.0507 123.401 48.232C123.977 48.424 124.558 48.52 125.145 48.52C126.084 48.52 126.772 48.3067 127.209 47.88C127.646 47.4533 127.865 46.8027 127.865 45.928V45.48C127.524 45.8533 127.108 46.136 126.617 46.328C126.126 46.52 125.588 46.616 125.001 46.616C124.19 46.616 123.454 46.4453 122.793 46.104C122.142 45.752 121.625 45.2613 121.241 44.632C120.868 44.0027 120.681 43.2827 120.681 42.472C120.681 41.6613 120.868 40.9467 121.241 40.328C121.625 39.6987 122.142 39.2133 122.793 38.872C123.454 38.5307 124.19 38.36 125.001 38.36C125.62 38.36 126.18 38.4613 126.681 38.664C127.193 38.8667 127.62 39.176 127.961 39.592V38.456H129.865ZM125.305 44.92C126.062 44.92 126.681 44.696 127.161 44.248C127.652 43.7893 127.897 43.1973 127.897 42.472C127.897 41.7573 127.652 41.176 127.161 40.728C126.681 40.28 126.062 40.056 125.305 40.056C124.537 40.056 123.908 40.28 123.417 40.728C122.937 41.176 122.697 41.7573 122.697 42.472C122.697 43.1973 122.937 43.7893 123.417 44.248C123.908 44.696 124.537 44.92 125.305 44.92Z" fill="#DEE6EE"/>
<line x1="16" y1="4" x2="133" y2="4" stroke="#760B0B" stroke-width="2" stroke-linecap="round"/>
<line x1="16" y1="77" x2="133" y2="77" stroke="#760B0B" stroke-width="2" stroke-linecap="round"/>
<defs>
<linearGradient id="paint0_linear_2_144" x1="174.609" y1="94.9219" x2="97.1349" y2="-55.1937" gradientUnits="userSpaceOnUse">
<stop stop-color="#04091C"/>
<stop offset="1" stop-color="#164F85"/>
</linearGradient>
</defs>
</svg>
