<svg width="340" height="696" viewBox="0 0 340 696" fill="none" xmlns="http://www.w3.org/2000/svg">
<path fill-rule="evenodd" clip-rule="evenodd" d="M253.132 696H280.22C280.22 657.197 306.984 625.741 340 625.741V70.2587C306.984 70.2587 280.22 38.8028 280.22 0L252.198 3.34158e-07C252.198 12.1259 243.834 21.9558 233.516 21.9558C223.199 21.9558 214.835 12.1259 214.835 7.79703e-07L191.484 1.05817e-06C191.484 12.1259 183.12 21.9558 172.802 21.9558C162.485 21.9558 154.121 12.1259 154.121 3.34159e-06H128.901C128.901 12.1259 120.537 21.9558 110.22 21.9558C99.9024 21.9558 91.5385 12.1259 91.5385 3.34159e-06H59.7802C59.7802 38.8028 33.0157 70.2587 0 70.2587L7.46189e-06 625.741C33.0157 625.741 59.7802 657.197 59.7802 696L92.4725 696C92.4725 683.874 100.836 674.044 111.154 674.044C121.471 674.044 129.835 683.874 129.835 696H155.055C155.055 683.874 163.419 674.044 173.736 674.044C184.054 674.044 192.418 683.874 192.418 696H215.769C215.769 683.874 224.133 674.044 234.451 674.044C244.768 674.044 253.132 683.874 253.132 696ZM22.5 66C23.3284 66 24 66.6716 24 67.5V70.484C24 71.3125 23.3284 71.984 22.5 71.984C21.6716 71.984 21 71.3125 21 70.484V67.5C21 66.6716 21.6716 66 22.5 66ZM22.5 74.9521C23.3284 74.9521 24 75.6237 24 76.4521V82.4202C24 83.2486 23.3284 83.9202 22.5 83.9202C21.6716 83.9202 21 83.2486 21 82.4202V76.4521C21 75.6237 21.6716 74.9521 22.5 74.9521ZM22.5 86.8883C23.3284 86.8883 24 87.5599 24 88.3883V94.3564C24 95.1848 23.3284 95.8564 22.5 95.8564C21.6716 95.8564 21 95.1848 21 94.3564V88.3883C21 87.5599 21.6716 86.8883 22.5 86.8883ZM22.5 98.8245C23.3284 98.8245 24 99.496 24 100.324V106.293C24 107.121 23.3284 107.793 22.5 107.793C21.6716 107.793 21 107.121 21 106.293V100.324C21 99.4961 21.6716 98.8245 22.5 98.8245ZM22.5 110.761C23.3284 110.761 24 111.432 24 112.261V118.229C24 119.057 23.3284 119.729 22.5 119.729C21.6716 119.729 21 119.057 21 118.229V112.261C21 111.432 21.6716 110.761 22.5 110.761ZM22.5 122.697C23.3284 122.697 24 123.368 24 124.197V130.165C24 130.993 23.3284 131.665 22.5 131.665C21.6716 131.665 21 130.993 21 130.165V124.197C21 123.368 21.6716 122.697 22.5 122.697ZM22.5 134.633C23.3284 134.633 24 135.305 24 136.133V142.101C24 142.929 23.3284 143.601 22.5 143.601C21.6716 143.601 21 142.93 21 142.101V136.133C21 135.305 21.6716 134.633 22.5 134.633ZM22.5 146.569C23.3284 146.569 24 147.241 24 148.069V154.037C24 154.866 23.3284 155.537 22.5 155.537C21.6716 155.537 21 154.866 21 154.037V148.069C21 147.241 21.6716 146.569 22.5 146.569ZM22.5 158.505C23.3284 158.505 24 159.177 24 160.005V165.973C24 166.802 23.3284 167.473 22.5 167.473C21.6716 167.473 21 166.802 21 165.973V160.005C21 159.177 21.6716 158.505 22.5 158.505ZM22.5 170.442C23.3284 170.442 24 171.113 24 171.942L24 177.91C24 178.738 23.3284 179.41 22.5 179.41C21.6716 179.41 21 178.738 21 177.91L21 171.942C21 171.113 21.6716 170.442 22.5 170.442ZM22.5 182.378C23.3284 182.378 24 183.049 24 183.878V189.846C24 190.674 23.3284 191.346 22.5 191.346C21.6716 191.346 21 190.674 21 189.846V183.878C21 183.049 21.6716 182.378 22.5 182.378ZM22.5 194.314C23.3284 194.314 24 194.985 24 195.814V201.782C24 202.61 23.3284 203.282 22.5 203.282C21.6716 203.282 21 202.61 21 201.782V195.814C21 194.985 21.6716 194.314 22.5 194.314ZM22.5 206.25C23.3284 206.25 24 206.922 24 207.75V213.718C24 214.547 23.3284 215.218 22.5 215.218C21.6716 215.218 21 214.547 21 213.718V207.75C21 206.922 21.6716 206.25 22.5 206.25ZM22.5 218.186C23.3284 218.186 24 218.858 24 219.686V225.654C24 226.483 23.3284 227.154 22.5 227.154C21.6716 227.154 21 226.483 21 225.654V219.686C21 218.858 21.6716 218.186 22.5 218.186ZM22.5 230.122C23.3284 230.122 24 230.794 24 231.622V237.59C24 238.419 23.3284 239.09 22.5 239.09C21.6716 239.09 21 238.419 21 237.59V231.622C21 230.794 21.6716 230.122 22.5 230.122ZM22.5 242.058C23.3284 242.058 24 242.73 24 243.558V249.527C24 250.355 23.3284 251.027 22.5 251.027C21.6716 251.027 21 250.355 21 249.527V243.558C21 242.73 21.6716 242.058 22.5 242.058ZM22.5 253.995C23.3284 253.995 24 254.666 24 255.495V261.463C24 262.291 23.3284 262.963 22.5 262.963C21.6716 262.963 21 262.291 21 261.463V255.495C21 254.666 21.6716 253.995 22.5 253.995ZM22.5 265.931C23.3284 265.931 24 266.602 24 267.431V273.399C24 274.227 23.3284 274.899 22.5 274.899C21.6716 274.899 21 274.227 21 273.399V267.431C21 266.602 21.6716 265.931 22.5 265.931ZM22.5 277.867C23.3284 277.867 24 278.539 24 279.367V285.335C24 286.163 23.3284 286.835 22.5 286.835C21.6716 286.835 21 286.163 21 285.335V279.367C21 278.539 21.6716 277.867 22.5 277.867ZM22.5 289.803C23.3284 289.803 24 290.475 24 291.303V297.271C24 298.1 23.3284 298.771 22.5 298.771C21.6716 298.771 21 298.1 21 297.271V291.303C21 290.475 21.6716 289.803 22.5 289.803ZM22.5 301.739C23.3284 301.739 24 302.411 24 303.239L24 309.207C24 310.036 23.3284 310.707 22.5 310.707C21.6716 310.707 21 310.036 21 309.207L21 303.239C21 302.411 21.6716 301.739 22.5 301.739ZM22.5 313.675C23.3284 313.675 24 314.347 24 315.175V321.143C24 321.972 23.3284 322.643 22.5 322.643C21.6716 322.643 21 321.972 21 321.143V315.175C21 314.347 21.6716 313.675 22.5 313.675ZM22.5 325.612C23.3284 325.612 24 326.283 24 327.112V333.08C24 333.908 23.3284 334.58 22.5 334.58C21.6716 334.58 21 333.908 21 333.08V327.112C21 326.283 21.6716 325.612 22.5 325.612ZM22.5 337.548C23.3284 337.548 24 338.219 24 339.048V345.016C24 345.844 23.3284 346.516 22.5 346.516C21.6716 346.516 21 345.844 21 345.016V339.048C21 338.219 21.6716 337.548 22.5 337.548ZM22.5 349.484C23.3284 349.484 24 350.155 24 350.984V356.952C24 357.78 23.3284 358.452 22.5 358.452C21.6716 358.452 21 357.78 21 356.952V350.984C21 350.155 21.6716 349.484 22.5 349.484ZM22.5 361.42C23.3284 361.42 24 362.092 24 362.92V368.888C24 369.717 23.3284 370.388 22.5 370.388C21.6716 370.388 21 369.717 21 368.888V362.92C21 362.092 21.6716 361.42 22.5 361.42ZM22.5 373.356C23.3284 373.356 24 374.028 24 374.856V380.824C24 381.653 23.3284 382.324 22.5 382.324C21.6716 382.324 21 381.653 21 380.824V374.856C21 374.028 21.6716 373.356 22.5 373.356ZM22.5 385.292C23.3284 385.292 24 385.964 24 386.792V392.76C24 393.589 23.3284 394.26 22.5 394.26C21.6716 394.26 21 393.589 21 392.76V386.792C21 385.964 21.6716 385.292 22.5 385.292ZM22.5 397.228C23.3284 397.228 24 397.9 24 398.728V404.697C24 405.525 23.3284 406.197 22.5 406.197C21.6716 406.197 21 405.525 21 404.697V398.728C21 397.9 21.6716 397.228 22.5 397.228ZM22.5 409.165C23.3284 409.165 24 409.836 24 410.665V416.633C24 417.461 23.3284 418.133 22.5 418.133C21.6716 418.133 21 417.461 21 416.633V410.665C21 409.836 21.6716 409.165 22.5 409.165ZM22.5 421.101C23.3284 421.101 24 421.772 24 422.601V428.569C24 429.397 23.3284 430.069 22.5 430.069C21.6716 430.069 21 429.397 21 428.569V422.601C21 421.772 21.6716 421.101 22.5 421.101ZM22.5 433.037C23.3284 433.037 24 433.709 24 434.537L24 440.505C24 441.333 23.3284 442.005 22.5 442.005C21.6716 442.005 21 441.333 21 440.505L21 434.537C21 433.709 21.6716 433.037 22.5 433.037ZM22.5 444.973C23.3284 444.973 24 445.645 24 446.473V452.441C24 453.27 23.3284 453.941 22.5 453.941C21.6716 453.941 21 453.27 21 452.441V446.473C21 445.645 21.6716 444.973 22.5 444.973ZM22.5 456.909C23.3284 456.909 24 457.581 24 458.409V464.377C24 465.206 23.3284 465.877 22.5 465.877C21.6716 465.877 21 465.206 21 464.377V458.409C21 457.581 21.6716 456.909 22.5 456.909ZM22.5 468.845C23.3284 468.845 24 469.517 24 470.345V476.314C24 477.142 23.3284 477.814 22.5 477.814C21.6716 477.814 21 477.142 21 476.314V470.345C21 469.517 21.6716 468.845 22.5 468.845ZM22.5 480.782C23.3284 480.782 24 481.453 24 482.282V488.25C24 489.078 23.3284 489.75 22.5 489.75C21.6716 489.75 21 489.078 21 488.25V482.282C21 481.453 21.6716 480.782 22.5 480.782ZM22.5 492.718C23.3284 492.718 24 493.389 24 494.218V500.186C24 501.014 23.3284 501.686 22.5 501.686C21.6716 501.686 21 501.014 21 500.186V494.218C21 493.389 21.6716 492.718 22.5 492.718ZM22.5 504.654C23.3284 504.654 24 505.326 24 506.154V512.122C24 512.95 23.3284 513.622 22.5 513.622C21.6716 513.622 21 512.95 21 512.122V506.154C21 505.326 21.6716 504.654 22.5 504.654ZM22.5 516.59C23.3284 516.59 24 517.262 24 518.09V524.058C24 524.887 23.3284 525.558 22.5 525.558C21.6716 525.558 21 524.887 21 524.058V518.09C21 517.262 21.6716 516.59 22.5 516.59ZM22.5 528.526C23.3284 528.526 24 529.198 24 530.026V535.994C24 536.823 23.3284 537.494 22.5 537.494C21.6716 537.494 21 536.823 21 535.994V530.026C21 529.198 21.6716 528.526 22.5 528.526ZM22.5 540.462C23.3284 540.462 24 541.134 24 541.962V547.93C24 548.759 23.3284 549.43 22.5 549.43C21.6716 549.43 21 548.759 21 547.93V541.962C21 541.134 21.6716 540.462 22.5 540.462ZM22.5 552.399C23.3284 552.399 24 553.07 24 553.899V559.867C24 560.695 23.3284 561.367 22.5 561.367C21.6716 561.367 21 560.695 21 559.867V553.899C21 553.07 21.6716 552.399 22.5 552.399ZM22.5 564.335C23.3284 564.335 24 565.006 24 565.835L24 571.803C24 572.631 23.3284 573.303 22.5 573.303C21.6716 573.303 21 572.631 21 571.803L21 565.835C21 565.006 21.6716 564.335 22.5 564.335ZM22.5 576.271C23.3284 576.271 24 576.942 24 577.771V583.739C24 584.567 23.3284 585.239 22.5 585.239C21.6716 585.239 21 584.567 21 583.739V577.771C21 576.942 21.6716 576.271 22.5 576.271ZM22.5 588.207C23.3284 588.207 24 588.879 24 589.707V595.675C24 596.504 23.3285 597.175 22.5 597.175C21.6716 597.175 21 596.504 21 595.675V589.707C21 588.879 21.6716 588.207 22.5 588.207ZM22.5 600.143C23.3285 600.143 24 600.815 24 601.643V607.611C24 608.44 23.3285 609.111 22.5 609.111C21.6716 609.111 21 608.44 21 607.611V601.643C21 600.815 21.6716 600.143 22.5 600.143ZM22.5 612.079C23.3285 612.079 24 612.751 24 613.579V619.547C24 620.376 23.3285 621.047 22.5 621.047C21.6716 621.047 21 620.376 21 619.547V613.579C21 612.751 21.6716 612.079 22.5 612.079ZM22.5 624.016C23.3285 624.016 24 624.687 24 625.516V628.5C24 629.328 23.3285 630 22.5 630C21.6716 630 21 629.328 21 628.5V625.516C21 624.687 21.6716 624.016 22.5 624.016ZM319 67.5C319 66.6716 318.328 66 317.5 66C316.672 66 316 66.6716 316 67.5V70.484C316 71.3125 316.672 71.984 317.5 71.984C318.328 71.984 319 71.3125 319 70.484V67.5ZM319 76.4521C319 75.6237 318.328 74.9521 317.5 74.9521C316.672 74.9521 316 75.6237 316 76.4521V82.4202C316 83.2486 316.672 83.9202 317.5 83.9202C318.328 83.9202 319 83.2486 319 82.4202V76.4521ZM319 88.3883C319 87.5599 318.328 86.8883 317.5 86.8883C316.672 86.8883 316 87.5599 316 88.3883V94.3564C316 95.1848 316.672 95.8564 317.5 95.8564C318.328 95.8564 319 95.1848 319 94.3564V88.3883ZM319 100.324C319 99.496 318.328 98.8245 317.5 98.8245C316.672 98.8245 316 99.4961 316 100.324V106.293C316 107.121 316.672 107.793 317.5 107.793C318.328 107.793 319 107.121 319 106.293V100.324ZM319 112.261C319 111.432 318.328 110.761 317.5 110.761C316.672 110.761 316 111.432 316 112.261V118.229C316 119.057 316.672 119.729 317.5 119.729C318.328 119.729 319 119.057 319 118.229V112.261ZM319 124.197C319 123.368 318.328 122.697 317.5 122.697C316.672 122.697 316 123.368 316 124.197V130.165C316 130.993 316.672 131.665 317.5 131.665C318.328 131.665 319 130.993 319 130.165V124.197ZM319 136.133C319 135.305 318.328 134.633 317.5 134.633C316.672 134.633 316 135.305 316 136.133V142.101C316 142.93 316.672 143.601 317.5 143.601C318.328 143.601 319 142.929 319 142.101V136.133ZM319 148.069C319 147.241 318.328 146.569 317.5 146.569C316.672 146.569 316 147.241 316 148.069V154.037C316 154.866 316.672 155.537 317.5 155.537C318.328 155.537 319 154.866 319 154.037V148.069ZM319 160.005C319 159.177 318.328 158.505 317.5 158.505C316.672 158.505 316 159.177 316 160.005V165.973C316 166.802 316.672 167.473 317.5 167.473C318.328 167.473 319 166.802 319 165.973V160.005ZM319 171.942C319 171.113 318.328 170.442 317.5 170.442C316.672 170.442 316 171.113 316 171.942V177.91C316 178.738 316.672 179.41 317.5 179.41C318.328 179.41 319 178.738 319 177.91V171.942ZM319 183.878C319 183.049 318.328 182.378 317.5 182.378C316.672 182.378 316 183.049 316 183.878V189.846C316 190.674 316.672 191.346 317.5 191.346C318.328 191.346 319 190.674 319 189.846V183.878ZM319 195.814C319 194.985 318.328 194.314 317.5 194.314C316.672 194.314 316 194.985 316 195.814V201.782C316 202.61 316.672 203.282 317.5 203.282C318.328 203.282 319 202.61 319 201.782V195.814ZM319 207.75C319 206.922 318.328 206.25 317.5 206.25C316.672 206.25 316 206.922 316 207.75V213.718C316 214.547 316.672 215.218 317.5 215.218C318.328 215.218 319 214.547 319 213.718V207.75ZM319 219.686C319 218.858 318.328 218.186 317.5 218.186C316.672 218.186 316 218.858 316 219.686V225.654C316 226.483 316.672 227.154 317.5 227.154C318.328 227.154 319 226.483 319 225.654V219.686ZM319 231.622C319 230.794 318.328 230.122 317.5 230.122C316.672 230.122 316 230.794 316 231.622V237.59C316 238.419 316.672 239.09 317.5 239.09C318.328 239.09 319 238.419 319 237.59V231.622ZM319 243.558C319 242.73 318.328 242.058 317.5 242.058C316.672 242.058 316 242.73 316 243.558V249.527C316 250.355 316.672 251.027 317.5 251.027C318.328 251.027 319 250.355 319 249.527V243.558ZM319 255.495C319 254.666 318.328 253.995 317.5 253.995C316.672 253.995 316 254.666 316 255.495V261.463C316 262.291 316.672 262.963 317.5 262.963C318.328 262.963 319 262.291 319 261.463V255.495ZM319 267.431C319 266.602 318.328 265.931 317.5 265.931C316.672 265.931 316 266.602 316 267.431V273.399C316 274.227 316.672 274.899 317.5 274.899C318.328 274.899 319 274.227 319 273.399V267.431ZM319 279.367C319 278.539 318.328 277.867 317.5 277.867C316.672 277.867 316 278.539 316 279.367V285.335C316 286.163 316.672 286.835 317.5 286.835C318.328 286.835 319 286.163 319 285.335V279.367ZM319 291.303C319 290.475 318.328 289.803 317.5 289.803C316.672 289.803 316 290.475 316 291.303V297.271C316 298.1 316.672 298.771 317.5 298.771C318.328 298.771 319 298.1 319 297.271V291.303ZM319 303.239C319 302.411 318.328 301.739 317.5 301.739C316.672 301.739 316 302.411 316 303.239V309.207C316 310.036 316.672 310.707 317.5 310.707C318.328 310.707 319 310.036 319 309.207V303.239ZM319 315.175C319 314.347 318.328 313.675 317.5 313.675C316.672 313.675 316 314.347 316 315.175V321.143C316 321.972 316.672 322.643 317.5 322.643C318.328 322.643 319 321.972 319 321.143V315.175ZM319 327.112C319 326.283 318.328 325.612 317.5 325.612C316.672 325.612 316 326.283 316 327.112V333.08C316 333.908 316.672 334.58 317.5 334.58C318.328 334.58 319 333.908 319 333.08V327.112ZM319 339.048C319 338.219 318.328 337.548 317.5 337.548C316.672 337.548 316 338.219 316 339.048V345.016C316 345.844 316.672 346.516 317.5 346.516C318.328 346.516 319 345.844 319 345.016V339.048ZM319 350.984C319 350.155 318.328 349.484 317.5 349.484C316.672 349.484 316 350.155 316 350.984V356.952C316 357.78 316.672 358.452 317.5 358.452C318.328 358.452 319 357.78 319 356.952V350.984ZM319 362.92C319 362.092 318.328 361.42 317.5 361.42C316.672 361.42 316 362.092 316 362.92V368.888C316 369.717 316.672 370.388 317.5 370.388C318.328 370.388 319 369.717 319 368.888V362.92ZM319 374.856C319 374.028 318.328 373.356 317.5 373.356C316.672 373.356 316 374.028 316 374.856V380.824C316 381.653 316.672 382.324 317.5 382.324C318.328 382.324 319 381.653 319 380.824V374.856ZM319 386.792C319 385.964 318.328 385.292 317.5 385.292C316.672 385.292 316 385.964 316 386.792V392.76C316 393.589 316.672 394.26 317.5 394.26C318.328 394.26 319 393.589 319 392.76V386.792ZM319 398.728C319 397.9 318.328 397.228 317.5 397.228C316.672 397.228 316 397.9 316 398.728V404.697C316 405.525 316.672 406.197 317.5 406.197C318.328 406.197 319 405.525 319 404.697V398.728ZM319 410.665C319 409.836 318.328 409.165 317.5 409.165C316.672 409.165 316 409.836 316 410.665L316 416.633C316 417.461 316.672 418.133 317.5 418.133C318.328 418.133 319 417.461 319 416.633L319 410.665ZM319 422.601C319 421.772 318.328 421.101 317.5 421.101C316.672 421.101 316 421.772 316 422.601V428.569C316 429.397 316.672 430.069 317.5 430.069C318.328 430.069 319 429.397 319 428.569V422.601ZM319 434.537C319 433.709 318.328 433.037 317.5 433.037C316.672 433.037 316 433.709 316 434.537V440.505C316 441.333 316.672 442.005 317.5 442.005C318.328 442.005 319 441.333 319 440.505V434.537ZM319 446.473C319 445.645 318.328 444.973 317.5 444.973C316.672 444.973 316 445.645 316 446.473V452.441C316 453.27 316.672 453.941 317.5 453.941C318.328 453.941 319 453.27 319 452.441V446.473ZM319 458.409C319 457.581 318.328 456.909 317.5 456.909C316.672 456.909 316 457.581 316 458.409V464.377C316 465.206 316.672 465.877 317.5 465.877C318.328 465.877 319 465.206 319 464.377V458.409ZM319 470.345C319 469.517 318.328 468.845 317.5 468.845C316.672 468.845 316 469.517 316 470.345V476.314C316 477.142 316.672 477.814 317.5 477.814C318.328 477.814 319 477.142 319 476.314V470.345ZM319 482.282C319 481.453 318.328 480.782 317.5 480.782C316.672 480.782 316 481.453 316 482.282V488.25C316 489.078 316.672 489.75 317.5 489.75C318.328 489.75 319 489.078 319 488.25V482.282ZM319 494.218C319 493.389 318.328 492.718 317.5 492.718C316.672 492.718 316 493.389 316 494.218V500.186C316 501.014 316.672 501.686 317.5 501.686C318.328 501.686 319 501.014 319 500.186V494.218ZM319 506.154C319 505.326 318.328 504.654 317.5 504.654C316.672 504.654 316 505.326 316 506.154V512.122C316 512.95 316.672 513.622 317.5 513.622C318.328 513.622 319 512.95 319 512.122V506.154ZM319 518.09C319 517.262 318.328 516.59 317.5 516.59C316.672 516.59 316 517.262 316 518.09V524.058C316 524.887 316.672 525.558 317.5 525.558C318.328 525.558 319 524.887 319 524.058V518.09ZM319 530.026C319 529.198 318.328 528.526 317.5 528.526C316.672 528.526 316 529.198 316 530.026V535.994C316 536.823 316.672 537.494 317.5 537.494C318.328 537.494 319 536.823 319 535.994V530.026ZM319 541.962C319 541.134 318.328 540.462 317.5 540.462C316.672 540.462 316 541.134 316 541.962V547.93C316 548.759 316.672 549.43 317.5 549.43C318.328 549.43 319 548.759 319 547.93V541.962ZM319 553.899C319 553.07 318.328 552.399 317.5 552.399C316.672 552.399 316 553.07 316 553.899V559.867C316 560.695 316.672 561.367 317.5 561.367C318.328 561.367 319 560.695 319 559.867V553.899ZM319 565.835C319 565.006 318.328 564.335 317.5 564.335C316.672 564.335 316 565.006 316 565.835V571.803C316 572.631 316.672 573.303 317.5 573.303C318.328 573.303 319 572.631 319 571.803V565.835ZM319 577.771C319 576.942 318.328 576.271 317.5 576.271C316.672 576.271 316 576.942 316 577.771V583.739C316 584.567 316.672 585.239 317.5 585.239C318.328 585.239 319 584.567 319 583.739V577.771ZM319 589.707C319 588.879 318.328 588.207 317.5 588.207C316.672 588.207 316 588.879 316 589.707V595.675C316 596.504 316.672 597.175 317.5 597.175C318.328 597.175 319 596.504 319 595.675V589.707ZM319 601.643C319 600.815 318.328 600.143 317.5 600.143C316.672 600.143 316 600.815 316 601.643V607.611C316 608.44 316.672 609.111 317.5 609.111C318.328 609.111 319 608.44 319 607.611V601.643ZM319 613.579C319 612.751 318.328 612.079 317.5 612.079C316.672 612.079 316 612.751 316 613.579V619.547C316 620.376 316.672 621.047 317.5 621.047C318.328 621.047 319 620.376 319 619.547V613.579ZM319 625.516C319 624.687 318.328 624.016 317.5 624.016C316.672 624.016 316 624.687 316 625.516V628.5C316 629.328 316.672 630 317.5 630C318.328 630 319 629.328 319 628.5V625.516Z" fill="url(#paint0_linear_1032_6496)"/>
<line x1="10.5" y1="72.5" x2="10.5" y2="623.5" stroke="#760B0B" stroke-width="5" stroke-linecap="round"/>
<line x1="329.5" y1="72.5" x2="329.5" y2="623.5" stroke="#760B0B" stroke-width="5" stroke-linecap="round"/>
<defs>
<linearGradient id="paint0_linear_1032_6496" x1="398.438" y1="815.625" x2="-258.267" y2="511.064" gradientUnits="userSpaceOnUse">
<stop stop-color="#04091C"/>
<stop offset="1" stop-color="#164F85"/>
</linearGradient>
</defs>
</svg>
