<svg width="150" height="105" viewBox="0 0 150 105" fill="none" xmlns="http://www.w3.org/2000/svg">
<path fill-rule="evenodd" clip-rule="evenodd" d="M135 11.25V63.75C135 65.8211 133.321 67.5 131.25 67.5C129.179 67.5 127.5 65.8211 127.5 63.75V11.25C127.5 9.1779 125.823 7.5 123.75 7.5H26.2501C24.1768 7.5 22.5001 9.1779 22.5001 11.25V75.0001H60.2345H90.2345H112.5V22.4413H37.4999V63.4213C37.4999 65.4924 35.8209 67.1713 33.7499 67.1713C31.6788 67.1713 29.9999 65.4924 29.9999 63.4213V20.1913C29.9999 17.2874 32.3541 14.9413 35.2499 14.9413H114.75C117.646 14.9413 120 17.2874 120 20.1913V75.0001H142.5C146.641 75.0001 150 78.3591 150 82.5001V90.0001C150 98.2865 143.283 105 135 105H15C6.71673 105 0 98.2865 0 90.0001V82.5001C0 78.3591 3.35893 75.0001 7.5 75.0001H15.0001V11.25C15.0001 5.03692 20.0335 0 26.2501 0H123.75C129.967 0 135 5.03692 135 11.25ZM60.2345 82.5V86.2501C60.2345 88.3201 61.9145 90.0001 63.9845 90.0001H86.4845C88.5545 90.0001 90.2345 88.3201 90.2345 86.2501V82.5H142.5V90C142.5 94.1435 139.142 97.5 135 97.5H15C10.8581 97.5 7.50005 94.1435 7.50005 90V82.5H15.0001V86.25C15.0001 88.3211 16.679 90 18.7501 90C20.8212 90 22.5001 88.3211 22.5001 86.25V82.5H60.2345Z" fill="white"/>
</svg>
