<svg width="122" height="122" viewBox="0 0 122 122" fill="none" xmlns="http://www.w3.org/2000/svg">
<circle cx="60.6083" cy="60.6083" r="60.6083" fill="url(#paint0_linear_168:1354)"/>
<path fill-rule="evenodd" clip-rule="evenodd" d="M81.8849 83.8029V56.4188C81.8849 55.5736 82.5633 54.8885 83.4001 54.8885C84.237 54.8885 84.9153 55.5736 84.9153 56.4188V83.8029C84.9153 87.6164 80.5802 89.7672 77.4614 87.3238L71.6257 81.5884L66.4579 76.629C66.1716 76.3553 65.7954 76.2032 65.4092 76.2032L37.356 76.2153L34.8334 76.1848C32.3242 76.1573 30.3042 74.0945 30.3042 71.5601V37.926C30.3042 35.3905 32.338 33.335 34.8498 33.335H86.3669C88.8765 33.335 90.9125 35.3913 90.9125 37.926V74.6545C90.9125 75.4997 90.2341 76.1848 89.3973 76.1848C88.5605 76.1848 87.8821 75.4997 87.8821 74.6545V37.926C87.8821 37.0817 87.2029 36.3957 86.3669 36.3957H34.8498C34.0121 36.3957 33.3346 37.0804 33.3346 37.926V71.5601C33.3346 72.4172 34.0179 73.1149 34.868 73.1242L37.3735 73.1547L65.4085 73.1425C66.5722 73.1425 67.6933 73.5957 68.5432 74.4082L73.7261 79.3822L79.4438 85.0155C80.4396 85.7916 81.8849 85.0745 81.8849 83.8029ZM70.692 54.2293C63.0303 61.9676 50.6069 61.9676 42.9452 54.2293C42.3535 53.6317 42.3535 52.6627 42.9452 52.0651C43.5369 51.4675 44.4963 51.4675 45.088 52.0651C51.5663 58.6081 62.071 58.6081 68.5492 52.0651C69.1409 51.4675 70.1003 51.4675 70.692 52.0651C71.2838 52.6627 71.2838 53.6317 70.692 54.2293Z" fill="white"/>
<defs>
<linearGradient id="paint0_linear_168:1354" x1="142.051" y1="142.051" x2="2.15906e-06" y2="-7.57604" gradientUnits="userSpaceOnUse">
<stop stop-color="#04091C"/>
<stop offset="1" stop-color="#164F85"/>
</linearGradient>
</defs>
</svg>
