<svg width="122" height="122" viewBox="0 0 122 122" fill="none" xmlns="http://www.w3.org/2000/svg">
<circle cx="60.6083" cy="60.6083" r="60.6083" fill="url(#paint0_linear_168:1353)"/>
<path fill-rule="evenodd" clip-rule="evenodd" d="M62.7896 42.9146V49.9651C62.7896 50.7527 62.1112 51.3912 61.2744 51.3912C60.4376 51.3912 59.7592 50.7527 59.7592 49.9651V47.1141H35.5456C34.7084 47.1141 34.0304 47.7518 34.0304 48.5402V65.6132C34.0304 66.4008 33.352 67.0393 32.5152 67.0393C31.6784 67.0393 31 66.4008 31 65.6132V48.5402C31 46.1761 33.0352 44.262 35.5456 44.262H59.7592V42.9146C59.7592 38.2316 62.9931 35.6787 67.4443 35.6787C70.6608 35.6787 71.9415 34.1908 71.9415 31.4261C71.9415 30.6385 72.6199 30 73.4567 30C74.2935 30 74.9719 30.6385 74.9719 31.4261C74.9719 35.6493 72.4916 38.5308 67.4443 38.5308C64.5604 38.5308 62.7896 39.9287 62.7896 42.9146ZM67.3074 47.1128H87.0627C87.8999 47.1128 88.5779 47.7504 88.5779 48.5389V74.2083C88.5779 74.9968 87.8999 75.6344 87.0627 75.6344H35.5456C34.7084 75.6344 34.0304 74.9968 34.0304 74.2083V71.4189C34.0304 70.6313 33.352 69.9928 32.5152 69.9928C31.6784 69.9928 31 70.6313 31 71.4189V74.2083C31 76.5724 33.0352 78.4866 35.5456 78.4866H87.0627C89.5731 78.4866 91.6083 76.5724 91.6083 74.2083V48.5389C91.6083 46.1748 89.5731 44.2606 87.0627 44.2606H67.3074C66.4706 44.2606 65.7922 44.8991 65.7922 45.6867C65.7922 46.4743 66.4706 47.1128 67.3074 47.1128ZM70.3954 64.2256C72.0682 64.2256 73.4258 62.9478 73.4258 61.3734C73.4258 59.799 72.0682 58.5212 70.3954 58.5212C68.7226 58.5212 67.365 59.799 67.365 61.3734C67.365 62.9478 68.7226 64.2256 70.3954 64.2256ZM85.5475 61.3734C85.5475 62.9478 84.1899 64.2256 82.5171 64.2256C80.8443 64.2256 79.4867 62.9478 79.4867 61.3734C79.4867 59.799 80.8443 58.5212 82.5171 58.5212C84.1899 58.5212 85.5475 59.799 85.5475 61.3734ZM76.4562 58.5217C78.129 58.5217 79.4867 57.2439 79.4867 55.6695C79.4867 54.0951 78.129 52.8174 76.4562 52.8174C74.7834 52.8174 73.4258 54.0951 73.4258 55.6695C73.4258 57.2439 74.7834 58.5217 76.4562 58.5217ZM79.4867 67.0777C79.4867 68.6521 78.129 69.9299 76.4562 69.9299C74.7834 69.9299 73.4258 68.6521 73.4258 67.0777C73.4258 65.5034 74.7834 64.2256 76.4562 64.2256C78.129 64.2256 79.4867 65.5034 79.4867 67.0777ZM44.637 68.5042V62.7998H38.576C37.7392 62.7998 37.0608 62.1613 37.0608 61.3737C37.0608 60.5861 37.7392 59.9477 38.576 59.9477H44.637V54.2434C44.637 53.4558 45.3154 52.8174 46.1522 52.8174C46.989 52.8174 47.6674 53.4558 47.6674 54.2434V59.9477H53.7281C54.5649 59.9477 55.2433 60.5861 55.2433 61.3737C55.2433 62.1613 54.5649 62.7998 53.7281 62.7998H47.6674V68.5042C47.6674 69.2918 46.989 69.9303 46.1522 69.9303C45.3154 69.9303 44.637 69.2918 44.637 68.5042Z" fill="white"/>
<defs>
<linearGradient id="paint0_linear_168:1353" x1="142.051" y1="142.051" x2="2.15906e-06" y2="-7.57604" gradientUnits="userSpaceOnUse">
<stop stop-color="#04091C"/>
<stop offset="1" stop-color="#164F85"/>
</linearGradient>
</defs>
</svg>
