<svg width="32" height="26" viewBox="0 0 32 26" fill="none" xmlns="http://www.w3.org/2000/svg">
<path d="M25.1428 0.980988L27.9161 6.52765C28.038 6.77146 27.8552 7.07623 27.5809 7.07623H24.5637C23.9847 7.07623 23.4514 6.75623 23.2076 6.23813L20.5714 0.980988H17.5237L20.2971 6.52765C20.419 6.77146 20.2361 7.07623 19.9618 7.07623H16.9447C16.3657 7.07623 15.8323 6.75623 15.5885 6.23813L12.9523 0.980988H9.9047L12.678 6.52765C12.7999 6.77146 12.6171 7.07623 12.3428 7.07623H9.32565C8.7466 7.07623 8.21327 6.75623 7.95422 6.23813L5.33327 0.980988H3.80946C2.13327 0.980988 0.761841 2.35242 0.761841 4.02861V22.3143C0.761841 23.9905 2.13327 25.3619 3.80946 25.3619H28.1904C29.8666 25.3619 31.238 23.9905 31.238 22.3143V2.5048C31.238 1.6667 30.5523 0.980988 29.7142 0.980988H25.1428Z" fill="white"/>
</svg>
