<svg width="731" height="652" viewBox="0 0 731 652" fill="none" xmlns="http://www.w3.org/2000/svg">
<path fill-rule="evenodd" clip-rule="evenodd" d="M606.286 0H608.286C608.286 9.24889 615.002 16.7466 623.286 16.7466C628.846 16.7466 633.699 13.3692 636.29 8.35181C640.105 63.0241 681.051 106.062 731 106.062V545.938C681.051 545.938 640.105 588.976 636.29 643.648C633.699 638.631 628.846 635.253 623.286 635.253C615.002 635.253 608.286 642.751 608.286 652H606.286C606.286 642.751 599.57 635.253 591.286 635.253C583.002 635.253 576.286 642.751 576.286 652H574.286C574.286 642.751 567.57 635.253 559.286 635.253C551.002 635.253 544.286 642.751 544.286 652H542.286C542.286 642.751 534.611 635.253 525.143 635.253C515.675 635.253 508 642.751 508 652H506C506 642.751 499.284 635.253 491 635.253C482.716 635.253 476 642.751 476 652H474C474 642.751 467.284 635.253 459 635.253C450.716 635.253 444 642.751 444 652H442C442 642.751 435.284 635.253 427 635.253C418.716 635.253 412 642.751 412 652H410C410 642.751 403.284 635.253 395 635.253C386.716 635.253 380 642.751 380 652H378C378 642.751 371.284 635.253 363 635.253C354.716 635.253 348 642.751 348 652H346C346 642.751 339.284 635.253 331 635.253C322.716 635.253 316 642.751 316 652H314C314 642.751 307.284 635.253 299 635.253C290.716 635.253 284 642.751 284 652H282C282 642.751 275.284 635.253 267 635.253C258.716 635.253 252 642.751 252 652H250C250 642.751 243.284 635.253 235 635.253C226.716 635.253 220 642.751 220 652H218C218 642.751 211.284 635.253 203 635.253C194.716 635.253 188 642.751 188 652H186C186 642.751 179.284 635.253 171 635.253C162.716 635.253 156 642.751 156 652H154C154 642.751 147.284 635.253 139 635.253C130.716 635.253 124 642.751 124 652H122C122 642.751 115.284 635.253 107 635.253C101.864 635.253 97.3301 638.135 94.6265 642.53C90.3358 588.391 49.6085 545.938 0 545.938V106.062C49.6086 106.062 90.336 63.6095 94.6265 9.46933C97.3301 13.8643 101.864 16.7466 107 16.7466C115.284 16.7466 122 9.24889 122 0H124C124 9.24889 130.716 16.7466 139 16.7466C147.284 16.7466 154 9.24889 154 0H156C156 9.24889 162.716 16.7466 171 16.7466C179.284 16.7466 186 9.24889 186 0H188C188 9.24889 194.716 16.7466 203 16.7466C211.284 16.7466 218 9.24889 218 0H220C220 9.24889 226.716 16.7466 235 16.7466C243.284 16.7466 250 9.24889 250 0H252C252 9.24889 258.716 16.7466 267 16.7466C275.284 16.7466 282 9.24889 282 0H284C284 9.24889 290.716 16.7466 299 16.7466C307.284 16.7466 314 9.24889 314 0H316C316 9.24889 322.716 16.7466 331 16.7466C339.284 16.7466 346 9.24889 346 0H348C348 9.24889 354.716 16.7466 363 16.7466C371.284 16.7466 378 9.24889 378 0H380C380 9.24889 386.716 16.7466 395 16.7466C403.284 16.7466 410 9.24889 410 0H412C412 9.24889 418.716 16.7466 427 16.7466C435.284 16.7466 442 9.24889 442 0H444C444 9.24889 450.716 16.7466 459 16.7466C467.284 16.7466 474 9.24889 474 0H476C476 9.24889 482.716 16.7466 491 16.7466C499.284 16.7466 506 9.24889 506 0H508C508 9.24889 515.675 16.7466 525.143 16.7466C534.611 16.7466 542.286 9.24889 542.286 0H544.286C544.286 9.24889 551.002 16.7466 559.286 16.7466C567.57 16.7466 574.286 9.24889 574.286 0H576.286C576.286 9.24889 583.002 16.7466 591.286 16.7466C599.57 16.7466 606.286 9.24889 606.286 0ZM60 88.4658C60 87.085 58.8807 85.9658 57.5 85.9658C56.1193 85.9658 55 87.085 55 88.4658V89.4761C55 90.8568 56.1193 91.9761 57.5 91.9761C58.8807 91.9761 60 90.8568 60 89.4761V88.4658ZM60 99.5794C60 98.1987 58.8807 97.0794 57.5 97.0794C56.1193 97.0794 55 98.1987 55 99.5794V101.6C55 102.981 56.1193 104.1 57.5 104.1C58.8807 104.1 60 102.981 60 101.6V99.5794ZM60 111.703C60 110.323 58.8807 109.203 57.5 109.203C56.1193 109.203 55 110.323 55 111.703V113.724C55 115.105 56.1193 116.224 57.5 116.224C58.8807 116.224 60 115.105 60 113.724V111.703ZM60 123.827C60 122.447 58.8807 121.327 57.5 121.327C56.1193 121.327 55 122.447 55 123.827V125.848C55 127.229 56.1193 128.348 57.5 128.348C58.8807 128.348 60 127.229 60 125.848V123.827ZM60 135.951C60 134.571 58.8807 133.451 57.5 133.451C56.1193 133.451 55 134.571 55 135.951V137.972C55 139.353 56.1193 140.472 57.5 140.472C58.8807 140.472 60 139.353 60 137.972V135.951ZM60 148.075C60 146.695 58.8807 145.575 57.5 145.575C56.1193 145.575 55 146.695 55 148.075V150.096C55 151.477 56.1193 152.596 57.5 152.596C58.8807 152.596 60 151.477 60 150.096V148.075ZM60 160.199C60 158.819 58.8807 157.699 57.5 157.699C56.1193 157.699 55 158.819 55 160.199V162.22C55 163.601 56.1193 164.72 57.5 164.72C58.8807 164.72 60 163.601 60 162.22V160.199ZM60 172.323C60 170.943 58.8807 169.823 57.5 169.823C56.1193 169.823 55 170.943 55 172.323V174.344C55 175.725 56.1193 176.844 57.5 176.844C58.8807 176.844 60 175.725 60 174.344V172.323ZM60 184.447C60 183.067 58.8807 181.947 57.5 181.947C56.1193 181.947 55 183.067 55 184.447V186.468C55 187.849 56.1193 188.968 57.5 188.968C58.8807 188.968 60 187.849 60 186.468V184.447ZM60 196.571C60 195.191 58.8807 194.071 57.5 194.071C56.1193 194.071 55 195.191 55 196.571V198.592C55 199.973 56.1193 201.092 57.5 201.092C58.8807 201.092 60 199.973 60 198.592V196.571ZM60 208.695C60 207.315 58.8807 206.195 57.5 206.195C56.1193 206.195 55 207.315 55 208.695V210.716C55 212.097 56.1193 213.216 57.5 213.216C58.8807 213.216 60 212.097 60 210.716V208.695ZM60 220.819C60 219.439 58.8807 218.319 57.5 218.319C56.1193 218.319 55 219.439 55 220.819V222.84C55 224.221 56.1193 225.34 57.5 225.34C58.8807 225.34 60 224.221 60 222.84V220.819ZM60 232.943C60 231.563 58.8807 230.443 57.5 230.443C56.1193 230.443 55 231.563 55 232.943V234.964C55 236.345 56.1193 237.464 57.5 237.464C58.8807 237.464 60 236.345 60 234.964V232.943ZM60 245.067C60 243.687 58.8807 242.567 57.5 242.567C56.1193 242.567 55 243.687 55 245.067V247.088C55 248.469 56.1193 249.588 57.5 249.588C58.8807 249.588 60 248.469 60 247.088V245.067ZM60 257.191C60 255.811 58.8807 254.691 57.5 254.691C56.1193 254.691 55 255.811 55 257.191V259.212C55 260.593 56.1193 261.712 57.5 261.712C58.8807 261.712 60 260.593 60 259.212V257.191ZM60 269.315C60 267.935 58.8807 266.815 57.5 266.815C56.1193 266.815 55 267.935 55 269.315V271.336C55 272.717 56.1193 273.836 57.5 273.836C58.8807 273.836 60 272.717 60 271.336V269.315ZM60 281.439C60 280.059 58.8807 278.939 57.5 278.939C56.1193 278.939 55 280.059 55 281.439V283.46C55 284.841 56.1193 285.96 57.5 285.96C58.8807 285.96 60 284.841 60 283.46V281.439ZM60 293.563C60 292.183 58.8807 291.063 57.5 291.063C56.1193 291.063 55 292.183 55 293.563V295.584C55 296.965 56.1193 298.084 57.5 298.084C58.8807 298.084 60 296.965 60 295.584V293.563ZM60 305.687C60 304.307 58.8807 303.187 57.5 303.187C56.1193 303.187 55 304.307 55 305.687V307.708C55 309.089 56.1193 310.208 57.5 310.208C58.8807 310.208 60 309.089 60 307.708V305.687ZM60 317.811C60 316.431 58.8807 315.311 57.5 315.311C56.1193 315.311 55 316.431 55 317.811V319.832C55 321.213 56.1193 322.332 57.5 322.332C58.8807 322.332 60 321.213 60 319.832V317.811ZM60 329.935C60 328.555 58.8807 327.435 57.5 327.435C56.1193 327.435 55 328.555 55 329.935V331.956C55 333.337 56.1193 334.456 57.5 334.456C58.8807 334.456 60 333.337 60 331.956V329.935ZM60 342.059C60 340.679 58.8807 339.559 57.5 339.559C56.1193 339.559 55 340.679 55 342.059V344.08C55 345.461 56.1193 346.58 57.5 346.58C58.8807 346.58 60 345.461 60 344.08V342.059ZM60 354.183C60 352.803 58.8807 351.683 57.5 351.683C56.1193 351.683 55 352.803 55 354.183V356.204C55 357.585 56.1193 358.704 57.5 358.704C58.8807 358.704 60 357.585 60 356.204V354.183ZM60 366.307C60 364.927 58.8807 363.807 57.5 363.807C56.1193 363.807 55 364.927 55 366.307V368.328C55 369.709 56.1193 370.828 57.5 370.828C58.8807 370.828 60 369.709 60 368.328V366.307ZM60 378.431C60 377.051 58.8807 375.931 57.5 375.931C56.1193 375.931 55 377.051 55 378.431V380.452C55 381.833 56.1193 382.952 57.5 382.952C58.8807 382.952 60 381.833 60 380.452V378.431ZM60 390.555C60 389.175 58.8807 388.055 57.5 388.055C56.1193 388.055 55 389.175 55 390.555V392.576C55 393.957 56.1193 395.076 57.5 395.076C58.8807 395.076 60 393.957 60 392.576V390.555ZM60 402.679C60 401.299 58.8807 400.179 57.5 400.179C56.1193 400.179 55 401.299 55 402.679V404.7C55 406.081 56.1193 407.2 57.5 407.2C58.8807 407.2 60 406.081 60 404.7V402.679ZM60 414.803C60 413.422 58.8807 412.303 57.5 412.303C56.1193 412.303 55 413.423 55 414.803V416.824C55 418.205 56.1193 419.324 57.5 419.324C58.8807 419.324 60 418.205 60 416.824V414.803ZM60 426.927C60 425.547 58.8807 424.427 57.5 424.427C56.1193 424.427 55 425.547 55 426.927L55 428.948C55 430.329 56.1193 431.448 57.5 431.448C58.8807 431.448 60 430.329 60 428.948L60 426.927ZM60 439.051C60 437.671 58.8807 436.551 57.5 436.551C56.1193 436.551 55 437.671 55 439.051V441.072C55 442.453 56.1193 443.572 57.5 443.572C58.8807 443.572 60 442.453 60 441.072V439.051ZM60 451.175C60 449.794 58.8807 448.675 57.5 448.675C56.1193 448.675 55 449.795 55 451.175V453.196C55 454.577 56.1193 455.696 57.5 455.696C58.8807 455.696 60 454.577 60 453.196V451.175ZM60 463.299C60 461.918 58.8807 460.799 57.5 460.799C56.1193 460.799 55 461.918 55 463.299V465.32C55 466.701 56.1193 467.82 57.5 467.82C58.8807 467.82 60 466.701 60 465.32V463.299ZM60 475.423C60 474.042 58.8807 472.923 57.5 472.923C56.1193 472.923 55 474.043 55 475.423V477.444C55 478.825 56.1193 479.944 57.5 479.944C58.8807 479.944 60 478.825 60 477.444V475.423ZM60 487.547C60 486.166 58.8807 485.047 57.5 485.047C56.1193 485.047 55 486.166 55 487.547V489.568C55 490.949 56.1193 492.068 57.5 492.068C58.8807 492.068 60 490.949 60 489.568V487.547ZM60 499.671C60 498.29 58.8807 497.171 57.5 497.171C56.1193 497.171 55 498.29 55 499.671V501.692C55 503.073 56.1193 504.192 57.5 504.192C58.8807 504.192 60 503.073 60 501.692V499.671ZM60 511.795C60 510.414 58.8807 509.295 57.5 509.295C56.1193 509.295 55 510.414 55 511.795V513.816C55 515.197 56.1193 516.316 57.5 516.316C58.8807 516.316 60 515.197 60 513.816V511.795ZM60 523.919C60 522.538 58.8807 521.419 57.5 521.419C56.1193 521.419 55 522.538 55 523.919L55 525.94C55 527.32 56.1193 528.44 57.5 528.44C58.8807 528.44 60 527.32 60 525.94L60 523.919ZM60 536.043C60 534.662 58.8807 533.543 57.5 533.543C56.1193 533.543 55 534.662 55 536.043V538.064C55 539.445 56.1193 540.564 57.5 540.564C58.8807 540.564 60 539.445 60 538.064V536.043ZM60 548.167C60 546.786 58.8807 545.667 57.5 545.667C56.1193 545.667 55 546.786 55 548.167V550.188C55 551.568 56.1193 552.688 57.5 552.688C58.8807 552.688 60 551.568 60 550.188V548.167ZM60 560.291C60 558.91 58.8807 557.791 57.5 557.791C56.1193 557.791 55 558.91 55 560.291V561.301C55 562.682 56.1193 563.801 57.5 563.801C58.8807 563.801 60 562.682 60 561.301V560.291ZM678 95.1644C678 93.7837 676.881 92.6644 675.5 92.6644C674.119 92.6644 673 93.7837 673 95.1644V96.1744C673 97.5551 674.119 98.6744 675.5 98.6744C676.881 98.6744 678 97.5551 678 96.1744V95.1644ZM678 106.274C678 104.894 676.881 103.774 675.5 103.774C674.119 103.774 673 104.894 673 106.274V108.294C673 109.675 674.119 110.794 675.5 110.794C676.881 110.794 678 109.675 678 108.294V106.274ZM678 118.394C678 117.013 676.881 115.894 675.5 115.894C674.119 115.894 673 117.013 673 118.394V120.414C673 121.795 674.119 122.914 675.5 122.914C676.881 122.914 678 121.795 678 120.414V118.394ZM678 130.514C678 129.133 676.881 128.014 675.5 128.014C674.119 128.014 673 129.133 673 130.514V132.534C673 133.915 674.119 135.034 675.5 135.034C676.881 135.034 678 133.915 678 132.534V130.514ZM678 142.634C678 141.253 676.881 140.134 675.5 140.134C674.119 140.134 673 141.253 673 142.634V144.654C673 146.035 674.119 147.154 675.5 147.154C676.881 147.154 678 146.035 678 144.654V142.634ZM678 154.754C678 153.373 676.881 152.254 675.5 152.254C674.119 152.254 673 153.373 673 154.754V156.774C673 158.154 674.119 159.274 675.5 159.274C676.881 159.274 678 158.154 678 156.774V154.754ZM678 166.874C678 165.493 676.881 164.374 675.5 164.374C674.119 164.374 673 165.493 673 166.874V168.894C673 170.274 674.119 171.394 675.5 171.394C676.881 171.394 678 170.274 678 168.894V166.874ZM678 178.993C678 177.613 676.881 176.493 675.5 176.493C674.119 176.493 673 177.613 673 178.993V181.013C673 182.394 674.119 183.513 675.5 183.513C676.881 183.513 678 182.394 678 181.013V178.993ZM678 191.113C678 189.733 676.881 188.613 675.5 188.613C674.119 188.613 673 189.733 673 191.113V193.133C673 194.514 674.119 195.633 675.5 195.633C676.881 195.633 678 194.514 678 193.133V191.113ZM678 203.233C678 201.852 676.881 200.733 675.5 200.733C674.119 200.733 673 201.852 673 203.233V205.253C673 206.634 674.119 207.753 675.5 207.753C676.881 207.753 678 206.634 678 205.253V203.233ZM678 215.353C678 213.972 676.881 212.853 675.5 212.853C674.119 212.853 673 213.972 673 215.353V217.373C673 218.754 674.119 219.873 675.5 219.873C676.881 219.873 678 218.754 678 217.373V215.353ZM678 227.473C678 226.092 676.881 224.973 675.5 224.973C674.119 224.973 673 226.092 673 227.473V229.493C673 230.874 674.119 231.993 675.5 231.993C676.881 231.993 678 230.874 678 229.493V227.473ZM678 239.593C678 238.212 676.881 237.093 675.5 237.093C674.119 237.093 673 238.212 673 239.593V241.613C673 242.993 674.119 244.113 675.5 244.113C676.881 244.113 678 242.993 678 241.613V239.593ZM678 251.713C678 250.332 676.881 249.213 675.5 249.213C674.119 249.213 673 250.332 673 251.713V253.733C673 255.113 674.119 256.233 675.5 256.233C676.881 256.233 678 255.113 678 253.733V251.713ZM678 263.832C678 262.452 676.881 261.332 675.5 261.332C674.119 261.332 673 262.452 673 263.832V265.852C673 267.233 674.119 268.352 675.5 268.352C676.881 268.352 678 267.233 678 265.852V263.832ZM678 275.952C678 274.572 676.881 273.452 675.5 273.452C674.119 273.452 673 274.572 673 275.952V277.972C673 279.353 674.119 280.472 675.5 280.472C676.881 280.472 678 279.353 678 277.972V275.952ZM678 288.072C678 286.691 676.881 285.572 675.5 285.572C674.119 285.572 673 286.691 673 288.072V290.092C673 291.473 674.119 292.592 675.5 292.592C676.881 292.592 678 291.473 678 290.092V288.072ZM678 300.192C678 298.811 676.881 297.692 675.5 297.692C674.119 297.692 673 298.811 673 300.192V302.212C673 303.593 674.119 304.712 675.5 304.712C676.881 304.712 678 303.593 678 302.212V300.192ZM678 312.312C678 310.931 676.881 309.812 675.5 309.812C674.119 309.812 673 310.931 673 312.312V314.332C673 315.713 674.119 316.832 675.5 316.832C676.881 316.832 678 315.713 678 314.332V312.312ZM678 324.432C678 323.051 676.881 321.932 675.5 321.932C674.119 321.932 673 323.051 673 324.432V326.452C673 327.832 674.119 328.952 675.5 328.952C676.881 328.952 678 327.832 678 326.452V324.432ZM678 336.552C678 335.171 676.881 334.052 675.5 334.052C674.119 334.052 673 335.171 673 336.552V338.572C673 339.952 674.119 341.072 675.5 341.072C676.881 341.072 678 339.952 678 338.572V336.552ZM678 348.671C678 347.291 676.881 346.171 675.5 346.171C674.119 346.171 673 347.291 673 348.671V350.691C673 352.072 674.119 353.191 675.5 353.191C676.881 353.191 678 352.072 678 350.691V348.671ZM678 360.791C678 359.411 676.881 358.291 675.5 358.291C674.119 358.291 673 359.411 673 360.791V362.811C673 364.192 674.119 365.311 675.5 365.311C676.881 365.311 678 364.192 678 362.811V360.791ZM678 372.911C678 371.531 676.881 370.411 675.5 370.411C674.119 370.411 673 371.531 673 372.911V374.931C673 376.312 674.119 377.431 675.5 377.431C676.881 377.431 678 376.312 678 374.931V372.911ZM678 385.031C678 383.65 676.881 382.531 675.5 382.531C674.119 382.531 673 383.65 673 385.031V387.051C673 388.432 674.119 389.551 675.5 389.551C676.881 389.551 678 388.432 678 387.051V385.031ZM678 397.151C678 395.77 676.881 394.651 675.5 394.651C674.119 394.651 673 395.77 673 397.151V399.171C673 400.552 674.119 401.671 675.5 401.671C676.881 401.671 678 400.552 678 399.171V397.151ZM678 409.271C678 407.89 676.881 406.771 675.5 406.771C674.119 406.771 673 407.89 673 409.271V411.291C673 412.672 674.119 413.791 675.5 413.791C676.881 413.791 678 412.672 678 411.291V409.271ZM678 421.391C678 420.01 676.881 418.891 675.5 418.891C674.119 418.891 673 420.01 673 421.391V423.411C673 424.791 674.119 425.911 675.5 425.911C676.881 425.911 678 424.791 678 423.411V421.391ZM678 433.511C678 432.13 676.881 431.011 675.5 431.011C674.119 431.011 673 432.13 673 433.511V435.531C673 436.911 674.119 438.031 675.5 438.031C676.881 438.031 678 436.911 678 435.531V433.511ZM678 445.63C678 444.25 676.881 443.13 675.5 443.13C674.119 443.13 673 444.25 673 445.63V447.65C673 449.031 674.119 450.15 675.5 450.15C676.881 450.15 678 449.031 678 447.65V445.63ZM678 457.75C678 456.37 676.881 455.25 675.5 455.25C674.119 455.25 673 456.37 673 457.75V459.77C673 461.151 674.119 462.27 675.5 462.27C676.881 462.27 678 461.151 678 459.77V457.75ZM678 469.87C678 468.49 676.881 467.37 675.5 467.37C674.119 467.37 673 468.49 673 469.87V471.89C673 473.271 674.119 474.39 675.5 474.39C676.881 474.39 678 473.271 678 471.89V469.87ZM678 481.99C678 480.609 676.881 479.49 675.5 479.49C674.119 479.49 673 480.609 673 481.99V484.01C673 485.391 674.119 486.51 675.5 486.51C676.881 486.51 678 485.391 678 484.01V481.99ZM678 494.11C678 492.729 676.881 491.61 675.5 491.61C674.119 491.61 673 492.729 673 494.11V496.13C673 497.511 674.119 498.63 675.5 498.63C676.881 498.63 678 497.511 678 496.13V494.11ZM678 506.23C678 504.849 676.881 503.73 675.5 503.73C674.119 503.73 673 504.849 673 506.23V508.25C673 509.631 674.119 510.75 675.5 510.75C676.881 510.75 678 509.631 678 508.25V506.23ZM678 518.35C678 516.969 676.881 515.85 675.5 515.85C674.119 515.85 673 516.969 673 518.35V520.37C673 521.75 674.119 522.87 675.5 522.87C676.881 522.87 678 521.75 678 520.37V518.35ZM678 530.47C678 529.089 676.881 527.97 675.5 527.97C674.119 527.97 673 529.089 673 530.47V532.49C673 533.87 674.119 534.99 675.5 534.99C676.881 534.99 678 533.87 678 532.49V530.47ZM678 542.589C678 541.209 676.881 540.089 675.5 540.089C674.119 540.089 673 541.209 673 542.589V544.609C673 545.99 674.119 547.109 675.5 547.109C676.881 547.109 678 545.99 678 544.609V542.589ZM678 554.709C678 553.329 676.881 552.209 675.5 552.209C674.119 552.209 673 553.329 673 554.709V555.719C673 557.1 674.119 558.219 675.5 558.219C676.881 558.219 678 557.1 678 555.719V554.709Z" fill="url(#paint0_linear_51_13313)"/>
<defs>
<linearGradient id="paint0_linear_51_13313" x1="856.641" y1="764.062" x2="102.009" y2="-127.128" gradientUnits="userSpaceOnUse">
<stop stop-color="#04091C"/>
<stop offset="1" stop-color="#164F85"/>
</linearGradient>
</defs>
</svg>
