<svg id="svg" version="1.1" xmlns="http://www.w3.org/2000/svg" xmlns:xlink="http://www.w3.org/1999/xlink" width="400" height="400" viewBox="0, 0, 400,400"><g id="svgg"><path id="path0" d="M192.667 43.599 C 190.324 43.678,183.911 44.199,181.583 44.499 C 180.942 44.582,179.742 44.733,178.917 44.835 C 178.092 44.937,177.004 45.088,176.500 45.172 C 175.996 45.256,175.021 45.407,174.333 45.508 C 173.646 45.609,172.783 45.756,172.417 45.835 C 172.050 45.913,171.300 46.057,170.750 46.155 C 168.653 46.526,166.672 46.949,164.500 47.489 C 164.179 47.569,163.542 47.720,163.083 47.825 C 162.625 47.930,161.987 48.084,161.667 48.167 C 161.346 48.250,160.783 48.392,160.417 48.481 C 160.050 48.571,159.450 48.729,159.083 48.833 C 158.717 48.937,158.154 49.085,157.833 49.161 C 155.041 49.828,142.519 54.090,141.771 54.629 C 141.668 54.703,141.283 54.865,140.917 54.988 C 140.285 55.200,139.832 55.388,138.085 56.167 C 137.674 56.350,137.302 56.500,137.259 56.500 C 136.905 56.500,124.516 62.651,124.167 63.000 C 124.121 63.046,123.933 63.165,123.750 63.264 C 123.567 63.363,122.817 63.770,122.083 64.168 C 121.350 64.566,120.243 65.216,119.623 65.612 C 119.004 66.009,118.422 66.333,118.332 66.333 C 118.241 66.333,118.167 66.408,118.167 66.500 C 118.167 66.592,118.094 66.667,118.006 66.667 C 117.917 66.667,117.373 66.968,116.797 67.335 C 116.221 67.703,115.638 68.073,115.500 68.158 C 114.740 68.626,108.974 72.526,108.833 72.667 C 108.787 72.712,107.550 73.646,106.083 74.741 C 103.860 76.401,101.873 77.959,101.500 78.334 C 101.454 78.380,101.004 78.733,100.500 79.119 C 99.996 79.506,99.365 80.012,99.099 80.244 C 98.506 80.762,98.398 80.767,98.148 80.292 C 98.039 80.085,97.902 79.879,97.844 79.833 C 97.733 79.746,95.201 76.343,94.496 75.333 C 94.271 75.012,93.997 74.637,93.886 74.500 C 93.776 74.362,92.991 73.313,92.142 72.167 C 91.294 71.021,89.921 69.171,89.091 68.056 C 88.262 66.940,87.283 65.600,86.917 65.077 C 86.550 64.554,86.173 64.041,86.078 63.938 C 85.983 63.835,85.724 63.487,85.503 63.167 C 85.281 62.846,85.054 62.546,84.998 62.500 C 84.942 62.454,84.529 61.892,84.079 61.250 C 83.629 60.608,83.218 60.046,83.164 60.000 C 83.111 59.954,82.884 59.654,82.661 59.333 C 82.438 59.012,82.164 58.637,82.053 58.500 C 81.942 58.362,81.551 57.837,81.184 57.333 C 80.816 56.829,80.454 56.342,80.378 56.250 C 80.303 56.158,80.059 55.821,79.837 55.500 C 79.615 55.179,79.387 54.879,79.330 54.833 C 79.274 54.788,78.975 54.375,78.667 53.917 C 78.358 53.458,78.060 53.046,78.006 53.000 C 77.951 52.954,77.610 52.504,77.248 52.000 C 76.886 51.496,76.502 50.992,76.395 50.879 C 76.287 50.767,76.036 50.410,75.835 50.087 L 75.471 49.498 75.027 49.818 C 74.783 49.994,74.433 50.276,74.248 50.444 C 74.064 50.612,73.539 51.047,73.082 51.411 C 72.624 51.775,72.212 52.114,72.167 52.165 C 72.121 52.217,71.746 52.517,71.333 52.833 C 70.921 53.149,70.546 53.450,70.500 53.501 C 70.454 53.553,70.042 53.892,69.583 54.255 C 69.125 54.618,68.637 55.029,68.500 55.168 C 68.362 55.307,67.975 55.625,67.639 55.874 C 67.304 56.124,66.928 56.423,66.805 56.539 C 66.682 56.655,66.132 57.125,65.583 57.583 C 63.230 59.547,59.092 63.626,57.128 65.917 C 54.925 68.486,53.444 70.328,52.703 71.417 C 52.454 71.783,52.175 72.165,52.083 72.265 C 51.716 72.664,48.971 76.863,47.945 78.596 C 46.654 80.776,42.833 88.359,42.833 88.742 C 42.833 88.794,42.692 89.155,42.519 89.543 C 42.346 89.932,42.054 90.662,41.869 91.167 C 41.684 91.671,41.407 92.417,41.254 92.825 C 40.925 93.704,40.053 96.349,39.439 98.333 C 38.993 99.774,38.205 102.939,37.841 104.750 C 37.730 105.300,37.576 106.050,37.499 106.417 C 37.422 106.783,37.273 107.646,37.169 108.333 C 37.065 109.021,36.913 109.996,36.832 110.500 C 36.674 111.491,36.435 113.675,36.168 116.583 C 35.950 118.951,35.951 127.336,36.169 129.824 C 36.391 132.352,36.645 134.668,36.841 135.958 C 37.225 138.478,37.360 139.291,37.498 139.917 C 37.578 140.283,37.733 141.071,37.841 141.667 C 37.949 142.262,38.099 142.975,38.174 143.250 C 38.249 143.525,38.385 144.050,38.476 144.417 C 38.920 146.215,39.061 146.721,39.609 148.500 C 40.924 152.759,42.102 155.993,43.192 158.333 C 43.469 158.929,43.831 159.717,43.995 160.083 C 44.508 161.232,45.738 163.746,45.829 163.835 C 45.877 163.881,46.183 164.444,46.508 165.085 L 47.099 166.250 46.796 167.667 C 46.140 170.729,45.496 174.453,44.992 178.083 C 43.398 189.568,43.096 203.090,44.173 214.750 C 44.695 220.400,45.394 225.239,46.523 231.000 C 46.791 232.370,47.463 235.291,48.114 237.917 C 48.433 239.200,48.757 240.512,48.835 240.833 C 49.219 242.403,50.386 246.372,50.820 247.583 C 50.919 247.858,51.404 249.283,51.897 250.750 C 52.390 252.217,53.035 254.054,53.329 254.833 C 53.623 255.612,53.926 256.456,54.003 256.709 C 54.080 256.961,54.309 257.523,54.511 257.959 C 54.713 258.394,54.935 258.900,55.004 259.083 C 55.073 259.267,55.320 259.867,55.553 260.417 C 55.786 260.967,56.124 261.792,56.305 262.250 C 57.011 264.041,61.255 272.765,62.304 274.583 C 63.038 275.855,63.379 276.465,64.167 277.917 C 64.566 278.650,65.216 279.757,65.612 280.377 C 66.009 280.996,66.333 281.578,66.333 281.668 C 66.333 281.759,66.408 281.833,66.500 281.833 C 66.592 281.833,66.667 281.906,66.667 281.994 C 66.667 282.083,66.968 282.627,67.335 283.203 C 67.703 283.779,68.073 284.362,68.158 284.500 C 68.697 285.375,72.540 291.045,72.677 291.167 C 72.728 291.212,73.138 291.775,73.588 292.417 C 74.037 293.058,74.449 293.621,74.502 293.667 C 74.556 293.712,74.782 294.012,75.006 294.333 C 75.229 294.654,75.537 295.067,75.690 295.250 C 75.843 295.433,76.353 296.071,76.823 296.667 C 77.293 297.262,77.769 297.862,77.881 298.000 C 77.993 298.137,78.570 298.850,79.164 299.583 C 79.757 300.317,80.319 300.999,80.413 301.099 C 80.674 301.379,82.316 303.255,83.682 304.833 C 85.250 306.645,93.309 314.708,95.167 316.324 C 97.662 318.493,98.713 319.412,98.901 319.587 C 99.001 319.681,99.683 320.241,100.417 320.831 C 101.150 321.422,101.787 321.948,101.833 322.002 C 101.879 322.056,102.592 322.619,103.417 323.253 C 104.242 323.888,104.954 324.451,105.000 324.503 C 105.046 324.556,105.346 324.780,105.667 325.000 C 105.987 325.220,106.287 325.444,106.333 325.498 C 106.379 325.551,106.942 325.963,107.583 326.412 C 108.225 326.862,108.787 327.278,108.833 327.336 C 108.879 327.394,110.567 328.546,112.583 329.894 C 114.600 331.243,116.341 332.419,116.451 332.507 C 116.562 332.595,116.691 332.667,116.737 332.667 C 116.784 332.667,117.461 333.079,118.243 333.583 C 119.024 334.088,119.739 334.500,119.832 334.500 C 119.924 334.500,120.000 334.575,120.000 334.667 C 120.000 334.758,120.071 334.833,120.158 334.833 C 120.244 334.833,120.751 335.086,121.283 335.394 C 121.815 335.702,122.606 336.152,123.042 336.394 C 123.477 336.636,124.190 337.036,124.625 337.283 C 128.150 339.287,134.849 342.549,138.624 344.100 C 140.337 344.804,141.065 345.110,141.750 345.412 C 142.025 345.534,142.887 345.873,143.667 346.166 C 144.446 346.459,145.233 346.761,145.417 346.838 C 145.600 346.915,146.237 347.138,146.833 347.333 C 147.429 347.529,148.067 347.756,148.250 347.838 C 148.675 348.028,153.841 349.722,154.833 349.997 C 155.246 350.112,155.771 350.263,156.000 350.333 C 156.229 350.404,156.754 350.554,157.167 350.667 C 157.579 350.780,158.104 350.933,158.333 351.008 C 158.563 351.082,160.025 351.451,161.583 351.828 C 163.142 352.204,164.829 352.621,165.333 352.755 C 167.549 353.342,173.125 354.364,177.667 355.015 C 188.837 356.615,200.025 356.949,213.083 356.071 C 216.363 355.850,222.129 355.128,226.417 354.402 C 230.486 353.712,233.296 353.162,234.833 352.755 C 235.338 352.621,237.025 352.204,238.583 351.828 C 240.142 351.451,241.604 351.082,241.833 351.008 C 242.063 350.933,242.550 350.791,242.917 350.691 C 244.324 350.310,247.123 349.459,248.000 349.146 C 249.332 348.670,250.104 348.414,251.417 348.012 C 252.058 347.816,252.733 347.590,252.917 347.511 C 253.100 347.431,253.700 347.201,254.250 347.001 C 255.280 346.624,260.630 344.496,261.667 344.050 C 261.987 343.912,262.400 343.736,262.583 343.658 C 262.767 343.580,263.580 343.212,264.392 342.841 C 265.203 342.470,265.893 342.167,265.926 342.167 C 266.116 342.167,274.085 338.128,275.083 337.525 C 275.358 337.360,276.183 336.898,276.917 336.501 C 277.650 336.103,278.400 335.697,278.583 335.597 C 278.767 335.498,278.954 335.379,279.000 335.333 C 279.046 335.287,279.421 335.069,279.833 334.848 C 280.246 334.626,280.883 334.245,281.250 334.000 C 282.539 333.138,283.829 332.333,283.921 332.333 C 283.972 332.333,284.105 332.261,284.215 332.173 C 284.326 332.084,285.842 331.057,287.583 329.889 C 289.325 328.722,290.825 327.704,290.917 327.628 C 291.008 327.552,291.571 327.137,292.167 326.707 C 292.762 326.276,293.287 325.881,293.333 325.829 C 293.379 325.777,293.679 325.554,294.000 325.333 C 294.321 325.113,294.621 324.888,294.667 324.833 C 294.712 324.779,295.012 324.554,295.333 324.333 C 295.654 324.113,295.954 323.891,296.000 323.840 C 296.046 323.790,296.383 323.527,296.750 323.258 C 297.117 322.988,297.454 322.725,297.500 322.673 C 297.581 322.581,299.091 321.335,299.730 320.833 C 300.771 320.014,303.322 317.805,305.667 315.690 C 308.625 313.022,315.594 305.935,317.500 303.657 C 317.912 303.164,318.626 302.346,319.086 301.839 C 319.546 301.332,320.146 300.617,320.419 300.250 C 320.692 299.883,320.954 299.546,321.001 299.500 C 321.049 299.454,321.423 299.004,321.833 298.500 C 322.243 297.996,322.621 297.546,322.673 297.500 C 322.725 297.454,322.988 297.117,323.258 296.750 C 323.527 296.383,323.790 296.046,323.840 296.000 C 323.891 295.954,324.114 295.654,324.337 295.333 C 324.559 295.012,324.911 294.563,325.120 294.335 C 325.329 294.107,325.500 293.868,325.500 293.805 C 325.500 293.742,325.597 293.591,325.716 293.470 C 326.243 292.933,330.968 286.128,332.175 284.167 C 332.260 284.029,332.630 283.445,332.998 282.869 C 333.366 282.293,333.667 281.756,333.667 281.675 C 333.667 281.594,333.729 281.503,333.805 281.472 C 333.997 281.395,335.881 278.176,337.104 275.833 C 337.368 275.329,337.638 274.876,337.705 274.826 C 337.991 274.611,342.852 264.629,343.667 262.583 C 343.740 262.400,343.928 261.950,344.086 261.583 C 344.366 260.933,344.725 260.089,345.007 259.417 C 345.085 259.233,345.339 258.650,345.574 258.120 C 345.808 257.590,346.000 257.083,346.000 256.993 C 346.000 256.903,346.066 256.699,346.147 256.539 C 346.345 256.150,346.591 255.539,346.833 254.833 C 346.944 254.512,347.098 254.100,347.177 253.917 C 347.257 253.733,347.659 252.571,348.073 251.333 C 348.486 250.096,348.948 248.746,349.099 248.333 C 349.250 247.921,349.434 247.358,349.507 247.083 C 349.580 246.808,349.802 246.058,350.000 245.417 C 350.198 244.775,350.423 244.025,350.499 243.750 C 350.575 243.475,350.803 242.650,351.007 241.917 C 351.210 241.183,351.435 240.321,351.507 240.000 C 351.669 239.268,352.431 236.218,352.754 235.000 C 353.119 233.627,353.955 229.472,354.348 227.083 C 354.852 224.013,355.046 222.711,355.342 220.417 C 357.310 205.184,356.925 187.055,354.333 172.917 C 354.233 172.367,354.079 171.504,353.992 171.000 C 353.770 169.715,353.552 168.605,353.258 167.260 L 353.004 166.103 353.650 164.843 C 355.022 162.169,355.330 161.548,355.807 160.500 C 356.077 159.904,356.558 158.854,356.874 158.167 C 357.190 157.479,357.544 156.654,357.660 156.333 C 357.777 156.012,357.970 155.525,358.089 155.250 C 358.732 153.763,360.650 147.903,361.171 145.833 C 361.275 145.421,361.434 144.783,361.524 144.417 C 361.615 144.050,361.751 143.525,361.826 143.250 C 361.901 142.975,362.051 142.262,362.159 141.667 C 362.267 141.071,362.422 140.283,362.502 139.917 C 362.927 137.989,363.532 133.394,363.829 129.833 C 364.051 127.182,364.053 118.983,363.832 116.583 C 363.565 113.675,363.326 111.491,363.168 110.500 C 363.087 109.996,362.933 109.021,362.825 108.333 C 362.061 103.441,360.495 97.488,358.746 92.825 C 358.593 92.417,358.316 91.671,358.131 91.167 C 357.946 90.662,357.654 89.932,357.481 89.543 C 357.308 89.155,357.167 88.794,357.167 88.742 C 357.167 86.983,349.102 73.361,345.517 69.064 C 345.278 68.779,344.811 68.216,344.478 67.814 C 341.480 64.197,337.535 60.185,334.417 57.583 C 333.868 57.125,333.318 56.655,333.195 56.539 C 333.072 56.423,332.696 56.124,332.361 55.874 C 332.025 55.625,331.637 55.307,331.500 55.168 C 331.362 55.029,330.875 54.618,330.417 54.255 C 329.958 53.892,329.546 53.553,329.500 53.501 C 329.454 53.450,329.079 53.149,328.667 52.833 C 328.254 52.517,327.879 52.217,327.833 52.165 C 327.787 52.114,327.376 51.775,326.918 51.411 C 326.461 51.047,325.936 50.612,325.752 50.444 C 325.567 50.276,325.217 49.994,324.973 49.818 L 324.529 49.498 324.165 50.087 C 323.964 50.410,323.714 50.767,323.609 50.879 C 323.503 50.992,323.209 51.390,322.955 51.764 C 322.701 52.138,322.360 52.588,322.198 52.764 C 322.036 52.940,321.647 53.457,321.334 53.913 C 321.021 54.369,320.672 54.857,320.558 54.996 C 320.444 55.136,319.806 56.000,319.140 56.917 C 318.474 57.833,317.885 58.621,317.832 58.667 C 317.778 58.712,317.554 59.012,317.333 59.333 C 317.113 59.654,316.888 59.954,316.833 60.000 C 316.779 60.046,316.555 60.346,316.335 60.667 C 315.814 61.429,314.119 63.726,313.999 63.833 C 313.947 63.879,313.537 64.442,313.087 65.083 C 312.637 65.725,311.623 67.112,310.834 68.167 C 309.279 70.243,306.596 73.855,306.123 74.510 C 304.784 76.362,303.594 77.972,303.360 78.250 C 303.204 78.433,302.750 79.050,302.350 79.621 C 301.928 80.225,301.545 80.614,301.437 80.551 C 301.247 80.442,299.653 79.163,299.500 78.998 C 299.454 78.949,299.079 78.649,298.667 78.333 C 298.254 78.017,297.879 77.716,297.833 77.663 C 297.787 77.610,297.075 77.048,296.250 76.413 C 295.425 75.779,294.712 75.216,294.667 75.163 C 294.621 75.110,294.321 74.885,294.000 74.663 C 293.679 74.441,293.271 74.126,293.094 73.963 C 292.916 73.800,292.715 73.667,292.647 73.667 C 292.579 73.667,292.425 73.570,292.304 73.453 C 292.182 73.335,291.821 73.056,291.500 72.833 C 291.179 72.610,290.818 72.331,290.696 72.214 C 290.575 72.096,290.418 72.000,290.347 72.000 C 290.276 72.000,290.008 71.819,289.751 71.598 C 289.493 71.377,289.088 71.096,288.850 70.973 C 288.612 70.851,288.379 70.707,288.333 70.655 C 288.066 70.347,282.891 67.000,282.683 67.000 C 282.597 67.000,282.503 66.943,282.472 66.873 C 282.415 66.742,278.773 64.527,277.583 63.899 C 277.217 63.706,276.054 63.067,275.000 62.479 C 273.126 61.434,266.404 58.057,264.750 57.329 C 264.292 57.128,263.521 56.784,263.037 56.565 C 262.553 56.346,262.121 56.167,262.077 56.167 C 262.001 56.167,261.666 56.023,259.793 55.186 C 259.359 54.992,258.934 54.833,258.849 54.833 C 258.763 54.833,258.481 54.725,258.222 54.594 C 257.313 54.132,255.900 53.586,253.833 52.899 C 253.421 52.762,252.933 52.581,252.750 52.497 C 252.157 52.225,245.455 50.033,244.167 49.689 C 243.479 49.506,242.504 49.237,242.000 49.092 C 239.150 48.269,232.674 46.753,229.500 46.164 C 223.760 45.100,218.623 44.430,211.583 43.829 C 209.508 43.651,195.966 43.487,192.667 43.599 M207.179 56.839 C 238.938 58.622,267.851 69.887,291.667 89.757 C 360.072 146.829,360.740 251.225,293.071 309.102 C 231.837 361.474,139.159 352.787,88.403 289.917 C 60.989 255.959,50.352 209.742,60.327 167.926 C 60.514 167.142,60.817 165.872,61.000 165.103 C 76.559 99.856,139.752 53.054,207.179 56.839 M77.476 70.625 C 79.688 73.627,83.356 78.596,85.626 81.667 C 87.897 84.737,89.925 87.490,90.133 87.783 L 90.511 88.317 87.945 90.950 C 71.494 107.833,59.221 127.899,51.725 150.167 C 51.550 150.687,50.574 148.018,49.320 143.593 C 43.892 124.435,46.561 102.428,56.374 85.417 C 57.463 83.529,57.837 82.925,59.048 81.107 C 61.816 76.951,64.636 73.502,68.070 70.074 C 69.768 68.379,73.277 65.167,73.429 65.167 C 73.444 65.167,75.265 67.623,77.476 70.625 M328.417 66.745 C 350.723 85.945,359.249 118.913,349.386 147.833 C 348.449 150.581,348.594 150.619,347.421 147.323 C 339.924 126.258,327.594 106.570,311.990 90.743 L 309.518 88.237 310.319 87.160 C 310.759 86.568,313.278 83.158,315.917 79.583 C 327.212 64.282,326.541 65.154,326.823 65.385 C 326.966 65.501,327.683 66.113,328.417 66.745 M194.250 79.266 C 144.113 82.883,106.406 123.090,106.423 172.917 C 106.444 238.611,171.493 283.548,233.333 260.588 C 272.982 245.867,298.640 203.686,293.253 162.083 C 287.491 117.582,253.975 84.528,209.583 79.568 C 207.388 79.323,196.449 79.107,194.250 79.266 M207.432 89.251 C 259.053 94.127,293.724 142.677,281.580 193.080 C 273.460 226.784,244.066 252.544,209.417 256.321 C 155.155 262.237,109.832 216.033,116.834 161.938 C 122.578 117.561,163.085 85.061,207.432 89.251 M195.167 111.099 C 165.508 112.739,151.085 130.317,149.983 166.167 C 149.651 176.977,150.118 210.160,150.677 215.417 C 151.120 219.583,152.605 221.613,156.583 223.484 C 167.354 228.552,192.962 224.858,196.180 217.773 C 196.647 216.743,196.674 201.576,196.208 201.432 C 196.048 201.382,194.154 200.963,192.000 200.500 C 178.704 197.646,176.374 196.506,177.778 193.547 C 178.475 192.078,179.614 192.002,182.486 193.231 C 189.092 196.057,195.042 197.245,202.500 197.229 C 206.539 197.220,207.388 197.150,211.550 196.477 C 213.962 196.088,214.589 196.142,215.210 196.794 C 216.041 197.665,216.227 198.832,215.693 199.828 C 215.100 200.934,215.166 200.921,206.355 201.749 C 204.854 201.890,203.560 202.046,203.480 202.096 C 203.277 202.221,203.297 214.580,203.503 216.373 C 203.838 219.300,204.569 220.349,207.083 221.511 C 216.861 226.031,224.606 226.672,239.990 224.234 C 245.324 223.389,246.664 222.661,247.985 219.897 C 249.391 216.953,249.550 215.294,249.579 203.250 C 249.593 197.658,249.666 188.733,249.741 183.417 C 250.138 155.503,247.692 140.926,240.717 129.630 C 232.504 116.330,216.718 109.907,195.167 111.099 M205.601 118.838 C 227.824 120.613,238.162 131.516,241.156 156.333 C 242.033 163.604,242.239 170.034,242.065 184.750 C 241.983 191.625,241.941 200.362,241.971 204.167 C 242.023 210.820,241.910 213.523,241.498 215.439 L 241.314 216.294 238.532 216.734 C 225.532 218.791,220.232 218.540,212.468 215.501 L 211.048 214.945 210.941 212.946 C 210.777 209.907,210.801 209.000,211.042 209.000 C 217.300 208.994,221.630 206.404,223.086 201.794 C 225.491 194.182,219.496 187.440,211.500 188.764 C 207.854 189.367,206.600 189.503,203.750 189.604 C 197.130 189.838,191.555 188.777,185.150 186.063 C 177.287 182.732,170.404 186.352,169.898 194.083 C 169.472 200.596,173.258 203.921,184.062 206.522 C 185.999 206.988,187.865 207.439,188.208 207.524 L 188.833 207.680 188.833 211.151 L 188.833 214.622 187.708 215.124 C 179.427 218.820,161.683 219.258,158.593 215.844 C 157.816 214.985,157.044 171.584,157.654 163.083 C 160.049 129.745,174.554 116.359,205.601 118.838 M198.171 140.083 C 193.705 141.094,189.917 144.400,188.383 148.625 C 187.466 151.152,187.461 151.222,187.381 161.375 L 187.307 170.833 200.828 170.833 L 214.348 170.833 214.294 161.042 C 214.233 149.894,214.253 150.074,212.754 147.083 C 210.032 141.649,204.016 138.761,198.171 140.083 M203.086 147.776 C 204.244 148.170,205.649 149.597,206.181 150.918 C 206.574 151.894,206.584 152.043,206.633 157.542 L 206.683 163.167 200.842 163.167 L 195.000 163.167 195.000 158.364 C 195.000 152.037,195.204 151.004,196.782 149.316 C 198.462 147.520,200.715 146.970,203.086 147.776 M278.417 258.518 C 245.845 270.732,223.476 275.665,200.667 275.665 C 178.383 275.666,155.707 270.821,123.515 259.180 C 120.452 258.073,117.846 257.167,117.723 257.167 C 117.445 257.167,117.414 262.020,117.671 265.576 C 119.130 285.824,139.065 303.309,169.250 310.817 C 198.584 318.115,233.198 314.210,256.036 301.027 C 270.768 292.524,279.974 281.202,282.079 269.000 C 282.577 266.114,282.929 256.981,282.542 257.009 C 282.473 257.014,280.617 257.693,278.417 258.518 M265.503 266.958 C 265.505 267.027,265.616 267.796,265.750 268.667 C 267.382 279.255,262.737 290.936,254.417 297.167 C 253.066 298.179,249.357 300.167,248.820 300.167 C 248.492 300.167,248.579 300.501,247.336 294.500 C 246.889 292.346,246.365 289.833,246.171 288.917 C 245.716 286.763,244.539 281.146,243.662 276.936 C 243.167 274.564,243.025 273.588,243.160 273.504 C 243.264 273.440,244.377 273.185,245.633 272.937 C 250.604 271.957,256.792 270.088,262.750 267.766 C 265.111 266.846,265.498 266.733,265.503 266.958 M138.441 268.159 C 141.322 269.121,146.046 270.469,152.500 272.172 C 155.021 272.838,157.151 273.442,157.233 273.516 C 157.321 273.594,157.236 274.364,157.030 275.367 C 156.641 277.252,155.064 284.781,154.505 287.417 C 154.310 288.333,154.084 289.421,154.002 289.833 C 153.919 290.246,153.546 292.046,153.171 293.833 C 152.797 295.621,152.376 297.646,152.237 298.333 C 151.787 300.543,151.940 300.475,149.749 299.437 C 139.381 294.526,133.468 281.521,135.696 268.530 C 135.809 267.872,135.916 267.333,135.933 267.333 C 135.951 267.333,137.080 267.705,138.441 268.159 M188.607 297.912 C 195.274 298.619,204.005 301.310,206.230 303.343 C 206.311 303.416,206.654 303.302,206.993 303.088 C 216.680 296.972,231.626 296.236,242.466 301.341 L 243.917 302.024 242.917 302.435 C 222.527 310.822,193.872 312.450,170.250 306.562 C 165.374 305.346,157.388 302.777,156.867 302.256 C 156.661 302.050,163.996 300.002,167.630 299.250 C 174.556 297.818,182.778 297.293,188.607 297.912 " stroke="none" fill="#141414" fill-rule="evenodd"></path><path id="path1" d="M192.667 56.845 C 147.159 59.459,106.720 82.300,81.294 119.750 C 72.075 133.328,64.586 150.065,61.000 165.103 C 60.817 165.872,60.514 167.142,60.327 167.926 C 50.352 209.742,60.989 255.959,88.403 289.917 C 141.455 355.632,239.272 361.646,299.833 302.917 C 361.061 243.542,357.266 144.488,291.667 89.757 C 264.187 66.830,228.039 54.813,192.667 56.845 M67.914 70.208 L 66.250 71.917 67.958 70.253 C 69.545 68.708,69.742 68.500,69.622 68.500 C 69.597 68.500,68.828 69.269,67.914 70.208 M331.917 70.167 C 332.830 71.083,333.615 71.833,333.660 71.833 C 333.706 71.833,332.997 71.083,332.083 70.167 C 331.170 69.250,330.385 68.500,330.340 68.500 C 330.294 68.500,331.003 69.250,331.917 70.167 M209.583 79.568 C 253.975 84.528,287.491 117.582,293.253 162.083 C 298.640 203.686,272.982 245.867,233.333 260.588 C 171.493 283.548,106.444 238.611,106.423 172.917 C 106.406 123.090,144.113 82.883,194.250 79.266 C 196.449 79.107,207.388 79.323,209.583 79.568 M195.044 89.120 C 195.297 89.158,195.672 89.157,195.877 89.117 C 196.082 89.078,195.875 89.046,195.417 89.048 C 194.958 89.049,194.791 89.081,195.044 89.120 M204.208 89.119 C 204.460 89.158,204.873 89.158,205.125 89.119 C 205.377 89.081,205.171 89.050,204.667 89.050 C 204.162 89.050,203.956 89.081,204.208 89.119 M312.250 91.000 C 312.979 91.733,313.613 92.333,313.659 92.333 C 313.705 92.333,313.146 91.733,312.417 91.000 C 311.688 90.267,311.054 89.667,311.008 89.667 C 310.962 89.667,311.521 90.267,312.250 91.000 M87.246 91.542 L 86.083 92.750 87.292 91.588 C 88.414 90.508,88.576 90.333,88.454 90.333 C 88.428 90.333,87.885 90.877,87.246 91.542 M84.573 94.375 L 84.083 94.917 84.625 94.427 C 85.130 93.971,85.243 93.833,85.115 93.833 C 85.086 93.833,84.842 94.077,84.573 94.375 M142.575 111.708 L 141.917 112.417 142.625 111.758 C 143.284 111.145,143.410 111.000,143.284 111.000 C 143.257 111.000,142.938 111.319,142.575 111.708 M194.875 111.119 C 195.127 111.158,195.540 111.158,195.792 111.119 C 196.044 111.081,195.838 111.050,195.333 111.050 C 194.829 111.050,194.623 111.081,194.875 111.119 M203.875 111.119 C 204.127 111.158,204.540 111.158,204.792 111.119 C 205.044 111.081,204.838 111.050,204.333 111.050 C 203.829 111.050,203.623 111.081,203.875 111.119 M257.000 111.219 C 257.000 111.248,257.244 111.491,257.542 111.760 L 258.083 112.250 257.594 111.708 C 257.138 111.203,257.000 111.090,257.000 111.219 M138.824 115.458 L 138.250 116.083 138.875 115.509 C 139.457 114.974,139.577 114.833,139.449 114.833 C 139.422 114.833,139.140 115.115,138.824 115.458 M261.167 115.417 C 261.478 115.737,261.770 116.000,261.815 116.000 C 261.861 116.000,261.644 115.737,261.333 115.417 C 261.022 115.096,260.730 114.833,260.685 114.833 C 260.639 114.833,260.856 115.096,261.167 115.417 M46.571 123.083 C 46.571 125.100,46.595 125.902,46.625 124.866 C 46.654 123.829,46.654 122.179,46.624 121.199 C 46.595 120.219,46.571 121.067,46.571 123.083 M353.404 123.083 C 353.404 125.100,353.429 125.902,353.458 124.866 C 353.487 123.829,353.487 122.179,353.458 121.199 C 353.428 120.219,353.404 121.067,353.404 123.083 M234.500 122.083 C 234.811 122.404,235.103 122.667,235.149 122.667 C 235.195 122.667,234.978 122.404,234.667 122.083 C 234.356 121.763,234.064 121.500,234.018 121.500 C 233.972 121.500,234.189 121.763,234.500 122.083 M164.161 123.125 L 163.250 124.083 164.208 123.172 C 165.099 122.326,165.243 122.167,165.119 122.167 C 165.093 122.167,164.662 122.598,164.161 123.125 M236.333 123.917 C 236.644 124.237,236.936 124.500,236.982 124.500 C 237.028 124.500,236.811 124.237,236.500 123.917 C 236.189 123.596,235.897 123.333,235.851 123.333 C 235.805 123.333,236.022 123.596,236.333 123.917 M200.794 147.451 C 201.001 147.491,201.301 147.490,201.460 147.448 C 201.620 147.406,201.450 147.374,201.083 147.375 C 200.717 147.377,200.586 147.411,200.794 147.451 M195.074 158.167 C 195.074 160.962,195.097 162.106,195.125 160.708 C 195.153 159.310,195.153 157.023,195.125 155.625 C 195.097 154.227,195.074 155.371,195.074 158.167 M249.205 160.333 C 249.205 160.654,249.240 160.785,249.282 160.625 C 249.323 160.465,249.323 160.202,249.282 160.042 C 249.240 159.881,249.205 160.012,249.205 160.333 M150.039 161.667 C 150.039 161.987,150.073 162.119,150.115 161.958 C 150.157 161.798,150.157 161.535,150.115 161.375 C 150.073 161.215,150.039 161.346,150.039 161.667 M149.900 166.000 C 149.900 167.421,149.926 168.002,149.957 167.292 C 149.988 166.581,149.988 165.419,149.957 164.708 C 149.926 163.998,149.900 164.579,149.900 166.000 M249.550 165.500 C 249.550 166.004,249.581 166.210,249.619 165.958 C 249.658 165.706,249.658 165.294,249.619 165.042 C 249.581 164.790,249.550 164.996,249.550 165.500 M283.705 166.500 C 283.705 166.821,283.740 166.952,283.782 166.792 C 283.823 166.631,283.823 166.369,283.782 166.208 C 283.740 166.048,283.705 166.179,283.705 166.500 M116.209 168.917 C 116.211 169.283,116.245 169.414,116.285 169.206 C 116.324 168.999,116.323 168.699,116.281 168.540 C 116.239 168.380,116.207 168.550,116.209 168.917 M283.872 169.000 C 283.872 169.321,283.906 169.452,283.948 169.292 C 283.990 169.131,283.990 168.869,283.948 168.708 C 283.906 168.548,283.872 168.679,283.872 169.000 M249.720 169.833 C 249.720 170.429,249.750 170.673,249.787 170.375 C 249.824 170.077,249.824 169.590,249.787 169.292 C 249.750 168.994,249.720 169.237,249.720 169.833 M116.212 176.833 C 116.212 177.246,116.245 177.415,116.284 177.208 C 116.324 177.002,116.324 176.665,116.284 176.458 C 116.245 176.252,116.212 176.421,116.212 176.833 M283.872 176.667 C 283.872 176.987,283.906 177.119,283.948 176.958 C 283.990 176.798,283.990 176.535,283.948 176.375 C 283.906 176.215,283.872 176.346,283.872 176.667 M283.709 179.250 C 283.711 179.617,283.745 179.747,283.785 179.540 C 283.824 179.332,283.823 179.032,283.781 178.873 C 283.739 178.714,283.707 178.883,283.709 179.250 M149.908 188.500 C 149.908 191.662,149.931 192.956,149.958 191.375 C 149.985 189.794,149.985 187.206,149.958 185.625 C 149.931 184.044,149.908 185.338,149.908 188.500 M249.726 187.583 C 249.725 188.408,249.754 188.767,249.788 188.380 C 249.823 187.993,249.824 187.318,249.789 186.880 C 249.755 186.442,249.726 186.758,249.726 187.583 M249.574 200.583 C 249.574 203.425,249.597 204.611,249.625 203.219 C 249.652 201.827,249.653 199.502,249.625 198.052 C 249.597 196.603,249.574 197.742,249.574 200.583 M198.792 197.284 C 198.998 197.324,199.335 197.324,199.542 197.284 C 199.748 197.245,199.579 197.212,199.167 197.212 C 198.754 197.212,198.585 197.245,198.792 197.284 M205.044 197.286 C 205.297 197.325,205.672 197.324,205.877 197.284 C 206.082 197.244,205.875 197.213,205.417 197.214 C 204.958 197.216,204.791 197.248,205.044 197.286 M150.064 202.833 C 150.064 203.979,150.091 204.448,150.123 203.875 C 150.156 203.302,150.156 202.365,150.123 201.792 C 150.091 201.219,150.064 201.688,150.064 202.833 M209.294 201.451 C 209.501 201.491,209.801 201.490,209.960 201.448 C 210.120 201.406,209.950 201.374,209.583 201.375 C 209.217 201.377,209.086 201.411,209.294 201.451 M203.243 202.209 C 203.198 202.325,203.182 205.006,203.206 208.168 L 203.250 213.917 203.333 207.958 C 203.379 204.681,203.396 202.000,203.370 202.000 C 203.344 202.000,203.287 202.094,203.243 202.209 M150.212 209.333 C 150.212 209.746,150.245 209.915,150.284 209.708 C 150.324 209.502,150.324 209.165,150.284 208.958 C 150.245 208.752,150.212 208.921,150.212 209.333 M249.550 212.167 C 249.550 212.671,249.581 212.877,249.619 212.625 C 249.658 212.373,249.658 211.960,249.619 211.708 C 249.581 211.456,249.550 211.662,249.550 212.167 M150.375 212.583 C 150.377 212.950,150.411 213.080,150.451 212.873 C 150.491 212.666,150.490 212.366,150.448 212.206 C 150.406 212.047,150.374 212.217,150.375 212.583 M152.500 220.719 C 152.500 220.748,152.744 220.991,153.042 221.260 L 153.583 221.750 153.094 221.208 C 152.638 220.703,152.500 220.590,152.500 220.719 M224.632 225.790 C 225.208 225.823,226.108 225.823,226.632 225.790 C 227.155 225.757,226.683 225.730,225.583 225.730 C 224.483 225.731,224.055 225.758,224.632 225.790 M169.880 225.956 C 170.318 225.990,170.993 225.990,171.380 225.955 C 171.767 225.920,171.408 225.892,170.583 225.892 C 169.758 225.893,169.442 225.922,169.880 225.956 M140.583 232.167 C 141.405 232.992,142.114 233.667,142.160 233.667 C 142.206 233.667,141.571 232.992,140.750 232.167 C 139.929 231.342,139.219 230.667,139.174 230.667 C 139.128 230.667,139.762 231.342,140.583 232.167 M256.406 235.042 L 255.917 235.583 256.458 235.094 C 256.963 234.638,257.077 234.500,256.948 234.500 C 256.919 234.500,256.675 234.744,256.406 235.042 M196.377 256.786 C 196.631 256.825,197.006 256.824,197.211 256.784 C 197.416 256.744,197.208 256.713,196.750 256.714 C 196.292 256.716,196.124 256.748,196.377 256.786 M202.877 256.786 C 203.131 256.825,203.506 256.824,203.711 256.784 C 203.916 256.744,203.708 256.713,203.250 256.714 C 202.792 256.716,202.624 256.748,202.877 256.786 M282.667 260.142 C 282.667 268.306,281.667 273.055,278.728 278.857 C 269.514 297.043,244.407 310.606,214.167 313.733 C 208.640 314.305,206.558 314.404,200.083 314.402 C 155.443 314.390,119.662 293.192,117.671 265.576 C 117.414 262.020,117.445 257.167,117.723 257.167 C 117.846 257.167,120.452 258.073,123.515 259.180 C 173.156 277.130,203.245 279.911,242.250 270.153 C 252.551 267.576,264.590 263.703,278.417 258.518 C 280.617 257.693,282.473 257.014,282.542 257.009 C 282.610 257.004,282.667 258.414,282.667 260.142 M265.872 270.333 C 265.872 270.654,265.906 270.785,265.948 270.625 C 265.990 270.465,265.990 270.202,265.948 270.042 C 265.906 269.881,265.872 270.012,265.872 270.333 M135.228 274.083 C 135.228 275.000,135.256 275.354,135.290 274.869 C 135.324 274.385,135.323 273.635,135.289 273.203 C 135.255 272.770,135.227 273.167,135.228 274.083 M265.872 275.833 C 265.872 276.154,265.906 276.285,265.948 276.125 C 265.990 275.965,265.990 275.702,265.948 275.542 C 265.906 275.381,265.872 275.512,265.872 275.833 M143.333 294.917 C 143.831 295.421,144.276 295.833,144.322 295.833 C 144.368 295.833,143.998 295.421,143.500 294.917 C 143.002 294.412,142.557 294.000,142.511 294.000 C 142.466 294.000,142.835 294.412,143.333 294.917 " stroke="none" fill="#83de5a" fill-rule="evenodd"></path><path id="path2" d="M71.917 66.522 C 49.222 86.616,40.862 118.183,50.528 147.282 L 51.555 150.372 51.960 149.228 C 53.635 144.496,55.907 138.789,57.324 135.750 C 57.696 134.952,58.000 134.265,58.000 134.221 C 58.000 134.107,61.556 127.016,62.186 125.874 C 69.673 112.294,77.770 101.277,87.937 90.837 L 90.456 88.250 89.996 87.667 C 89.590 87.152,87.994 84.996,83.933 79.476 C 80.412 74.691,79.391 73.307,77.249 70.417 C 75.958 68.675,74.584 66.819,74.196 66.292 C 73.333 65.121,73.520 65.102,71.917 66.522 M325.559 66.625 C 325.034 67.335,323.857 68.929,322.944 70.167 C 322.031 71.404,321.005 72.792,320.665 73.250 C 317.859 77.033,313.908 82.391,311.116 86.199 L 309.650 88.201 311.866 90.478 C 327.905 106.955,340.285 126.745,347.584 147.572 C 348.599 150.468,348.430 150.528,349.637 146.833 C 359.030 118.080,350.434 85.891,328.225 66.654 C 326.392 65.066,326.708 65.070,325.559 66.625 M195.333 89.097 C 166.031 91.014,140.851 106.860,126.631 132.333 C 125.569 134.237,123.333 138.703,123.333 138.922 C 123.333 138.960,123.152 139.387,122.930 139.873 C 117.752 151.193,115.116 168.245,116.561 181.083 C 120.152 212.995,139.947 239.314,169.000 250.807 C 221.990 271.769,279.629 235.492,283.754 178.583 C 287.218 130.780,249.372 89.690,201.333 89.099 C 198.537 89.065,195.838 89.064,195.333 89.097 M207.000 111.240 C 230.919 113.452,243.120 124.943,247.979 149.833 C 248.493 152.462,249.156 158.245,249.508 163.167 C 249.971 169.631,249.782 213.014,249.279 215.779 C 248.229 221.547,246.452 223.340,240.981 224.153 C 240.396 224.240,238.870 224.470,237.590 224.664 C 224.286 226.684,216.899 225.967,207.404 221.734 C 203.482 219.985,203.089 218.633,203.200 207.257 L 203.250 202.097 203.833 201.969 C 204.154 201.899,205.767 201.725,207.417 201.583 C 215.294 200.903,215.706 200.772,215.942 198.881 C 216.198 196.826,214.815 195.997,211.938 196.483 C 201.135 198.309,191.865 197.278,182.181 193.174 C 179.315 191.959,177.943 192.275,177.575 194.235 C 177.086 196.844,179.669 197.871,194.625 201.014 L 196.500 201.408 196.496 209.329 C 196.492 218.260,196.535 217.931,195.191 219.289 C 189.683 224.853,171.371 227.682,160.026 224.723 C 153.961 223.140,151.342 220.696,150.681 216.000 C 150.005 211.194,149.470 169.110,149.998 162.233 C 152.562 128.829,165.667 113.575,193.917 111.114 C 195.914 110.940,204.667 111.025,207.000 111.240 M198.955 147.903 C 195.673 149.253,195.171 150.576,195.168 157.875 L 195.167 163.167 200.917 163.167 L 206.667 163.167 206.667 158.189 C 206.667 152.850,206.572 151.916,205.889 150.514 C 204.629 147.931,201.633 146.802,198.955 147.903 M262.667 267.861 C 256.383 270.271,250.706 271.988,245.671 273.001 C 242.594 273.620,242.929 273.320,243.322 275.100 C 243.852 277.505,245.582 285.736,247.014 292.667 C 247.288 293.996,247.657 295.758,247.834 296.583 C 248.011 297.408,248.248 298.552,248.361 299.125 C 248.611 300.390,248.484 300.388,250.924 299.180 C 261.323 294.033,267.645 280.793,265.653 268.333 C 265.391 266.696,265.613 266.731,262.667 267.861 M135.924 267.660 C 135.380 269.493,135.203 276.550,135.640 279.000 C 137.340 288.528,142.437 295.907,149.667 299.309 C 151.823 300.323,151.747 300.324,151.966 299.294 C 152.267 297.880,154.303 288.133,154.847 285.500 C 155.319 283.212,155.523 282.243,156.317 278.500 C 157.199 274.340,157.339 273.617,157.277 273.554 C 157.239 273.517,155.081 272.925,152.479 272.238 C 145.916 270.504,141.525 269.248,138.542 268.252 C 136.416 267.541,135.988 267.445,135.924 267.660 " stroke="none" fill="#ebe7e3" fill-rule="evenodd"></path><path id="path3" d="M193.750 118.854 C 170.320 120.847,159.758 133.788,157.654 163.083 C 157.044 171.584,157.816 214.985,158.593 215.844 C 161.683 219.258,179.427 218.820,187.708 215.124 L 188.833 214.622 188.833 211.151 L 188.833 207.680 188.208 207.524 C 187.865 207.439,185.999 206.988,184.062 206.522 C 173.258 203.921,169.472 200.596,169.898 194.083 C 170.404 186.352,177.287 182.732,185.150 186.063 C 191.555 188.777,197.130 189.838,203.750 189.604 C 206.600 189.503,207.854 189.367,211.500 188.764 C 219.496 187.440,225.491 194.182,223.086 201.794 C 221.630 206.404,217.300 208.994,211.042 209.000 C 210.801 209.000,210.777 209.907,210.941 212.946 L 211.048 214.945 212.468 215.501 C 220.232 218.540,225.532 218.791,238.532 216.734 L 241.314 216.294 241.498 215.439 C 241.910 213.523,242.023 210.820,241.971 204.167 C 241.941 200.362,241.983 191.625,242.065 184.750 C 242.429 153.982,239.985 140.565,232.239 130.814 C 225.000 121.701,211.092 117.379,193.750 118.854 M204.917 140.330 C 208.412 141.438,211.077 143.734,212.754 147.083 C 214.253 150.074,214.233 149.894,214.294 161.042 L 214.348 170.833 200.828 170.833 L 187.307 170.833 187.381 161.375 C 187.461 151.222,187.466 151.152,188.383 148.625 C 190.756 142.088,198.386 138.260,204.917 140.330 " stroke="none" fill="#04abdb" fill-rule="evenodd"></path><path id="path4" d="M176.500 297.924 C 171.940 298.364,167.672 299.128,163.083 300.326 C 160.379 301.033,156.766 302.155,156.867 302.256 C 157.388 302.777,165.374 305.346,170.250 306.562 C 193.872 312.450,222.527 310.822,242.917 302.435 L 243.917 302.024 242.466 301.341 C 231.626 296.236,216.680 296.972,206.993 303.088 C 206.654 303.302,206.311 303.416,206.230 303.343 C 205.870 303.014,202.722 301.483,200.938 300.769 C 194.385 298.147,185.236 297.082,176.500 297.924 " stroke="none" fill="#e4696b" fill-rule="evenodd"></path></g></svg>