<svg id="svg" version="1.1" xmlns="http://www.w3.org/2000/svg" xmlns:xlink="http://www.w3.org/1999/xlink" width="400" height="378.5814936589949" viewBox="0, 0, 400,378.5814936589949"><g id="svgg"><path id="path0" d="M189.122 26.015 C 187.578 26.379,185.950 27.709,185.269 29.163 C 184.929 29.889,184.914 30.210,184.833 37.996 L 184.750 46.075 183.083 46.372 C 161.309 50.242,143.122 59.503,127.691 74.576 C 112.218 89.691,101.283 110.681,98.165 131.250 C 98.067 131.892,97.949 132.545,97.902 132.701 C 97.822 132.963,97.183 132.989,89.783 133.034 L 81.750 133.083 80.947 133.493 C 79.729 134.116,78.952 134.866,78.322 136.029 L 77.750 137.083 77.750 148.250 L 77.750 159.417 78.214 160.297 C 78.833 161.472,79.828 162.438,80.975 162.975 L 81.917 163.417 89.866 163.464 C 97.201 163.509,97.822 163.534,97.903 163.798 C 97.951 163.955,98.110 164.833,98.256 165.750 C 99.553 173.914,102.509 183.404,106.355 191.750 L 107.583 194.417 107.667 150.591 L 107.750 106.765 109.619 105.424 C 119.164 98.577,135.341 90.413,149.167 85.467 C 184.027 72.994,215.673 72.936,250.500 85.282 C 265.046 90.439,281.893 98.999,291.542 106.135 L 292.500 106.844 292.503 150.547 L 292.507 194.250 293.268 192.667 C 297.349 184.177,300.434 174.298,302.000 164.708 L 302.197 163.500 309.818 163.500 C 319.718 163.500,320.443 163.292,321.983 160.008 L 322.417 159.083 322.417 148.250 L 322.417 137.417 321.973 136.471 C 321.380 135.206,320.335 134.107,319.190 133.545 L 318.250 133.083 310.233 133.036 L 302.215 132.988 301.924 131.286 C 295.796 95.490,272.013 65.937,238.417 52.370 C 231.968 49.766,221.872 46.978,216.216 46.239 L 215.348 46.126 215.299 38.188 L 215.250 30.250 214.818 29.333 C 214.008 27.613,212.750 26.524,211.062 26.085 C 209.959 25.798,190.310 25.735,189.122 26.015 M87.473 214.697 C 86.028 215.082,85.477 215.873,81.164 223.755 C 76.726 231.866,76.506 232.520,77.577 234.467 C 78.275 235.737,78.956 236.190,88.167 241.504 C 90.504 242.852,93.617 244.653,95.083 245.505 C 96.550 246.357,98.800 247.661,100.083 248.403 L 102.417 249.751 102.611 251.316 C 103.224 256.264,103.978 257.162,111.221 261.572 C 113.800 263.143,113.662 262.810,112.827 265.429 C 109.083 277.185,108.927 280.358,111.900 284.284 C 113.231 286.041,114.404 286.796,127.500 294.327 C 129.929 295.724,131.981 296.927,132.059 297.000 C 132.238 297.169,131.298 300.169,127.880 310.333 C 124.302 320.978,124.180 321.368,123.956 322.876 C 123.741 324.331,123.886 325.368,124.503 326.803 L 124.864 327.643 131.140 331.268 C 149.449 341.841,148.260 341.220,150.000 341.117 C 153.152 340.931,154.734 339.180,157.414 332.917 C 159.787 327.371,160.450 325.071,164.650 307.833 C 166.311 301.014,167.000 299.655,169.371 298.520 C 171.508 297.496,175.389 296.667,178.037 296.667 C 179.215 296.667,179.225 296.613,178.519 294.000 L 178.046 292.250 178.552 291.500 C 180.207 289.048,183.224 286.008,186.917 283.071 C 188.292 281.978,189.904 280.620,190.500 280.053 C 191.815 278.802,191.976 279.048,188.408 276.854 C 186.201 275.497,185.745 275.148,185.640 274.739 C 185.505 274.216,183.833 265.188,183.833 264.986 C 183.833 264.919,183.113 264.443,182.232 263.927 C 180.411 262.861,180.640 262.817,179.235 264.503 C 178.615 265.248,178.210 265.606,178.095 265.512 C 177.997 265.431,175.779 264.134,173.167 262.630 C 168.721 260.070,163.946 257.310,156.417 252.950 C 154.675 251.941,151.862 250.315,150.167 249.336 C 148.471 248.358,145.358 246.558,143.250 245.337 C 141.142 244.116,138.217 242.427,136.750 241.583 C 133.282 239.587,127.817 236.433,121.583 232.830 C 118.833 231.240,116.124 229.682,115.563 229.367 L 114.542 228.795 113.058 225.689 C 112.241 223.981,111.500 222.465,111.412 222.321 C 111.068 221.763,106.300 219.149,106.101 219.410 C 105.027 220.817,103.884 222.151,103.748 222.158 C 103.655 222.163,102.530 221.560,101.248 220.817 C 89.669 214.115,89.664 214.113,87.473 214.697 M310.000 214.646 C 309.155 214.925,301.722 219.066,297.583 221.562 C 296.279 222.350,296.405 222.394,295.010 220.668 L 293.798 219.169 293.107 219.585 C 292.728 219.813,291.599 220.469,290.599 221.042 L 288.782 222.083 287.160 225.432 L 285.537 228.780 284.227 229.541 C 283.506 229.960,280.217 231.858,276.917 233.759 C 273.617 235.661,269.492 238.040,267.750 239.048 C 266.008 240.056,263.121 241.721,261.333 242.749 C 259.546 243.777,256.358 245.617,254.250 246.838 C 252.142 248.058,249.029 249.856,247.333 250.833 C 240.636 254.692,238.530 255.910,237.250 256.666 C 236.517 257.099,234.117 258.489,231.917 259.755 C 229.717 261.022,226.583 262.832,224.952 263.779 C 221.446 265.815,221.918 265.737,220.830 264.458 C 220.343 263.885,219.848 263.311,219.731 263.182 C 219.552 262.984,219.276 263.092,217.937 263.891 L 216.356 264.835 216.100 266.043 C 215.873 267.120,215.203 270.718,214.638 273.896 C 214.392 275.284,214.553 275.119,211.843 276.750 C 210.625 277.483,209.367 278.308,209.048 278.583 L 208.469 279.083 209.693 280.180 C 210.366 280.783,211.929 282.087,213.167 283.078 C 217.216 286.322,219.376 288.466,221.269 291.118 L 222.043 292.203 221.521 294.163 C 220.824 296.787,220.803 296.666,221.958 296.668 C 223.530 296.670,225.810 296.979,227.557 297.427 C 232.907 298.797,233.437 299.551,235.748 309.083 C 239.401 324.153,240.395 327.573,242.689 332.971 C 245.387 339.323,247.389 341.371,250.664 341.135 C 251.991 341.039,252.638 340.695,265.500 333.257 C 267.837 331.905,270.938 330.119,272.391 329.287 C 275.209 327.672,275.319 327.570,275.866 326.063 C 276.689 323.796,276.630 323.537,272.508 311.250 C 269.017 300.845,267.935 297.409,268.053 297.101 C 268.097 296.987,269.097 296.340,270.275 295.665 C 271.453 294.989,273.467 293.826,274.750 293.080 C 276.033 292.335,278.546 290.875,280.333 289.837 C 291.699 283.237,292.260 281.333,287.398 265.864 C 286.985 264.552,286.610 263.379,286.563 263.258 C 286.508 263.115,287.451 262.444,289.281 261.323 C 293.364 258.822,294.769 257.874,295.273 257.279 C 296.329 256.033,297.255 253.375,297.577 250.667 L 297.686 249.750 299.885 248.473 C 301.094 247.771,303.733 246.241,305.750 245.073 C 322.977 235.098,322.084 235.683,322.757 233.922 C 323.431 232.156,323.148 231.440,318.203 222.417 C 314.866 216.329,314.321 215.504,313.282 214.973 C 312.526 214.587,310.723 214.408,310.000 214.646 M198.006 221.156 C 197.911 221.333,197.833 222.003,197.833 222.644 L 197.833 223.810 196.875 224.008 C 191.113 225.199,186.462 229.777,185.054 235.646 L 184.769 236.833 183.623 236.833 C 181.840 236.833,181.833 236.842,181.833 239.056 C 181.833 241.327,181.838 241.333,183.494 241.333 L 184.754 241.333 185.128 242.858 C 186.453 248.265,190.932 252.746,196.314 254.050 L 197.829 254.417 197.831 255.699 C 197.834 257.379,197.987 257.500,200.102 257.500 C 202.139 257.500,202.310 257.362,202.372 255.678 L 202.417 254.440 203.583 254.152 C 209.556 252.677,214.425 247.644,215.258 242.085 L 215.371 241.333 216.682 241.333 C 218.423 241.333,218.556 241.155,218.475 238.946 C 218.399 236.914,218.330 236.833,216.665 236.833 L 215.371 236.833 215.253 236.044 C 214.436 230.596,209.325 225.355,203.582 224.078 L 202.333 223.800 202.333 222.517 C 202.333 220.835,202.331 220.833,200.056 220.833 C 198.370 220.833,198.161 220.866,198.006 221.156 M93.894 225.946 C 96.382 227.383,99.804 229.358,101.500 230.335 C 105.107 232.413,121.155 241.677,123.583 243.083 C 126.217 244.608,135.744 250.103,151.167 258.991 C 159.004 263.508,165.810 267.459,166.292 267.770 L 167.167 268.337 167.167 269.323 C 167.167 270.422,166.719 271.000,165.867 271.000 C 165.262 271.000,158.813 267.473,149.417 262.004 C 148.042 261.204,144.142 258.950,140.750 256.996 C 137.358 255.041,133.196 252.642,131.500 251.663 C 129.804 250.684,127.404 249.301,126.167 248.589 C 124.929 247.876,122.717 246.600,121.250 245.751 C 119.783 244.903,115.696 242.540,112.167 240.500 C 108.638 238.460,104.888 236.286,103.833 235.668 C 102.779 235.050,100.267 233.585,98.250 232.412 C 88.108 226.514,87.332 226.001,87.337 225.200 C 87.342 224.316,88.291 223.382,89.227 223.340 C 89.307 223.336,91.407 224.509,93.894 225.946 M311.525 223.570 C 312.825 224.113,313.212 225.318,312.327 226.063 C 311.801 226.506,306.572 229.670,301.333 232.716 C 291.784 238.269,273.906 248.614,265.417 253.499 C 263.400 254.660,257.741 257.919,252.842 260.741 C 237.106 269.806,234.935 271.000,234.196 271.000 C 233.194 271.000,232.694 270.153,232.916 268.835 C 233.039 268.107,232.304 268.587,240.583 263.826 C 241.958 263.036,244.808 261.390,246.917 260.170 C 249.025 258.949,252.662 256.848,255.000 255.500 C 261.865 251.541,267.754 248.143,270.167 246.747 C 271.404 246.031,273.804 244.645,275.500 243.666 C 287.668 236.645,292.199 234.030,296.583 231.498 C 307.309 225.303,310.751 223.333,310.853 223.333 C 310.911 223.333,311.214 223.440,311.525 223.570 M197.833 230.071 C 197.833 232.160,197.840 232.167,200.145 232.167 C 202.374 232.167,202.333 232.205,202.333 230.112 L 202.333 228.458 202.796 228.551 C 206.163 229.224,209.521 232.429,210.558 235.958 L 210.815 236.833 209.212 236.833 C 207.044 236.833,207.000 236.877,207.000 239.037 C 207.000 241.363,206.973 241.333,209.074 241.333 L 210.803 241.333 210.594 242.125 C 209.911 244.705,207.945 247.185,205.417 248.656 C 204.893 248.961,202.648 249.833,202.387 249.833 C 202.358 249.833,202.333 249.089,202.333 248.179 C 202.333 246.009,202.324 246.000,200.126 246.000 C 197.866 246.000,197.833 246.032,197.833 248.204 C 197.833 250.092,197.995 249.993,196.120 249.250 C 192.995 248.011,189.998 244.670,189.553 241.928 L 189.456 241.333 191.112 241.333 C 193.205 241.333,193.167 241.374,193.167 239.145 C 193.167 236.838,193.163 236.833,191.053 236.833 L 189.463 236.833 189.576 236.229 C 190.120 233.329,193.073 230.069,196.213 228.903 C 197.878 228.284,197.833 228.252,197.833 230.071 M199.250 236.993 C 198.139 237.456,197.576 238.895,198.056 240.044 C 198.721 241.635,201.095 241.779,202.007 240.284 C 203.103 238.485,201.180 236.190,199.250 236.993 M125.676 269.892 C 128.982 271.756,137.966 276.974,139.313 277.811 C 139.506 277.931,139.501 278.081,139.282 278.768 C 139.139 279.217,138.486 281.271,137.831 283.333 C 135.857 289.546,135.791 289.745,135.664 289.888 C 135.445 290.133,131.978 288.215,124.167 283.528 C 117.622 279.600,117.543 279.350,120.106 270.593 C 120.769 268.328,121.087 267.500,121.293 267.500 C 121.372 267.500,123.344 268.576,125.676 269.892 M279.739 269.875 C 282.738 279.395,282.711 279.470,274.583 284.315 C 267.668 288.438,264.595 290.157,264.437 289.988 C 264.401 289.949,263.794 288.117,263.089 285.917 C 262.385 283.717,261.522 281.031,261.173 279.950 L 260.539 277.982 260.894 277.760 C 262.188 276.949,263.120 276.394,266.083 274.668 C 267.917 273.601,271.329 271.652,273.667 270.338 C 276.004 269.024,278.067 267.852,278.250 267.733 C 278.879 267.326,278.982 267.474,279.739 269.875 M152.895 289.336 C 158.566 292.564,159.394 293.134,159.928 294.190 C 160.924 296.154,161.007 295.729,156.559 311.333 C 151.462 329.218,151.432 329.295,149.324 330.241 C 147.057 331.258,145.892 330.908,140.083 327.465 C 131.031 322.098,131.244 322.942,135.829 310.583 C 144.385 287.521,143.834 288.779,145.832 287.749 C 147.915 286.677,148.425 286.791,152.895 289.336 M254.020 287.621 C 256.022 288.508,255.984 288.436,259.904 298.890 C 268.217 321.060,268.012 320.356,266.819 322.695 C 266.314 323.684,261.163 327.030,256.045 329.693 C 252.729 331.418,250.075 330.922,248.755 328.333 C 247.480 325.834,239.631 298.360,239.612 296.333 C 239.589 293.854,240.166 293.330,247.645 289.040 L 250.917 287.163 252.083 287.221 C 252.782 287.256,253.559 287.416,254.020 287.621 " stroke="none" fill="#f55346" fill-rule="evenodd"></path><path id="path1" d="M194.667 111.371 C 191.707 117.080,188.932 122.425,188.499 123.250 C 188.067 124.075,186.985 126.156,186.097 127.873 L 184.481 130.997 190.512 142.957 C 193.829 149.535,197.911 157.617,199.583 160.917 C 201.256 164.217,205.681 172.992,209.418 180.417 C 213.155 187.842,217.355 196.167,218.751 198.917 C 220.148 201.667,222.955 207.235,224.988 211.292 L 228.686 218.667 244.843 218.667 C 253.729 218.667,261.000 218.620,261.000 218.562 C 261.000 218.504,260.785 218.073,260.522 217.604 C 260.259 217.134,259.236 215.175,258.247 213.250 C 257.259 211.325,254.466 205.925,252.040 201.250 C 249.615 196.575,247.028 191.588,246.292 190.167 C 245.556 188.746,244.448 186.608,243.830 185.417 C 243.212 184.225,241.152 180.250,239.252 176.583 C 237.352 172.917,235.214 168.792,234.501 167.417 C 232.606 163.761,222.348 143.968,215.627 131.000 C 212.420 124.813,209.252 118.700,208.585 117.417 C 207.919 116.133,205.743 111.933,203.748 108.083 C 201.754 104.233,200.106 101.063,200.085 101.038 C 200.065 101.013,197.627 105.663,194.667 111.371 M179.697 140.277 C 179.188 141.233,178.040 143.433,176.712 146.000 C 175.881 147.604,173.161 152.854,170.666 157.667 C 168.171 162.479,165.547 167.542,164.835 168.917 C 163.521 171.456,157.494 183.094,155.211 187.500 C 154.522 188.829,153.413 190.967,152.747 192.250 C 142.490 211.999,139.167 218.438,139.167 218.564 C 139.167 218.620,146.423 218.667,155.292 218.667 L 171.417 218.666 173.124 215.292 C 174.063 213.435,176.280 209.067,178.049 205.583 C 179.819 202.100,182.980 195.875,185.073 191.750 C 187.167 187.625,189.498 183.050,190.252 181.583 C 192.876 176.485,195.500 171.191,195.500 170.996 C 195.500 170.888,194.384 168.614,193.021 165.942 C 191.658 163.270,188.160 156.358,185.248 150.583 C 179.174 138.537,179.903 139.891,179.697 140.277 " stroke="none" fill="#f6f2f0" fill-rule="evenodd"></path><path id="path2" d="M187.978 17.508 C 183.755 18.147,179.722 21.138,177.676 25.148 C 176.469 27.513,176.179 29.391,176.172 34.863 L 176.167 38.976 175.208 39.164 C 174.681 39.268,174.063 39.417,173.833 39.497 C 173.604 39.576,173.004 39.728,172.500 39.834 C 169.791 40.402,161.295 43.125,159.225 44.089 C 158.936 44.223,158.636 44.336,158.558 44.339 C 158.480 44.342,158.117 44.490,157.750 44.667 C 157.383 44.844,157.029 44.991,156.963 44.994 C 156.897 44.997,156.410 45.196,155.880 45.435 C 155.350 45.674,154.654 45.982,154.333 46.121 C 153.382 46.531,146.924 49.717,146.833 49.821 C 146.787 49.874,146.450 50.065,146.083 50.245 C 145.717 50.426,145.131 50.749,144.781 50.963 C 144.431 51.176,143.906 51.486,143.614 51.651 C 142.053 52.531,137.638 55.319,137.138 55.740 C 136.985 55.869,136.690 56.065,136.482 56.176 C 136.274 56.287,135.954 56.518,135.771 56.689 C 135.587 56.860,135.382 57.000,135.314 57.000 C 135.246 57.000,135.091 57.096,134.970 57.214 C 134.849 57.332,134.375 57.688,133.918 58.006 C 133.460 58.323,132.516 59.033,131.821 59.583 C 131.126 60.133,130.307 60.771,130.002 61.000 C 129.697 61.229,129.348 61.514,129.227 61.634 C 129.106 61.753,128.516 62.253,127.916 62.744 C 122.555 67.138,116.225 73.784,111.082 80.417 C 109.423 82.556,105.882 87.694,104.705 89.667 C 103.454 91.766,100.833 96.475,100.833 96.625 C 100.833 96.724,100.777 96.831,100.708 96.861 C 100.573 96.921,99.562 98.936,98.589 101.083 C 98.256 101.817,97.878 102.642,97.747 102.917 C 97.617 103.192,97.279 103.979,96.995 104.667 C 96.712 105.354,96.413 106.067,96.330 106.250 C 96.247 106.433,95.911 107.296,95.583 108.167 C 95.255 109.037,94.919 109.900,94.837 110.083 C 94.755 110.267,94.410 111.279,94.071 112.333 C 93.733 113.388,93.393 114.400,93.317 114.583 C 93.241 114.767,93.055 115.367,92.904 115.917 C 91.608 120.627,90.840 123.643,90.836 124.042 C 90.834 124.312,90.520 124.333,86.601 124.333 C 76.983 124.333,72.437 126.990,69.775 134.167 L 69.250 135.583 69.250 148.250 L 69.250 160.917 69.775 162.333 C 70.489 164.258,71.336 165.828,72.075 166.599 C 72.171 166.699,72.436 167.025,72.664 167.325 C 72.891 167.624,73.529 168.237,74.080 168.686 C 74.632 169.136,75.171 169.575,75.279 169.663 C 75.386 169.751,75.911 170.044,76.445 170.316 C 79.532 171.883,80.330 172.034,86.042 172.128 C 90.327 172.198,90.834 172.235,90.836 172.478 C 90.840 172.858,91.630 175.954,92.904 180.583 C 93.055 181.133,93.248 181.733,93.332 181.917 C 93.416 182.100,93.594 182.633,93.727 183.102 C 93.942 183.862,94.695 185.967,95.894 189.167 C 96.314 190.287,97.060 192.024,98.540 195.333 C 98.725 195.746,99.252 196.833,99.713 197.750 C 100.173 198.667,100.699 199.717,100.882 200.083 C 101.325 200.973,103.933 205.597,104.407 206.333 C 104.614 206.654,105.064 207.353,105.408 207.886 C 105.900 208.649,106.169 209.590,105.699 208.904 C 105.572 208.718,104.311 207.957,104.259 208.035 C 104.241 208.062,103.672 208.758,102.995 209.583 C 102.318 210.408,101.753 211.104,101.739 211.128 C 101.726 211.153,100.373 210.410,98.733 209.477 C 93.513 206.508,92.070 206.000,88.855 206.000 C 84.327 206.000,80.053 208.252,78.169 211.632 C 78.030 211.880,77.879 212.121,77.833 212.167 C 77.735 212.265,77.751 212.237,75.582 216.083 C 73.966 218.948,72.849 220.997,71.810 223.000 C 71.549 223.504,71.279 223.992,71.209 224.085 C 70.859 224.554,69.527 227.496,68.985 229.000 C 67.869 232.095,68.898 237.800,70.992 240.130 C 71.134 240.288,71.451 240.686,71.696 241.015 C 72.114 241.575,74.462 243.500,74.727 243.500 C 74.793 243.500,75.008 243.650,75.205 243.833 C 75.402 244.017,75.661 244.167,75.781 244.167 C 75.902 244.167,76.000 244.242,76.000 244.333 C 76.000 244.425,76.065 244.500,76.145 244.500 C 76.225 244.500,76.994 244.923,77.854 245.440 C 78.713 245.958,79.642 246.509,79.917 246.665 C 80.605 247.057,83.823 248.888,84.333 249.179 C 84.563 249.310,84.787 249.454,84.833 249.500 C 84.879 249.546,85.067 249.665,85.250 249.765 C 86.247 250.308,90.503 252.756,91.917 253.598 C 92.283 253.817,93.013 254.238,93.538 254.534 C 94.487 255.070,94.496 255.082,94.919 256.439 C 96.094 260.209,97.945 262.997,100.537 264.900 C 101.113 265.322,101.658 265.724,101.750 265.792 C 101.842 265.861,102.235 266.124,102.625 266.377 C 103.409 266.887,103.441 267.003,103.091 268.037 C 102.546 269.640,101.602 273.780,101.312 275.833 C 100.428 282.097,103.217 288.826,108.333 292.777 C 109.593 293.749,111.771 295.167,112.005 295.167 C 112.094 295.167,112.167 295.242,112.167 295.333 C 112.167 295.425,112.232 295.500,112.312 295.500 C 112.392 295.500,113.161 295.923,114.020 296.440 C 114.880 296.958,115.808 297.509,116.083 297.665 C 116.358 297.822,117.408 298.423,118.417 299.001 C 119.425 299.579,120.418 300.135,120.624 300.235 C 120.829 300.335,120.998 300.473,120.999 300.542 C 120.999 300.610,121.103 300.667,121.230 300.667 C 121.850 300.667,121.921 301.901,121.360 302.910 C 121.255 303.097,117.175 315.130,116.554 317.083 C 115.243 321.202,114.953 324.535,115.661 327.333 C 116.076 328.975,116.109 329.060,117.364 331.733 C 118.397 333.932,118.248 333.782,120.787 335.183 C 121.317 335.475,121.938 335.835,122.167 335.982 C 122.788 336.381,123.021 336.515,125.833 338.105 C 127.254 338.907,128.454 339.606,128.500 339.657 C 128.546 339.708,128.858 339.900,129.195 340.083 C 129.531 340.267,130.980 341.092,132.414 341.917 C 133.849 342.742,135.299 343.567,135.636 343.750 C 135.974 343.933,136.287 344.123,136.333 344.172 C 136.820 344.690,144.211 348.591,145.833 349.186 C 147.409 349.764,151.977 349.775,153.750 349.204 C 156.771 348.231,159.411 346.400,161.014 344.163 C 161.419 343.599,161.825 343.047,161.917 342.937 C 162.226 342.566,163.488 340.315,163.840 339.506 C 163.938 339.281,164.311 338.493,164.669 337.756 C 165.027 337.020,165.701 335.404,166.166 334.167 C 166.631 332.929,167.081 331.767,167.165 331.583 C 167.394 331.085,168.119 328.855,168.329 328.000 C 168.431 327.587,168.585 327.100,168.672 326.917 C 168.759 326.733,168.941 326.133,169.076 325.583 C 169.211 325.033,169.518 323.833,169.758 322.917 C 170.257 321.006,170.686 319.295,171.263 316.917 C 171.888 314.337,172.287 312.704,172.646 311.250 C 172.827 310.517,173.129 309.279,173.318 308.500 C 173.927 305.987,173.956 305.928,174.679 305.703 C 175.731 305.374,175.804 305.406,179.212 307.667 C 181.008 308.858,182.521 309.833,182.574 309.833 C 182.627 309.833,183.026 310.079,183.460 310.380 C 184.672 311.219,189.270 313.951,192.333 315.652 C 193.846 316.491,195.196 317.244,195.333 317.324 C 195.471 317.404,196.576 317.964,197.789 318.568 L 199.994 319.666 200.705 319.383 C 201.694 318.990,206.853 316.419,208.167 315.666 C 208.762 315.324,209.737 314.784,210.333 314.467 C 210.929 314.149,211.792 313.675,212.250 313.414 C 212.708 313.153,213.233 312.858,213.417 312.759 C 213.600 312.659,213.938 312.459,214.167 312.314 C 214.396 312.169,215.446 311.538,216.500 310.913 C 217.554 310.287,218.904 309.463,219.500 309.081 C 222.732 307.008,223.271 306.661,223.500 306.503 C 224.871 305.556,224.889 305.548,225.434 305.716 C 226.110 305.923,226.207 306.130,226.815 308.667 C 227.089 309.813,227.548 311.688,227.834 312.833 C 228.120 313.979,228.532 315.667,228.749 316.583 C 230.804 325.235,231.746 328.457,233.893 334.167 C 235.205 337.655,237.821 342.807,238.787 343.804 C 238.904 343.925,239.000 344.080,239.000 344.149 C 239.000 344.426,241.313 346.635,242.238 347.242 C 247.531 350.716,252.900 350.544,259.333 346.696 C 259.654 346.504,260.179 346.217,260.500 346.057 C 260.821 345.898,261.121 345.721,261.167 345.665 C 261.212 345.609,262.438 344.892,263.890 344.073 C 265.341 343.254,266.729 342.465,266.973 342.319 C 267.466 342.026,267.630 341.932,272.000 339.444 C 273.696 338.478,275.174 337.608,275.285 337.511 C 275.395 337.413,275.509 337.333,275.537 337.333 C 275.566 337.333,276.970 336.548,278.658 335.588 L 281.726 333.844 282.464 332.297 C 284.507 328.010,284.755 327.086,284.735 323.833 C 284.718 321.046,283.997 317.661,282.903 315.225 C 282.773 314.936,282.667 314.610,282.667 314.500 C 282.667 314.390,282.559 314.064,282.428 313.775 C 282.217 313.312,278.167 301.248,278.167 301.083 C 278.167 301.048,278.927 300.583,279.856 300.051 C 280.785 299.519,281.817 298.915,282.148 298.709 C 282.479 298.504,282.856 298.285,282.985 298.223 C 284.060 297.708,289.983 294.105,291.250 293.195 C 294.703 290.715,297.113 287.074,298.493 282.250 C 298.944 280.676,298.987 275.607,298.562 274.266 C 298.505 274.086,298.325 273.334,298.161 272.595 C 297.725 270.626,297.187 268.520,296.909 267.704 C 296.776 267.310,296.667 266.960,296.667 266.924 C 296.667 266.889,296.948 266.689,297.292 266.479 C 299.509 265.127,302.092 262.847,302.666 261.734 C 302.804 261.468,302.964 261.212,303.023 261.167 C 303.333 260.926,304.664 257.985,305.172 256.417 C 305.381 255.775,305.671 255.159,305.817 255.047 C 306.354 254.639,306.441 254.579,306.811 254.367 C 310.810 252.072,317.787 248.038,318.417 247.656 C 318.692 247.489,319.479 247.037,320.167 246.651 C 321.829 245.718,324.602 244.039,325.355 243.509 C 325.688 243.275,326.138 242.971,326.355 242.833 C 328.459 241.501,330.812 237.885,331.347 235.162 C 332.143 231.118,331.343 228.460,326.940 220.521 C 326.515 219.754,326.167 219.099,326.167 219.066 C 326.167 218.885,322.374 212.325,321.667 211.282 C 319.231 207.692,316.040 206.102,311.250 206.092 C 307.528 206.085,307.044 206.246,301.618 209.308 C 300.536 209.918,299.513 210.495,299.344 210.590 C 299.174 210.685,298.910 210.867,298.758 210.994 C 298.447 211.251,298.367 211.184,297.084 209.582 C 296.717 209.124,296.274 208.583,296.098 208.378 L 295.779 208.006 295.181 208.368 C 294.852 208.567,294.399 208.847,294.173 208.990 C 293.705 209.287,293.683 209.337,294.677 207.833 C 296.586 204.947,298.047 202.326,300.343 197.667 C 302.312 193.674,302.332 193.631,303.008 192.000 C 303.292 191.313,303.624 190.525,303.744 190.250 C 303.864 189.975,304.017 189.563,304.083 189.333 C 304.150 189.104,304.306 188.692,304.431 188.417 C 305.529 185.998,307.810 178.661,308.835 174.250 C 309.027 173.425,309.220 172.627,309.264 172.477 C 309.335 172.235,309.876 172.195,314.047 172.125 C 318.732 172.047,320.545 171.825,321.807 171.175 C 321.959 171.097,322.575 170.803,323.177 170.521 C 326.802 168.826,329.721 165.070,330.704 160.833 C 331.011 159.511,331.011 136.989,330.704 135.667 C 329.807 131.803,326.131 126.833,323.723 126.228 C 323.509 126.175,323.333 126.064,323.333 125.982 C 323.333 125.900,323.258 125.833,323.165 125.833 C 323.072 125.833,322.678 125.688,322.290 125.510 C 320.349 124.622,318.186 124.333,313.462 124.333 L 309.340 124.333 309.255 123.958 C 309.208 123.752,309.098 123.283,309.011 122.917 C 308.925 122.550,308.732 121.725,308.583 121.083 C 308.435 120.442,308.249 119.767,308.171 119.583 C 308.092 119.400,307.944 118.875,307.841 118.417 C 307.608 117.374,306.854 114.836,306.676 114.495 C 306.602 114.354,306.485 113.979,306.415 113.661 C 306.306 113.161,305.356 110.492,304.075 107.083 C 303.726 106.153,302.785 103.904,302.263 102.750 C 301.502 101.069,298.668 95.370,298.036 94.250 C 296.713 91.909,294.929 88.924,294.722 88.707 C 294.612 88.592,294.474 88.348,294.416 88.166 C 294.358 87.983,294.241 87.833,294.155 87.833 C 294.070 87.833,294.000 87.759,294.000 87.669 C 294.000 87.455,290.817 82.784,289.627 81.250 C 289.556 81.158,289.142 80.626,288.707 80.068 C 288.272 79.510,287.729 78.803,287.500 78.497 C 287.271 78.191,286.933 77.771,286.750 77.564 C 286.567 77.357,286.117 76.828,285.750 76.388 C 281.769 71.612,276.165 66.012,271.850 62.500 C 271.455 62.179,271.009 61.797,270.858 61.651 C 270.165 60.982,265.251 57.311,263.333 56.030 C 262.554 55.509,261.879 55.041,261.833 54.989 C 261.677 54.811,256.590 51.708,254.758 50.674 C 252.884 49.615,247.338 46.821,246.000 46.262 C 245.588 46.090,244.779 45.735,244.204 45.474 C 243.629 45.213,243.118 45.000,243.068 45.000 C 243.019 45.000,242.569 44.813,242.068 44.583 C 241.567 44.354,241.062 44.167,240.945 44.167 C 240.829 44.167,240.662 44.101,240.575 44.020 C 240.488 43.940,240.117 43.781,239.750 43.667 C 239.383 43.554,238.858 43.364,238.583 43.245 C 237.867 42.936,233.848 41.599,232.083 41.083 C 231.258 40.842,230.246 40.542,229.833 40.417 C 229.106 40.197,225.471 39.310,224.375 39.085 L 223.833 38.974 223.833 34.501 C 223.833 28.900,223.569 27.295,222.268 25.000 C 222.035 24.587,221.680 23.950,221.481 23.584 C 220.687 22.126,216.354 18.506,215.394 18.499 C 215.315 18.498,215.025 18.381,214.750 18.237 C 213.257 17.459,212.930 17.439,200.583 17.401 C 194.167 17.382,188.494 17.430,187.978 17.508 M212.008 26.350 C 213.327 26.969,214.080 27.701,214.705 28.969 L 215.250 30.076 215.333 38.067 L 215.417 46.059 217.667 46.432 C 255.999 52.777,288.419 81.717,299.243 119.250 C 300.443 123.409,301.726 129.126,302.094 131.949 L 302.207 132.816 310.145 132.866 L 318.083 132.917 319.000 133.354 C 320.359 134.003,321.242 134.857,321.868 136.128 L 322.417 137.243 322.462 147.900 C 322.516 160.615,322.499 160.725,320.196 162.385 C 318.500 163.607,318.795 163.571,310.062 163.633 L 302.207 163.690 302.094 164.553 C 301.125 171.987,297.394 184.288,293.947 191.417 C 293.726 191.875,293.328 192.700,293.064 193.250 L 292.583 194.250 292.500 150.559 L 292.417 106.868 291.417 106.132 C 279.957 97.700,258.625 87.445,242.958 82.837 C 242.385 82.668,241.242 82.330,240.417 82.085 C 205.512 71.725,171.009 74.892,133.750 91.877 C 125.832 95.487,115.501 101.352,109.196 105.816 L 107.642 106.917 107.763 150.792 C 107.830 174.923,107.832 194.667,107.769 194.667 C 107.529 194.667,104.707 188.363,103.330 184.750 C 100.962 178.540,99.053 171.321,97.921 164.303 L 97.823 163.690 89.953 163.637 L 82.083 163.583 81.083 163.117 C 79.782 162.509,78.643 161.376,78.054 160.102 L 77.583 159.083 77.536 148.756 C 77.505 142.169,77.549 138.140,77.658 137.634 C 78.069 135.716,79.200 134.296,81.000 133.435 L 82.083 132.917 89.958 132.867 C 94.290 132.840,97.833 132.754,97.833 132.676 C 97.833 128.976,102.241 113.616,105.089 107.389 C 105.315 106.895,105.500 106.457,105.500 106.417 C 105.500 105.899,109.608 98.042,111.556 94.833 C 127.331 68.858,154.668 50.426,183.667 46.214 L 184.583 46.080 184.672 38.165 C 184.774 28.936,184.723 29.252,186.404 27.569 C 188.222 25.747,187.449 25.841,200.167 25.882 L 211.083 25.917 212.008 26.350 M198.397 85.708 C 198.064 86.373,196.949 88.529,195.920 90.500 C 194.059 94.066,193.321 95.488,189.042 103.750 C 185.501 110.587,182.478 116.409,180.996 119.250 C 180.469 120.258,178.409 124.233,176.417 128.083 C 174.426 131.933,172.251 136.133,171.585 137.417 C 170.918 138.700,169.230 141.962,167.833 144.667 C 166.437 147.371,164.862 150.408,164.335 151.417 C 163.233 153.526,161.871 156.152,158.414 162.833 C 157.062 165.446,155.469 168.521,154.874 169.667 C 153.279 172.735,151.715 175.753,150.209 178.667 C 148.344 182.274,144.353 189.978,142.957 192.667 C 142.315 193.904,141.109 196.229,140.279 197.833 C 129.403 218.839,126.789 223.880,126.387 224.620 L 125.916 225.490 123.515 224.128 L 121.113 222.767 119.652 219.739 C 118.849 218.073,118.114 216.419,118.020 216.063 C 117.697 214.846,117.009 210.418,116.636 207.167 L 116.264 203.917 116.210 157.558 L 116.157 111.198 118.537 109.713 C 143.792 93.954,170.345 85.569,198.294 84.526 L 199.004 84.500 198.397 85.708 M205.043 84.666 C 230.608 85.809,260.781 95.829,282.898 110.521 L 283.996 111.250 283.998 156.336 C 284.000 202.688,283.982 204.139,283.321 209.417 C 282.598 215.193,282.555 215.353,280.668 219.250 L 278.972 222.750 276.656 224.083 C 275.382 224.817,274.297 225.417,274.244 225.417 C 274.136 225.417,273.947 225.057,265.670 209.083 C 262.345 202.667,259.155 196.517,258.583 195.417 C 258.010 194.317,256.398 191.204,255.001 188.500 C 253.604 185.796,251.955 182.608,251.337 181.417 C 250.719 180.225,249.592 178.050,248.833 176.583 C 248.075 175.117,247.061 173.167,246.582 172.250 C 246.102 171.333,245.090 169.383,244.332 167.917 C 243.574 166.450,242.000 163.412,240.834 161.167 C 239.668 158.921,238.056 155.808,237.252 154.250 C 236.448 152.692,235.397 150.667,234.916 149.750 C 234.436 148.833,233.404 146.846,232.623 145.333 C 231.111 142.406,225.271 131.139,223.250 127.250 C 222.583 125.967,219.921 120.829,217.334 115.833 C 212.559 106.611,211.202 103.994,208.956 99.667 C 200.442 83.268,201.064 84.498,201.292 84.502 C 201.360 84.503,203.049 84.577,205.043 84.666 M200.982 102.588 C 201.415 103.410,202.582 105.658,203.573 107.583 C 204.565 109.508,205.808 111.908,206.335 112.917 C 206.863 113.925,208.362 116.813,209.668 119.333 C 210.974 121.854,212.547 124.892,213.165 126.083 C 213.783 127.275,214.889 129.412,215.625 130.833 C 218.617 136.617,225.229 149.362,227.166 153.083 C 227.691 154.092,228.929 156.492,229.916 158.417 C 230.903 160.342,231.916 162.292,232.168 162.750 C 232.419 163.208,233.357 165.008,234.251 166.750 C 235.146 168.492,236.345 170.817,236.917 171.917 C 237.488 173.017,238.481 174.929,239.123 176.167 C 240.296 178.426,240.790 179.380,245.168 187.833 C 246.473 190.354,248.009 193.317,248.581 194.417 C 249.553 196.287,250.755 198.602,253.251 203.417 C 253.821 204.517,254.870 206.542,255.581 207.917 C 257.767 212.143,259.167 214.834,260.200 216.792 L 261.189 218.667 244.886 218.663 L 228.583 218.659 227.658 216.788 C 226.633 214.715,215.370 192.363,209.583 180.917 C 207.544 176.883,203.663 169.196,200.959 163.833 C 198.255 158.471,193.445 148.936,190.271 142.645 C 184.734 131.670,184.318 130.765,184.645 130.408 C 184.725 130.321,185.897 128.112,187.249 125.500 C 188.601 122.888,190.213 119.775,190.832 118.583 C 191.450 117.392,192.482 115.404,193.124 114.167 C 193.766 112.929,194.778 110.979,195.373 109.833 C 195.967 108.688,197.155 106.400,198.011 104.750 C 198.867 103.100,199.646 101.582,199.742 101.376 C 199.998 100.828,200.113 100.941,200.982 102.588 M184.583 149.083 C 187.128 154.125,190.669 161.127,192.452 164.643 L 195.693 171.036 194.241 173.893 C 193.442 175.464,191.588 179.112,190.122 182.000 C 188.655 184.887,186.501 189.125,185.333 191.417 C 184.166 193.708,181.387 199.183,179.157 203.583 C 176.927 207.983,174.297 213.158,173.314 215.083 L 171.525 218.583 155.249 218.626 L 138.973 218.668 140.927 214.876 C 142.001 212.790,143.309 210.258,143.834 209.250 C 144.358 208.242,145.275 206.479,145.871 205.333 C 146.466 204.188,147.649 201.900,148.498 200.250 C 149.347 198.600,150.360 196.650,150.749 195.917 C 151.139 195.183,152.114 193.308,152.916 191.750 C 153.719 190.192,154.807 188.092,155.334 187.083 C 155.861 186.075,156.949 183.975,157.752 182.417 C 158.555 180.858,159.680 178.683,160.252 177.583 C 160.824 176.483,162.361 173.521,163.667 171.000 C 164.973 168.479,166.509 165.517,167.081 164.417 C 168.234 162.198,169.956 158.875,171.917 155.083 C 172.628 153.708,173.677 151.683,174.248 150.583 C 174.819 149.483,175.869 147.458,176.581 146.083 C 178.791 141.817,179.865 139.810,179.912 139.864 C 179.936 139.893,182.038 144.042,184.583 149.083 M202.541 185.667 C 203.776 188.096,208.357 197.171,212.721 205.833 C 217.085 214.496,221.285 222.821,222.055 224.333 L 223.455 227.083 247.352 227.126 L 271.250 227.169 270.667 227.524 C 270.346 227.719,266.896 229.719,263.000 231.966 C 252.844 237.826,245.725 241.938,239.667 245.443 C 237.604 246.636,233.160 249.204,229.790 251.150 L 223.663 254.688 223.207 254.142 C 221.973 252.668,221.430 252.087,221.319 252.120 C 221.187 252.160,214.629 255.959,211.024 258.084 C 208.448 259.603,208.672 259.241,207.985 263.000 C 206.794 269.522,206.715 269.886,206.448 270.069 C 206.302 270.168,205.623 270.607,204.938 271.044 C 202.402 272.661,200.778 274.849,200.276 277.322 L 200.059 278.395 199.836 277.345 C 199.292 274.783,197.788 272.783,195.024 270.949 L 193.380 269.858 192.784 266.721 C 192.456 264.995,192.020 262.667,191.816 261.547 L 191.444 259.511 188.680 257.861 C 187.160 256.953,184.567 255.439,182.917 254.496 C 181.267 253.553,179.640 252.608,179.302 252.396 L 178.688 252.009 177.580 253.338 C 176.445 254.699,176.349 254.774,176.075 254.519 C 175.988 254.438,172.692 252.512,168.750 250.238 C 162.062 246.382,158.677 244.427,151.833 240.473 C 143.411 235.605,138.542 232.796,133.922 230.137 L 128.761 227.167 152.693 227.167 L 176.626 227.167 180.836 218.875 C 183.152 214.315,186.306 208.108,187.845 205.083 C 189.384 202.058,192.130 196.656,193.946 193.078 C 199.723 181.701,200.081 181.016,200.190 181.134 C 200.248 181.198,201.306 183.237,202.541 185.667 M89.923 214.592 C 90.469 214.734,91.403 215.122,91.999 215.454 C 92.595 215.786,93.338 216.200,93.649 216.373 C 95.067 217.163,100.258 220.149,101.877 221.106 C 102.864 221.689,103.693 222.167,103.719 222.167 C 103.746 222.167,104.314 221.492,104.982 220.667 C 106.422 218.887,106.017 218.938,108.250 220.256 C 109.258 220.851,110.402 221.502,110.791 221.702 C 111.180 221.902,111.543 222.206,111.597 222.377 C 111.651 222.548,112.353 224.052,113.157 225.719 L 114.618 228.750 117.851 230.609 C 123.132 233.645,135.802 240.951,139.833 243.284 C 145.141 246.356,146.138 246.932,151.750 250.170 C 160.182 255.035,168.897 260.076,174.333 263.231 L 178.250 265.505 178.667 265.040 C 178.896 264.784,179.421 264.185,179.833 263.708 L 180.583 262.841 182.083 263.752 C 182.908 264.252,183.636 264.682,183.701 264.706 C 183.824 264.752,184.573 268.522,185.523 273.868 C 185.768 275.248,185.625 275.075,187.417 276.152 C 190.866 278.225,191.520 278.693,191.467 279.056 C 191.410 279.444,189.863 280.828,186.400 283.588 C 183.541 285.867,180.962 288.416,179.363 290.544 C 177.986 292.376,178.053 292.099,178.564 293.872 C 178.782 294.630,179.012 295.559,179.075 295.936 L 179.188 296.622 177.469 296.741 C 172.992 297.050,168.963 298.299,167.660 299.783 C 166.368 301.255,166.363 301.271,162.417 317.206 C 158.664 332.366,155.239 339.824,151.515 340.945 C 149.368 341.592,148.459 341.307,143.333 338.380 C 134.281 333.211,125.214 327.934,124.972 327.693 C 123.350 326.077,123.465 322.942,125.340 317.667 C 127.240 312.321,132.000 297.741,132.000 297.266 C 132.000 297.007,131.876 296.928,128.083 294.746 C 126.617 293.903,124.142 292.479,122.583 291.583 C 111.620 285.275,110.043 283.712,109.720 278.833 C 109.572 276.589,111.627 267.974,113.433 263.266 C 113.485 263.131,112.670 262.543,111.216 261.664 C 107.480 259.409,105.280 257.934,104.798 257.361 C 103.745 256.108,102.500 252.744,102.500 251.151 C 102.500 249.781,103.145 250.254,94.333 245.163 C 92.546 244.130,90.221 242.780,89.167 242.164 C 88.112 241.548,86.425 240.573,85.417 239.997 C 75.462 234.316,75.431 234.242,79.677 226.333 C 85.473 215.540,85.904 214.932,88.045 214.509 C 88.433 214.433,88.790 214.362,88.840 214.352 C 88.889 214.342,89.377 214.450,89.923 214.592 M312.917 214.766 C 314.192 215.231,314.446 215.564,317.026 220.167 C 323.418 231.569,323.735 232.384,322.588 234.471 C 321.778 235.944,322.652 235.391,305.167 245.503 C 302.829 246.855,300.204 248.374,299.333 248.879 L 297.750 249.797 297.547 251.417 C 296.960 256.114,296.079 257.232,290.042 260.938 C 286.164 263.319,286.426 262.605,287.814 267.000 C 291.037 277.209,291.128 280.484,288.293 284.245 C 287.021 285.931,285.806 286.770,278.500 291.001 C 276.712 292.036,274.125 293.535,272.750 294.332 C 271.375 295.129,269.744 296.062,269.125 296.405 C 268.506 296.748,268.000 297.058,268.000 297.094 C 268.000 297.438,272.393 310.818,275.149 318.869 C 277.030 324.362,276.656 326.928,273.733 328.596 C 272.917 329.062,270.525 330.443,268.417 331.664 C 264.987 333.652,261.315 335.765,256.217 338.685 C 255.283 339.220,253.837 340.006,253.004 340.432 L 251.491 341.207 250.037 341.133 C 246.973 340.977,245.405 339.335,242.909 333.667 C 240.431 328.038,239.763 325.763,235.493 308.417 C 233.436 300.059,232.897 299.179,229.080 297.931 C 227.319 297.356,224.816 296.891,222.689 296.746 L 220.962 296.628 221.068 295.832 C 221.126 295.395,221.358 294.420,221.584 293.666 L 221.994 292.295 221.122 291.026 C 219.878 289.215,216.169 285.541,213.250 283.230 C 211.876 282.141,210.226 280.744,209.584 280.125 L 208.417 279.000 208.850 278.613 C 209.088 278.400,210.417 277.532,211.803 276.685 C 214.191 275.225,214.328 275.113,214.432 274.531 C 214.492 274.193,214.711 273.017,214.920 271.917 C 215.129 270.817,215.513 268.765,215.773 267.357 L 216.248 264.797 217.774 263.898 C 219.614 262.816,219.592 262.816,220.379 263.798 C 220.725 264.230,221.188 264.788,221.410 265.038 L 221.812 265.493 224.364 264.025 C 225.768 263.217,228.642 261.558,230.750 260.337 C 232.858 259.116,235.971 257.315,237.667 256.335 C 239.362 255.356,242.475 253.556,244.583 252.336 C 246.692 251.116,249.617 249.428,251.083 248.585 C 252.550 247.741,255.475 246.053,257.583 244.832 C 264.107 241.055,267.602 239.036,271.583 236.745 C 273.692 235.531,277.142 233.541,279.250 232.322 C 281.358 231.104,283.623 229.801,284.283 229.428 L 285.482 228.750 287.061 225.429 L 288.639 222.109 291.152 220.638 C 292.533 219.829,293.721 219.169,293.790 219.173 C 293.893 219.177,295.225 220.763,296.112 221.936 C 296.281 222.160,296.841 221.886,300.278 219.903 C 310.677 213.902,310.613 213.928,312.917 214.766 M197.212 216.248 C 195.575 216.705,194.169 217.929,193.550 219.437 C 193.385 219.838,193.168 220.166,193.069 220.166 C 192.023 220.170,187.811 222.884,185.874 224.803 C 183.937 226.722,181.167 231.009,181.167 232.088 C 181.167 232.198,180.840 232.413,180.442 232.565 C 177.945 233.519,176.928 235.601,177.030 239.554 C 177.116 242.877,177.988 244.506,180.255 245.579 C 181.034 245.947,181.134 246.064,181.564 247.114 C 183.383 251.554,187.414 255.621,191.952 257.594 C 193.125 258.103,193.271 258.221,193.635 258.951 C 194.866 261.418,196.254 262.083,200.167 262.083 L 203.083 262.083 204.150 261.505 C 205.285 260.890,206.321 259.769,206.685 258.761 C 206.864 258.268,207.077 258.111,208.320 257.557 C 212.715 255.600,216.598 251.720,218.552 247.332 C 219.141 246.009,219.233 245.893,219.928 245.606 C 222.279 244.633,223.083 242.971,223.083 239.083 C 223.083 235.170,222.403 233.782,219.904 232.599 C 219.407 232.364,219.000 232.090,219.000 231.991 C 219.000 231.590,217.777 229.204,216.913 227.918 C 214.703 224.631,211.390 221.886,207.946 220.489 C 207.073 220.135,206.935 220.009,206.569 219.235 C 206.080 218.202,204.783 216.943,203.703 216.454 C 202.674 215.988,198.604 215.859,197.212 216.248 M202.167 221.000 C 202.439 221.273,202.500 221.556,202.500 222.554 L 202.500 223.774 203.460 223.953 C 208.836 224.953,213.767 229.762,215.176 235.379 L 215.541 236.833 216.759 236.833 C 218.448 236.833,218.500 236.903,218.500 239.169 C 218.500 241.374,218.400 241.500,216.636 241.500 L 215.513 241.500 215.331 242.208 C 214.847 244.090,214.593 244.821,214.047 245.907 C 211.795 250.382,207.982 253.304,202.958 254.406 C 202.513 254.503,202.500 254.539,202.500 255.633 C 202.500 257.397,202.373 257.500,200.189 257.500 C 197.871 257.500,197.798 257.449,197.676 255.736 L 197.583 254.430 196.917 254.295 C 191.125 253.121,185.993 248.050,184.956 242.476 L 184.781 241.533 183.459 241.473 C 181.731 241.394,181.667 241.308,181.667 239.077 C 181.667 236.969,181.746 236.870,183.488 236.800 L 184.717 236.750 185.016 235.500 C 186.299 230.122,190.376 225.836,195.738 224.229 C 196.464 224.012,197.187 223.833,197.344 223.833 C 197.584 223.833,197.641 223.627,197.694 222.565 C 197.783 220.812,197.974 220.667,200.185 220.667 C 201.611 220.667,201.878 220.712,202.167 221.000 M196.497 228.894 C 193.495 229.945,190.462 233.040,189.777 235.750 C 189.731 235.933,189.645 236.252,189.585 236.458 C 189.479 236.829,189.495 236.833,191.146 236.833 C 193.265 236.833,193.333 236.904,193.333 239.102 C 193.333 241.254,193.207 241.390,191.107 241.500 L 189.517 241.583 189.885 242.676 C 190.885 245.641,193.172 248.012,196.198 249.223 C 197.693 249.821,197.627 249.870,197.692 248.109 C 197.771 245.988,197.757 246.000,200.094 246.000 C 202.452 246.000,202.500 246.044,202.500 248.204 C 202.500 249.894,202.426 249.849,204.116 249.182 C 206.961 248.059,209.198 245.745,210.309 242.776 C 210.803 241.456,210.841 241.500,209.204 241.500 C 207.046 241.500,207.000 241.451,207.000 239.107 C 207.000 236.784,206.956 236.833,209.033 236.833 C 210.879 236.833,210.840 236.873,210.328 235.525 C 209.084 232.253,206.974 230.124,203.786 228.924 C 203.166 228.691,202.630 228.500,202.595 228.500 C 202.560 228.500,202.505 229.246,202.474 230.159 C 202.402 232.252,202.419 232.236,200.278 232.306 C 197.914 232.383,197.783 232.273,197.668 230.106 L 197.583 228.513 196.497 228.894 M201.317 237.075 C 202.339 237.603,202.770 239.392,202.117 240.389 C 201.190 241.803,198.813 241.745,198.061 240.290 C 196.975 238.189,199.208 235.984,201.317 237.075 M121.006 268.039 C 120.605 269.163,119.622 272.484,119.147 274.327 C 117.731 279.817,117.359 279.400,130.752 287.337 C 132.571 288.416,135.240 289.833,135.450 289.833 C 135.661 289.833,135.888 289.224,137.093 285.417 C 137.616 283.767,138.361 281.442,138.748 280.250 C 139.136 279.058,139.408 278.031,139.352 277.968 C 139.113 277.697,126.741 270.532,122.475 268.194 L 121.201 267.496 121.006 268.039 M278.083 267.940 C 274.977 269.556,260.937 277.697,260.759 277.986 C 260.710 278.064,261.014 279.206,261.434 280.522 C 264.136 288.998,264.424 289.832,264.659 289.832 C 264.942 289.833,267.939 288.157,273.083 285.121 C 282.940 279.303,282.729 279.811,279.566 269.542 C 278.961 267.576,278.903 267.514,278.083 267.940 M200.440 281.496 C 201.118 283.896,202.603 285.546,207.833 289.705 C 208.979 290.616,210.535 291.967,211.291 292.707 L 212.665 294.052 212.565 295.651 C 212.421 297.937,213.001 300.043,214.246 301.754 C 214.565 302.194,209.771 305.136,202.453 308.990 L 200.156 310.199 197.389 308.666 C 194.387 307.003,189.798 304.277,187.386 302.725 L 185.870 301.750 186.354 300.917 C 187.258 299.359,187.530 298.148,187.470 295.964 L 187.417 294.012 188.333 293.074 C 188.838 292.559,190.487 291.140,192.000 289.922 C 197.994 285.095,199.078 283.836,199.793 280.871 C 199.998 280.020,200.098 279.802,200.133 280.126 C 200.160 280.377,200.298 280.994,200.440 281.496 " stroke="none" fill="#1e1b21" fill-rule="evenodd"></path><path id="path3" d="M194.750 84.674 C 170.006 85.735,142.461 94.784,118.537 109.713 L 116.157 111.198 116.210 157.558 L 116.264 203.917 116.636 207.167 C 117.009 210.418,117.697 214.846,118.020 216.063 C 118.114 216.419,118.849 218.073,119.652 219.739 L 121.113 222.767 123.515 224.128 L 125.916 225.490 126.387 224.620 C 126.789 223.880,129.403 218.839,140.279 197.833 C 141.109 196.229,142.315 193.904,142.957 192.667 C 144.353 189.978,148.344 182.274,150.209 178.667 C 151.715 175.753,153.279 172.735,154.874 169.667 C 155.469 168.521,157.062 165.446,158.414 162.833 C 161.871 156.152,163.233 153.526,164.335 151.417 C 164.862 150.408,166.437 147.371,167.833 144.667 C 169.230 141.962,170.918 138.700,171.585 137.417 C 172.251 136.133,174.426 131.933,176.417 128.083 C 178.409 124.233,180.469 120.258,180.996 119.250 C 182.478 116.409,185.501 110.587,189.042 103.750 C 193.321 95.488,194.059 94.066,195.920 90.500 C 196.949 88.529,198.064 86.373,198.397 85.708 L 199.004 84.500 198.294 84.526 C 197.903 84.541,196.308 84.608,194.750 84.674 M201.167 84.579 C 201.167 84.647,202.685 87.588,208.956 99.667 C 211.202 103.994,212.559 106.611,217.334 115.833 C 219.921 120.829,222.583 125.967,223.250 127.250 C 225.271 131.139,231.111 142.406,232.623 145.333 C 233.404 146.846,234.436 148.833,234.916 149.750 C 235.397 150.667,236.448 152.692,237.252 154.250 C 238.056 155.808,239.668 158.921,240.834 161.167 C 242.000 163.412,243.574 166.450,244.332 167.917 C 245.090 169.383,246.102 171.333,246.582 172.250 C 247.061 173.167,248.075 175.117,248.833 176.583 C 249.592 178.050,250.719 180.225,251.337 181.417 C 251.955 182.608,253.604 185.796,255.001 188.500 C 256.398 191.204,258.010 194.317,258.583 195.417 C 259.155 196.517,262.345 202.667,265.670 209.083 C 273.947 225.057,274.136 225.417,274.244 225.417 C 274.297 225.417,275.382 224.817,276.656 224.083 L 278.972 222.750 280.668 219.250 C 282.555 215.353,282.598 215.193,283.321 209.417 C 283.982 204.139,284.000 202.688,283.998 156.336 L 283.996 111.250 282.898 110.521 C 259.679 95.097,227.916 84.970,201.292 84.502 C 201.223 84.501,201.167 84.535,201.167 84.579 M107.746 158.917 C 107.746 166.800,107.767 170.001,107.792 166.029 C 107.817 162.058,107.817 155.608,107.792 151.696 C 107.767 147.784,107.746 151.033,107.746 158.917 M86.792 163.625 C 88.831 163.651,92.169 163.651,94.208 163.625 C 96.248 163.598,94.579 163.577,90.500 163.577 C 86.421 163.577,84.752 163.598,86.792 163.625 M305.792 163.625 C 307.831 163.651,311.169 163.651,313.208 163.625 C 315.248 163.598,313.579 163.577,309.500 163.577 C 305.421 163.577,303.752 163.598,305.792 163.625 M198.667 183.795 C 197.887 185.322,195.763 189.499,193.946 193.078 C 192.130 196.656,189.384 202.058,187.845 205.083 C 186.306 208.108,183.152 214.315,180.836 218.875 L 176.626 227.167 152.693 227.167 L 128.761 227.167 133.922 230.137 C 138.542 232.796,143.411 235.605,151.833 240.473 C 158.677 244.427,162.062 246.382,168.750 250.238 C 172.692 252.512,175.988 254.438,176.075 254.519 C 176.349 254.774,176.445 254.699,177.580 253.338 L 178.688 252.009 179.302 252.396 C 179.640 252.608,181.267 253.553,182.917 254.496 C 184.567 255.439,187.160 256.953,188.680 257.861 L 191.444 259.511 191.816 261.547 C 192.020 262.667,192.456 264.995,192.784 266.721 L 193.380 269.858 195.024 270.949 C 197.788 272.783,199.292 274.783,199.836 277.345 L 200.059 278.395 200.276 277.322 C 200.778 274.849,202.402 272.661,204.938 271.044 C 205.623 270.607,206.302 270.168,206.448 270.069 C 206.715 269.886,206.794 269.522,207.985 263.000 C 208.672 259.241,208.448 259.603,211.024 258.084 C 214.629 255.959,221.187 252.160,221.319 252.120 C 221.430 252.087,221.973 252.668,223.207 254.142 L 223.663 254.688 229.790 251.150 C 233.160 249.204,237.604 246.636,239.667 245.443 C 245.725 241.938,252.844 237.826,263.000 231.966 C 266.896 229.719,270.346 227.719,270.667 227.524 L 271.250 227.169 247.352 227.126 L 223.455 227.083 222.055 224.333 C 221.285 222.821,217.085 214.496,212.721 205.833 C 203.454 187.439,200.337 181.294,200.190 181.134 C 200.131 181.071,199.446 182.268,198.667 183.795 M203.703 216.454 C 204.783 216.943,206.080 218.202,206.569 219.235 C 206.935 220.009,207.073 220.135,207.946 220.489 C 211.390 221.886,214.703 224.631,216.913 227.918 C 217.777 229.204,219.000 231.590,219.000 231.991 C 219.000 232.090,219.407 232.364,219.904 232.599 C 222.403 233.782,223.083 235.170,223.083 239.083 C 223.083 242.971,222.279 244.633,219.928 245.606 C 219.233 245.893,219.141 246.009,218.552 247.332 C 216.598 251.720,212.715 255.600,208.320 257.557 C 207.077 258.111,206.864 258.268,206.685 258.761 C 206.321 259.769,205.285 260.890,204.150 261.505 L 203.083 262.083 200.167 262.083 C 196.254 262.083,194.866 261.418,193.635 258.951 C 193.271 258.221,193.125 258.103,191.952 257.594 C 187.414 255.621,183.383 251.554,181.564 247.114 C 181.134 246.064,181.034 245.947,180.255 245.579 C 177.988 244.506,177.116 242.877,177.030 239.554 C 176.928 235.601,177.945 233.519,180.442 232.565 C 180.840 232.413,181.167 232.198,181.167 232.088 C 181.167 231.009,183.937 226.722,185.874 224.803 C 187.811 222.884,192.023 220.170,193.069 220.166 C 193.168 220.166,193.385 219.838,193.550 219.437 C 194.169 217.929,195.575 216.705,197.212 216.248 C 198.604 215.859,202.674 215.988,203.703 216.454 M197.721 222.750 C 197.722 223.392,197.752 223.634,197.788 223.288 C 197.824 222.942,197.824 222.417,197.787 222.121 C 197.750 221.825,197.721 222.108,197.721 222.750 M88.555 223.661 C 87.195 224.269,86.938 225.330,87.958 226.127 C 88.787 226.775,94.482 230.167,104.250 235.832 C 105.625 236.629,107.950 237.981,109.417 238.835 C 110.883 239.689,113.283 241.077,114.750 241.918 C 116.217 242.760,119.142 244.448,121.250 245.669 C 126.069 248.462,129.431 250.402,138.333 255.531 C 167.856 272.541,165.800 271.450,166.726 270.591 C 167.076 270.266,167.164 270.036,167.155 269.466 C 167.137 268.351,167.027 268.226,165.080 267.108 C 164.073 266.531,161.712 265.171,159.833 264.087 C 154.735 261.144,150.809 258.878,145.250 255.669 C 142.500 254.081,139.012 252.070,137.500 251.198 C 135.987 250.327,133.625 248.963,132.250 248.168 C 130.875 247.372,126.563 244.883,122.667 242.636 C 118.771 240.389,113.858 237.553,111.750 236.333 C 102.710 231.104,100.269 229.695,97.750 228.252 C 96.283 227.412,93.902 226.039,92.458 225.201 C 91.013 224.363,89.697 223.605,89.532 223.517 C 89.320 223.404,89.036 223.445,88.555 223.661 M310.412 223.563 C 310.231 223.688,307.833 225.086,305.083 226.669 C 302.333 228.251,299.108 230.110,297.917 230.800 C 296.725 231.490,294.362 232.855,292.667 233.833 C 290.971 234.811,287.333 236.910,284.583 238.497 C 281.833 240.085,278.646 241.923,277.500 242.582 C 276.354 243.241,273.992 244.605,272.250 245.613 C 270.508 246.621,266.383 249.004,263.083 250.908 C 255.704 255.165,250.360 258.250,245.667 260.963 C 243.696 262.102,240.827 263.758,239.290 264.642 C 232.421 268.597,232.431 268.588,233.000 270.083 C 233.650 271.792,233.141 272.044,257.917 257.750 C 269.251 251.210,270.945 250.232,276.250 247.166 C 279.000 245.577,281.775 243.979,282.417 243.616 C 283.058 243.252,284.446 242.452,285.500 241.836 C 286.554 241.221,289.142 239.718,291.250 238.497 C 308.695 228.390,312.572 226.051,312.698 225.558 C 312.990 224.408,311.307 222.939,310.412 223.563 M197.726 229.917 C 197.725 230.742,197.754 231.100,197.788 230.713 C 197.823 230.327,197.824 229.652,197.789 229.213 C 197.755 228.775,197.726 229.092,197.726 229.917 M193.228 239.083 C 193.228 240.000,193.256 240.354,193.290 239.869 C 193.324 239.385,193.323 238.635,193.289 238.203 C 193.255 237.770,193.227 238.167,193.228 239.083 M197.726 248.250 C 197.725 249.075,197.754 249.434,197.788 249.047 C 197.823 248.660,197.824 247.985,197.789 247.547 C 197.755 247.109,197.726 247.425,197.726 248.250 M197.721 255.583 C 197.722 256.225,197.752 256.467,197.788 256.121 C 197.824 255.775,197.824 255.250,197.787 254.955 C 197.750 254.659,197.721 254.942,197.721 255.583 M199.793 280.871 C 199.078 283.836,197.994 285.095,192.000 289.922 C 190.487 291.140,188.838 292.559,188.333 293.074 L 187.417 294.012 187.470 295.964 C 187.530 298.148,187.258 299.359,186.354 300.917 L 185.870 301.750 187.386 302.725 C 189.798 304.277,194.387 307.003,197.389 308.666 L 200.156 310.199 202.453 308.990 C 209.771 305.136,214.565 302.194,214.246 301.754 C 213.001 300.043,212.421 297.937,212.565 295.651 L 212.665 294.052 211.291 292.707 C 210.535 291.967,208.979 290.616,207.833 289.705 C 202.000 285.066,200.461 283.151,200.133 280.126 C 200.098 279.802,199.998 280.020,199.793 280.871 M146.567 287.508 C 145.075 287.981,144.160 288.856,143.499 290.444 C 142.937 291.794,140.409 298.391,139.326 301.333 C 138.971 302.296,138.111 304.621,137.413 306.500 C 132.754 319.051,132.607 319.517,132.847 321.006 C 133.213 323.275,133.520 323.537,140.917 327.896 C 145.538 330.619,146.817 331.037,148.672 330.431 C 151.316 329.566,151.210 329.828,156.842 310.167 C 161.508 293.874,161.512 294.503,156.738 291.627 C 149.344 287.171,148.590 286.866,146.567 287.508 M250.583 287.465 C 250.308 287.640,248.546 288.653,246.667 289.717 C 238.687 294.238,238.716 294.171,241.079 302.500 C 248.275 327.865,248.611 328.883,250.100 329.827 C 252.548 331.380,254.021 330.977,260.863 326.882 C 268.588 322.259,268.518 322.483,265.117 313.167 C 257.638 292.679,256.275 289.246,255.321 288.490 C 253.870 287.341,251.567 286.843,250.583 287.465 " stroke="none" fill="#342c44" fill-rule="evenodd"></path><path id="path4" d="M184.743 38.417 C 184.744 42.633,184.765 44.334,184.792 42.197 C 184.818 40.059,184.818 36.609,184.791 34.530 C 184.765 32.451,184.743 34.200,184.743 38.417 M273.083 75.333 C 274.364 76.617,275.450 77.667,275.496 77.667 C 275.541 77.667,274.531 76.617,273.250 75.333 C 271.969 74.050,270.884 73.000,270.838 73.000 C 270.792 73.000,271.802 74.050,273.083 75.333 M198.199 76.124 C 199.179 76.154,200.829 76.154,201.866 76.125 C 202.902 76.095,202.100 76.071,200.083 76.071 C 198.067 76.071,197.219 76.095,198.199 76.124 M193.125 76.284 C 193.331 76.324,193.669 76.324,193.875 76.284 C 194.081 76.245,193.912 76.212,193.500 76.212 C 193.088 76.212,192.919 76.245,193.125 76.284 M206.292 76.284 C 206.498 76.324,206.835 76.324,207.042 76.284 C 207.248 76.245,207.079 76.212,206.667 76.212 C 206.254 76.212,206.085 76.245,206.292 76.284 M86.542 132.958 C 88.627 132.985,92.040 132.985,94.125 132.958 C 96.210 132.932,94.504 132.910,90.333 132.910 C 86.162 132.910,84.456 132.932,86.542 132.958 M305.875 132.958 C 307.960 132.985,311.373 132.985,313.458 132.958 C 315.544 132.932,313.837 132.910,309.667 132.910 C 305.496 132.910,303.790 132.932,305.875 132.958 M77.578 148.250 C 77.578 153.750,77.599 155.976,77.625 153.196 C 77.651 150.417,77.651 145.917,77.625 143.196 C 77.599 140.476,77.578 142.750,77.578 148.250 M107.627 183.833 C 107.603 189.700,107.640 194.500,107.708 194.500 C 107.777 194.500,107.833 189.700,107.833 183.833 C 107.833 177.967,107.797 173.167,107.752 173.167 C 107.708 173.167,107.652 177.967,107.627 183.833 M199.297 220.790 C 199.782 220.824,200.532 220.823,200.964 220.789 C 201.396 220.755,201.000 220.727,200.083 220.728 C 199.167 220.728,198.813 220.756,199.297 220.790 M202.389 222.667 C 202.389 223.354,202.419 223.635,202.455 223.292 C 202.491 222.948,202.491 222.385,202.455 222.042 C 202.419 221.698,202.389 221.979,202.389 222.667 M202.393 230.000 C 202.393 230.871,202.422 231.227,202.456 230.792 C 202.490 230.356,202.490 229.644,202.456 229.208 C 202.422 228.773,202.393 229.129,202.393 230.000 M192.410 231.375 L 191.583 232.250 192.458 231.423 C 192.940 230.968,193.333 230.574,193.333 230.548 C 193.333 230.424,193.179 230.562,192.410 231.375 M199.297 232.290 C 199.782 232.324,200.532 232.323,200.964 232.289 C 201.396 232.255,201.000 232.227,200.083 232.228 C 199.167 232.228,198.813 232.256,199.297 232.290 M181.728 239.083 C 181.728 240.000,181.756 240.354,181.790 239.869 C 181.824 239.385,181.823 238.635,181.789 238.203 C 181.755 237.770,181.727 238.167,181.728 239.083 M183.042 241.455 C 183.385 241.491,183.948 241.491,184.292 241.455 C 184.635 241.419,184.354 241.389,183.667 241.389 C 182.979 241.389,182.698 241.419,183.042 241.455 M190.208 241.456 C 190.644 241.490,191.356 241.490,191.792 241.456 C 192.227 241.422,191.871 241.393,191.000 241.393 C 190.129 241.393,189.773 241.422,190.208 241.456 M208.464 241.456 C 208.948 241.490,209.698 241.490,210.131 241.456 C 210.563 241.421,210.167 241.394,209.250 241.394 C 208.333 241.395,207.980 241.423,208.464 241.456 M215.333 241.458 C 215.333 241.527,215.727 241.562,216.208 241.535 C 217.675 241.455,217.814 241.380,216.542 241.356 C 215.877 241.344,215.333 241.390,215.333 241.458 M202.360 248.208 C 202.345 249.102,202.390 249.833,202.458 249.834 C 202.527 249.834,202.563 249.328,202.537 248.709 C 202.457 246.731,202.387 246.536,202.360 248.208 M202.403 254.559 C 202.355 254.683,202.340 255.265,202.369 255.851 L 202.421 256.917 202.502 255.625 C 202.583 254.332,202.565 254.136,202.403 254.559 M281.542 277.583 C 281.544 277.950,281.578 278.080,281.618 277.873 C 281.658 277.666,281.656 277.366,281.615 277.206 C 281.573 277.047,281.540 277.217,281.542 277.583 M190.824 279.792 L 190.250 280.417 190.875 279.842 C 191.219 279.526,191.500 279.245,191.500 279.217 C 191.500 279.090,191.359 279.210,190.824 279.792 M217.750 287.167 C 218.387 287.808,218.945 288.333,218.991 288.333 C 219.037 288.333,218.553 287.808,217.917 287.167 C 217.280 286.525,216.721 286.000,216.676 286.000 C 216.630 286.000,217.113 286.525,217.750 287.167 M267.372 320.000 C 267.372 320.321,267.406 320.452,267.448 320.292 C 267.490 320.131,267.490 319.869,267.448 319.708 C 267.406 319.548,267.372 319.679,267.372 320.000 " stroke="none" fill="#7b3c39" fill-rule="evenodd"></path></g></svg>