<svg width="249" height="70" viewBox="0 0 249 70" fill="none" xmlns="http://www.w3.org/2000/svg">
<g filter="url(#filter0_d_992_309)">
<rect x="12" y="6.78369" width="225" height="48.4324" rx="24.2162" fill="url(#paint0_linear_992_309)"/>
<rect x="6" y="2" width="237" height="58" rx="29" stroke="url(#paint1_linear_992_309)" stroke-width="4" stroke-dasharray="10 10"/>
<path d="M87.8144 38.38C86.7077 38.38 85.7477 38.1733 84.9344 37.76C84.1344 37.3333 83.5144 36.72 83.0744 35.92C82.6477 35.12 82.4344 34.1467 82.4344 33V32.26H85.6744V33.18C85.6744 33.82 85.861 34.34 86.2344 34.74C86.621 35.1267 87.1477 35.32 87.8144 35.32C88.4677 35.32 88.981 35.1267 89.3544 34.74C89.741 34.34 89.9344 33.82 89.9344 33.18V25.86H93.2144V33C93.2144 34.1467 92.9944 35.12 92.5544 35.92C92.1277 36.72 91.5077 37.3333 90.6944 37.76C89.8944 38.1733 88.9344 38.38 87.8144 38.38ZM84.1344 26.26V23.4H93.2144V26.26H84.1344ZM101.186 38.38C100.226 38.38 99.3726 38.2333 98.6259 37.94C97.8793 37.6333 97.2459 37.22 96.7259 36.7C96.2193 36.18 95.8326 35.5867 95.5659 34.92C95.2993 34.24 95.1659 33.5267 95.1659 32.78V32.32C95.1659 31.56 95.2993 30.84 95.5659 30.16C95.8459 29.4667 96.2459 28.86 96.7659 28.34C97.2993 27.82 97.9393 27.4133 98.6859 27.12C99.4326 26.8133 100.266 26.66 101.186 26.66C102.133 26.66 102.973 26.8133 103.706 27.12C104.453 27.4133 105.086 27.82 105.606 28.34C106.126 28.86 106.526 29.4667 106.806 30.16C107.086 30.84 107.226 31.56 107.226 32.32V32.78C107.226 33.5267 107.093 34.24 106.826 34.92C106.559 35.5867 106.166 36.18 105.646 36.7C105.139 37.22 104.513 37.6333 103.766 37.94C103.019 38.2333 102.159 38.38 101.186 38.38ZM101.186 35.68C101.813 35.68 102.333 35.5467 102.746 35.28C103.159 35.0133 103.473 34.64 103.686 34.16C103.913 33.68 104.026 33.1467 104.026 32.56C104.026 31.9333 103.913 31.3867 103.686 30.92C103.459 30.44 103.133 30.06 102.706 29.78C102.293 29.5 101.786 29.36 101.186 29.36C100.599 29.36 100.093 29.5 99.6659 29.78C99.2393 30.06 98.9126 30.44 98.6859 30.92C98.4726 31.3867 98.3659 31.9333 98.3659 32.56C98.3659 33.1467 98.4726 33.68 98.6859 34.16C98.8993 34.64 99.2193 35.0133 99.6459 35.28C100.073 35.5467 100.586 35.68 101.186 35.68ZM109.759 38V27.04H112.959V38H109.759ZM108.299 29.4V27.04H112.959V29.4H108.299ZM110.999 25.96C110.399 25.96 109.953 25.8067 109.659 25.5C109.379 25.18 109.239 24.78 109.239 24.3C109.239 23.8067 109.379 23.4067 109.659 23.1C109.953 22.78 110.399 22.62 110.999 22.62C111.599 22.62 112.039 22.78 112.319 23.1C112.613 23.4067 112.759 23.8067 112.759 24.3C112.759 24.78 112.613 25.18 112.319 25.5C112.039 25.8067 111.599 25.96 110.999 25.96ZM115.699 38V27.04H118.239V31.74H118.059C118.059 30.62 118.199 29.6867 118.479 28.94C118.772 28.1933 119.212 27.6333 119.799 27.26C120.386 26.8867 121.099 26.7 121.939 26.7H122.079C123.359 26.7 124.332 27.12 124.999 27.96C125.679 28.7867 126.019 30.0467 126.019 31.74V38H122.819V31.56C122.819 30.9733 122.646 30.4933 122.299 30.12C121.952 29.7467 121.486 29.56 120.899 29.56C120.299 29.56 119.812 29.7533 119.439 30.14C119.079 30.5133 118.899 31.0067 118.899 31.62V38H115.699ZM137.765 38.38C136.445 38.38 135.332 38.1733 134.425 37.76C133.518 37.3333 132.832 36.76 132.365 36.04C131.898 35.3067 131.665 34.4667 131.665 33.52H134.845C134.845 33.8933 134.945 34.24 135.145 34.56C135.358 34.88 135.678 35.14 136.105 35.34C136.532 35.5267 137.085 35.62 137.765 35.62C138.378 35.62 138.892 35.54 139.305 35.38C139.718 35.22 140.032 35 140.245 34.72C140.458 34.4267 140.565 34.0933 140.565 33.72C140.565 33.2533 140.365 32.8867 139.965 32.62C139.565 32.34 138.918 32.16 138.025 32.08L136.925 31.98C135.472 31.86 134.312 31.4067 133.445 30.62C132.578 29.8333 132.145 28.7933 132.145 27.5C132.145 26.5667 132.365 25.76 132.805 25.08C133.258 24.4 133.885 23.88 134.685 23.52C135.485 23.1467 136.432 22.96 137.525 22.96C138.672 22.96 139.652 23.16 140.465 23.56C141.292 23.9467 141.925 24.5 142.365 25.22C142.805 25.9267 143.025 26.76 143.025 27.72H139.825C139.825 27.36 139.738 27.0333 139.565 26.74C139.392 26.4333 139.132 26.1867 138.785 26C138.452 25.8133 138.032 25.72 137.525 25.72C137.045 25.72 136.638 25.8 136.305 25.96C135.985 26.12 135.745 26.34 135.585 26.62C135.425 26.8867 135.345 27.18 135.345 27.5C135.345 27.9133 135.492 28.2733 135.785 28.58C136.078 28.8867 136.558 29.0667 137.225 29.12L138.345 29.22C139.412 29.3133 140.352 29.5467 141.165 29.92C141.978 30.28 142.612 30.78 143.065 31.42C143.532 32.0467 143.765 32.8133 143.765 33.72C143.765 34.6533 143.518 35.4733 143.025 36.18C142.545 36.8733 141.858 37.4133 140.965 37.8C140.072 38.1867 139.005 38.38 137.765 38.38ZM145.845 38V23.4H149.125V38H145.845ZM159.145 38.38C157.839 38.38 156.699 38.1667 155.725 37.74C154.752 37.3 153.945 36.7133 153.305 35.98C152.679 35.2467 152.212 34.4333 151.905 33.54C151.599 32.6467 151.445 31.7533 151.445 30.86V30.42C151.445 29.5 151.599 28.6 151.905 27.72C152.212 26.84 152.672 26.04 153.285 25.32C153.912 24.6 154.685 24.0267 155.605 23.6C156.539 23.1733 157.612 22.96 158.825 22.96C160.145 22.96 161.312 23.2067 162.325 23.7C163.339 24.18 164.152 24.8533 164.765 25.72C165.379 26.5733 165.732 27.5667 165.825 28.7H162.545C162.465 28.1667 162.252 27.7 161.905 27.3C161.572 26.9 161.139 26.5867 160.605 26.36C160.085 26.1333 159.492 26.02 158.825 26.02C158.185 26.02 157.612 26.1333 157.105 26.36C156.612 26.5867 156.185 26.9067 155.825 27.32C155.479 27.7333 155.212 28.2267 155.025 28.8C154.852 29.36 154.765 29.98 154.765 30.66C154.765 31.3667 154.859 32.0133 155.045 32.6C155.245 33.1733 155.532 33.6733 155.905 34.1C156.279 34.5133 156.739 34.8333 157.285 35.06C157.845 35.2867 158.465 35.4 159.145 35.4C160.052 35.4 160.839 35.2133 161.505 34.84C162.172 34.4667 162.652 33.9733 162.945 33.36L162.545 35.6V32.12H165.565V35.24C164.939 36.2533 164.072 37.0333 162.965 37.58C161.872 38.1133 160.599 38.38 159.145 38.38ZM158.725 32.76V30.4H166.765V32.76H158.725Z" fill="white"/>
</g>
<defs>
<filter id="filter0_d_992_309" x="0" y="0" width="249" height="70" filterUnits="userSpaceOnUse" color-interpolation-filters="sRGB">
<feFlood flood-opacity="0" result="BackgroundImageFix"/>
<feColorMatrix in="SourceAlpha" type="matrix" values="0 0 0 0 0 0 0 0 0 0 0 0 0 0 0 0 0 0 127 0" result="hardAlpha"/>
<feOffset dy="4"/>
<feGaussianBlur stdDeviation="2"/>
<feComposite in2="hardAlpha" operator="out"/>
<feColorMatrix type="matrix" values="0 0 0 0 0 0 0 0 0 0 0 0 0 0 0 0 0 0 0.25 0"/>
<feBlend mode="normal" in2="BackgroundImageFix" result="effect1_dropShadow_992_309"/>
<feBlend mode="normal" in="SourceGraphic" in2="effect1_dropShadow_992_309" result="shape"/>
</filter>
<linearGradient id="paint0_linear_992_309" x1="73.9186" y1="3.1961" x2="123.525" y2="99.6654" gradientUnits="userSpaceOnUse">
<stop stop-color="#AB1818"/>
<stop offset="1" stop-color="#520000"/>
</linearGradient>
<linearGradient id="paint1_linear_992_309" x1="70.3217" y1="-4.5926" x2="139.977" y2="108.748" gradientUnits="userSpaceOnUse">
<stop stop-color="#AB1818"/>
<stop offset="1" stop-color="#520000"/>
</linearGradient>
</defs>
</svg>
