<svg width="87" height="87" viewBox="0 0 87 87" fill="none" xmlns="http://www.w3.org/2000/svg">
<path d="M40.9921 18C30.5199 18 22 26.5215 22 36.9937C22 47.4753 30.5199 56 40.9921 56C51.4738 56 60 47.4738 60 36.9937C60 26.5215 51.4738 18 40.9921 18ZM31.3543 43.973C33.5289 43.3069 35.7902 42.9664 38.0645 42.9628C41.8867 42.9628 45.6597 43.9318 48.9768 45.7653C49.1748 45.873 49.3537 46.2277 49.436 46.671C49.5152 47.1143 49.4835 47.5688 49.3537 47.8047C49.2925 47.9169 49.2096 48.0158 49.1099 48.0958C49.0102 48.1758 48.8956 48.2351 48.7728 48.2705C48.65 48.3058 48.5213 48.3164 48.3944 48.3017C48.2674 48.287 48.1446 48.2472 48.0332 48.1847C45.5967 46.8481 42.9167 46.0144 40.152 45.7332C37.3873 45.452 34.5942 45.7289 31.9386 46.5475C31.8167 46.5869 31.6881 46.6017 31.5605 46.5909C31.4328 46.5802 31.3085 46.5442 31.1949 46.4849C31.0813 46.4257 30.9806 46.3444 30.8987 46.2459C30.8168 46.1474 30.7553 46.0335 30.7178 45.911C30.5484 45.3568 30.8983 44.1218 31.3543 43.973ZM30.5263 36.9747C32.9829 36.3073 35.5173 35.9692 38.0629 35.9692C42.6451 35.9692 47.194 37.0776 51.2204 39.1771C51.5038 39.3196 51.7113 39.5634 51.8063 39.8611C51.8543 40.0114 51.8717 40.1698 51.8576 40.327C51.8434 40.4842 51.798 40.6369 51.7239 40.7763C51.3645 41.4793 50.9433 41.9527 50.6789 41.9527C50.486 41.9518 50.2961 41.9051 50.1248 41.8165C46.4027 39.8733 42.2633 38.8657 38.0645 38.881C35.729 38.8763 33.4036 39.1879 31.1517 39.8073C31.0014 39.8483 30.8446 39.8594 30.6901 39.8398C30.5356 39.8203 30.3864 39.7705 30.2512 39.6933C30.1159 39.6161 29.9972 39.5131 29.9017 39.39C29.8063 39.2669 29.7361 39.1262 29.695 38.976C29.5177 38.3078 29.9246 37.1393 30.5263 36.9747ZM30.3125 32.4052C30.1343 32.4509 29.9488 32.4609 29.7667 32.4346C29.5846 32.4082 29.4095 32.3461 29.2516 32.2517C29.0936 32.1574 28.9559 32.0327 28.8464 31.8848C28.7369 31.7369 28.6578 31.5689 28.6136 31.3903C28.4188 30.6018 28.9113 29.6866 29.6269 29.5061C32.3875 28.8261 35.2199 28.4811 38.0629 28.4785C43.5254 28.4785 48.7599 29.7072 53.6176 32.1313C53.9513 32.2972 54.2055 32.5889 54.3243 32.9422C54.4431 33.2955 54.4167 33.6816 54.2509 34.0154C54.0245 34.4714 53.5337 34.9623 52.9922 34.9623C52.7798 34.9615 52.5702 34.9145 52.3778 34.8245C47.9359 32.5962 43.0324 31.4431 38.0629 31.4583C35.4742 31.4583 32.8664 31.7766 30.3125 32.4052Z" fill="url(#paint0_linear_14:575)"/>
<g filter="url(#filter0_bii_14:575)">
<circle cx="43.5" cy="43.5" r="43.5" fill="#2D303D" fill-opacity="0.2"/>
</g>
<path fill-rule="evenodd" clip-rule="evenodd" d="M30.0195 22H58.0407C62.4423 22.0061 66.0049 25.6182 65.9988 30.0195V58.041C65.992 62.4429 62.3803 66.0055 57.9796 66H29.9581C25.5577 65.9942 21.9945 62.3806 22 57.9793V29.9581C22.0065 25.5571 25.6197 21.9942 30.0195 22ZM43.9279 29.0654C52.7615 29.0654 59.9476 34.8971 59.9476 42.0653C59.9476 44.9342 58.8356 47.5178 56.5139 50.0636H56.5146C53.1537 53.9321 45.6379 58.6439 43.9279 59.3643C42.2663 60.0647 42.4582 58.9701 42.5343 58.5364C42.5365 58.524 42.5385 58.5121 42.5405 58.5008C42.581 58.26 42.769 57.1296 42.769 57.1296C42.823 56.7205 42.8789 56.0861 42.7174 55.681C42.5377 55.2351 41.8277 55.0036 41.306 54.8912C33.6077 53.8735 27.9086 48.4916 27.9086 42.0653C27.9086 34.8971 35.0956 29.0654 43.9279 29.0654Z" fill="url(#paint1_linear_14:575)"/>
<path d="M40.6735 38.6014H39.5498C39.3776 38.6014 39.2375 38.7411 39.2375 38.9128V45.8931C39.2375 46.0651 39.3776 46.2045 39.5498 46.2045H40.6735C40.8458 46.2045 40.9855 46.0651 40.9855 45.8931V38.9128C40.9855 38.7411 40.8458 38.6014 40.6735 38.6014Z" fill="url(#paint2_linear_14:575)"/>
<path d="M48.4074 38.6014H47.2838C47.1115 38.6014 46.9718 38.7411 46.9718 38.9128V43.0598L43.7731 38.7399C43.7657 38.7289 43.7574 38.7184 43.7488 38.7083L43.7466 38.7064C43.7405 38.6994 43.7344 38.6932 43.7279 38.6871C43.7261 38.6853 43.7242 38.6837 43.7221 38.6819C43.7169 38.677 43.7113 38.6724 43.7055 38.6681C43.703 38.6656 43.7003 38.6638 43.6975 38.6616C43.692 38.6579 43.6868 38.6539 43.6812 38.6506C43.6782 38.6484 43.6751 38.6466 43.6717 38.645C43.6662 38.6416 43.6607 38.6383 43.6551 38.6355C43.6517 38.634 43.6487 38.6321 43.6453 38.6309C43.6395 38.6281 43.6336 38.6254 43.6275 38.6232C43.6238 38.622 43.6207 38.6208 43.6174 38.6195C43.6112 38.6174 43.6051 38.6152 43.5986 38.6137C43.5952 38.6125 43.5916 38.6119 43.5879 38.6106C43.5817 38.6094 43.5759 38.6079 43.5701 38.6066C43.5658 38.606 43.5612 38.6054 43.5569 38.6051C43.5513 38.6039 43.5458 38.6036 43.5403 38.603C43.5351 38.6023 43.5298 38.6023 43.5243 38.602C43.5203 38.602 43.5172 38.6014 43.5132 38.6014H42.3899C42.2176 38.6014 42.0776 38.7411 42.0776 38.9128V45.8931C42.0776 46.0651 42.2176 46.2045 42.3899 46.2045H43.5132C43.6858 46.2045 43.8256 46.0651 43.8256 45.8931V41.7473L47.0283 46.0727C47.0504 46.1041 47.0777 46.1295 47.1075 46.1498C47.1084 46.1504 47.1096 46.1514 47.1106 46.1523C47.117 46.1563 47.1235 46.1603 47.1299 46.1639C47.133 46.1658 47.1357 46.167 47.1388 46.1685C47.1434 46.1713 47.1486 46.1738 47.1536 46.1759C47.1588 46.1781 47.1634 46.1802 47.1689 46.1824C47.172 46.1836 47.1751 46.1848 47.1781 46.1857C47.1855 46.1885 47.1922 46.1907 47.1993 46.1928C47.2008 46.1928 47.2024 46.1934 47.2039 46.1937C47.2294 46.2005 47.2561 46.2045 47.2838 46.2045H48.4074C48.58 46.2045 48.7194 46.0651 48.7194 45.8931V38.9128C48.7194 38.7411 48.58 38.6014 48.4074 38.6014Z" fill="url(#paint3_linear_14:575)"/>
<path d="M37.9646 44.4566H34.9115V38.9133C34.9115 38.741 34.7717 38.6013 34.5997 38.6013H33.4758C33.3035 38.6013 33.1638 38.741 33.1638 38.9133V45.8923V45.8929C33.1638 45.9768 33.1972 46.0526 33.251 46.1085C33.2522 46.1101 33.2534 46.1116 33.2553 46.1131C33.2568 46.1147 33.2584 46.1159 33.2599 46.1174C33.3161 46.1715 33.3916 46.2046 33.4755 46.2046H33.4758H37.9646C38.1369 46.2046 38.276 46.0646 38.276 45.8923V44.7687C38.276 44.5964 38.1369 44.4566 37.9646 44.4566Z" fill="url(#paint4_linear_14:575)"/>
<path d="M54.6125 40.3493C54.7847 40.3493 54.9238 40.2098 54.9238 40.0372V38.9136C54.9238 38.7413 54.7847 38.6013 54.6125 38.6013H50.1236H50.123C50.0389 38.6013 49.963 38.635 49.9068 38.6894C49.9056 38.6906 49.9041 38.6916 49.9031 38.6928C49.9013 38.6946 49.8998 38.6965 49.8982 38.6983C49.8448 38.7542 49.8116 38.8297 49.8116 38.9133V38.9136V45.8926V45.8929C49.8116 45.9768 49.8451 46.0526 49.8988 46.1085C49.9001 46.1101 49.9016 46.1119 49.9031 46.1131C49.9044 46.1147 49.9062 46.1162 49.9078 46.1174C49.9636 46.1712 50.0395 46.2046 50.123 46.2046H50.1236H54.6125C54.7847 46.2046 54.9238 46.0646 54.9238 45.8926V44.7687C54.9238 44.5967 54.7847 44.4566 54.6125 44.4566H51.5596V43.2768H54.6125C54.7847 43.2768 54.9238 43.1371 54.9238 42.9648V41.8411C54.9238 41.6688 54.7847 41.5288 54.6125 41.5288H51.5596V40.3493H54.6125Z" fill="url(#paint5_linear_14:575)"/>
<defs>
<filter id="filter0_bii_14:575" x="-30" y="-30" width="147" height="147" filterUnits="userSpaceOnUse" color-interpolation-filters="sRGB">
<feFlood flood-opacity="0" result="BackgroundImageFix"/>
<feGaussianBlur in="BackgroundImage" stdDeviation="15"/>
<feComposite in2="SourceAlpha" operator="in" result="effect1_backgroundBlur_14:575"/>
<feBlend mode="normal" in="SourceGraphic" in2="effect1_backgroundBlur_14:575" result="shape"/>
<feColorMatrix in="SourceAlpha" type="matrix" values="0 0 0 0 0 0 0 0 0 0 0 0 0 0 0 0 0 0 127 0" result="hardAlpha"/>
<feOffset dy="2"/>
<feGaussianBlur stdDeviation="2"/>
<feComposite in2="hardAlpha" operator="arithmetic" k2="-1" k3="1"/>
<feColorMatrix type="matrix" values="0 0 0 0 1 0 0 0 0 1 0 0 0 0 1 0 0 0 0.1 0"/>
<feBlend mode="normal" in2="shape" result="effect2_innerShadow_14:575"/>
<feColorMatrix in="SourceAlpha" type="matrix" values="0 0 0 0 0 0 0 0 0 0 0 0 0 0 0 0 0 0 127 0" result="hardAlpha"/>
<feOffset dy="-5"/>
<feGaussianBlur stdDeviation="6"/>
<feComposite in2="hardAlpha" operator="arithmetic" k2="-1" k3="1"/>
<feColorMatrix type="matrix" values="0 0 0 0 0 0 0 0 0 1 0 0 0 0 0.356863 0 0 0 0.35 0"/>
<feBlend mode="normal" in2="effect2_innerShadow_14:575" result="effect3_innerShadow_14:575"/>
</filter>
<linearGradient id="paint0_linear_14:575" x1="57.2195" y1="15.5927" x2="18.9666" y2="44.6011" gradientUnits="userSpaceOnUse">
<stop stop-color="#1A8EB2"/>
<stop offset="1" stop-color="#00FF5B"/>
</linearGradient>
<linearGradient id="paint1_linear_14:575" x1="77" y1="12.9412" x2="39.6615" y2="79.7527" gradientUnits="userSpaceOnUse">
<stop stop-color="#1A8EB2"/>
<stop offset="1" stop-color="#00FF5B"/>
</linearGradient>
<linearGradient id="paint2_linear_14:575" x1="40.8576" y1="46.6861" x2="38.1679" y2="46.2172" gradientUnits="userSpaceOnUse">
<stop stop-color="#1A8EB2"/>
<stop offset="1" stop-color="#00FF5B"/>
</linearGradient>
<linearGradient id="paint3_linear_14:575" x1="48.2334" y1="46.6861" x2="40.9144" y2="41.8376" gradientUnits="userSpaceOnUse">
<stop stop-color="#1A8EB2"/>
<stop offset="1" stop-color="#00FF5B"/>
</linearGradient>
<linearGradient id="paint4_linear_14:575" x1="37.9019" y1="46.6863" x2="31.4687" y2="43.4062" gradientUnits="userSpaceOnUse">
<stop stop-color="#1A8EB2"/>
<stop offset="1" stop-color="#00FF5B"/>
</linearGradient>
<linearGradient id="paint5_linear_14:575" x1="54.5498" y1="46.6863" x2="48.1166" y2="43.4062" gradientUnits="userSpaceOnUse">
<stop stop-color="#1A8EB2"/>
<stop offset="1" stop-color="#00FF5B"/>
</linearGradient>
</defs>
</svg>
