<svg width="149" height="81" viewBox="0 0 149 81" fill="none" xmlns="http://www.w3.org/2000/svg">
<path fill-rule="evenodd" clip-rule="evenodd" d="M149 60.3049V66.7582C140.693 66.7582 133.959 73.1345 133.959 81H15.041C15.041 73.1345 8.30692 66.7582 0 66.7582V60.0824C2.59591 60.0824 4.70032 58.0898 4.70032 55.6319C4.70032 53.1739 2.59591 51.1813 0 51.1813V45.6181C2.59591 45.6181 4.70032 43.6256 4.70032 41.1676C4.70032 38.7096 2.59591 36.717 0 36.717V30.7088C2.59591 30.7088 4.70032 28.7162 4.70032 26.2582C4.70032 23.8003 2.59591 21.8077 0 21.8077V14.2418C8.30692 14.2418 15.041 7.86551 15.041 0H133.959C133.959 7.86551 140.693 14.2418 149 14.2418V22.0302C146.404 22.0302 144.3 24.0228 144.3 26.4808C144.3 28.9387 146.404 30.9313 149 30.9313V36.9396C146.404 36.9396 144.3 38.9321 144.3 41.3901C144.3 43.8481 146.404 45.8407 149 45.8407V51.4038C146.404 51.4038 144.3 53.3964 144.3 55.8544C144.3 58.3124 146.404 60.3049 149 60.3049ZM12 9.5C12 9.22386 12.2239 9 12.5 9H13.5C13.7761 9 14 9.22386 14 9.5C14 9.77614 13.7761 10 13.5 10H12.5C12.2239 10 12 9.77614 12 9.5ZM15 9.5C15 9.22386 15.2239 9 15.5 9L17.5 9C17.7761 9 18 9.22386 18 9.5C18 9.77614 17.7761 10 17.5 10L15.5 10C15.2239 10 15 9.77614 15 9.5ZM19 9.5C19 9.22386 19.2239 9 19.5 9H21.5C21.7761 9 22 9.22386 22 9.5C22 9.77614 21.7761 10 21.5 10H19.5C19.2239 10 19 9.77614 19 9.5ZM23 9.5C23 9.22386 23.2239 9 23.5 9H25.5C25.7761 9 26 9.22386 26 9.5C26 9.77614 25.7761 10 25.5 10H23.5C23.2239 10 23 9.77614 23 9.5ZM27 9.5C27 9.22386 27.2239 9 27.5 9L29.5 9C29.7761 9 30 9.22386 30 9.5C30 9.77614 29.7761 10 29.5 10L27.5 10C27.2239 10 27 9.77614 27 9.5ZM31 9.5C31 9.22386 31.2239 9 31.5 9H33.5C33.7761 9 34 9.22386 34 9.5C34 9.77614 33.7761 10 33.5 10H31.5C31.2239 10 31 9.77614 31 9.5ZM35 9.5C35 9.22386 35.2239 9 35.5 9H37.5C37.7761 9 38 9.22386 38 9.5C38 9.77614 37.7761 10 37.5 10H35.5C35.2239 10 35 9.77614 35 9.5ZM39 9.5C39 9.22386 39.2239 9 39.5 9H41.5C41.7761 9 42 9.22386 42 9.5C42 9.77614 41.7761 10 41.5 10H39.5C39.2239 10 39 9.77614 39 9.5ZM43 9.5C43 9.22386 43.2239 9 43.5 9H45.5C45.7761 9 46 9.22386 46 9.5C46 9.77614 45.7761 10 45.5 10H43.5C43.2239 10 43 9.77614 43 9.5ZM47 9.5C47 9.22386 47.2239 9 47.5 9H49.5C49.7761 9 50 9.22386 50 9.5C50 9.77615 49.7761 10 49.5 10H47.5C47.2239 10 47 9.77614 47 9.5ZM51 9.5C51 9.22386 51.2239 9 51.5 9H53.5C53.7761 9 54 9.22386 54 9.5C54 9.77615 53.7761 10 53.5 10H51.5C51.2239 10 51 9.77615 51 9.5ZM55 9.5C55 9.22386 55.2239 9 55.5 9H57.5C57.7761 9 58 9.22386 58 9.5C58 9.77615 57.7761 10 57.5 10H55.5C55.2239 10 55 9.77615 55 9.5ZM59 9.5C59 9.22386 59.2239 9 59.5 9L61.5 9C61.7761 9 62 9.22386 62 9.5C62 9.77615 61.7761 10 61.5 10L59.5 10C59.2239 10 59 9.77615 59 9.5ZM63 9.5C63 9.22386 63.2239 9 63.5 9H65.5C65.7761 9 66 9.22386 66 9.5C66 9.77615 65.7761 10 65.5 10H63.5C63.2239 10 63 9.77615 63 9.5ZM67 9.5C67 9.22386 67.2239 9 67.5 9H69.5C69.7761 9 70 9.22386 70 9.5C70 9.77615 69.7761 10 69.5 10H67.5C67.2239 10 67 9.77615 67 9.5ZM71 9.5C71 9.22386 71.2239 9 71.5 9L73.5 9.00001C73.7761 9.00001 74 9.22386 74 9.50001C74 9.77615 73.7761 10 73.5 10L71.5 10C71.2239 10 71 9.77615 71 9.5ZM75 9.50001C75 9.22386 75.2239 9.00001 75.5 9.00001H77.5C77.7761 9.00001 78 9.22386 78 9.50001C78 9.77615 77.7761 10 77.5 10H75.5C75.2239 10 75 9.77615 75 9.50001ZM79 9.50001C79 9.22386 79.2239 9.00001 79.5 9.00001H81.5C81.7761 9.00001 82 9.22386 82 9.50001C82 9.77615 81.7761 10 81.5 10H79.5C79.2239 10 79 9.77615 79 9.50001ZM83 9.50001C83 9.22386 83.2239 9.00001 83.5 9.00001H85.5C85.7761 9.00001 86 9.22386 86 9.50001C86 9.77615 85.7761 10 85.5 10H83.5C83.2239 10 83 9.77615 83 9.50001ZM87 9.50001C87 9.22386 87.2239 9.00001 87.5 9.00001H89.5C89.7761 9.00001 90 9.22386 90 9.50001C90 9.77615 89.7761 10 89.5 10H87.5C87.2239 10 87 9.77615 87 9.50001ZM91 9.50001C91 9.22386 91.2239 9.00001 91.5 9.00001H93.5C93.7761 9.00001 94 9.22386 94 9.50001C94 9.77615 93.7761 10 93.5 10H91.5C91.2239 10 91 9.77615 91 9.50001ZM95 9.50001C95 9.22386 95.2239 9.00001 95.5 9.00001H97.5C97.7761 9.00001 98 9.22387 98 9.50001C98 9.77615 97.7761 10 97.5 10H95.5C95.2239 10 95 9.77615 95 9.50001ZM99 9.50001C99 9.22387 99.2239 9.00001 99.5 9.00001H101.5C101.776 9.00001 102 9.22387 102 9.50001C102 9.77615 101.776 10 101.5 10H99.5C99.2239 10 99 9.77615 99 9.50001ZM103 9.50001C103 9.22387 103.224 9.00001 103.5 9.00001L105.5 9.00001C105.776 9.00001 106 9.22387 106 9.50001C106 9.77615 105.776 10 105.5 10L103.5 10C103.224 10 103 9.77615 103 9.50001ZM107 9.50001C107 9.22387 107.224 9.00001 107.5 9.00001H109.5C109.776 9.00001 110 9.22387 110 9.50001C110 9.77615 109.776 10 109.5 10H107.5C107.224 10 107 9.77615 107 9.50001ZM111 9.50001C111 9.22387 111.224 9.00001 111.5 9.00001H113.5C113.776 9.00001 114 9.22387 114 9.50001C114 9.77615 113.776 10 113.5 10H111.5C111.224 10 111 9.77615 111 9.50001ZM115 9.50001C115 9.22387 115.224 9.00001 115.5 9.00001L117.5 9.00001C117.776 9.00001 118 9.22387 118 9.50001C118 9.77615 117.776 10 117.5 10L115.5 10C115.224 10 115 9.77615 115 9.50001ZM119 9.50001C119 9.22387 119.224 9.00001 119.5 9.00001H121.5C121.776 9.00001 122 9.22387 122 9.50001C122 9.77615 121.776 10 121.5 10H119.5C119.224 10 119 9.77615 119 9.50001ZM123 9.50001C123 9.22387 123.224 9.00001 123.5 9.00001H125.5C125.776 9.00001 126 9.22387 126 9.50001C126 9.77615 125.776 10 125.5 10H123.5C123.224 10 123 9.77615 123 9.50001ZM127 9.50001C127 9.22387 127.224 9.00001 127.5 9.00001H129.5C129.776 9.00001 130 9.22387 130 9.50001C130 9.77615 129.776 10 129.5 10H127.5C127.224 10 127 9.77615 127 9.50001ZM131 9.50001C131 9.22387 131.224 9.00001 131.5 9.00001H133.5C133.776 9.00001 134 9.22387 134 9.50001C134 9.77615 133.776 10 133.5 10H131.5C131.224 10 131 9.77615 131 9.50001ZM135 9.50001C135 9.22387 135.224 9.00001 135.5 9.00001H136.5C136.776 9.00001 137 9.22387 137 9.50001C137 9.77615 136.776 10 136.5 10H135.5C135.224 10 135 9.77615 135 9.50001ZM12.5 71C12.2239 71 12 71.2239 12 71.5C12 71.7761 12.2239 72 12.5 72H13.5C13.7761 72 14 71.7761 14 71.5C14 71.2239 13.7761 71 13.5 71H12.5ZM15.5 71C15.2239 71 15 71.2239 15 71.5C15 71.7761 15.2239 72 15.5 72H17.5C17.7761 72 18 71.7761 18 71.5C18 71.2239 17.7761 71 17.5 71H15.5ZM19.5 71C19.2239 71 19 71.2239 19 71.5C19 71.7761 19.2239 72 19.5 72H21.5C21.7761 72 22 71.7761 22 71.5C22 71.2239 21.7761 71 21.5 71H19.5ZM23.5 71C23.2239 71 23 71.2239 23 71.5C23 71.7761 23.2239 72 23.5 72H25.5C25.7761 72 26 71.7761 26 71.5C26 71.2239 25.7761 71 25.5 71H23.5ZM27.5 71C27.2239 71 27 71.2239 27 71.5C27 71.7761 27.2239 72 27.5 72H29.5C29.7761 72 30 71.7761 30 71.5C30 71.2239 29.7761 71 29.5 71H27.5ZM31.5 71C31.2239 71 31 71.2239 31 71.5C31 71.7761 31.2239 72 31.5 72H33.5C33.7761 72 34 71.7761 34 71.5C34 71.2239 33.7761 71 33.5 71H31.5ZM35.5 71C35.2239 71 35 71.2239 35 71.5C35 71.7761 35.2239 72 35.5 72H37.5C37.7761 72 38 71.7761 38 71.5C38 71.2239 37.7761 71 37.5 71H35.5ZM39.5 71C39.2239 71 39 71.2239 39 71.5C39 71.7761 39.2239 72 39.5 72H41.5C41.7761 72 42 71.7761 42 71.5C42 71.2239 41.7761 71 41.5 71H39.5ZM43.5 71C43.2239 71 43 71.2239 43 71.5C43 71.7761 43.2239 72 43.5 72H45.5C45.7761 72 46 71.7761 46 71.5C46 71.2239 45.7761 71 45.5 71H43.5ZM47.5 71C47.2239 71 47 71.2239 47 71.5C47 71.7761 47.2239 72 47.5 72H49.5C49.7761 72 50 71.7761 50 71.5C50 71.2239 49.7761 71 49.5 71H47.5ZM51.5 71C51.2239 71 51 71.2239 51 71.5C51 71.7761 51.2239 72 51.5 72H53.5C53.7761 72 54 71.7761 54 71.5C54 71.2239 53.7761 71 53.5 71H51.5ZM55.5 71C55.2239 71 55 71.2239 55 71.5C55 71.7761 55.2239 72 55.5 72L57.5 72C57.7761 72 58 71.7761 58 71.5C58 71.2239 57.7761 71 57.5 71L55.5 71ZM59.5 71C59.2239 71 59 71.2239 59 71.5C59 71.7761 59.2239 72 59.5 72H61.5C61.7761 72 62 71.7761 62 71.5C62 71.2239 61.7761 71 61.5 71H59.5ZM63.5 71C63.2239 71 63 71.2239 63 71.5C63 71.7761 63.2239 72 63.5 72H65.5C65.7761 72 66 71.7761 66 71.5C66 71.2239 65.7761 71 65.5 71H63.5ZM67.5 71C67.2239 71 67 71.2239 67 71.5C67 71.7761 67.2239 72 67.5 72H69.5C69.7761 72 70 71.7761 70 71.5C70 71.2239 69.7761 71 69.5 71H67.5ZM71.5 71C71.2239 71 71 71.2239 71 71.5C71 71.7761 71.2239 72 71.5 72H73.5C73.7761 72 74 71.7761 74 71.5C74 71.2239 73.7761 71 73.5 71H71.5ZM75.5 71C75.2239 71 75 71.2239 75 71.5C75 71.7761 75.2239 72 75.5 72H77.5C77.7761 72 78 71.7761 78 71.5C78 71.2239 77.7761 71 77.5 71H75.5ZM79.5 71C79.2239 71 79 71.2239 79 71.5C79 71.7761 79.2239 72 79.5 72H81.5C81.7761 72 82 71.7761 82 71.5C82 71.2239 81.7761 71 81.5 71H79.5ZM83.5 71C83.2239 71 83 71.2239 83 71.5C83 71.7761 83.2239 72 83.5 72H85.5C85.7761 72 86 71.7761 86 71.5C86 71.2239 85.7761 71 85.5 71H83.5ZM87.5 71C87.2239 71 87 71.2239 87 71.5C87 71.7761 87.2239 72 87.5 72H89.5C89.7761 72 90 71.7761 90 71.5C90 71.2239 89.7761 71 89.5 71H87.5ZM91.5 71C91.2239 71 91 71.2239 91 71.5C91 71.7761 91.2239 72 91.5 72H93.5C93.7761 72 94 71.7761 94 71.5C94 71.2239 93.7761 71 93.5 71H91.5ZM95.5 71C95.2239 71 95 71.2239 95 71.5C95 71.7761 95.2239 72 95.5 72H97.5C97.7761 72 98 71.7762 98 71.5C98 71.2239 97.7761 71 97.5 71H95.5ZM99.5 71C99.2239 71 99 71.2239 99 71.5C99 71.7762 99.2239 72 99.5 72H101.5C101.776 72 102 71.7762 102 71.5C102 71.2239 101.776 71 101.5 71H99.5ZM103.5 71C103.224 71 103 71.2239 103 71.5C103 71.7762 103.224 72 103.5 72H105.5C105.776 72 106 71.7762 106 71.5C106 71.2239 105.776 71 105.5 71H103.5ZM107.5 71C107.224 71 107 71.2239 107 71.5C107 71.7762 107.224 72 107.5 72H109.5C109.776 72 110 71.7762 110 71.5C110 71.2239 109.776 71 109.5 71H107.5ZM111.5 71C111.224 71 111 71.2239 111 71.5C111 71.7762 111.224 72 111.5 72H113.5C113.776 72 114 71.7762 114 71.5C114 71.2239 113.776 71 113.5 71H111.5ZM115.5 71C115.224 71 115 71.2239 115 71.5C115 71.7762 115.224 72 115.5 72H117.5C117.776 72 118 71.7762 118 71.5C118 71.2239 117.776 71 117.5 71H115.5ZM119.5 71C119.224 71 119 71.2239 119 71.5C119 71.7762 119.224 72 119.5 72H121.5C121.776 72 122 71.7762 122 71.5C122 71.2239 121.776 71 121.5 71H119.5ZM123.5 71C123.224 71 123 71.2239 123 71.5C123 71.7762 123.224 72 123.5 72H125.5C125.776 72 126 71.7762 126 71.5C126 71.2239 125.776 71 125.5 71H123.5ZM127.5 71C127.224 71 127 71.2239 127 71.5C127 71.7762 127.224 72 127.5 72H129.5C129.776 72 130 71.7762 130 71.5C130 71.2239 129.776 71 129.5 71H127.5ZM131.5 71C131.224 71 131 71.2239 131 71.5C131 71.7762 131.224 72 131.5 72H133.5C133.776 72 134 71.7762 134 71.5C134 71.2239 133.776 71 133.5 71H131.5ZM135.5 71C135.224 71 135 71.2239 135 71.5C135 71.7762 135.224 72 135.5 72H136.5C136.776 72 137 71.7762 137 71.5C137 71.2239 136.776 71 136.5 71H135.5Z" fill="url(#paint0_linear_155:1216)"/>
<path d="M26.4129 47.16C24.8662 47.16 23.6609 46.728 22.7969 45.864C21.9329 44.9893 21.5009 43.7413 21.5009 42.12V35.8H23.5809V42.04C23.5809 44.2373 24.5302 45.336 26.4289 45.336C28.3169 45.336 29.2609 44.2373 29.2609 42.04V35.8H31.3089V42.12C31.3089 43.7413 30.8769 44.9893 30.0129 45.864C29.1595 46.728 27.9595 47.16 26.4129 47.16ZM34.0459 35.8H36.1259V47H34.0459V35.8ZM42.2753 33.528H44.0673L38.7873 48.6H36.9953L42.2753 33.528ZM49.5568 47.16C48.0101 47.16 46.8048 46.728 45.9408 45.864C45.0768 44.9893 44.6448 43.7413 44.6448 42.12V35.8H46.7248V42.04C46.7248 44.2373 47.6741 45.336 49.5728 45.336C51.4608 45.336 52.4048 44.2373 52.4048 42.04V35.8H54.4528V42.12C54.4528 43.7413 54.0208 44.9893 53.1568 45.864C52.3034 46.728 51.1034 47.16 49.5568 47.16ZM64.0895 47L61.0495 42.744L58.0415 47H55.6735L59.8335 41.288L55.8975 35.8H58.2495L61.1135 39.784L63.9455 35.8H66.2015L62.2815 41.208L66.4895 47H64.0895ZM72.1971 35.8H77.0931C78.2878 35.8 79.3491 36.0347 80.2771 36.504C81.2051 36.9627 81.9251 37.6187 82.4371 38.472C82.9491 39.3147 83.2051 40.2907 83.2051 41.4C83.2051 42.5093 82.9491 43.4907 82.4371 44.344C81.9251 45.1867 81.2051 45.8427 80.2771 46.312C79.3491 46.7707 78.2878 47 77.0931 47H72.1971V35.8ZM76.9971 45.24C77.8185 45.24 78.5385 45.0853 79.1571 44.776C79.7865 44.456 80.2665 44.008 80.5971 43.432C80.9385 42.8453 81.1091 42.168 81.1091 41.4C81.1091 40.632 80.9385 39.96 80.5971 39.384C80.2665 38.7973 79.7865 38.3493 79.1571 38.04C78.5385 37.72 77.8185 37.56 76.9971 37.56H74.2771V45.24H76.9971ZM93.0799 42.776C93.0799 42.9147 93.0692 43.112 93.0479 43.368H86.3439C86.4612 43.9973 86.7652 44.4987 87.2559 44.872C87.7572 45.2347 88.3759 45.416 89.1119 45.416C90.0505 45.416 90.8239 45.1067 91.4319 44.488L92.5039 45.72C92.1199 46.1787 91.6345 46.5253 91.0479 46.76C90.4612 46.9947 89.7999 47.112 89.0639 47.112C88.1252 47.112 87.2985 46.9253 86.5839 46.552C85.8692 46.1787 85.3145 45.6613 84.9199 45C84.5359 44.328 84.3439 43.5707 84.3439 42.728C84.3439 41.896 84.5305 41.1493 84.9039 40.488C85.2879 39.816 85.8159 39.2933 86.4879 38.92C87.1599 38.5467 87.9172 38.36 88.7599 38.36C89.5919 38.36 90.3332 38.5467 90.9839 38.92C91.6452 39.2827 92.1572 39.8 92.5199 40.472C92.8932 41.1333 93.0799 41.9013 93.0799 42.776ZM88.7599 39.96C88.1199 39.96 87.5759 40.152 87.1279 40.536C86.6905 40.9093 86.4239 41.4107 86.3279 42.04H91.1759C91.0905 41.4213 90.8292 40.92 90.3919 40.536C89.9545 40.152 89.4105 39.96 88.7599 39.96ZM97.465 47.112C96.7717 47.112 96.0943 47.0213 95.433 46.84C94.7717 46.6587 94.2437 46.4293 93.849 46.152L94.617 44.632C95.001 44.888 95.4597 45.096 95.993 45.256C96.537 45.4053 97.0703 45.48 97.593 45.48C98.7877 45.48 99.385 45.1653 99.385 44.536C99.385 44.2373 99.2303 44.0293 98.921 43.912C98.6223 43.7947 98.137 43.6827 97.465 43.576C96.761 43.4693 96.185 43.3467 95.737 43.208C95.2997 43.0693 94.9157 42.8293 94.585 42.488C94.265 42.136 94.105 41.6507 94.105 41.032C94.105 40.2213 94.441 39.576 95.113 39.096C95.7957 38.6053 96.713 38.36 97.865 38.36C98.4517 38.36 99.0383 38.4293 99.625 38.568C100.212 38.696 100.692 38.872 101.065 39.096L100.297 40.616C99.5717 40.1893 98.7557 39.976 97.849 39.976C97.2623 39.976 96.8143 40.0667 96.505 40.248C96.2063 40.4187 96.057 40.648 96.057 40.936C96.057 41.256 96.217 41.4853 96.537 41.624C96.8677 41.752 97.3743 41.8747 98.057 41.992C98.7397 42.0987 99.2997 42.2213 99.737 42.36C100.174 42.4987 100.548 42.7333 100.857 43.064C101.177 43.3947 101.337 43.864 101.337 44.472C101.337 45.272 100.99 45.912 100.297 46.392C99.6037 46.872 98.6597 47.112 97.465 47.112ZM102.883 38.456H104.883V47H102.883V38.456ZM103.891 37.048C103.529 37.048 103.225 36.936 102.979 36.712C102.734 36.4773 102.611 36.1893 102.611 35.848C102.611 35.5067 102.734 35.224 102.979 35C103.225 34.7653 103.529 34.648 103.891 34.648C104.254 34.648 104.558 34.76 104.803 34.984C105.049 35.1973 105.171 35.4693 105.171 35.8C105.171 36.152 105.049 36.4507 104.803 36.696C104.569 36.9307 104.265 37.048 103.891 37.048ZM115.812 38.456V45.704C115.812 48.712 114.276 50.216 111.204 50.216C110.383 50.216 109.604 50.1093 108.868 49.896C108.132 49.6933 107.524 49.3947 107.044 49L107.94 47.496C108.314 47.8053 108.783 48.0507 109.348 48.232C109.924 48.424 110.506 48.52 111.092 48.52C112.031 48.52 112.719 48.3067 113.156 47.88C113.594 47.4533 113.812 46.8027 113.812 45.928V45.48C113.471 45.8533 113.055 46.136 112.564 46.328C112.074 46.52 111.535 46.616 110.948 46.616C110.138 46.616 109.402 46.4453 108.74 46.104C108.09 45.752 107.572 45.2613 107.188 44.632C106.815 44.0027 106.628 43.2827 106.628 42.472C106.628 41.6613 106.815 40.9467 107.188 40.328C107.572 39.6987 108.09 39.2133 108.74 38.872C109.402 38.5307 110.138 38.36 110.948 38.36C111.567 38.36 112.127 38.4613 112.628 38.664C113.14 38.8667 113.567 39.176 113.908 39.592V38.456H115.812ZM111.252 44.92C112.01 44.92 112.628 44.696 113.108 44.248C113.599 43.7893 113.844 43.1973 113.844 42.472C113.844 41.7573 113.599 41.176 113.108 40.728C112.628 40.28 112.01 40.056 111.252 40.056C110.484 40.056 109.855 40.28 109.364 40.728C108.884 41.176 108.644 41.7573 108.644 42.472C108.644 43.1973 108.884 43.7893 109.364 44.248C109.855 44.696 110.484 44.92 111.252 44.92ZM123.114 38.36C124.191 38.36 125.055 38.6747 125.706 39.304C126.356 39.9333 126.682 40.8667 126.682 42.104V47H124.682V42.36C124.682 41.6133 124.506 41.0533 124.154 40.68C123.802 40.296 123.3 40.104 122.65 40.104C121.914 40.104 121.332 40.328 120.906 40.776C120.479 41.2133 120.266 41.848 120.266 42.68V47H118.266V38.456H120.17V39.56C120.5 39.1653 120.916 38.8667 121.418 38.664C121.919 38.4613 122.484 38.36 123.114 38.36Z" fill="#DEE6EE"/>
<line x1="16" y1="4" x2="133" y2="4" stroke="#760B0B" stroke-width="2" stroke-linecap="round"/>
<line x1="16" y1="77" x2="133" y2="77" stroke="#760B0B" stroke-width="2" stroke-linecap="round"/>
<defs>
<linearGradient id="paint0_linear_155:1216" x1="174.609" y1="94.9219" x2="97.1349" y2="-55.1937" gradientUnits="userSpaceOnUse">
<stop stop-color="#04091C"/>
<stop offset="1" stop-color="#164F85"/>
</linearGradient>
</defs>
</svg>
