<svg width="340" height="696" viewBox="0 0 340 696" fill="none" xmlns="http://www.w3.org/2000/svg">
<path fill-rule="evenodd" clip-rule="evenodd" d="M281.013 0H279.987C279.727 5.27965 275.579 9.47625 270.5 9.47625C265.421 9.47625 261.273 5.27965 261.013 0H259.987C259.727 5.27965 255.579 9.47625 250.5 9.47625C245.421 9.47625 241.273 5.27965 241.013 0H239.987C239.727 5.27965 235.579 9.47625 230.5 9.47625C225.421 9.47625 221.273 5.27965 221.013 0H219.987C219.727 5.27965 215.579 9.47625 210.5 9.47625C205.421 9.47625 201.273 5.27965 201.013 0H199.987C199.727 5.27965 195.579 9.47625 190.5 9.47625C185.421 9.47625 181.273 5.27965 181.013 0H179.987C179.727 5.27965 175.579 9.47625 170.5 9.47625C165.421 9.47625 161.273 5.27965 161.013 0H159.987C159.727 5.27965 155.579 9.47625 150.5 9.47625C145.421 9.47625 141.273 5.27965 141.013 0H139.987C139.727 5.27965 135.579 9.47625 130.5 9.47625C125.421 9.47625 121.273 5.27965 121.013 0H119.987C119.727 5.27965 115.579 9.47625 110.5 9.47625C105.421 9.47625 101.273 5.27965 101.013 0H99.9871C99.7269 5.27965 95.5789 9.47625 90.5 9.47625C85.4211 9.47625 81.2731 5.27965 81.0129 0H79.9871C79.7269 5.27965 75.5789 9.47625 70.5 9.47625C65.4211 9.47625 61.2731 5.27965 61.0129 0H59.9871C59.7269 5.27965 55.5789 9.47625 50.5 9.47625C47.8081 9.47625 45.3777 8.29737 43.6491 6.40317C42.38 19.0209 37.7393 30.3246 30.8923 38.8559C30.7779 39.1404 30.5788 39.3817 30.3263 39.5488C22.4405 49.0328 11.7685 54.9135 0 55.0757V639.673C22.4984 639.983 40.9894 661.193 43.6669 688.524C45.3943 686.641 47.8173 685.47 50.5 685.47C55.7467 685.47 60 689.949 60 695.473C60 695.65 59.9957 695.826 59.9871 696H61.0129C61.0043 695.826 61 695.65 61 695.473C61 689.949 65.2533 685.47 70.5 685.47C75.7467 685.47 80 689.949 80 695.473C80 695.65 79.9956 695.826 79.9871 696H81.0129C81.0044 695.826 81 695.65 81 695.473C81 689.949 85.2533 685.47 90.5 685.47C95.7467 685.47 100 689.949 100 695.473C100 695.65 99.9956 695.826 99.9871 696H101.013C101.009 695.92 101.006 695.84 101.004 695.76C101.002 695.701 101.001 695.642 101.001 695.583L101 695.54L101 695.473C101 689.949 105.253 685.47 110.5 685.47C115.747 685.47 120 689.949 120 695.473C120 695.65 119.996 695.826 119.987 696H121.013C121.004 695.826 121 695.65 121 695.473C121 689.949 125.253 685.47 130.5 685.47C135.747 685.47 140 689.949 140 695.473C140 695.65 139.996 695.826 139.987 696H141.013C141.004 695.826 141 695.65 141 695.473C141 689.949 145.253 685.47 150.5 685.47C155.747 685.47 160 689.949 160 695.473C160 695.65 159.996 695.826 159.987 696H161.013C161.004 695.826 161 695.65 161 695.473C161 689.949 165.253 685.47 170.5 685.47C175.747 685.47 180 689.949 180 695.473C180 695.65 179.996 695.826 179.987 696H181.013C181.004 695.826 181 695.65 181 695.473C181 689.949 185.253 685.47 190.5 685.47C195.747 685.47 200 689.949 200 695.473C200 695.65 199.996 695.826 199.987 696H201.013C201.009 695.913 201.005 695.827 201.003 695.739C201.001 695.651 201 695.562 201 695.473C201 689.949 205.253 685.47 210.5 685.47C215.747 685.47 220 689.949 220 695.473C220 695.65 219.996 695.826 219.987 696H221.013C221.009 695.923 221.006 695.847 221.004 695.77L221.003 695.729C221.002 695.698 221.002 695.666 221.001 695.635C221.001 695.601 221 695.567 221 695.533L221 695.473C221 689.949 225.253 685.47 230.5 685.47C235.747 685.47 240 689.949 240 695.473C240 695.591 239.998 695.708 239.994 695.825C239.992 695.883 239.99 695.942 239.987 696H241.013C241.004 695.826 241 695.65 241 695.473C241 689.949 245.253 685.47 250.5 685.47C255.747 685.47 260 689.949 260 695.473C260 695.559 259.999 695.645 259.997 695.731C259.995 695.821 259.991 695.911 259.987 696H261.013C261.004 695.826 261 695.65 261 695.473C261 689.949 265.253 685.47 270.5 685.47C275.747 685.47 280 689.949 280 695.473C280 695.553 279.999 695.632 279.997 695.711C279.995 695.807 279.992 695.904 279.987 696H281.013C281.008 695.895 281.004 695.789 281.002 695.683C281.001 695.613 281 695.543 281 695.473C281 689.949 285.253 685.47 290.5 685.47C292.336 685.47 294.05 686.019 295.503 686.968C298.741 660.192 317.206 639.669 339.5 639.669C339.667 639.669 339.834 639.67 340 639.673V55.0757C339.834 55.078 339.667 55.0791 339.5 55.0791C317.257 55.0791 298.825 34.6503 295.526 7.96343C294.068 8.92219 292.345 9.47625 290.5 9.47625C285.421 9.47625 281.273 5.27965 281.013 0ZM29.5 43.7717C30.3284 43.7717 31 44.4432 31 45.2717V47.2645C31 48.093 30.3284 48.7645 29.5 48.7645C28.6716 48.7645 28 48.093 28 47.2645V45.2717C28 44.4432 28.6716 43.7717 29.5 43.7717ZM29.5 52.7396C30.3284 52.7396 31 53.4111 31 54.2396V56.2324C31 57.0609 30.3284 57.7324 29.5 57.7324C28.6716 57.7324 28 57.0609 28 56.2324V54.2396C28 53.4111 28.6716 52.7396 29.5 52.7396ZM29.5 61.7075C30.3284 61.7075 31 62.379 31 63.2075V65.2003C31 66.0288 30.3284 66.7003 29.5 66.7003C28.6716 66.7003 28 66.0288 28 65.2003V63.2075C28 62.379 28.6716 61.7075 29.5 61.7075ZM29.5 70.6754C30.3284 70.6754 31 71.3469 31 72.1754V74.1682C31 74.9967 30.3284 75.6682 29.5 75.6682C28.6716 75.6682 28 74.9967 28 74.1682V72.1754C28 71.3469 28.6716 70.6754 29.5 70.6754ZM29.5 79.6433C30.3284 79.6433 31 80.3148 31 81.1433V83.1361C31 83.9646 30.3284 84.6361 29.5 84.6361C28.6716 84.6361 28 83.9646 28 83.1361V81.1433C28 80.3148 28.6716 79.6433 29.5 79.6433ZM29.5 88.6112C30.3284 88.6112 31 89.2827 31 90.1112V92.104C31 92.9324 30.3284 93.604 29.5 93.604C28.6716 93.604 28 92.9324 28 92.104V90.1112C28 89.2827 28.6716 88.6112 29.5 88.6112ZM29.5 97.579C30.3284 97.579 31 98.2506 31 99.079V101.072C31 101.9 30.3284 102.572 29.5 102.572C28.6716 102.572 28 101.9 28 101.072V99.0791C28 98.2506 28.6716 97.579 29.5 97.579ZM29.5 106.547C30.3284 106.547 31 107.219 31 108.047V110.04C31 110.868 30.3284 111.54 29.5 111.54C28.6716 111.54 28 110.868 28 110.04V108.047C28 107.219 28.6716 106.547 29.5 106.547ZM29.5 115.515C30.3284 115.515 31 116.186 31 117.015V119.008C31 119.836 30.3284 120.508 29.5 120.508C28.6716 120.508 28 119.836 28 119.008V117.015C28 116.186 28.6716 115.515 29.5 115.515ZM29.5 124.483C30.3284 124.483 31 125.154 31 125.983V127.976C31 128.804 30.3284 129.476 29.5 129.476C28.6716 129.476 28 128.804 28 127.976V125.983C28 125.154 28.6716 124.483 29.5 124.483ZM29.5 133.451C30.3284 133.451 31 134.122 31 134.951V136.943C31 137.772 30.3284 138.443 29.5 138.443C28.6716 138.443 28 137.772 28 136.943V134.951C28 134.122 28.6716 133.451 29.5 133.451ZM29.5 142.419C30.3284 142.419 31 143.09 31 143.919V145.911C31 146.74 30.3284 147.411 29.5 147.411C28.6716 147.411 28 146.74 28 145.911V143.919C28 143.09 28.6716 142.419 29.5 142.419ZM29.5 151.386C30.3284 151.386 31 152.058 31 152.886V154.879C31 155.708 30.3284 156.379 29.5 156.379C28.6716 156.379 28 155.708 28 154.879V152.886C28 152.058 28.6716 151.386 29.5 151.386ZM29.5 160.354C30.3284 160.354 31 161.026 31 161.854V163.847C31 164.676 30.3284 165.347 29.5 165.347C28.6716 165.347 28 164.676 28 163.847V161.854C28 161.026 28.6716 160.354 29.5 160.354ZM29.5 169.322C30.3284 169.322 31 169.994 31 170.822V172.815C31 173.644 30.3284 174.315 29.5 174.315C28.6716 174.315 28 173.644 28 172.815V170.822C28 169.994 28.6716 169.322 29.5 169.322ZM29.5 178.29C30.3284 178.29 31 178.962 31 179.79V181.783C31 182.611 30.3284 183.283 29.5 183.283C28.6716 183.283 28 182.611 28 181.783V179.79C28 178.962 28.6716 178.29 29.5 178.29ZM29.5 187.258C30.3284 187.258 31 187.93 31 188.758V190.751C31 191.579 30.3284 192.251 29.5 192.251C28.6716 192.251 28 191.579 28 190.751V188.758C28 187.93 28.6716 187.258 29.5 187.258ZM29.5 196.226C30.3284 196.226 31 196.897 31 197.726V199.719C31 200.547 30.3284 201.219 29.5 201.219C28.6716 201.219 28 200.547 28 199.719V197.726C28 196.897 28.6716 196.226 29.5 196.226ZM29.5 205.194C30.3284 205.194 31 205.865 31 206.694V208.687C31 209.515 30.3284 210.187 29.5 210.187C28.6716 210.187 28 209.515 28 208.687V206.694C28 205.865 28.6716 205.194 29.5 205.194ZM29.5 214.162C30.3284 214.162 31 214.833 31 215.662V217.655C31 218.483 30.3284 219.155 29.5 219.155C28.6716 219.155 28 218.483 28 217.655V215.662C28 214.833 28.6716 214.162 29.5 214.162ZM29.5 223.13C30.3284 223.13 31 223.801 31 224.63V226.622C31 227.451 30.3284 228.122 29.5 228.122C28.6716 228.122 28 227.451 28 226.622V224.63C28 223.801 28.6716 223.13 29.5 223.13ZM29.5 232.097C30.3284 232.097 31 232.769 31 233.597V235.59C31 236.419 30.3284 237.09 29.5 237.09C28.6716 237.09 28 236.419 28 235.59V233.597C28 232.769 28.6716 232.097 29.5 232.097ZM29.5 241.065C30.3284 241.065 31 241.737 31 242.565V244.558C31 245.387 30.3284 246.058 29.5 246.058C28.6716 246.058 28 245.387 28 244.558V242.565C28 241.737 28.6716 241.065 29.5 241.065ZM29.5 250.033C30.3284 250.033 31 250.705 31 251.533V253.526C31 254.355 30.3284 255.026 29.5 255.026C28.6716 255.026 28 254.355 28 253.526V251.533C28 250.705 28.6716 250.033 29.5 250.033ZM29.5 259.001C30.3284 259.001 31 259.673 31 260.501V262.494C31 263.322 30.3284 263.994 29.5 263.994C28.6716 263.994 28 263.322 28 262.494V260.501C28 259.673 28.6716 259.001 29.5 259.001ZM29.5 267.969C30.3284 267.969 31 268.641 31 269.469V271.462C31 272.29 30.3284 272.962 29.5 272.962C28.6716 272.962 28 272.29 28 271.462V269.469C28 268.641 28.6716 267.969 29.5 267.969ZM29.5 276.937C30.3284 276.937 31 277.609 31 278.437V280.43C31 281.258 30.3284 281.93 29.5 281.93C28.6716 281.93 28 281.258 28 280.43V278.437C28 277.609 28.6716 276.937 29.5 276.937ZM29.5 285.905C30.3284 285.905 31 286.576 31 287.405L31 289.398C31 290.226 30.3284 290.898 29.5 290.898C28.6716 290.898 28 290.226 28 289.398L28 287.405C28 286.576 28.6716 285.905 29.5 285.905ZM29.5 294.873C30.3284 294.873 31 295.544 31 296.373V298.366C31 299.194 30.3284 299.866 29.5 299.866C28.6716 299.866 28 299.194 28 298.366V296.373C28 295.544 28.6716 294.873 29.5 294.873ZM29.5 303.841C30.3284 303.841 31 304.512 31 305.341V307.333C31 308.162 30.3284 308.833 29.5 308.833C28.6716 308.833 28 308.162 28 307.333V305.341C28 304.512 28.6716 303.841 29.5 303.841ZM29.5 312.809C30.3284 312.809 31 313.48 31 314.309V316.301C31 317.13 30.3284 317.801 29.5 317.801C28.6716 317.801 28 317.13 28 316.301V314.309C28 313.48 28.6716 312.809 29.5 312.809ZM29.5 321.776C30.3284 321.776 31 322.448 31 323.276V325.269C31 326.098 30.3284 326.769 29.5 326.769C28.6716 326.769 28 326.098 28 325.269V323.276C28 322.448 28.6716 321.776 29.5 321.776ZM29.5 330.744C30.3284 330.744 31 331.416 31 332.244V334.237C31 335.066 30.3284 335.737 29.5 335.737C28.6716 335.737 28 335.066 28 334.237V332.244C28 331.416 28.6716 330.744 29.5 330.744ZM29.5 339.712C30.3284 339.712 31 340.384 31 341.212V343.205C31 344.034 30.3284 344.705 29.5 344.705C28.6716 344.705 28 344.034 28 343.205V341.212C28 340.384 28.6716 339.712 29.5 339.712ZM29.5 348.68C30.3284 348.68 31 349.352 31 350.18V352.173C31 353.001 30.3284 353.673 29.5 353.673C28.6716 353.673 28 353.001 28 352.173V350.18C28 349.352 28.6716 348.68 29.5 348.68ZM29.5 357.648C30.3284 357.648 31 358.32 31 359.148V361.141C31 361.969 30.3284 362.641 29.5 362.641C28.6716 362.641 28 361.969 28 361.141V359.148C28 358.32 28.6716 357.648 29.5 357.648ZM29.5 366.616C30.3284 366.616 31 367.287 31 368.116V370.109C31 370.937 30.3284 371.609 29.5 371.609C28.6716 371.609 28 370.937 28 370.109V368.116C28 367.287 28.6716 366.616 29.5 366.616ZM29.5 375.584C30.3284 375.584 31 376.255 31 377.084V379.077C31 379.905 30.3284 380.577 29.5 380.577C28.6716 380.577 28 379.905 28 379.077V377.084C28 376.255 28.6716 375.584 29.5 375.584ZM29.5 384.552C30.3284 384.552 31 385.223 31 386.052V388.045C31 388.873 30.3284 389.545 29.5 389.545C28.6716 389.545 28 388.873 28 388.045V386.052C28 385.223 28.6716 384.552 29.5 384.552ZM29.5 393.52C30.3284 393.52 31 394.191 31 395.02V397.012C31 397.841 30.3284 398.512 29.5 398.512C28.6716 398.512 28 397.841 28 397.012V395.02C28 394.191 28.6716 393.52 29.5 393.52ZM29.5 402.487C30.3284 402.487 31 403.159 31 403.987V405.98C31 406.809 30.3284 407.48 29.5 407.48C28.6716 407.48 28 406.809 28 405.98V403.987C28 403.159 28.6716 402.487 29.5 402.487ZM29.5 411.455C30.3284 411.455 31 412.127 31 412.955V414.948C31 415.777 30.3284 416.448 29.5 416.448C28.6716 416.448 28 415.777 28 414.948V412.955C28 412.127 28.6716 411.455 29.5 411.455ZM29.5 420.423C30.3284 420.423 31 421.095 31 421.923V423.916C31 424.745 30.3284 425.416 29.5 425.416C28.6716 425.416 28 424.745 28 423.916V421.923C28 421.095 28.6716 420.423 29.5 420.423ZM29.5 429.391C30.3284 429.391 31 430.063 31 430.891V432.884C31 433.712 30.3284 434.384 29.5 434.384C28.6716 434.384 28 433.712 28 432.884V430.891C28 430.063 28.6716 429.391 29.5 429.391ZM29.5 438.359C30.3284 438.359 31 439.031 31 439.859V441.852C31 442.68 30.3284 443.352 29.5 443.352C28.6716 443.352 28 442.68 28 441.852V439.859C28 439.031 28.6716 438.359 29.5 438.359ZM29.5 447.327C30.3284 447.327 31 447.999 31 448.827V450.82C31 451.648 30.3284 452.32 29.5 452.32C28.6716 452.32 28 451.648 28 450.82V448.827C28 447.999 28.6716 447.327 29.5 447.327ZM29.5 456.295C30.3284 456.295 31 456.966 31 457.795V459.788C31 460.616 30.3284 461.288 29.5 461.288C28.6716 461.288 28 460.616 28 459.788V457.795C28 456.966 28.6716 456.295 29.5 456.295ZM29.5 465.263C30.3284 465.263 31 465.934 31 466.763V468.756C31 469.584 30.3284 470.256 29.5 470.256C28.6716 470.256 28 469.584 28 468.756V466.763C28 465.934 28.6716 465.263 29.5 465.263ZM29.5 474.231C30.3284 474.231 31 474.902 31 475.731V477.724C31 478.552 30.3284 479.224 29.5 479.224C28.6716 479.224 28 478.552 28 477.724V475.731C28 474.902 28.6716 474.231 29.5 474.231ZM29.5 483.199C30.3284 483.199 31 483.87 31 484.699V486.691C31 487.52 30.3284 488.191 29.5 488.191C28.6716 488.191 28 487.52 28 486.691V484.699C28 483.87 28.6716 483.199 29.5 483.199ZM29.5 492.166C30.3284 492.166 31 492.838 31 493.666V495.659C31 496.488 30.3284 497.159 29.5 497.159C28.6716 497.159 28 496.488 28 495.659V493.666C28 492.838 28.6716 492.166 29.5 492.166ZM29.5 501.134C30.3284 501.134 31 501.806 31 502.634V504.627C31 505.456 30.3284 506.127 29.5 506.127C28.6716 506.127 28 505.456 28 504.627V502.634C28 501.806 28.6716 501.134 29.5 501.134ZM29.5 510.102C30.3284 510.102 31 510.774 31 511.602V513.595C31 514.424 30.3284 515.095 29.5 515.095C28.6716 515.095 28 514.424 28 513.595V511.602C28 510.774 28.6716 510.102 29.5 510.102ZM29.5 519.07C30.3284 519.07 31 519.742 31 520.57V522.563C31 523.391 30.3284 524.063 29.5 524.063C28.6716 524.063 28 523.391 28 522.563V520.57C28 519.742 28.6716 519.07 29.5 519.07ZM29.5 528.038C30.3284 528.038 31 528.71 31 529.538V531.531C31 532.359 30.3284 533.031 29.5 533.031C28.6716 533.031 28 532.359 28 531.531V529.538C28 528.71 28.6716 528.038 29.5 528.038ZM29.5 537.006C30.3284 537.006 31 537.677 31 538.506V540.499C31 541.327 30.3284 541.999 29.5 541.999C28.6716 541.999 28 541.327 28 540.499V538.506C28 537.677 28.6716 537.006 29.5 537.006ZM29.5 545.974C30.3284 545.974 31 546.645 31 547.474V549.467C31 550.295 30.3284 550.967 29.5 550.967C28.6716 550.967 28 550.295 28 549.467V547.474C28 546.645 28.6716 545.974 29.5 545.974ZM29.5 554.942C30.3284 554.942 31 555.613 31 556.442V558.435C31 559.263 30.3284 559.935 29.5 559.935C28.6716 559.935 28 559.263 28 558.435V556.442C28 555.613 28.6716 554.942 29.5 554.942ZM29.5 563.91C30.3284 563.91 31 564.581 31 565.41V567.403C31 568.231 30.3284 568.903 29.5 568.903C28.6716 568.903 28 568.231 28 567.403V565.41C28 564.581 28.6716 563.91 29.5 563.91ZM29.5 572.878C30.3284 572.878 31 573.549 31 574.378V576.37C31 577.199 30.3284 577.87 29.5 577.87C28.6716 577.87 28 577.199 28 576.37V574.378C28 573.549 28.6716 572.878 29.5 572.878ZM29.5 581.845C30.3284 581.845 31 582.517 31 583.345V585.338C31 586.167 30.3284 586.838 29.5 586.838C28.6716 586.838 28 586.167 28 585.338V583.345C28 582.517 28.6716 581.845 29.5 581.845ZM29.5 590.813C30.3284 590.813 31 591.485 31 592.313V594.306C31 595.135 30.3285 595.806 29.5 595.806C28.6716 595.806 28 595.135 28 594.306V592.313C28 591.485 28.6716 590.813 29.5 590.813ZM29.5 599.781C30.3285 599.781 31 600.453 31 601.281V603.274C31 604.103 30.3285 604.774 29.5 604.774C28.6716 604.774 28 604.103 28 603.274V601.281C28 600.453 28.6716 599.781 29.5 599.781ZM29.5 608.749C30.3285 608.749 31 609.421 31 610.249V612.242C31 613.07 30.3285 613.742 29.5 613.742C28.6716 613.742 28 613.07 28 612.242V610.249C28 609.421 28.6716 608.749 29.5 608.749ZM29.5 617.717C30.3285 617.717 31 618.389 31 619.217V621.21C31 622.038 30.3285 622.71 29.5 622.71C28.6716 622.71 28 622.038 28 621.21V619.217C28 618.389 28.6716 617.717 29.5 617.717ZM29.5 626.685C30.3285 626.685 31 627.357 31 628.185V630.178C31 631.006 30.3285 631.678 29.5 631.678C28.6716 631.678 28 631.006 28 630.178V628.185C28 627.357 28.6716 626.685 29.5 626.685ZM29.5 635.653C30.3285 635.653 31 636.324 31 637.153V639.146C31 639.974 30.3285 640.646 29.5 640.646C28.6716 640.646 28 639.974 28 639.146V637.153C28 636.324 28.6716 635.653 29.5 635.653ZM29.5 644.621C30.3285 644.621 31 645.292 31 646.121V647.117C31 647.946 30.3285 648.617 29.5 648.617C28.6716 648.617 28 647.946 28 647.117V646.121C28 645.292 28.6716 644.621 29.5 644.621ZM312 45.2717C312 44.4432 311.328 43.7717 310.5 43.7717C309.672 43.7717 309 44.4432 309 45.2717V47.2645C309 48.093 309.672 48.7645 310.5 48.7645C311.328 48.7645 312 48.093 312 47.2645V45.2717ZM312 54.2396C312 53.4111 311.328 52.7396 310.5 52.7396C309.672 52.7396 309 53.4111 309 54.2396V56.2324C309 57.0609 309.672 57.7324 310.5 57.7324C311.328 57.7324 312 57.0609 312 56.2324V54.2396ZM312 63.2075C312 62.379 311.328 61.7075 310.5 61.7075C309.672 61.7075 309 62.379 309 63.2075V65.2003C309 66.0288 309.672 66.7003 310.5 66.7003C311.328 66.7003 312 66.0288 312 65.2003V63.2075ZM312 72.1754C312 71.3469 311.328 70.6754 310.5 70.6754C309.672 70.6754 309 71.3469 309 72.1754V74.1682C309 74.9967 309.672 75.6682 310.5 75.6682C311.328 75.6682 312 74.9967 312 74.1682V72.1754ZM312 81.1433C312 80.3148 311.328 79.6433 310.5 79.6433C309.672 79.6433 309 80.3148 309 81.1433V83.1361C309 83.9646 309.672 84.6361 310.5 84.6361C311.328 84.6361 312 83.9646 312 83.1361V81.1433ZM312 90.1112C312 89.2827 311.328 88.6112 310.5 88.6112C309.672 88.6112 309 89.2827 309 90.1112V92.104C309 92.9324 309.672 93.604 310.5 93.604C311.328 93.604 312 92.9324 312 92.104V90.1112ZM312 99.079C312 98.2506 311.328 97.579 310.5 97.579C309.672 97.579 309 98.2506 309 99.0791V101.072C309 101.9 309.672 102.572 310.5 102.572C311.328 102.572 312 101.9 312 101.072V99.079ZM312 108.047C312 107.219 311.328 106.547 310.5 106.547C309.672 106.547 309 107.219 309 108.047V110.04C309 110.868 309.672 111.54 310.5 111.54C311.328 111.54 312 110.868 312 110.04V108.047ZM312 117.015C312 116.186 311.328 115.515 310.5 115.515C309.672 115.515 309 116.186 309 117.015V119.008C309 119.836 309.672 120.508 310.5 120.508C311.328 120.508 312 119.836 312 119.008V117.015ZM312 125.983C312 125.154 311.328 124.483 310.5 124.483C309.672 124.483 309 125.154 309 125.983V127.976C309 128.804 309.672 129.476 310.5 129.476C311.328 129.476 312 128.804 312 127.976V125.983ZM312 134.951C312 134.122 311.328 133.451 310.5 133.451C309.672 133.451 309 134.122 309 134.951V136.943C309 137.772 309.672 138.443 310.5 138.443C311.328 138.443 312 137.772 312 136.943V134.951ZM312 143.919C312 143.09 311.328 142.419 310.5 142.419C309.672 142.419 309 143.09 309 143.919V145.911C309 146.74 309.672 147.411 310.5 147.411C311.328 147.411 312 146.74 312 145.911V143.919ZM312 152.886C312 152.058 311.328 151.386 310.5 151.386C309.672 151.386 309 152.058 309 152.886V154.879C309 155.708 309.672 156.379 310.5 156.379C311.328 156.379 312 155.708 312 154.879V152.886ZM312 161.854C312 161.026 311.328 160.354 310.5 160.354C309.672 160.354 309 161.026 309 161.854V163.847C309 164.676 309.672 165.347 310.5 165.347C311.328 165.347 312 164.676 312 163.847V161.854ZM312 170.822C312 169.994 311.328 169.322 310.5 169.322C309.672 169.322 309 169.994 309 170.822V172.815C309 173.644 309.672 174.315 310.5 174.315C311.328 174.315 312 173.644 312 172.815V170.822ZM312 179.79C312 178.962 311.328 178.29 310.5 178.29C309.672 178.29 309 178.962 309 179.79V181.783C309 182.611 309.672 183.283 310.5 183.283C311.328 183.283 312 182.611 312 181.783V179.79ZM312 188.758C312 187.93 311.328 187.258 310.5 187.258C309.672 187.258 309 187.93 309 188.758V190.751C309 191.579 309.672 192.251 310.5 192.251C311.328 192.251 312 191.579 312 190.751V188.758ZM312 197.726C312 196.897 311.328 196.226 310.5 196.226C309.672 196.226 309 196.897 309 197.726V199.719C309 200.547 309.672 201.219 310.5 201.219C311.328 201.219 312 200.547 312 199.719V197.726ZM312 206.694C312 205.865 311.328 205.194 310.5 205.194C309.672 205.194 309 205.865 309 206.694V208.687C309 209.515 309.672 210.187 310.5 210.187C311.328 210.187 312 209.515 312 208.687V206.694ZM312 215.662C312 214.833 311.328 214.162 310.5 214.162C309.672 214.162 309 214.833 309 215.662V217.655C309 218.483 309.672 219.155 310.5 219.155C311.328 219.155 312 218.483 312 217.655V215.662ZM312 224.63C312 223.801 311.328 223.13 310.5 223.13C309.672 223.13 309 223.801 309 224.63V226.622C309 227.451 309.672 228.122 310.5 228.122C311.328 228.122 312 227.451 312 226.622V224.63ZM312 233.597C312 232.769 311.328 232.097 310.5 232.097C309.672 232.097 309 232.769 309 233.597V235.59C309 236.419 309.672 237.09 310.5 237.09C311.328 237.09 312 236.419 312 235.59V233.597ZM312 242.565C312 241.737 311.328 241.065 310.5 241.065C309.672 241.065 309 241.737 309 242.565V244.558C309 245.387 309.672 246.058 310.5 246.058C311.328 246.058 312 245.387 312 244.558V242.565ZM312 251.533C312 250.705 311.328 250.033 310.5 250.033C309.672 250.033 309 250.705 309 251.533V253.526C309 254.355 309.672 255.026 310.5 255.026C311.328 255.026 312 254.355 312 253.526V251.533ZM312 260.501C312 259.673 311.328 259.001 310.5 259.001C309.672 259.001 309 259.673 309 260.501V262.494C309 263.322 309.672 263.994 310.5 263.994C311.328 263.994 312 263.322 312 262.494V260.501ZM312 269.469C312 268.641 311.328 267.969 310.5 267.969C309.672 267.969 309 268.641 309 269.469V271.462C309 272.29 309.672 272.962 310.5 272.962C311.328 272.962 312 272.29 312 271.462V269.469ZM312 278.437C312 277.609 311.328 276.937 310.5 276.937C309.672 276.937 309 277.609 309 278.437V280.43C309 281.258 309.672 281.93 310.5 281.93C311.328 281.93 312 281.258 312 280.43V278.437ZM312 287.405C312 286.576 311.328 285.905 310.5 285.905C309.672 285.905 309 286.576 309 287.405V289.398C309 290.226 309.672 290.898 310.5 290.898C311.328 290.898 312 290.226 312 289.398V287.405ZM312 296.373C312 295.544 311.328 294.873 310.5 294.873C309.672 294.873 309 295.544 309 296.373V298.366C309 299.194 309.672 299.866 310.5 299.866C311.328 299.866 312 299.194 312 298.366V296.373ZM312 305.341C312 304.512 311.328 303.841 310.5 303.841C309.672 303.841 309 304.512 309 305.341V307.333C309 308.162 309.672 308.833 310.5 308.833C311.328 308.833 312 308.162 312 307.333V305.341ZM312 314.309C312 313.48 311.328 312.809 310.5 312.809C309.672 312.809 309 313.48 309 314.309V316.301C309 317.13 309.672 317.801 310.5 317.801C311.328 317.801 312 317.13 312 316.301V314.309ZM312 323.276C312 322.448 311.328 321.776 310.5 321.776C309.672 321.776 309 322.448 309 323.276V325.269C309 326.098 309.672 326.769 310.5 326.769C311.328 326.769 312 326.098 312 325.269V323.276ZM312 332.244C312 331.416 311.328 330.744 310.5 330.744C309.672 330.744 309 331.416 309 332.244V334.237C309 335.066 309.672 335.737 310.5 335.737C311.328 335.737 312 335.066 312 334.237V332.244ZM312 341.212C312 340.384 311.328 339.712 310.5 339.712C309.672 339.712 309 340.384 309 341.212V343.205C309 344.034 309.672 344.705 310.5 344.705C311.328 344.705 312 344.034 312 343.205V341.212ZM312 350.18C312 349.352 311.328 348.68 310.5 348.68C309.672 348.68 309 349.352 309 350.18V352.173C309 353.001 309.672 353.673 310.5 353.673C311.328 353.673 312 353.001 312 352.173V350.18ZM312 359.148C312 358.32 311.328 357.648 310.5 357.648C309.672 357.648 309 358.32 309 359.148V361.141C309 361.969 309.672 362.641 310.5 362.641C311.328 362.641 312 361.969 312 361.141V359.148ZM312 368.116C312 367.287 311.328 366.616 310.5 366.616C309.672 366.616 309 367.287 309 368.116V370.109C309 370.937 309.672 371.609 310.5 371.609C311.328 371.609 312 370.937 312 370.109V368.116ZM312 377.084C312 376.255 311.328 375.584 310.5 375.584C309.672 375.584 309 376.255 309 377.084V379.077C309 379.905 309.672 380.577 310.5 380.577C311.328 380.577 312 379.905 312 379.077V377.084ZM312 386.052C312 385.223 311.328 384.552 310.5 384.552C309.672 384.552 309 385.223 309 386.052V388.045C309 388.873 309.672 389.545 310.5 389.545C311.328 389.545 312 388.873 312 388.045V386.052ZM312 395.02C312 394.191 311.328 393.52 310.5 393.52C309.672 393.52 309 394.191 309 395.02V397.012C309 397.841 309.672 398.512 310.5 398.512C311.328 398.512 312 397.841 312 397.012V395.02ZM312 403.987C312 403.159 311.328 402.487 310.5 402.487C309.672 402.487 309 403.159 309 403.987V405.98C309 406.809 309.672 407.48 310.5 407.48C311.328 407.48 312 406.809 312 405.98V403.987ZM312 412.955C312 412.127 311.328 411.455 310.5 411.455C309.672 411.455 309 412.127 309 412.955V414.948C309 415.777 309.672 416.448 310.5 416.448C311.328 416.448 312 415.777 312 414.948V412.955ZM312 421.923C312 421.095 311.328 420.423 310.5 420.423C309.672 420.423 309 421.095 309 421.923V423.916C309 424.745 309.672 425.416 310.5 425.416C311.328 425.416 312 424.745 312 423.916V421.923ZM312 430.891C312 430.063 311.328 429.391 310.5 429.391C309.672 429.391 309 430.063 309 430.891V432.884C309 433.712 309.672 434.384 310.5 434.384C311.328 434.384 312 433.712 312 432.884V430.891ZM312 439.859C312 439.031 311.328 438.359 310.5 438.359C309.672 438.359 309 439.031 309 439.859V441.852C309 442.68 309.672 443.352 310.5 443.352C311.328 443.352 312 442.68 312 441.852V439.859ZM312 448.827C312 447.999 311.328 447.327 310.5 447.327C309.672 447.327 309 447.999 309 448.827V450.82C309 451.648 309.672 452.32 310.5 452.32C311.328 452.32 312 451.648 312 450.82V448.827ZM312 457.795C312 456.966 311.328 456.295 310.5 456.295C309.672 456.295 309 456.966 309 457.795V459.788C309 460.616 309.672 461.288 310.5 461.288C311.328 461.288 312 460.616 312 459.788V457.795ZM312 466.763C312 465.934 311.328 465.263 310.5 465.263C309.672 465.263 309 465.934 309 466.763V468.756C309 469.584 309.672 470.256 310.5 470.256C311.328 470.256 312 469.584 312 468.756V466.763ZM312 475.731C312 474.902 311.328 474.231 310.5 474.231C309.672 474.231 309 474.902 309 475.731V477.724C309 478.552 309.672 479.224 310.5 479.224C311.328 479.224 312 478.552 312 477.724V475.731ZM312 484.699C312 483.87 311.328 483.199 310.5 483.199C309.672 483.199 309 483.87 309 484.699V486.691C309 487.52 309.672 488.191 310.5 488.191C311.328 488.191 312 487.52 312 486.691V484.699ZM312 493.666C312 492.838 311.328 492.166 310.5 492.166C309.672 492.166 309 492.838 309 493.666V495.659C309 496.488 309.672 497.159 310.5 497.159C311.328 497.159 312 496.488 312 495.659V493.666ZM312 502.634C312 501.806 311.328 501.134 310.5 501.134C309.672 501.134 309 501.806 309 502.634V504.627C309 505.456 309.672 506.127 310.5 506.127C311.328 506.127 312 505.456 312 504.627V502.634ZM312 511.602C312 510.774 311.328 510.102 310.5 510.102C309.672 510.102 309 510.774 309 511.602V513.595C309 514.424 309.672 515.095 310.5 515.095C311.328 515.095 312 514.424 312 513.595V511.602ZM312 520.57C312 519.742 311.328 519.07 310.5 519.07C309.672 519.07 309 519.742 309 520.57V522.563C309 523.391 309.672 524.063 310.5 524.063C311.328 524.063 312 523.391 312 522.563V520.57ZM312 529.538C312 528.71 311.328 528.038 310.5 528.038C309.672 528.038 309 528.71 309 529.538V531.531C309 532.359 309.672 533.031 310.5 533.031C311.328 533.031 312 532.359 312 531.531V529.538ZM312 538.506C312 537.677 311.328 537.006 310.5 537.006C309.672 537.006 309 537.677 309 538.506V540.499C309 541.327 309.672 541.999 310.5 541.999C311.328 541.999 312 541.327 312 540.499V538.506ZM312 547.474C312 546.645 311.328 545.974 310.5 545.974C309.672 545.974 309 546.645 309 547.474V549.467C309 550.295 309.672 550.967 310.5 550.967C311.328 550.967 312 550.295 312 549.467V547.474ZM312 556.442C312 555.613 311.328 554.942 310.5 554.942C309.672 554.942 309 555.613 309 556.442V558.435C309 559.263 309.672 559.935 310.5 559.935C311.328 559.935 312 559.263 312 558.435V556.442ZM312 565.41C312 564.581 311.328 563.91 310.5 563.91C309.672 563.91 309 564.581 309 565.41V567.403C309 568.231 309.672 568.903 310.5 568.903C311.328 568.903 312 568.231 312 567.403V565.41ZM312 574.378C312 573.549 311.328 572.878 310.5 572.878C309.672 572.878 309 573.549 309 574.378V576.37C309 577.199 309.672 577.87 310.5 577.87C311.328 577.87 312 577.199 312 576.37V574.378ZM312 583.345C312 582.517 311.328 581.845 310.5 581.845C309.672 581.845 309 582.517 309 583.345V585.338C309 586.167 309.672 586.838 310.5 586.838C311.328 586.838 312 586.167 312 585.338V583.345ZM312 592.313C312 591.485 311.328 590.813 310.5 590.813C309.672 590.813 309 591.485 309 592.313V594.306C309 595.135 309.672 595.806 310.5 595.806C311.328 595.806 312 595.135 312 594.306V592.313ZM312 601.281C312 600.453 311.328 599.781 310.5 599.781C309.672 599.781 309 600.453 309 601.281V603.274C309 604.103 309.672 604.774 310.5 604.774C311.328 604.774 312 604.103 312 603.274V601.281ZM312 610.249C312 609.421 311.328 608.749 310.5 608.749C309.672 608.749 309 609.421 309 610.249V612.242C309 613.07 309.672 613.742 310.5 613.742C311.328 613.742 312 613.07 312 612.242V610.249ZM312 619.217C312 618.389 311.328 617.717 310.5 617.717C309.672 617.717 309 618.389 309 619.217V621.21C309 622.038 309.672 622.71 310.5 622.71C311.328 622.71 312 622.038 312 621.21V619.217ZM312 628.185C312 627.357 311.328 626.685 310.5 626.685C309.672 626.685 309 627.357 309 628.185V630.178C309 631.006 309.672 631.678 310.5 631.678C311.328 631.678 312 631.006 312 630.178V628.185ZM312 637.153C312 636.324 311.328 635.653 310.5 635.653C309.672 635.653 309 636.324 309 637.153V639.146C309 639.974 309.672 640.646 310.5 640.646C311.328 640.646 312 639.974 312 639.146V637.153ZM312 646.121C312 645.292 311.328 644.621 310.5 644.621C309.672 644.621 309 645.292 309 646.121V647.117C309 647.946 309.672 648.617 310.5 648.617C311.328 648.617 312 647.946 312 647.117V646.121Z" fill="url(#paint0_linear_51_15936)"/>
<defs>
<linearGradient id="paint0_linear_51_15936" x1="398.438" y1="815.625" x2="-266.116" y2="473.673" gradientUnits="userSpaceOnUse">
<stop stop-color="#04091C"/>
<stop offset="1" stop-color="#164F85"/>
</linearGradient>
</defs>
</svg>
