<svg width="183" height="41" viewBox="0 0 183 41" fill="none" xmlns="http://www.w3.org/2000/svg">
<rect width="183" height="40.2745" rx="20.1373" fill="url(#paint0_linear_26_8945)"/>
<path d="M58.0168 28.3545C57.0688 28.3545 56.2348 28.1685 55.5148 27.7965C54.7948 27.4245 54.2368 26.8785 53.8408 26.1585C53.4448 25.4385 53.2468 24.5565 53.2468 23.5125V22.9365H55.7848V23.7285C55.7848 24.4245 55.9888 24.9765 56.3968 25.3845C56.8048 25.7805 57.3388 25.9785 57.9988 25.9785C58.6708 25.9785 59.2048 25.7805 59.6008 25.3845C60.0088 24.9765 60.2128 24.4245 60.2128 23.7285V16.7625H62.7688V23.5125C62.7688 24.5565 62.5708 25.4385 62.1748 26.1585C61.7788 26.8785 61.2268 27.4245 60.5188 27.7965C59.8108 28.1685 58.9768 28.3545 58.0168 28.3545ZM54.8488 17.1225V14.8725H62.7688V17.1225H54.8488ZM70.0877 28.3545C69.2237 28.3545 68.4617 28.2165 67.8017 27.9405C67.1417 27.6645 66.5837 27.2925 66.1277 26.8245C65.6717 26.3445 65.3237 25.8045 65.0837 25.2045C64.8557 24.6045 64.7417 23.9805 64.7417 23.3325V22.9545C64.7417 22.2825 64.8617 21.6465 65.1017 21.0465C65.3537 20.4345 65.7077 19.8945 66.1637 19.4265C66.6317 18.9465 67.1957 18.5745 67.8557 18.3105C68.5157 18.0345 69.2597 17.8965 70.0877 17.8965C70.9157 17.8965 71.6597 18.0345 72.3197 18.3105C72.9797 18.5745 73.5377 18.9465 73.9937 19.4265C74.4617 19.8945 74.8157 20.4345 75.0557 21.0465C75.2957 21.6465 75.4157 22.2825 75.4157 22.9545V23.3325C75.4157 23.9805 75.2957 24.6045 75.0557 25.2045C74.8277 25.8045 74.4857 26.3445 74.0297 26.8245C73.5737 27.2925 73.0157 27.6645 72.3557 27.9405C71.6957 28.2165 70.9397 28.3545 70.0877 28.3545ZM70.0877 26.2125C70.6997 26.2125 71.2157 26.0805 71.6357 25.8165C72.0557 25.5405 72.3737 25.1745 72.5897 24.7185C72.8057 24.2505 72.9137 23.7225 72.9137 23.1345C72.9137 22.5345 72.7997 22.0065 72.5717 21.5505C72.3557 21.0825 72.0317 20.7165 71.5997 20.4525C71.1797 20.1765 70.6757 20.0385 70.0877 20.0385C69.4997 20.0385 68.9897 20.1765 68.5577 20.4525C68.1377 20.7165 67.8137 21.0825 67.5857 21.5505C67.3577 22.0065 67.2437 22.5345 67.2437 23.1345C67.2437 23.7225 67.3517 24.2505 67.5677 24.7185C67.7957 25.1745 68.1197 25.5405 68.5397 25.8165C68.9597 26.0805 69.4757 26.2125 70.0877 26.2125ZM77.8765 28.0125V18.2385H80.3785V28.0125H77.8765ZM76.5085 20.1105V18.2385H80.3785V20.1105H76.5085ZM78.7945 17.0685C78.3025 17.0685 77.9365 16.9425 77.6965 16.6905C77.4685 16.4265 77.3545 16.1025 77.3545 15.7185C77.3545 15.3105 77.4685 14.9805 77.6965 14.7285C77.9365 14.4765 78.3025 14.3505 78.7945 14.3505C79.2865 14.3505 79.6465 14.4765 79.8745 14.7285C80.1025 14.9805 80.2165 15.3105 80.2165 15.7185C80.2165 16.1025 80.1025 16.4265 79.8745 16.6905C79.6465 16.9425 79.2865 17.0685 78.7945 17.0685ZM83.064 28.0125V18.2385H85.044V22.4325H84.864C84.864 21.4365 84.996 20.6085 85.26 19.9485C85.524 19.2765 85.914 18.7725 86.43 18.4365C86.958 18.1005 87.612 17.9325 88.392 17.9325H88.5C89.664 17.9325 90.546 18.3105 91.146 19.0665C91.746 19.8105 92.046 20.9265 92.046 22.4145V28.0125H89.544V22.1985C89.544 21.5985 89.37 21.1125 89.022 20.7405C88.686 20.3685 88.218 20.1825 87.618 20.1825C87.006 20.1825 86.508 20.3745 86.124 20.7585C85.752 21.1305 85.566 21.6345 85.566 22.2705V28.0125H83.064ZM102.905 28.3545C101.741 28.3545 100.757 28.1685 99.9526 27.7965C99.1606 27.4245 98.5546 26.9145 98.1346 26.2665C97.7146 25.6065 97.5046 24.8625 97.5046 24.0345H100.007C100.007 24.3825 100.103 24.7245 100.295 25.0605C100.487 25.3845 100.793 25.6485 101.213 25.8525C101.645 26.0565 102.209 26.1585 102.905 26.1585C103.529 26.1585 104.051 26.0685 104.471 25.8885C104.891 25.7085 105.203 25.4745 105.407 25.1865C105.611 24.8865 105.713 24.5505 105.713 24.1785C105.713 23.7105 105.515 23.3385 105.119 23.0625C104.723 22.7745 104.111 22.5945 103.283 22.5225L102.131 22.4325C100.871 22.3245 99.8626 21.9345 99.1066 21.2625C98.3626 20.5785 97.9906 19.6785 97.9906 18.5625C97.9906 17.7225 98.1886 17.0025 98.5846 16.4025C98.9806 15.7905 99.5326 15.3225 100.241 14.9985C100.961 14.6625 101.801 14.4945 102.761 14.4945C103.757 14.4945 104.615 14.6685 105.335 15.0165C106.055 15.3645 106.613 15.8565 107.009 16.4925C107.405 17.1165 107.603 17.8545 107.603 18.7065H105.101C105.101 18.3465 105.011 18.0165 104.831 17.7165C104.663 17.4045 104.405 17.1585 104.057 16.9785C103.721 16.7865 103.289 16.6905 102.761 16.6905C102.257 16.6905 101.837 16.7745 101.501 16.9425C101.165 17.1105 100.913 17.3385 100.745 17.6265C100.577 17.9145 100.493 18.2265 100.493 18.5625C100.493 18.9705 100.643 19.3305 100.943 19.6425C101.243 19.9425 101.717 20.1165 102.365 20.1645L103.517 20.2725C104.453 20.3445 105.275 20.5425 105.983 20.8665C106.691 21.1905 107.237 21.6285 107.621 22.1805C108.017 22.7325 108.215 23.3985 108.215 24.1785C108.215 25.0065 107.999 25.7385 107.567 26.3745C107.135 26.9985 106.517 27.4845 105.713 27.8325C104.921 28.1805 103.985 28.3545 102.905 28.3545ZM110.39 28.0125V14.8725H112.946V28.0125H110.39ZM122.147 28.3545C121.019 28.3545 120.023 28.1685 119.159 27.7965C118.307 27.4125 117.587 26.9025 116.999 26.2665C116.423 25.6185 115.985 24.8925 115.685 24.0885C115.397 23.2725 115.253 22.4265 115.253 21.5505V21.1545C115.253 20.3265 115.397 19.5165 115.685 18.7245C115.973 17.9325 116.393 17.2185 116.945 16.5825C117.509 15.9465 118.199 15.4425 119.015 15.0705C119.843 14.6865 120.791 14.4945 121.859 14.4945C123.011 14.4945 124.031 14.7105 124.919 15.1425C125.807 15.5625 126.521 16.1565 127.061 16.9245C127.601 17.6805 127.919 18.5625 128.015 19.5705H125.441C125.357 19.0065 125.147 18.5265 124.811 18.1305C124.475 17.7225 124.049 17.4105 123.533 17.1945C123.029 16.9785 122.471 16.8705 121.859 16.8705C121.247 16.8705 120.689 16.9785 120.185 17.1945C119.693 17.4105 119.273 17.7165 118.925 18.1125C118.577 18.5085 118.307 18.9825 118.115 19.5345C117.935 20.0865 117.845 20.6985 117.845 21.3705C117.845 22.1025 117.947 22.7565 118.151 23.3325C118.355 23.9085 118.643 24.4005 119.015 24.8085C119.387 25.2045 119.837 25.5105 120.365 25.7265C120.893 25.9305 121.487 26.0325 122.147 26.0325C123.023 26.0325 123.791 25.8525 124.451 25.4925C125.111 25.1205 125.591 24.6405 125.891 24.0525L125.441 26.1225V22.7385H127.799V25.6545C127.235 26.5065 126.467 27.1725 125.495 27.6525C124.523 28.1205 123.407 28.3545 122.147 28.3545ZM121.733 23.2425V21.3345H128.897V23.2425H121.733Z" fill="white"/>
<defs>
<linearGradient id="paint0_linear_26_8945" x1="50.3605" y1="-2.9833" x2="92.1398" y2="76.4836" gradientUnits="userSpaceOnUse">
<stop stop-color="#AB1818"/>
<stop offset="1" stop-color="#520000"/>
</linearGradient>
</defs>
</svg>
