<svg width="34" height="34" viewBox="0 0 34 34" fill="none" xmlns="http://www.w3.org/2000/svg">
<circle cx="17" cy="17" r="17" fill="url(#paint0_linear_438:2751)"/>
<path d="M23.346 9.60187C22.8495 9.07672 22.0222 9.07672 21.5256 9.60187L17.9103 13.4252C17.4137 13.9503 16.5864 13.9503 16.0899 13.4252L12.4746 9.60187C11.978 9.07672 11.1507 9.07672 10.6541 9.60187L10.2683 10.0099C9.79957 10.5056 9.79957 11.2885 10.2683 11.7842L14.0263 15.7584C14.495 16.2541 14.495 17.0369 14.0263 17.5326L10.2683 21.5069C9.79957 22.0026 9.79957 22.7854 10.2683 23.2811L10.6541 23.6891C11.1507 24.2143 11.978 24.2143 12.4746 23.6891L16.0899 19.8659C16.5864 19.3407 17.4137 19.3407 17.9103 19.8659L21.5256 23.6891C22.0222 24.2143 22.8495 24.2143 23.346 23.6891L23.7319 23.2811C24.2006 22.7854 24.2006 22.0026 23.7319 21.5069L19.9739 17.5326C19.5051 17.0369 19.5051 16.2541 19.9739 15.7584L23.7319 11.7842C24.2006 11.2885 24.2006 10.5056 23.7319 10.0099L23.346 9.60187Z" fill="white"/>
<defs>
<linearGradient id="paint0_linear_438:2751" x1="9.35659" y1="-2.51852" x2="39.857" y2="10.2491" gradientUnits="userSpaceOnUse">
<stop stop-color="#AB1818"/>
<stop offset="1" stop-color="#520000"/>
</linearGradient>
</defs>
</svg>
