<svg width="141" height="43" viewBox="0 0 141 43" fill="none" xmlns="http://www.w3.org/2000/svg">
<rect width="141" height="43" rx="21.5" fill="url(#paint0_linear_2_140)"/>
<path d="M21.4166 27V15.24H23.6886V27H21.4166ZM28.5526 27L24.9686 21.912H27.5126L31.2086 27H28.5526ZM23.0166 23.096V21.256H25.9926C26.4086 21.256 26.7659 21.1707 27.0646 21C27.3739 20.8293 27.6139 20.5893 27.7846 20.28C27.9552 19.9707 28.0406 19.6187 28.0406 19.224C28.0406 18.8187 27.9552 18.4613 27.7846 18.152C27.6139 17.8427 27.3739 17.6027 27.0646 17.432C26.7659 17.2613 26.4086 17.176 25.9926 17.176H23.0166V15.24H25.7526C26.6912 15.24 27.5019 15.3787 28.1846 15.656C28.8779 15.9333 29.4112 16.3547 29.7846 16.92C30.1579 17.4853 30.3446 18.1947 30.3446 19.048V19.304C30.3446 20.168 30.1526 20.8773 29.7686 21.432C29.3952 21.9867 28.8672 22.4027 28.1846 22.68C27.5019 22.9573 26.6912 23.096 25.7526 23.096H23.0166ZM36.4879 27.304C35.7413 27.304 35.0853 27.176 34.5199 26.92C33.9653 26.664 33.5013 26.3227 33.1279 25.896C32.7653 25.4587 32.4879 24.9733 32.2959 24.44C32.1146 23.9067 32.0239 23.3627 32.0239 22.808V22.504C32.0239 21.928 32.1146 21.3733 32.2959 20.84C32.4879 20.296 32.7653 19.816 33.1279 19.4C33.5013 18.9733 33.9599 18.6373 34.5039 18.392C35.0479 18.136 35.6773 18.008 36.3919 18.008C37.3306 18.008 38.1146 18.216 38.7439 18.632C39.3839 19.0373 39.8639 19.576 40.1839 20.248C40.5039 20.9093 40.6639 21.624 40.6639 22.392V23.192H32.9679V21.832H39.2719L38.5839 22.504C38.5839 21.9493 38.5039 21.4747 38.3439 21.08C38.1839 20.6853 37.9386 20.3813 37.6079 20.168C37.2879 19.9547 36.8826 19.848 36.3919 19.848C35.9013 19.848 35.4853 19.96 35.1439 20.184C34.8026 20.408 34.5413 20.7333 34.3599 21.16C34.1893 21.576 34.1039 22.0773 34.1039 22.664C34.1039 23.208 34.1893 23.6933 34.3599 24.12C34.5306 24.536 34.7919 24.8667 35.1439 25.112C35.4959 25.3467 35.9439 25.464 36.4879 25.464C37.0319 25.464 37.4746 25.3573 37.8159 25.144C38.1573 24.92 38.3759 24.648 38.4719 24.328H40.5199C40.3919 24.9253 40.1466 25.448 39.7839 25.896C39.4213 26.344 38.9573 26.6907 38.3919 26.936C37.8373 27.1813 37.2026 27.304 36.4879 27.304ZM48.9538 30.2V24.424L49.6098 23.4C49.5778 24.232 49.4071 24.9413 49.0978 25.528C48.7885 26.104 48.3725 26.5413 47.8498 26.84C47.3271 27.1387 46.7245 27.288 46.0418 27.288C45.4231 27.288 44.8631 27.176 44.3618 26.952C43.8605 26.7173 43.4285 26.3973 43.0658 25.992C42.7138 25.576 42.4365 25.1013 42.2338 24.568C42.0418 24.024 41.9458 23.4373 41.9458 22.808V22.472C41.9458 21.8533 42.0471 21.2773 42.2498 20.744C42.4525 20.2 42.7351 19.7307 43.0978 19.336C43.4711 18.9307 43.9085 18.616 44.4098 18.392C44.9218 18.1573 45.4925 18.04 46.1218 18.04C46.8471 18.04 47.4765 18.1947 48.0098 18.504C48.5431 18.8133 48.9591 19.2667 49.2578 19.864C49.5671 20.4507 49.7378 21.1707 49.7698 22.024H49.4178V18.312H51.1778V30.2H48.9538ZM46.6178 25.384C47.0551 25.384 47.4551 25.288 47.8178 25.096C48.1805 24.8933 48.4685 24.6053 48.6818 24.232C48.9058 23.848 49.0178 23.4 49.0178 22.888V22.248C49.0178 21.736 48.9058 21.3093 48.6818 20.968C48.4578 20.616 48.1645 20.3493 47.8018 20.168C47.4391 19.976 47.0445 19.88 46.6178 19.88C46.1378 19.88 45.7111 19.9973 45.3378 20.232C44.9751 20.456 44.6871 20.7813 44.4738 21.208C44.2711 21.624 44.1698 22.104 44.1698 22.648C44.1698 23.192 44.2765 23.672 44.4898 24.088C44.7031 24.4933 44.9911 24.8133 45.3538 25.048C45.7271 25.272 46.1485 25.384 46.6178 25.384ZM56.6693 27.272C55.6666 27.272 54.888 26.9413 54.3333 26.28C53.7893 25.6187 53.5173 24.6373 53.5173 23.336V18.296H55.7413V23.528C55.7413 24.0613 55.8906 24.488 56.1893 24.808C56.488 25.1173 56.8933 25.272 57.4053 25.272C57.9173 25.272 58.3333 25.1067 58.6533 24.776C58.984 24.4453 59.1493 23.9973 59.1493 23.432V18.296H61.3733V27H59.6133V23.304H59.7893C59.7893 24.1787 59.6773 24.9093 59.4533 25.496C59.2293 26.0827 58.8933 26.5253 58.4453 26.824C57.9973 27.1227 57.4373 27.272 56.7653 27.272H56.6693ZM67.8161 27.304C67.0694 27.304 66.4134 27.176 65.8481 26.92C65.2934 26.664 64.8294 26.3227 64.4561 25.896C64.0934 25.4587 63.8161 24.9733 63.6241 24.44C63.4427 23.9067 63.3521 23.3627 63.3521 22.808V22.504C63.3521 21.928 63.4427 21.3733 63.6241 20.84C63.8161 20.296 64.0934 19.816 64.4561 19.4C64.8294 18.9733 65.2881 18.6373 65.8321 18.392C66.3761 18.136 67.0054 18.008 67.7201 18.008C68.6587 18.008 69.4427 18.216 70.0721 18.632C70.7121 19.0373 71.1921 19.576 71.5121 20.248C71.8321 20.9093 71.9921 21.624 71.9921 22.392V23.192H64.2961V21.832H70.6001L69.9121 22.504C69.9121 21.9493 69.8321 21.4747 69.6721 21.08C69.5121 20.6853 69.2667 20.3813 68.9361 20.168C68.6161 19.9547 68.2107 19.848 67.7201 19.848C67.2294 19.848 66.8134 19.96 66.4721 20.184C66.1307 20.408 65.8694 20.7333 65.6881 21.16C65.5174 21.576 65.4321 22.0773 65.4321 22.664C65.4321 23.208 65.5174 23.6933 65.6881 24.12C65.8587 24.536 66.1201 24.8667 66.4721 25.112C66.8241 25.3467 67.2721 25.464 67.8161 25.464C68.3601 25.464 68.8027 25.3573 69.1441 25.144C69.4854 24.92 69.7041 24.648 69.8001 24.328H71.8481C71.7201 24.9253 71.4747 25.448 71.1121 25.896C70.7494 26.344 70.2854 26.6907 69.7201 26.936C69.1654 27.1813 68.5307 27.304 67.8161 27.304ZM77.0019 27.272C75.8073 27.272 74.8686 27.0213 74.1859 26.52C73.5139 26.008 73.1619 25.304 73.1299 24.408H75.1299C75.1619 24.7067 75.3273 24.9787 75.6259 25.224C75.9246 25.4693 76.3939 25.592 77.0339 25.592C77.5673 25.592 77.9886 25.496 78.2979 25.304C78.6179 25.112 78.7779 24.8507 78.7779 24.52C78.7779 24.232 78.6553 24.0027 78.4099 23.832C78.1753 23.6613 77.7699 23.5493 77.1939 23.496L76.4259 23.416C75.4553 23.3093 74.7086 23.032 74.1859 22.584C73.6633 22.136 73.4019 21.5387 73.4019 20.792C73.4019 20.1947 73.5513 19.6933 73.8499 19.288C74.1486 18.8827 74.5593 18.5787 75.0819 18.376C75.6153 18.1627 76.2233 18.056 76.9059 18.056C77.9726 18.056 78.8366 18.2907 79.4979 18.76C80.1593 19.2293 80.5059 19.9173 80.5379 20.824H78.5379C78.5166 20.5253 78.3673 20.2693 78.0899 20.056C77.8126 19.8427 77.4126 19.736 76.8899 19.736C76.4206 19.736 76.0579 19.8267 75.8019 20.008C75.5459 20.1893 75.4179 20.424 75.4179 20.712C75.4179 20.9893 75.5193 21.2027 75.7219 21.352C75.9353 21.5013 76.2766 21.6027 76.7459 21.656L77.5139 21.736C78.5379 21.8427 79.3379 22.1253 79.9139 22.584C80.5006 23.0427 80.7939 23.6613 80.7939 24.44C80.7939 25.016 80.6339 25.5173 80.3139 25.944C80.0046 26.36 79.5673 26.6853 79.0019 26.92C78.4366 27.1547 77.7699 27.272 77.0019 27.272ZM86.4072 27.112C85.6072 27.112 84.9459 27.0107 84.4232 26.808C83.9112 26.5947 83.5272 26.2427 83.2712 25.752C83.0152 25.2507 82.8872 24.5787 82.8872 23.736L82.9032 15.864H84.9832L84.9672 23.88C84.9672 24.3067 85.0792 24.6373 85.3032 24.872C85.5379 25.096 85.8685 25.208 86.2952 25.208H87.6552V27.112H86.4072ZM81.5112 19.944V18.312H87.6552V19.944H81.5112ZM97.1349 27.304C96.1003 27.304 95.2256 27.1387 94.5109 26.808C93.8069 26.4773 93.2683 26.024 92.8949 25.448C92.5216 24.8613 92.3349 24.2 92.3349 23.464H94.5589C94.5589 23.7733 94.6443 24.0773 94.8149 24.376C94.9856 24.664 95.2576 24.8987 95.6309 25.08C96.0149 25.2613 96.5163 25.352 97.1349 25.352C97.6896 25.352 98.1536 25.272 98.5269 25.112C98.9003 24.952 99.1776 24.744 99.3589 24.488C99.5403 24.2213 99.6309 23.9227 99.6309 23.592C99.6309 23.176 99.4549 22.8453 99.1029 22.6C98.7509 22.344 98.2069 22.184 97.4709 22.12L96.4469 22.04C95.3269 21.944 94.4309 21.5973 93.7589 21C93.0976 20.392 92.7669 19.592 92.7669 18.6C92.7669 17.8533 92.9429 17.2133 93.2949 16.68C93.6469 16.136 94.1376 15.72 94.7669 15.432C95.4069 15.1333 96.1536 14.984 97.0069 14.984C97.8923 14.984 98.6549 15.1387 99.2949 15.448C99.9349 15.7573 100.431 16.1947 100.783 16.76C101.135 17.3147 101.311 17.9707 101.311 18.728H99.0869C99.0869 18.408 99.0069 18.1147 98.8469 17.848C98.6976 17.5707 98.4683 17.352 98.1589 17.192C97.8603 17.0213 97.4763 16.936 97.0069 16.936C96.5589 16.936 96.1856 17.0107 95.8869 17.16C95.5883 17.3093 95.3643 17.512 95.2149 17.768C95.0656 18.024 94.9909 18.3013 94.9909 18.6C94.9909 18.9627 95.1243 19.2827 95.3909 19.56C95.6576 19.8267 96.0789 19.9813 96.6549 20.024L97.6789 20.12C98.5109 20.184 99.2416 20.36 99.8709 20.648C100.5 20.936 100.986 21.3253 101.327 21.816C101.679 22.3067 101.855 22.8987 101.855 23.592C101.855 24.328 101.663 24.9787 101.279 25.544C100.895 26.0987 100.346 26.5307 99.6309 26.84C98.9269 27.1493 98.0949 27.304 97.1349 27.304ZM103.964 27V15.32H106.236V27H103.964ZM114.591 27.304C113.588 27.304 112.703 27.1387 111.935 26.808C111.178 26.4667 110.538 26.0133 110.015 25.448C109.503 24.872 109.114 24.2267 108.847 23.512C108.591 22.7867 108.463 22.0347 108.463 21.256V20.904C108.463 20.168 108.591 19.448 108.847 18.744C109.103 18.04 109.476 17.4053 109.967 16.84C110.468 16.2747 111.082 15.8267 111.807 15.496C112.543 15.1547 113.386 14.984 114.335 14.984C115.359 14.984 116.266 15.176 117.055 15.56C117.844 15.9333 118.479 16.4613 118.959 17.144C119.439 17.816 119.722 18.6 119.807 19.496H117.519C117.444 18.9947 117.258 18.568 116.959 18.216C116.66 17.8533 116.282 17.576 115.823 17.384C115.375 17.192 114.879 17.096 114.335 17.096C113.791 17.096 113.295 17.192 112.847 17.384C112.41 17.576 112.036 17.848 111.727 18.2C111.418 18.552 111.178 18.9733 111.007 19.464C110.847 19.9547 110.767 20.4987 110.767 21.096C110.767 21.7467 110.858 22.328 111.039 22.84C111.22 23.352 111.476 23.7893 111.807 24.152C112.138 24.504 112.538 24.776 113.007 24.968C113.476 25.1493 114.004 25.24 114.591 25.24C115.37 25.24 116.052 25.08 116.639 24.76C117.226 24.4293 117.652 24.0027 117.919 23.48L117.519 25.32V22.312H119.615V24.904C119.114 25.6613 118.431 26.2533 117.567 26.68C116.703 27.096 115.711 27.304 114.591 27.304ZM114.223 22.76V21.064H120.591V22.76H114.223Z" fill="white"/>
<defs>
<linearGradient id="paint0_linear_2_140" x1="38.8023" y1="-3.18519" x2="90.3435" y2="67.562" gradientUnits="userSpaceOnUse">
<stop stop-color="#AB1818"/>
<stop offset="1" stop-color="#520000"/>
</linearGradient>
</defs>
</svg>
